<svg xmlns="http://www.w3.org/2000/svg" xmlns:xlink="http://www.w3.org/1999/xlink" width="787" height="420" viewBox="0 0 787 420">
  <defs>
    <clipPath id="clip-path">
      <rect id="Rectangle_104" data-name="Rectangle 104" width="207.523" height="207.502" fill="none"/>
    </clipPath>
  </defs>
  <g id="Group_4422" data-name="Group 4422" transform="translate(-681 -2504)">
    <path id="Path_6129" data-name="Path 6129" d="M15,0H772a15,15,0,0,1,15,15V405a15,15,0,0,1-15,15H15A15,15,0,0,1,0,405V15A15,15,0,0,1,15,0Z" transform="translate(681 2504)" fill="#183261"/>
    <path id="Path_6130" data-name="Path 6130" d="M21.448,35.568q6.5,0,10.024,3.864a13.341,13.341,0,0,1,3.472,9.128q0,6.72-4.592,10.472A17.386,17.386,0,0,1,18.76,62.9,17.223,17.223,0,0,1,8.512,59.984Q1.68,55.168,1.68,43.184q0-10.752,4.4-16.352t12.8-5.6q6.5,0,10.612,3.024a12.418,12.418,0,0,1,4.956,8.512H24.36q-.84-3.7-5.376-3.7A5.933,5.933,0,0,0,13.832,31.4q-1.68,2.324-2.016,8.036Q15.12,35.568,21.448,35.568ZM14.5,52.816A5.755,5.755,0,0,0,18.76,54.44a5.755,5.755,0,0,0,4.256-1.624,5.388,5.388,0,0,0,1.568-3.976,5.458,5.458,0,0,0-1.568-4.032A5.751,5.751,0,0,0,18.76,43.24,5.751,5.751,0,0,0,14.5,44.808a5.458,5.458,0,0,0-1.568,4.032A5.388,5.388,0,0,0,14.5,52.816ZM58.912,35.568q6.5,0,10.024,3.864a13.341,13.341,0,0,1,3.472,9.128q0,6.72-4.592,10.472A17.386,17.386,0,0,1,56.224,62.9a17.223,17.223,0,0,1-10.248-2.912q-6.832-4.816-6.832-16.8,0-10.752,4.4-16.352t12.8-5.6q6.5,0,10.612,3.024A12.418,12.418,0,0,1,71.9,32.768H61.824q-.84-3.7-5.376-3.7A5.933,5.933,0,0,0,51.3,31.4q-1.68,2.324-2.016,8.036Q52.584,35.568,58.912,35.568ZM51.968,52.816a6.389,6.389,0,0,0,8.512,0,5.388,5.388,0,0,0,1.568-3.976,5.458,5.458,0,0,0-1.568-4.032,5.751,5.751,0,0,0-4.256-1.568,5.751,5.751,0,0,0-4.256,1.568A5.458,5.458,0,0,0,50.4,48.84,5.388,5.388,0,0,0,51.968,52.816Zm34.48-5.966q0,6.45-5.46,6.45t-5.46-6.45q0-6.48,5.46-6.48T86.448,46.85ZM84.588,62h-3.24l11.4-21.36h3.24Zm-3.6-11.73a1.319,1.319,0,0,0,1.26-.75,6.361,6.361,0,0,0,.39-2.67,6.463,6.463,0,0,0-.39-2.7,1.319,1.319,0,0,0-1.26-.75,1.343,1.343,0,0,0-1.29.75,6.463,6.463,0,0,0-.39,2.7,6.361,6.361,0,0,0,.39,2.67A1.343,1.343,0,0,0,80.988,50.27Zm20.82,5.55q0,6.45-5.46,6.45t-5.46-6.45q0-6.48,5.46-6.48T101.808,55.82Zm-5.46,3.42a1.319,1.319,0,0,0,1.26-.75A6.361,6.361,0,0,0,98,55.82a6.463,6.463,0,0,0-.39-2.7,1.319,1.319,0,0,0-1.26-.75,1.343,1.343,0,0,0-1.29.75,6.463,6.463,0,0,0-.39,2.7,6.361,6.361,0,0,0,.39,2.67A1.343,1.343,0,0,0,96.348,59.24Z" transform="translate(1190.016 2566.002)" fill="#46acce"/>
    <path id="Path_6131" data-name="Path 6131" d="M9.225,13.04a4.178,4.178,0,0,1-1.1,3.09,4.2,4.2,0,0,1-3.105,1.1,4.2,4.2,0,0,1-3.105-1.1,4.178,4.178,0,0,1-1.1-3.09V6.32h1.26v6.72q0,3.045,2.94,3.045t2.94-3.045V6.32h1.26Zm4.755,4.14q-3.105,0-3.285-2.64H11.91a1.758,1.758,0,0,0,.577,1.238,2.435,2.435,0,0,0,1.493.368q1.86,0,1.86-1.2a.911.911,0,0,0-.382-.8,3.869,3.869,0,0,0-1.387-.465l-.72-.135q-2.415-.45-2.415-2.28a1.922,1.922,0,0,1,.757-1.6,3.264,3.264,0,0,1,2.063-.593q3.075,0,3.15,2.565H15.7a1.488,1.488,0,0,0-.51-1.185,2.425,2.425,0,0,0-1.44-.345,2.045,2.045,0,0,0-1.2.3.973.973,0,0,0-.42.84.876.876,0,0,0,.36.765,3.414,3.414,0,0,0,1.2.435l.69.135a4.64,4.64,0,0,1,2.048.81,1.818,1.818,0,0,1,.622,1.47,2,2,0,0,1-.817,1.7A3.714,3.714,0,0,1,13.98,17.18Zm11.325-4.05v.42h-5.88a2.952,2.952,0,0,0,.7,1.9,2.225,2.225,0,0,0,1.68.637,1.939,1.939,0,0,0,2.055-1.44H25.11A3.435,3.435,0,0,1,23.94,16.5a3.354,3.354,0,0,1-2.16.683,3.333,3.333,0,0,1-2.595-1.1A4.2,4.2,0,0,1,18.18,13.13a4.252,4.252,0,0,1,.99-2.94,3.266,3.266,0,0,1,2.58-1.11,3.188,3.188,0,0,1,2.61,1.155A4.421,4.421,0,0,1,25.305,13.13ZM21.75,10.175a2.106,2.106,0,0,0-1.545.593,2.85,2.85,0,0,0-.75,1.7h4.56a2.681,2.681,0,0,0-.69-1.658A2.063,2.063,0,0,0,21.75,10.175Zm14.76,5.85h.435V17a4.465,4.465,0,0,1-.66.045q-1.215,0-1.305-1.11a2.792,2.792,0,0,1-2.52,1.245,3.084,3.084,0,0,1-2-.593,2.035,2.035,0,0,1-.727-1.672q0-2.1,2.865-2.4l1.11-.12q1.215-.135,1.215-1.065a1.066,1.066,0,0,0-.4-.93,2.379,2.379,0,0,0-1.342-.285,2.419,2.419,0,0,0-1.448.337,1.56,1.56,0,0,0-.5,1.193h-1.2q.15-2.565,3.15-2.565,2.91,0,2.91,2.25v4.32Q36.09,16.025,36.51,16.025Zm-3.99.135a2.585,2.585,0,0,0,1.68-.585,1.963,1.963,0,0,0,.72-1.635v-.915a2.037,2.037,0,0,1-1.02.33l-1.125.135a2.825,2.825,0,0,0-1.388.45,1.14,1.14,0,0,0-.413.945,1.174,1.174,0,0,0,.39.938A1.721,1.721,0,0,0,32.52,16.16Zm12.135,1.02a3.311,3.311,0,0,1-2.6-1.11,4.252,4.252,0,0,1-.99-2.94,4.24,4.24,0,0,1,.99-2.955,3.276,3.276,0,0,1,2.6-1.095,3.382,3.382,0,0,1,2.265.75,3.146,3.146,0,0,1,1.065,2.055H46.74a1.943,1.943,0,0,0-.713-1.275,2.167,2.167,0,0,0-1.372-.45,2.074,2.074,0,0,0-1.695.773,3.394,3.394,0,0,0-.63,2.2,3.372,3.372,0,0,0,.638,2.19,2.071,2.071,0,0,0,1.688.78,2.151,2.151,0,0,0,1.38-.465,1.989,1.989,0,0,0,.72-1.29h1.23a3.223,3.223,0,0,1-1.1,2.07A3.339,3.339,0,0,1,44.655,17.18Zm10.98-1.11a3.839,3.839,0,0,1-5.4,0,4.07,4.07,0,0,1-1.05-2.94,4.07,4.07,0,0,1,1.05-2.94,3.839,3.839,0,0,1,5.4,0,4.07,4.07,0,0,1,1.05,2.94A4.07,4.07,0,0,1,55.635,16.07Zm-4.515-.765a2.469,2.469,0,0,0,3.63,0,3.218,3.218,0,0,0,.675-2.175,3.242,3.242,0,0,0-.675-2.19,2.5,2.5,0,0,0-3.63,0,3.242,3.242,0,0,0-.675,2.19A3.218,3.218,0,0,0,51.12,15.305ZM66.555,9.08a2.584,2.584,0,0,1,1.957.727,2.689,2.689,0,0,1,.7,1.943V17h-1.2V11.87q0-1.71-1.62-1.71a1.761,1.761,0,0,0-1.418.683,2.952,2.952,0,0,0-.562,1.927V17h-1.2V11.87q0-1.71-1.62-1.71a1.767,1.767,0,0,0-1.41.683,2.925,2.925,0,0,0-.57,1.927V17h-1.2V9.26h1.14V10.4a2.44,2.44,0,0,1,2.235-1.32,2.378,2.378,0,0,1,2.385,1.455A2.583,2.583,0,0,1,66.555,9.08Zm8.55,0a3.368,3.368,0,0,1,2.625,1.095,4.316,4.316,0,0,1,.975,2.955,4.294,4.294,0,0,1-.975,2.94,3.346,3.346,0,0,1-2.625,1.11,3.018,3.018,0,0,1-2.6-1.29v4.05h-1.2V9.26h1.14v1.2A3.012,3.012,0,0,1,75.105,9.08Zm-.15,7.02a2.238,2.238,0,0,0,1.808-.818,3.345,3.345,0,0,0,.683-2.213,3.163,3.163,0,0,0-.668-2.137,2.519,2.519,0,0,0-3.637.007,3.242,3.242,0,0,0-.675,2.19,3.218,3.218,0,0,0,.675,2.175A2.259,2.259,0,0,0,74.955,16.1Zm10.35-2.46V9.26h1.2V17h-1.14V15.845a3.012,3.012,0,0,1-4.44.63,2.645,2.645,0,0,1-.72-1.98V9.26h1.2v5.115a1.545,1.545,0,0,0,1.77,1.725,2.064,2.064,0,0,0,1.485-.63A2.444,2.444,0,0,0,85.305,13.64ZM92,9.26v1.05H90.4v5.025q0,.66.885.66H92V17q-.5.045-.855.045-1.935,0-1.935-1.605V10.31H87.93V9.26h1.275V7.07h1.2V9.26Zm8.175,3.87v.42H94.29a2.952,2.952,0,0,0,.705,1.9,2.225,2.225,0,0,0,1.68.637,1.939,1.939,0,0,0,2.055-1.44h1.245A3.435,3.435,0,0,1,98.8,16.5a3.681,3.681,0,0,1-4.755-.413,4.2,4.2,0,0,1-1-2.955,4.252,4.252,0,0,1,.99-2.94,3.266,3.266,0,0,1,2.58-1.11,3.188,3.188,0,0,1,2.61,1.155A4.421,4.421,0,0,1,100.17,13.13Zm-3.555-2.955a2.106,2.106,0,0,0-1.545.593,2.85,2.85,0,0,0-.75,1.7h4.56a2.681,2.681,0,0,0-.69-1.658A2.063,2.063,0,0,0,96.615,10.175Zm8.91-1.035a3.489,3.489,0,0,1,.4.015V10.31h-.3a2.718,2.718,0,0,0-1.868.593,2.138,2.138,0,0,0-.668,1.688V17h-1.2V9.26h1.14v1.365A2.618,2.618,0,0,1,105.525,9.14Zm8.52.12v1.05h-1.59v5.025q0,.66.885.66h.705V17q-.5.045-.855.045-1.935,0-1.935-1.605V10.31H109.98V9.26h1.275V7.07h1.2V9.26Zm7.5,6.81a3.839,3.839,0,0,1-5.4,0,4.07,4.07,0,0,1-1.05-2.94,4.07,4.07,0,0,1,1.05-2.94,3.839,3.839,0,0,1,5.4,0,4.07,4.07,0,0,1,1.05,2.94A4.07,4.07,0,0,1,121.545,16.07Zm-4.515-.765a2.469,2.469,0,0,0,3.63,0,3.218,3.218,0,0,0,.675-2.175,3.242,3.242,0,0,0-.675-2.19,2.5,2.5,0,0,0-3.63,0,3.242,3.242,0,0,0-.675,2.19A3.218,3.218,0,0,0,117.03,15.305Zm16.77.72h.435V17a4.465,4.465,0,0,1-.66.045q-1.215,0-1.3-1.11a2.792,2.792,0,0,1-2.52,1.245,3.084,3.084,0,0,1-2-.593,2.035,2.035,0,0,1-.728-1.672q0-2.1,2.865-2.4l1.11-.12q1.215-.135,1.215-1.065a1.066,1.066,0,0,0-.4-.93,2.379,2.379,0,0,0-1.342-.285,2.419,2.419,0,0,0-1.447.337,1.56,1.56,0,0,0-.5,1.193h-1.2q.15-2.565,3.15-2.565,2.91,0,2.91,2.25v4.32Q133.38,16.025,133.8,16.025Zm-3.99.135a2.585,2.585,0,0,0,1.68-.585,1.963,1.963,0,0,0,.72-1.635v-.915a2.037,2.037,0,0,1-1.02.33l-1.125.135a2.825,2.825,0,0,0-1.387.45,1.14,1.14,0,0,0-.413.945,1.174,1.174,0,0,0,.39.938A1.721,1.721,0,0,0,129.81,16.16Zm8.91,1.02a3.311,3.311,0,0,1-2.6-1.11,4.252,4.252,0,0,1-.99-2.94,4.24,4.24,0,0,1,.99-2.955,3.276,3.276,0,0,1,2.6-1.095,3.382,3.382,0,0,1,2.265.75,3.146,3.146,0,0,1,1.065,2.055H140.8a1.943,1.943,0,0,0-.712-1.275,2.167,2.167,0,0,0-1.372-.45,2.074,2.074,0,0,0-1.7.773,3.394,3.394,0,0,0-.63,2.2,3.372,3.372,0,0,0,.637,2.19,2.071,2.071,0,0,0,1.688.78,2.151,2.151,0,0,0,1.38-.465,1.989,1.989,0,0,0,.72-1.29h1.23a3.223,3.223,0,0,1-1.1,2.07A3.339,3.339,0,0,1,138.72,17.18Zm8.115,0a3.311,3.311,0,0,1-2.6-1.11,4.252,4.252,0,0,1-.99-2.94,4.24,4.24,0,0,1,.99-2.955,3.276,3.276,0,0,1,2.6-1.095,3.382,3.382,0,0,1,2.265.75,3.146,3.146,0,0,1,1.065,2.055H148.92a1.943,1.943,0,0,0-.713-1.275,2.167,2.167,0,0,0-1.372-.45,2.074,2.074,0,0,0-1.7.773,3.394,3.394,0,0,0-.63,2.2,3.372,3.372,0,0,0,.637,2.19,2.071,2.071,0,0,0,1.688.78,2.151,2.151,0,0,0,1.38-.465,1.989,1.989,0,0,0,.72-1.29h1.23a3.223,3.223,0,0,1-1.1,2.07A3.339,3.339,0,0,1,146.835,17.18Zm11.655-4.05v.42h-5.88a2.952,2.952,0,0,0,.705,1.9,2.225,2.225,0,0,0,1.68.637,1.939,1.939,0,0,0,2.055-1.44h1.245a3.435,3.435,0,0,1-1.17,1.852,3.681,3.681,0,0,1-4.755-.413,4.2,4.2,0,0,1-1.005-2.955,4.252,4.252,0,0,1,.99-2.94,3.266,3.266,0,0,1,2.58-1.11,3.188,3.188,0,0,1,2.61,1.155A4.422,4.422,0,0,1,158.49,13.13Zm-3.555-2.955a2.105,2.105,0,0,0-1.545.593,2.85,2.85,0,0,0-.75,1.7h4.56a2.681,2.681,0,0,0-.69-1.658A2.063,2.063,0,0,0,154.935,10.175Zm7.935,7.005q-3.105,0-3.285-2.64H160.8a1.758,1.758,0,0,0,.577,1.238,2.435,2.435,0,0,0,1.493.368q1.86,0,1.86-1.2a.911.911,0,0,0-.383-.8,3.868,3.868,0,0,0-1.387-.465l-.72-.135q-2.415-.45-2.415-2.28a1.922,1.922,0,0,1,.757-1.6,3.264,3.264,0,0,1,2.063-.593q3.075,0,3.15,2.565h-1.2a1.488,1.488,0,0,0-.51-1.185,2.425,2.425,0,0,0-1.44-.345,2.045,2.045,0,0,0-1.2.3.973.973,0,0,0-.42.84.876.876,0,0,0,.36.765,3.414,3.414,0,0,0,1.2.435l.69.135a4.64,4.64,0,0,1,2.048.81,1.818,1.818,0,0,1,.622,1.47,2,2,0,0,1-.818,1.7A3.714,3.714,0,0,1,162.87,17.18Zm7.455,0q-3.105,0-3.285-2.64h1.215a1.758,1.758,0,0,0,.577,1.238,2.435,2.435,0,0,0,1.493.368q1.86,0,1.86-1.2a.911.911,0,0,0-.383-.8,3.868,3.868,0,0,0-1.387-.465l-.72-.135q-2.415-.45-2.415-2.28a1.922,1.922,0,0,1,.757-1.6A3.264,3.264,0,0,1,170.1,9.08q3.075,0,3.15,2.565h-1.2a1.488,1.488,0,0,0-.51-1.185,2.425,2.425,0,0,0-1.44-.345,2.045,2.045,0,0,0-1.2.3.973.973,0,0,0-.42.84.876.876,0,0,0,.36.765,3.414,3.414,0,0,0,1.2.435l.69.135a4.64,4.64,0,0,1,2.048.81,1.818,1.818,0,0,1,.622,1.47,2,2,0,0,1-.818,1.7A3.714,3.714,0,0,1,170.325,17.18ZM181.44,9.26v1.05h-1.59v5.025q0,.66.885.66h.7V17q-.5.045-.855.045-1.935,0-1.935-1.605V10.31h-1.275V9.26h1.275V7.07h1.2V9.26Zm5.145-.18a2.751,2.751,0,0,1,2.01.7,2.645,2.645,0,0,1,.72,1.98V17h-1.2V11.885a1.545,1.545,0,0,0-1.77-1.725,2.064,2.064,0,0,0-1.485.63,2.444,2.444,0,0,0-.645,1.83V17h-1.2V6.32h1.2v4.005A2.767,2.767,0,0,1,186.585,9.08Zm11.58,4.05v.42h-5.88a2.952,2.952,0,0,0,.705,1.9,2.225,2.225,0,0,0,1.68.637,1.939,1.939,0,0,0,2.055-1.44h1.245A3.435,3.435,0,0,1,196.8,16.5a3.681,3.681,0,0,1-4.755-.413,4.2,4.2,0,0,1-1.005-2.955,4.252,4.252,0,0,1,.99-2.94,3.266,3.266,0,0,1,2.58-1.11,3.188,3.188,0,0,1,2.61,1.155A4.422,4.422,0,0,1,198.165,13.13Zm-3.555-2.955a2.105,2.105,0,0,0-1.545.593,2.85,2.85,0,0,0-.75,1.7h4.56a2.681,2.681,0,0,0-.69-1.658A2.063,2.063,0,0,0,194.61,10.175ZM3.63,37.18q-3.105,0-3.285-2.64H1.56a1.758,1.758,0,0,0,.577,1.237,2.435,2.435,0,0,0,1.492.368q1.86,0,1.86-1.2a.911.911,0,0,0-.382-.795,3.869,3.869,0,0,0-1.388-.465L3,33.55Q.585,33.1.585,31.27a1.922,1.922,0,0,1,.758-1.6A3.264,3.264,0,0,1,3.4,29.08q3.075,0,3.15,2.565h-1.2a1.488,1.488,0,0,0-.51-1.185,2.425,2.425,0,0,0-1.44-.345,2.045,2.045,0,0,0-1.2.3.973.973,0,0,0-.42.84.876.876,0,0,0,.36.765,3.414,3.414,0,0,0,1.2.435l.69.135a4.64,4.64,0,0,1,2.048.81A1.818,1.818,0,0,1,6.7,34.87a2,2,0,0,1-.817,1.7A3.714,3.714,0,0,1,3.63,37.18Zm11.325-4.05v.42H9.075a2.952,2.952,0,0,0,.7,1.9,2.225,2.225,0,0,0,1.68.638,1.939,1.939,0,0,0,2.055-1.44H14.76A3.435,3.435,0,0,1,13.59,36.5a3.354,3.354,0,0,1-2.16.682,3.333,3.333,0,0,1-2.6-1.1A4.2,4.2,0,0,1,7.83,33.13a4.252,4.252,0,0,1,.99-2.94,3.266,3.266,0,0,1,2.58-1.11,3.188,3.188,0,0,1,2.61,1.155A4.421,4.421,0,0,1,14.955,33.13ZM11.4,30.175a2.106,2.106,0,0,0-1.545.593,2.85,2.85,0,0,0-.75,1.7h4.56a2.681,2.681,0,0,0-.69-1.658A2.063,2.063,0,0,0,11.4,30.175Zm8.91-1.035a3.489,3.489,0,0,1,.405.015V30.31h-.3a2.718,2.718,0,0,0-1.867.593,2.138,2.138,0,0,0-.668,1.688V37h-1.2V29.26h1.14v1.365A2.618,2.618,0,0,1,20.31,29.14Zm6,3.555,1.275-3.435h1.29L25.83,37H24.57l-3.03-7.74h1.3l1.275,3.45q.945,2.535,1.095,3Q25.485,34.915,26.31,32.695Zm4.995-4.6H30.03V26.62h1.275ZM31.275,37h-1.2V29.26h1.2Zm5.31.18a3.311,3.311,0,0,1-2.6-1.11A4.252,4.252,0,0,1,33,33.13a4.24,4.24,0,0,1,.99-2.955,3.276,3.276,0,0,1,2.6-1.095,3.382,3.382,0,0,1,2.265.75,3.146,3.146,0,0,1,1.065,2.055H38.67a1.943,1.943,0,0,0-.713-1.275,2.167,2.167,0,0,0-1.372-.45,2.074,2.074,0,0,0-1.695.772,3.394,3.394,0,0,0-.63,2.2,3.372,3.372,0,0,0,.638,2.19,2.071,2.071,0,0,0,1.688.78,2.151,2.151,0,0,0,1.38-.465,1.989,1.989,0,0,0,.72-1.29h1.23a3.223,3.223,0,0,1-1.1,2.07A3.339,3.339,0,0,1,36.585,37.18ZM48.24,33.13v.42H42.36a2.952,2.952,0,0,0,.7,1.9,2.225,2.225,0,0,0,1.68.638,1.939,1.939,0,0,0,2.055-1.44h1.245a3.435,3.435,0,0,1-1.17,1.853,3.681,3.681,0,0,1-4.755-.413,4.2,4.2,0,0,1-1-2.955,4.252,4.252,0,0,1,.99-2.94,3.266,3.266,0,0,1,2.58-1.11,3.188,3.188,0,0,1,2.61,1.155A4.421,4.421,0,0,1,48.24,33.13Zm-3.555-2.955a2.106,2.106,0,0,0-1.545.593,2.85,2.85,0,0,0-.75,1.7h4.56a2.681,2.681,0,0,0-.69-1.658A2.063,2.063,0,0,0,44.685,30.175ZM56.91,29.08a3.368,3.368,0,0,1,2.625,1.095,4.316,4.316,0,0,1,.975,2.955,4.294,4.294,0,0,1-.975,2.94,3.346,3.346,0,0,1-2.625,1.11,3.018,3.018,0,0,1-2.6-1.29v4.05h-1.2V29.26h1.14v1.2A3.012,3.012,0,0,1,56.91,29.08Zm-.15,7.02a2.238,2.238,0,0,0,1.807-.817,3.345,3.345,0,0,0,.682-2.213,3.163,3.163,0,0,0-.667-2.138,2.519,2.519,0,0,0-3.638.007,3.242,3.242,0,0,0-.675,2.19,3.218,3.218,0,0,0,.675,2.175A2.259,2.259,0,0,0,56.76,36.1Zm6.675.9h-1.2V26.32h1.2Zm8.43-.975H72.3V37a4.466,4.466,0,0,1-.66.045q-1.215,0-1.305-1.11a2.792,2.792,0,0,1-2.52,1.245,3.084,3.084,0,0,1-2-.592,2.035,2.035,0,0,1-.728-1.673q0-2.1,2.865-2.4l1.11-.12q1.215-.135,1.215-1.065a1.066,1.066,0,0,0-.4-.93,2.379,2.379,0,0,0-1.342-.285,2.419,2.419,0,0,0-1.448.337,1.56,1.56,0,0,0-.5,1.193h-1.2q.15-2.565,3.15-2.565,2.91,0,2.91,2.25v4.32Q71.445,36.025,71.865,36.025Zm-3.99.135a2.585,2.585,0,0,0,1.68-.585,1.963,1.963,0,0,0,.72-1.635v-.915a2.037,2.037,0,0,1-1.02.33l-1.125.135a2.825,2.825,0,0,0-1.388.45,1.14,1.14,0,0,0-.412.945,1.174,1.174,0,0,0,.39.938A1.721,1.721,0,0,0,67.875,36.16Zm8.865-6.9v1.05H75.15v5.025q0,.66.885.66h.705V37q-.5.045-.855.045-1.935,0-1.935-1.6V30.31H72.675V29.26H73.95V27.07h1.2v2.19Zm5.1-1.92h-.69q-1.035,0-1.035,1.1v.825h1.65v1.05h-1.65V37h-1.2V30.31H77.64V29.26h1.275v-.8a1.916,1.916,0,0,1,2.16-2.175q.285,0,.765.03Zm7.05,8.73a3.839,3.839,0,0,1-5.4,0,4.07,4.07,0,0,1-1.05-2.94,4.07,4.07,0,0,1,1.05-2.94,3.839,3.839,0,0,1,5.4,0,4.07,4.07,0,0,1,1.05,2.94A4.07,4.07,0,0,1,88.89,36.07Zm-4.515-.765a2.469,2.469,0,0,0,3.63,0,3.218,3.218,0,0,0,.675-2.175A3.242,3.242,0,0,0,88,30.94a2.5,2.5,0,0,0-3.63,0,3.242,3.242,0,0,0-.675,2.19A3.218,3.218,0,0,0,84.375,35.305Zm10.92-6.165a3.489,3.489,0,0,1,.4.015V30.31h-.3a2.718,2.718,0,0,0-1.868.593,2.138,2.138,0,0,0-.668,1.688V37h-1.2V29.26h1.14v1.365A2.618,2.618,0,0,1,95.295,29.14Zm9.975-.06a2.584,2.584,0,0,1,1.958.727,2.689,2.689,0,0,1,.7,1.943V37h-1.2V31.87q0-1.71-1.62-1.71a1.761,1.761,0,0,0-1.417.683,2.952,2.952,0,0,0-.562,1.927V37h-1.2V31.87q0-1.71-1.62-1.71a1.767,1.767,0,0,0-1.41.683,2.925,2.925,0,0,0-.57,1.927V37h-1.2V29.26h1.14V30.4a2.44,2.44,0,0,1,2.235-1.32,2.378,2.378,0,0,1,2.385,1.455A2.583,2.583,0,0,1,105.27,29.08ZM111.315,37H109.8V35.5h1.515Z" transform="translate(1190.016 2634)" fill="#fff"/>
    <g id="Group_3345" data-name="Group 3345" transform="translate(2 -35)">
      <text id="_6_" data-name="6%" transform="translate(1188.016 2711.002)" fill="#f7ee9d" font-size="56" font-family="HelveticaNowDisplay-Black, Helvetica Now Display" font-weight="800" letter-spacing="0.02em"><tspan x="0" y="62">6</tspan><tspan y="62" font-size="30">%</tspan></text>
      <text id="Access_from_mobile_devices." data-name="Access from mobile devices." transform="translate(1188.016 2779.002)" fill="#fff" font-size="15" font-family="HelveticaNowDisplay-Regular, Helvetica Now Display" letter-spacing="0.02em"><tspan x="0" y="17">Access from mobile devices.</tspan></text>
    </g>
    <g id="Group_3324" data-name="Group 3324" transform="translate(-10309.822 -1758.808)">
      <text id="Computer" transform="translate(11027.857 4374.683)" fill="#2ac5e8" font-size="17" font-family="HelveticaNowDisplay-Medium, Helvetica Now Display" font-weight="500" letter-spacing="0.02em"><tspan x="0" y="19">Computer</tspan></text>
      <text id="Mobile_Devices" data-name="Mobile Devices" transform="translate(11256.324 4427.91)" fill="#f7ee9d" font-size="17" font-family="HelveticaNowDisplay-Medium, Helvetica Now Display" font-weight="500" letter-spacing="0.02em"><tspan x="0" y="19">Mobile Devices</tspan></text>
      <text id="Call_Center_Call" data-name="Call Center Call" transform="translate(11255.857 4552.226)" fill="#aed18b" font-size="17" font-family="HelveticaNowDisplay-Medium, Helvetica Now Display" font-weight="500" letter-spacing="0.02em"><tspan x="0" y="19">Call Center Call</tspan></text>
      <g id="Group_3320" data-name="Group 3320" transform="translate(11048.428 4396.621)">
        <g id="Group_3310" data-name="Group 3310" clip-path="url(#clip-path)">
          <path id="Path_1090" data-name="Path 1090" d="M657.445,492.842a89.369,89.369,0,0,1,.753,11.6,88.138,88.138,0,0,1-86.191,88.2v15.539a103.677,103.677,0,0,0,101.727-103.74,105.1,105.1,0,0,0-.783-12.836Z" transform="translate(-466.211 -400.684)" fill="#aed18b"/>
          <path id="Path_1091" data-name="Path 1091" d="M880.68,157.494q1.663,1.5,3.259,3.1A87.971,87.971,0,0,1,908.4,207.342l15.552-1.236a103.523,103.523,0,0,0-29.031-56.5q-1.714-1.713-3.495-3.338Z" transform="translate(-717.793 -119.217)" fill="#f7ee9d"/>
          <path id="Path_1092" data-name="Path 1092" d="M63.37,8.157a103.817,103.817,0,0,0,0,191.208,103.014,103.014,0,0,0,38.357,8.136V191.963a88.251,88.251,0,0,1-32.3-169.5A88.141,88.141,0,0,1,159.8,35.613l10.772-11.247A103.891,103.891,0,0,0,63.37,8.157" fill="#46acce"/>
        </g>
      </g>
    </g>
    <path id="Path_6132" data-name="Path 6132" d="M0,0V341.71" transform="translate(1140.535 2552.5)" fill="none" stroke="#fff" stroke-width="3" opacity="0.106"/>
    <path id="Path_6133" data-name="Path 6133" d="M14.78,14.88a7.5,7.5,0,0,1-1.92,5.36l1.68,1.82-1.4,1.34-1.82-1.96a7.427,7.427,0,0,1-3.64.88,6.828,6.828,0,0,1-5.16-2.04,7.51,7.51,0,0,1-1.96-5.4,7.51,7.51,0,0,1,1.96-5.4A6.828,6.828,0,0,1,7.68,7.44a6.828,6.828,0,0,1,5.16,2.04A7.469,7.469,0,0,1,14.78,14.88Zm-7.1,5.06a4.4,4.4,0,0,0,1.88-.4L7.92,17.76l1.42-1.34,1.7,1.86a5.841,5.841,0,0,0,.94-3.4,5.516,5.516,0,0,0-1.16-3.7A3.913,3.913,0,0,0,7.68,9.82a3.928,3.928,0,0,0-3.12,1.36,5.454,5.454,0,0,0-1.18,3.7,5.454,5.454,0,0,0,1.18,3.7A3.928,3.928,0,0,0,7.68,19.94Zm11.78-4.9H16.52V12.18h2.94Zm0,6.96H16.52V19.14h2.94ZM26.5,7.76h5.44a7.054,7.054,0,0,1,5.28,1.9,7.184,7.184,0,0,1,1.86,5.22,7.114,7.114,0,0,1-1.86,5.2A7.012,7.012,0,0,1,31.94,22H26.5Zm2.7,11.92h2.7a4.2,4.2,0,0,0,3.24-1.23,5.069,5.069,0,0,0,1.14-3.57,5.069,5.069,0,0,0-1.14-3.57,4.2,4.2,0,0,0-3.24-1.23H29.2Zm21.72-2.66v.6H43.2a3.139,3.139,0,0,0,.83,1.99,2.542,2.542,0,0,0,1.85.67,2.351,2.351,0,0,0,2.36-1.48h2.42a4.31,4.31,0,0,1-1.68,2.51,5.165,5.165,0,0,1-3.12.93,4.921,4.921,0,0,1-3.72-1.48,5.425,5.425,0,0,1-1.42-3.92,5.47,5.47,0,0,1,1.4-3.92,4.9,4.9,0,0,1,3.7-1.48,4.746,4.746,0,0,1,3.72,1.54A5.825,5.825,0,0,1,50.92,17.02ZM45.8,13.4q-2.22,0-2.58,2.46H48.4a3,3,0,0,0-.84-1.8A2.421,2.421,0,0,0,45.8,13.4Zm12.62,1.04,1-2.76h2.62L58.2,22H55.3L51.48,11.68h2.7l1,2.78q.7,2.18,1.62,5.26Q57.54,17.24,58.42,14.44Zm7.5-4.1H63.44V7.98h2.48ZM65.94,22H63.42V11.68h2.52Zm7.08.24a4.9,4.9,0,0,1-3.7-1.48,5.427,5.427,0,0,1-1.4-3.92,5.455,5.455,0,0,1,1.4-3.94,4.85,4.85,0,0,1,3.7-1.46,4.972,4.972,0,0,1,3.3,1.07,4.279,4.279,0,0,1,1.5,2.89H75.3a2.262,2.262,0,0,0-.78-1.38,2.325,2.325,0,0,0-1.5-.48,2.225,2.225,0,0,0-1.85.85,3.885,3.885,0,0,0-.67,2.45,3.844,3.844,0,0,0,.68,2.45,2.232,2.232,0,0,0,1.84.85,2.384,2.384,0,0,0,1.55-.51,2.217,2.217,0,0,0,.77-1.47h2.52a4.323,4.323,0,0,1-1.52,2.97A4.982,4.982,0,0,1,73.02,22.24Zm16.4-5.22v.6H81.7a3.139,3.139,0,0,0,.83,1.99,2.542,2.542,0,0,0,1.85.67,2.351,2.351,0,0,0,2.36-1.48h2.42a4.31,4.31,0,0,1-1.68,2.51,5.165,5.165,0,0,1-3.12.93,4.921,4.921,0,0,1-3.72-1.48,5.425,5.425,0,0,1-1.42-3.92,5.47,5.47,0,0,1,1.4-3.92,4.9,4.9,0,0,1,3.7-1.48,4.746,4.746,0,0,1,3.72,1.54A5.825,5.825,0,0,1,89.42,17.02ZM84.3,13.4q-2.22,0-2.58,2.46H86.9a3,3,0,0,0-.84-1.8A2.421,2.421,0,0,0,84.3,13.4Zm11.18,8.88q-4.52,0-4.72-3.56h2.46a1.854,1.854,0,0,0,.63,1.36,2.787,2.787,0,0,0,1.67.4q2.04,0,2.04-1.24a.978.978,0,0,0-.44-.86,4.355,4.355,0,0,0-1.58-.5l-1.18-.2q-3.38-.56-3.38-3.12a2.693,2.693,0,0,1,1.12-2.29,5.226,5.226,0,0,1,3.16-.83q4.42,0,4.56,3.5H97.44a1.6,1.6,0,0,0-.58-1.31,2.723,2.723,0,0,0-1.6-.39q-1.8,0-1.8,1.2a.943.943,0,0,0,.4.81,3.3,3.3,0,0,0,1.32.45l1.3.2a5.728,5.728,0,0,1,2.73,1.08,2.587,2.587,0,0,1,.85,2.06,2.754,2.754,0,0,1-1.2,2.4A5.835,5.835,0,0,1,95.48,22.28Zm17.8-4.82V11.68h2.52V22h-2.44V20.5a3.713,3.713,0,0,1-3.24,1.74,3.554,3.554,0,0,1-2.63-.97,3.719,3.719,0,0,1-.97-2.75V11.68h2.52V18.1a1.724,1.724,0,0,0,1.94,1.96,2.187,2.187,0,0,0,1.63-.69A2.626,2.626,0,0,0,113.28,17.46Zm9.02,4.82q-4.52,0-4.72-3.56h2.46a1.854,1.854,0,0,0,.63,1.36,2.787,2.787,0,0,0,1.67.4q2.04,0,2.04-1.24a.978.978,0,0,0-.44-.86,4.355,4.355,0,0,0-1.58-.5l-1.18-.2q-3.38-.56-3.38-3.12a2.693,2.693,0,0,1,1.12-2.29,5.226,5.226,0,0,1,3.16-.83q4.42,0,4.56,3.5h-2.38a1.6,1.6,0,0,0-.58-1.31,2.723,2.723,0,0,0-1.6-.39q-1.8,0-1.8,1.2a.943.943,0,0,0,.4.81,3.3,3.3,0,0,0,1.32.45l1.3.2a5.728,5.728,0,0,1,2.73,1.08,2.587,2.587,0,0,1,.85,2.06,2.754,2.754,0,0,1-1.2,2.4A5.835,5.835,0,0,1,122.3,22.28Zm16.06-5.26v.6h-7.72a3.139,3.139,0,0,0,.83,1.99,2.542,2.542,0,0,0,1.85.67,2.351,2.351,0,0,0,2.36-1.48h2.42a4.31,4.31,0,0,1-1.68,2.51,5.165,5.165,0,0,1-3.12.93,4.921,4.921,0,0,1-3.72-1.48,5.425,5.425,0,0,1-1.42-3.92,5.47,5.47,0,0,1,1.4-3.92,4.9,4.9,0,0,1,3.7-1.48,4.746,4.746,0,0,1,3.72,1.54A5.825,5.825,0,0,1,138.36,17.02Zm-5.12-3.62q-2.22,0-2.58,2.46h5.18a3,3,0,0,0-.84-1.8A2.421,2.421,0,0,0,133.24,13.4Zm14.5-.38V7.76h2.52V22h-2.44V20.56a3.7,3.7,0,0,1-3.26,1.68,4.176,4.176,0,0,1-3.38-1.48,5.841,5.841,0,0,1-1.26-3.92,5.825,5.825,0,0,1,1.26-3.94,4.165,4.165,0,0,1,3.38-1.46A3.635,3.635,0,0,1,147.74,13.02Zm-5.24,3.9a3.639,3.639,0,0,0,.7,2.42,2.684,2.684,0,0,0,3.9-.04,3.808,3.808,0,0,0,.7-2.46,3.808,3.808,0,0,0-.7-2.46,2.386,2.386,0,0,0-1.96-.86,2.327,2.327,0,0,0-1.93.9A3.941,3.941,0,0,0,142.5,16.92Zm20.3-5.24V13.6h-2.04v5.58a.817.817,0,0,0,.27.7,1.57,1.57,0,0,0,.91.2h.86V22q-.82.08-1.32.08a3.854,3.854,0,0,1-2.45-.63,2.449,2.449,0,0,1-.77-2.01V13.6h-1.6V11.68h1.6v-3h2.5v3Zm11.72,5.16a5.381,5.381,0,0,1-1.44,3.92,5.618,5.618,0,0,1-7.6,0,5.3,5.3,0,0,1-1.46-3.92,5.3,5.3,0,0,1,1.46-3.92,5.647,5.647,0,0,1,7.6-.02A5.366,5.366,0,0,1,174.52,16.84ZM167.3,19.3a2.444,2.444,0,0,0,1.98.86,2.4,2.4,0,0,0,1.97-.87,3.777,3.777,0,0,0,.71-2.45,3.777,3.777,0,0,0-.71-2.45,2.676,2.676,0,0,0-3.94-.01,3.77,3.77,0,0,0-.71,2.46A3.808,3.808,0,0,0,167.3,19.3ZM190.5,22h-2.52a3.745,3.745,0,0,1-.28-1.26,3.754,3.754,0,0,1-3.32,1.5,4.172,4.172,0,0,1-2.71-.82,2.774,2.774,0,0,1-1.01-2.28q0-2.82,3.96-3.22l1.56-.14a2.307,2.307,0,0,0,1.12-.37.972.972,0,0,0,.34-.81,1.115,1.115,0,0,0-.43-.97,2.557,2.557,0,0,0-1.45-.31,2.624,2.624,0,0,0-1.58.37,1.713,1.713,0,0,0-.56,1.27h-2.48q.22-3.52,4.64-3.52,4.3,0,4.3,3.1v5.5A3.506,3.506,0,0,0,190.5,22Zm-5.52-1.56a2.8,2.8,0,0,0,1.92-.65,2.356,2.356,0,0,0,.74-1.87v-.94a2.172,2.172,0,0,1-1.18.42l-1.36.16a2.84,2.84,0,0,0-1.43.47,1.227,1.227,0,0,0-.43,1.01,1.26,1.26,0,0,0,.45,1.03A1.983,1.983,0,0,0,184.98,20.44Zm11.96,1.8a4.9,4.9,0,0,1-3.7-1.48,5.427,5.427,0,0,1-1.4-3.92,5.455,5.455,0,0,1,1.4-3.94,4.85,4.85,0,0,1,3.7-1.46,4.972,4.972,0,0,1,3.3,1.07,4.279,4.279,0,0,1,1.5,2.89h-2.52a2.262,2.262,0,0,0-.78-1.38,2.325,2.325,0,0,0-1.5-.48,2.225,2.225,0,0,0-1.85.85,3.885,3.885,0,0,0-.67,2.45,3.844,3.844,0,0,0,.68,2.45,2.232,2.232,0,0,0,1.84.85,2.384,2.384,0,0,0,1.55-.51,2.217,2.217,0,0,0,.77-1.47h2.52a4.323,4.323,0,0,1-1.52,2.97A4.982,4.982,0,0,1,196.94,22.24Zm11.3,0a4.9,4.9,0,0,1-3.7-1.48,5.427,5.427,0,0,1-1.4-3.92,5.455,5.455,0,0,1,1.4-3.94,4.85,4.85,0,0,1,3.7-1.46,4.972,4.972,0,0,1,3.3,1.07,4.279,4.279,0,0,1,1.5,2.89h-2.52a2.262,2.262,0,0,0-.78-1.38,2.325,2.325,0,0,0-1.5-.48,2.225,2.225,0,0,0-1.85.85,3.885,3.885,0,0,0-.67,2.45,3.844,3.844,0,0,0,.68,2.45,2.232,2.232,0,0,0,1.84.85,2.384,2.384,0,0,0,1.55-.51,2.217,2.217,0,0,0,.77-1.47h2.52a4.323,4.323,0,0,1-1.52,2.97A4.982,4.982,0,0,1,208.24,22.24Zm16.4-5.22v.6h-7.72a3.139,3.139,0,0,0,.83,1.99,2.542,2.542,0,0,0,1.85.67,2.351,2.351,0,0,0,2.36-1.48h2.42a4.31,4.31,0,0,1-1.68,2.51,5.165,5.165,0,0,1-3.12.93,4.921,4.921,0,0,1-3.72-1.48,5.425,5.425,0,0,1-1.42-3.92,5.47,5.47,0,0,1,1.4-3.92,4.9,4.9,0,0,1,3.7-1.48,4.746,4.746,0,0,1,3.72,1.54A5.825,5.825,0,0,1,224.64,17.02Zm-5.12-3.62q-2.22,0-2.58,2.46h5.18a3,3,0,0,0-.84-1.8A2.421,2.421,0,0,0,219.52,13.4Zm11.18,8.88q-4.52,0-4.72-3.56h2.46a1.854,1.854,0,0,0,.63,1.36,2.787,2.787,0,0,0,1.67.4q2.04,0,2.04-1.24a.978.978,0,0,0-.44-.86,4.355,4.355,0,0,0-1.58-.5l-1.18-.2q-3.38-.56-3.38-3.12a2.693,2.693,0,0,1,1.12-2.29,5.226,5.226,0,0,1,3.16-.83q4.42,0,4.56,3.5h-2.38a1.6,1.6,0,0,0-.58-1.31,2.723,2.723,0,0,0-1.6-.39q-1.8,0-1.8,1.2a.943.943,0,0,0,.4.81,3.3,3.3,0,0,0,1.32.45l1.3.2a5.728,5.728,0,0,1,2.73,1.08,2.587,2.587,0,0,1,.85,2.06,2.754,2.754,0,0,1-1.2,2.4A5.836,5.836,0,0,1,230.7,22.28Zm10.66,0q-4.52,0-4.72-3.56h2.46a1.854,1.854,0,0,0,.63,1.36,2.787,2.787,0,0,0,1.67.4q2.04,0,2.04-1.24a.978.978,0,0,0-.44-.86,4.355,4.355,0,0,0-1.58-.5l-1.18-.2q-3.38-.56-3.38-3.12a2.693,2.693,0,0,1,1.12-2.29,5.226,5.226,0,0,1,3.16-.83q4.42,0,4.56,3.5h-2.38a1.6,1.6,0,0,0-.58-1.31,2.723,2.723,0,0,0-1.6-.39q-1.8,0-1.8,1.2a.943.943,0,0,0,.4.81,3.3,3.3,0,0,0,1.32.45l1.3.2a5.728,5.728,0,0,1,2.73,1.08,2.587,2.587,0,0,1,.85,2.06,2.754,2.754,0,0,1-1.2,2.4A5.836,5.836,0,0,1,241.36,22.28Zm16.42-10.6V13.6h-2.04v5.58a.817.817,0,0,0,.27.7,1.57,1.57,0,0,0,.91.2h.86V22q-.82.08-1.32.08a3.854,3.854,0,0,1-2.45-.63,2.449,2.449,0,0,1-.77-2.01V13.6h-1.6V11.68h1.6v-3h2.5v3Zm7.54-.24a3.581,3.581,0,0,1,2.65.97,3.719,3.719,0,0,1,.97,2.75V22h-2.52V15.58a1.724,1.724,0,0,0-1.94-1.96,2.187,2.187,0,0,0-1.63.69,2.626,2.626,0,0,0-.67,1.91V22h-2.52V7.76h2.52v5.3A3.7,3.7,0,0,1,265.32,11.44Zm15.8,5.58v.6H273.4a3.139,3.139,0,0,0,.83,1.99,2.542,2.542,0,0,0,1.85.67,2.35,2.35,0,0,0,2.36-1.48h2.42a4.31,4.31,0,0,1-1.68,2.51,5.165,5.165,0,0,1-3.12.93,4.921,4.921,0,0,1-3.72-1.48,5.425,5.425,0,0,1-1.42-3.92,5.47,5.47,0,0,1,1.4-3.92,4.9,4.9,0,0,1,3.7-1.48,4.746,4.746,0,0,1,3.72,1.54A5.825,5.825,0,0,1,281.12,17.02ZM276,13.4q-2.22,0-2.58,2.46h5.18a3,3,0,0,0-.84-1.8A2.421,2.421,0,0,0,276,13.4Zm17.58-1.96a4.239,4.239,0,0,1,3.38,1.46,5.935,5.935,0,0,1,1.24,3.94,5.9,5.9,0,0,1-1.24,3.92,4.213,4.213,0,0,1-3.38,1.48,3.655,3.655,0,0,1-3.2-1.58v5.26h-2.52V11.68h2.42v1.48A3.687,3.687,0,0,1,293.58,11.44Zm-2.54,7.86a2.329,2.329,0,0,0,1.94.86,2.376,2.376,0,0,0,1.96-.9,3.93,3.93,0,0,0,.7-2.5,3.683,3.683,0,0,0-.69-2.41,2.417,2.417,0,0,0-1.97-.83,2.386,2.386,0,0,0-1.96.86,3.808,3.808,0,0,0-.7,2.46A3.685,3.685,0,0,0,291.04,19.3ZM302.7,22h-2.52V7.76h2.52Zm11.72,0H311.9a3.745,3.745,0,0,1-.28-1.26,3.754,3.754,0,0,1-3.32,1.5,4.172,4.172,0,0,1-2.71-.82,2.774,2.774,0,0,1-1.01-2.28q0-2.82,3.96-3.22l1.56-.14a2.307,2.307,0,0,0,1.12-.37.972.972,0,0,0,.34-.81,1.115,1.115,0,0,0-.43-.97,2.557,2.557,0,0,0-1.45-.31,2.623,2.623,0,0,0-1.58.37,1.713,1.713,0,0,0-.56,1.27h-2.48q.22-3.52,4.64-3.52,4.3,0,4.3,3.1v5.5A3.506,3.506,0,0,0,314.42,22Zm-5.52-1.56a2.8,2.8,0,0,0,1.92-.65,2.356,2.356,0,0,0,.74-1.87v-.94a2.172,2.172,0,0,1-1.18.42l-1.36.16a2.84,2.84,0,0,0-1.43.47,1.227,1.227,0,0,0-.43,1.01,1.26,1.26,0,0,0,.45,1.03A1.983,1.983,0,0,0,308.9,20.44Zm12.48-8.76V13.6h-2.04v5.58a.817.817,0,0,0,.27.7,1.57,1.57,0,0,0,.91.2h.86V22q-.82.08-1.32.08a3.854,3.854,0,0,1-2.45-.63,2.449,2.449,0,0,1-.77-2.01V13.6h-1.6V11.68h1.6v-3h2.5v3Zm7.4-1.98h-.88q-1.3,0-1.3,1.24v.74h2.12V13.6H326.6V22h-2.5V13.6h-1.6V11.68h1.6V10.9a3.2,3.2,0,0,1,.84-2.35,3.428,3.428,0,0,1,2.54-.85,12.009,12.009,0,0,1,1.3.06Zm11.28,7.14a5.381,5.381,0,0,1-1.44,3.92,5.618,5.618,0,0,1-7.6,0,5.3,5.3,0,0,1-1.46-3.92,5.3,5.3,0,0,1,1.46-3.92,5.647,5.647,0,0,1,7.6-.02A5.366,5.366,0,0,1,340.06,16.84Zm-7.22,2.46a2.444,2.444,0,0,0,1.98.86,2.4,2.4,0,0,0,1.97-.87,3.777,3.777,0,0,0,.71-2.45,3.777,3.777,0,0,0-.71-2.45,2.676,2.676,0,0,0-3.94-.01,3.77,3.77,0,0,0-.71,2.46A3.808,3.808,0,0,0,332.84,19.3Zm14.72-7.78a4.4,4.4,0,0,1,.62.04v2.32h-.64a3.09,3.09,0,0,0-2.21.73,2.825,2.825,0,0,0-.77,2.15V22h-2.52V11.68h2.44v1.84A3.091,3.091,0,0,1,347.56,11.52Zm14.16-.08a3.48,3.48,0,0,1,2.65,1,3.816,3.816,0,0,1,.95,2.74V22H362.8V15.58q0-1.96-1.78-1.96a1.94,1.94,0,0,0-1.55.69,3.013,3.013,0,0,0-.59,2.01V22h-2.5V15.58q0-1.96-1.8-1.96a1.919,1.919,0,0,0-1.53.69,3.013,3.013,0,0,0-.59,2.01V22h-2.52V11.68h2.44v1.48a3.291,3.291,0,0,1,2.94-1.72,3.167,3.167,0,0,1,3.2,1.92A3.577,3.577,0,0,1,361.72,11.44Z" transform="translate(715 2547)" fill="#fff"/>
    <path id="Path_6134" data-name="Path 6134" d="M14.22,22H11.36l-1.12-3.14H4L2.9,22H.12L5.54,7.76H8.7ZM5.36,15.02l-.54,1.54h4.6l-.56-1.54q-.7-1.78-1.76-4.88Q6.26,12.62,5.36,15.02Zm15.96-3.58a3.581,3.581,0,0,1,2.65.97,3.719,3.719,0,0,1,.97,2.75V22H22.42V15.58a1.724,1.724,0,0,0-1.94-1.96,2.187,2.187,0,0,0-1.63.69,2.626,2.626,0,0,0-.67,1.91V22H15.66V11.68H18.1v1.48A3.706,3.706,0,0,1,21.32,11.44ZM31.44,22.28q-4.52,0-4.72-3.56h2.46a1.854,1.854,0,0,0,.63,1.36,2.787,2.787,0,0,0,1.67.4q2.04,0,2.04-1.24a.978.978,0,0,0-.44-.86,4.355,4.355,0,0,0-1.58-.5l-1.18-.2q-3.38-.56-3.38-3.12a2.693,2.693,0,0,1,1.12-2.29,5.226,5.226,0,0,1,3.16-.83q4.42,0,4.56,3.5H33.4a1.6,1.6,0,0,0-.58-1.31,2.723,2.723,0,0,0-1.6-.39q-1.8,0-1.8,1.2a.943.943,0,0,0,.4.81,3.3,3.3,0,0,0,1.32.45l1.3.2a5.728,5.728,0,0,1,2.73,1.08,2.587,2.587,0,0,1,.85,2.06,2.754,2.754,0,0,1-1.2,2.4A5.835,5.835,0,0,1,31.44,22.28ZM49.1,15.54l1.16-3.86h2.7L49.56,22H46.92l-1.3-4.24q-.74-2.6-.88-3.08-.06.22-.86,3.08L42.6,22H39.96l-3.4-10.32h2.7l1.16,3.86q.44,1.38,1.02,3.58.56-2.22.98-3.6l1.14-3.84h2.4l1.14,3.84q.42,1.38.98,3.6Q48.6,17.14,49.1,15.54Zm14.56,1.48v.6H55.94a3.139,3.139,0,0,0,.83,1.99,2.542,2.542,0,0,0,1.85.67,2.351,2.351,0,0,0,2.36-1.48H63.4a4.31,4.31,0,0,1-1.68,2.51,5.165,5.165,0,0,1-3.12.93,4.921,4.921,0,0,1-3.72-1.48,5.425,5.425,0,0,1-1.42-3.92,5.47,5.47,0,0,1,1.4-3.92,4.9,4.9,0,0,1,3.7-1.48,4.746,4.746,0,0,1,3.72,1.54A5.825,5.825,0,0,1,63.66,17.02ZM58.54,13.4q-2.22,0-2.58,2.46h5.18a3,3,0,0,0-.84-1.8A2.421,2.421,0,0,0,58.54,13.4ZM71.2,11.52a4.4,4.4,0,0,1,.62.04v2.32h-.64a3.09,3.09,0,0,0-2.21.73,2.825,2.825,0,0,0-.77,2.15V22H65.68V11.68h2.44v1.84A3.091,3.091,0,0,1,71.2,11.52Zm6.22,10.76q-4.52,0-4.72-3.56h2.46a1.854,1.854,0,0,0,.63,1.36,2.787,2.787,0,0,0,1.67.4q2.04,0,2.04-1.24a.978.978,0,0,0-.44-.86,4.355,4.355,0,0,0-1.58-.5l-1.18-.2q-3.38-.56-3.38-3.12a2.693,2.693,0,0,1,1.12-2.29,5.226,5.226,0,0,1,3.16-.83q4.42,0,4.56,3.5H79.38a1.6,1.6,0,0,0-.58-1.31,2.723,2.723,0,0,0-1.6-.39q-1.8,0-1.8,1.2a.943.943,0,0,0,.4.81,3.3,3.3,0,0,0,1.32.45l1.3.2a5.728,5.728,0,0,1,2.73,1.08A2.587,2.587,0,0,1,82,19.04a2.754,2.754,0,0,1-1.2,2.4A5.835,5.835,0,0,1,77.42,22.28Zm9.18-7.24H83.66V12.18H86.6Zm0,6.96H83.66V19.14H86.6Z" transform="translate(1190.016 2547)" fill="#fff"/>
    <g id="Group_3346" data-name="Group 3346" transform="translate(2 -31)">
      <text id="Contact_the_Call_Center_to_request_support_or_open_a_help_ticket." data-name="Contact the Call Center to request support or open a help ticket." transform="translate(1188.016 2878.71)" fill="#fff" font-size="15" font-family="HelveticaNowDisplay-Regular, Helvetica Now Display" letter-spacing="0.02em"><tspan x="0" y="17">Contact the Call Center to request </tspan><tspan x="0" y="37">support or open a help ticket.</tspan></text>
      <path id="_28_" data-name="28%" d="M14.355,53.33l20.026.017v9.178H1.59l.227-4.065q.284-4.4,1.42-7.4.738-2.088,2.1-3.78Q8.515,43.45,14.865,41.2l2.436-.841q3.114-1.065,4.388-2.3t1.273-3.21q0-4.171-4.812-4.184-2.662-.007-3.909,1.371t-1.247,4.256l-10.78-.025q-.057-7,4.031-10.912t12.188-3.879q7.414.027,11.6,3.421,4.124,3.448,4.124,8.8,0,5.518-2.994,8.666-3.165,3.205-9.5,5.789l-3,1.237q-2.266.9-3.172,1.745T14.355,53.33ZM65.919,41.582q6.4,2.425,6.4,9.608,0,5.387-4.546,8.809-4.493,3.425-12.59,3.425T42.564,59.993q-4.57-3.435-4.57-8.838,0-7.2,6.43-9.613-4.737-2.992-4.737-8.732,0-5.121,4.174-8.175T55.182,21.61q7.142.026,11.3,3.1t4.154,8.18Q70.635,38.616,65.919,41.582ZM59.344,30.446q-1.406-1.184-4.162-1.192t-4.165,1.168q-1.464,1.289-1.464,3.37t1.464,3.265q1.464,1.184,4.165,1.19t4.162-1.171q1.462-1.176,1.462-3.255T59.344,30.446ZM50.51,53.7q1.52,1.35,4.672,1.353,3.094,0,4.725-1.345,1.518-1.291,1.518-3.594,0-2.359-1.6-3.653t-4.64-1.3q-3.039,0-4.644,1.286T48.933,50.1Q48.933,52.459,50.51,53.7Zm35.3-6.335q0,6.456-5.46,6.452t-5.465-6.467q0-6.492,5.465-6.482T85.806,47.362ZM83.947,62.526h-3.24L92.1,41.158l3.234.006Zm-3.6-11.747q.87,0,1.26-.75T82,47.357q0-1.952-.39-2.7t-1.26-.753q-.9,0-1.291.749t-.39,2.7q0,1.923.39,2.675T80.347,50.78Zm20.79,5.57q0,6.447-5.445,6.447t-5.45-6.454q0-6.484,5.45-6.477T101.137,56.35Zm-5.445,3.417q.868,0,1.257-.75t.389-2.67q0-1.95-.389-2.7T95.692,52.9q-.9,0-1.287.749t-.389,2.7q0,1.92.389,2.671T95.692,59.767Z" transform="translate(1187.442 2809.475)" fill="#aed18b"/>
    </g>
  </g>
</svg>
