<svg xmlns="http://www.w3.org/2000/svg" xmlns:xlink="http://www.w3.org/1999/xlink" width="367" height="474.455" viewBox="0 0 367 474.455">
  <defs>
    <clipPath id="clip-path">
      <rect id="Rectangle_141" data-name="Rectangle 141" width="367" height="474.455" transform="translate(0 0)" fill="#132954"/>
    </clipPath>
  </defs>
  <g id="Group_3348" data-name="Group 3348" transform="translate(0 0.003)" style="isolation: isolate">
    <g id="Group_3347" data-name="Group 3347" transform="translate(0 -0.003)" clip-path="url(#clip-path)">
      <path id="Path_1162" data-name="Path 1162" d="M1572.754,115.876c-.494-2.5-.965-5.375-3.616-6.395a156.732,156.732,0,0,0-16.249-5.41c-4.78-1.26-9.076-3.182-11.946-7.189a24.736,24.736,0,0,1-4.693-16.722c.1-1.214-.049-2.54,1.54-3.1.414-.146.74-.79.933-1.274a38.769,38.769,0,0,0,2-5.473c.657-2.828,2.135-5.731-.041-8.591-.175-.229-.094-.714-.023-1.057.323-1.548.644-3.1,1.041-4.627,1.092-4.2,2.094-8.275.467-12.711-1.263-3.443-2.786-6.178-6.029-8.24-5.32-3.384-10.827-5.47-17.2-4.926a27.642,27.642,0,0,1-3.48-.085c-3.925-.165-7.891-.122-11.53,1.421-3.993,1.693-5.448,3.18-5.265,7.314a2.725,2.725,0,0,1-1.081,1.961,7.239,7.239,0,0,0-3.383,6.522,69.831,69.831,0,0,0,1.316,9.59c.682,3.459,2.058,6.82,2.412,10.3.571,5.6,1.15,11.143,3.419,16.367,1.02,2.349,1.35,5.184,4.178,6.29a2.407,2.407,0,0,1,1.673,3.156,24.988,24.988,0,0,1-1.7,5.154c-2.494,4.8-6.815,7.409-11.741,9.112-5.57,1.925-11.181,3.731-16.769,5.6-4.15,1.39-4.876,2.477-4.988,6.918a32.6,32.6,0,0,1-.538,4.709c-.714,4.129-1.857,8.22-2.16,12.375a40.67,40.67,0,0,1-3.431,13.927,54.044,54.044,0,0,0-5,16.812c-.5,4.689-2.577,9.206-1.421,14.08.786,3.312,1.325,6.685,2.169,9.98a3.349,3.349,0,0,0,3.462,2.638c5.247.227,10.483.7,15.727.992,1.609.089,1.991.8,1.68,2.236-.822,3.81-1.584,7.633-2.412,11.442-1.321,6.074-2.625,12.152-4.031,18.206-1.639,7.056-3.307,14.106-5.1,21.123-1.055,4.12-2.411,8.161-3.582,12.253-.429,1.5-.746,3.1,1.06,3.981,3.155,1.537,6.316,3.075,9.553,4.424.978.408,1.325.818,1.344,1.808.036,1.893.131,3.786.276,5.674.611,7.978,1.535,15.944,1.809,23.932.406,11.8,1.614,23.509,3.07,35.209a26.232,26.232,0,0,1,.07,6.021,12.642,12.642,0,0,0,.968,6.587,21.383,21.383,0,0,1,1.457,5.025c.286,1.791-1.292,3.653.1,5.485.1.137-.135.537-.209.8l1.526.756-1.637,1.176c.373,2.786.862,5.591,1.081,8.417.126,1.634-.272,3.3-.267,4.954a22.824,22.824,0,0,0,.472,3.255q1.58,10.495,3.157,20.99c.69,4.576,1.473,9.141,2.058,13.73.447,3.506.6,7.049.975,10.566.254,2.416.612,4.823,1,7.222a31.464,31.464,0,0,0,1.046,4.913c.453,1.364,1.421,2.555,1.89,3.916a3.292,3.292,0,0,1-.1,2.573,69.328,69.328,0,0,1-5.625,7.113c-4.547,4.907-9.326,9.52-15.958,11.65-2.9.933-6.089,1.783-6.424,5.723-.062.728-.229,1.448-.351,2.171-.708,4.167,0,5.119,4.165,5.6a2.284,2.284,0,0,0,.365.036c4.139-.183,8.276-.425,12.417-.542a17.718,17.718,0,0,0,13.167-5.67,5.167,5.167,0,0,1,4.942-1.59,36.812,36.812,0,0,0,6.716.515,85.344,85.344,0,0,0,8.705-1.129,2.363,2.363,0,0,0,2.273-2.4c.33-5.626.413-11.221-1.058-16.736a7.033,7.033,0,0,1-.353-3.328c.734-2.861,1.926-5.608,2.61-8.477a14.444,14.444,0,0,0-.032-4.716c-.289-2.783-.9-5.539-1.068-8.325-.253-4.2-.061-8.422-.4-12.608-.291-3.63-1.028-7.225-1.611-10.829-.395-2.44-1.065-4.852-1.26-7.3-.445-5.585-.549-11.2-1.039-16.779-.282-3.2-1.212-6.348-1.561-9.551-.491-4.5-.71-9.029-1.053-13.545-.034-.452-.116-.9-.18-1.385l-2.089.524c.673-2.016,3.389-3,2.083-5.479l-1.7-.239a16.791,16.791,0,0,1,1.234-1.421c.935-.841,1.759-3.8.912-4.6-1.268-1.2-.428-3.089-2.057-4l.338-.322h2.142c.411-10.427.819-20.762,1.227-31.1l.621,0c.311,2.1.566,4.21.944,6.3,1.309,7.225,2.706,14.434,3.975,21.665.594,3.386.9,6.821,1.464,10.214.931,5.643,1.849,11.292,2.984,16.9.855,4.222,2.4,8.288,2.261,12.718-.05,1.583.66,3.183.974,4.785a25.444,25.444,0,0,1,.6,3.784c.323,7.754.464,15.516.907,23.262a112.137,112.137,0,0,0,1.512,12.906c1.095,6.247,1.8,12.372-.35,18.6a16.869,16.869,0,0,0-.407,6.708,65.257,65.257,0,0,0,1.406,7.012,9.052,9.052,0,0,1,.107,1.992c-.053,1.831-.117,3.663-.235,5.49a3.85,3.85,0,0,0,2.018,3.8,2.079,2.079,0,0,1,1.138,2.413c-.891,4.72-1.744,9.447-2.6,14.173-.238,1.316-.516,2.632-.628,3.96-.193,2.307.373,2.947,2.546,3.765a14.531,14.531,0,0,1,3.655,1.944,2.962,2.962,0,0,1,.859,2.13,14.645,14.645,0,0,1-.6,3.223c-.706,3.03.1,5.025,3.036,5.637,6.7,1.4,13.449,1.6,19.952-1.046a3.85,3.85,0,0,0,2.692-3.59c.07-4.565-.306-9.089-2.54-13.137-2.807-5.086-4.142-10.568-5.469-16.15-.627-2.639.221-3.944,1.882-5.509,2.621-2.47,2.779-3.587,1.111-6.7a5.185,5.185,0,0,1-.129-4.209c.669-2.376,1.633-4.828,1.574-7.225q-.693-28.221-1.791-56.432a86.352,86.352,0,0,0-1.356-12.544,76.308,76.308,0,0,1-1.23-17.3,43.755,43.755,0,0,0-.331-5.469c-.352-4.185-.968-8.363-1.049-12.552-.113-5.846.739-11.757.15-17.536-1.126-11.055-.923-22.092-.709-33.146.117-6.039.43-12.073.655-18.128,3.212-.735,6.343-1.495,9.494-2.155,1.538-.322,1.963-1.151,1.7-2.624-1.2-6.785-2.332-13.583-3.553-20.365-.918-5.1-1.93-10.179-2.911-15.266-1.222-6.34-2.5-12.671-3.667-19.021-.608-3.292-1.183-6.6-1.525-9.929-.454-4.42-.7-8.863-.947-13.3a5.131,5.131,0,0,1,.6-2.3c.859-1.849,1.891-3.62,2.725-5.479,1.234-2.749,2.133-5.671,3.573-8.3a47.732,47.732,0,0,0,5.953-18.646,81.3,81.3,0,0,1,2.9-16.375,33.142,33.142,0,0,0,1.267-16.282" transform="translate(-1206.271 -24.809)" fill="#132954"/>
      <path id="Path_1163" data-name="Path 1163" d="M852.18,379.682c.242-.031.53-.638.589-1.011.555-3.492,1.131-6.985,1.519-10.5a2.288,2.288,0,0,0-1.213-1.789,1.828,1.828,0,0,1-1.359-2.487,22.76,22.76,0,0,0,.564-4.685,27.672,27.672,0,0,0-.561-4.879,17.186,17.186,0,0,0-1.183-4.519,15.691,15.691,0,0,1-1.2-10.14q.444-2.425.761-4.873c.415-3.166-.872-6.018-1.493-9.022-1.193-5.77-1.578-11.707-2.28-17.578-.166-1.39.058-2.917-.444-4.16-1.923-4.758-3.1-9.871-6.251-14.068a43.483,43.483,0,0,0-4.549-5.378c-.84-.8-2.257-1-3.55-1.534,1.79-4.378.711-8.211-1.433-12.095a26.76,26.76,0,0,1-3.716-15.4,40.57,40.57,0,0,0-.416-10.754,155.54,155.54,0,0,0-4.138-15.885c-1.3-4.3-2.988-8.509-6.533-11.551-2.276-1.954-4.794-3.361-8.013-2.21a2.3,2.3,0,0,1-1.627-.354,12.094,12.094,0,0,0-8.589-1.615,18.176,18.176,0,0,0-11.276,7.4c-3.273,4.345-4.86,9.481-6.592,14.528-1.221,3.559-2.345,7.157-3.346,10.783-1.638,5.938-1.019,12.016-.856,18.053.132,4.922.752,9.905-2.545,14.255l.308.411,5.985-1.833a11.956,11.956,0,0,1-7.406,2.746l-.153.532,3.1,1.339c-2.523.616-5.272.8-7.536,1.944a17.815,17.815,0,0,0-8.9,10.357c-.421,1.2-1.047,2.335-1.463,3.54a80.139,80.139,0,0,0-2.56,7.944c-.852,3.674-1.46,7.411-2.016,11.145a63.31,63.31,0,0,0-1.12,10.339c.083,4.648-.276,9.087-2.186,13.391-.463,1.044-.184,2.434-.178,3.664.006,1.268.109,2.534.144,3.8.037,1.335-.4,2.892.146,3.964,1.446,2.859.777,5.269-.78,7.716a8.026,8.026,0,0,0-1.019,5.964,22.035,22.035,0,0,1,.4,4.712,2.491,2.491,0,0,1-1.258,1.859c-1.082.409-1.219.97-1.059,1.939.415,2.527.708,5.077,1.2,7.589.19.978,1.154,1.895,1.119,2.815-.28,7.439-.7,14.873-1.11,22.307-.136,2.434-.02,4.965-.666,7.271-1.664,5.941-1.527,11.958-1.363,18a4.908,4.908,0,0,0,.545,2.106c1.638,3.07,4.611,4.849,7.063,7.132a.721.721,0,0,0,.487.205c1.314-.143,2.077.653,2.932,1.48a2.2,2.2,0,0,0,1.9.575,3.046,3.046,0,0,0,1.113-1.882,19.763,19.763,0,0,0,.267-3.076l2.309.7-1.36,24.809c3.23.384,6.246.806,9.276,1.073,1.285.113,1.7.562,1.846,1.877.732,6.485,1.748,12.94,2.393,19.432a156.575,156.575,0,0,1,1.025,16.958c-.064,6.463-.843,12.917-1.2,19.381a84.036,84.036,0,0,0,2,21.459c1.627,8,3.214,16.005,4.874,24,1.179,5.673,2.692,11.292,1.816,17.192a6.716,6.716,0,0,0,.281,3.252,18.8,18.8,0,0,1,.453,10.832c-1.655,7.838-3.113,15.706-3.276,23.722-.117,5.758.241,5.951,4.951,6.7a75.507,75.507,0,0,0,10.519.9c2.212.038,3.069-1.085,3.688-3.314a13.732,13.732,0,0,0-.137-6.968.984.984,0,0,0-.193-.8c-.345-1.371-.745-2.735-1.036-4.117-.736-6.5-.079-17.538-.078-17.54a28.883,28.883,0,0,0,.1-6.1c-.335-2.825-1.753-5.52-2.689-8.274a27.426,27.426,0,0,1-1.511-12.244c1.168-9.695,2.486-19.377,3.382-29.1a104.27,104.27,0,0,0,0-14.244c-.174-3.833-1.188-7.655-1.1-11.465.119-5.09,1.08-10.155,1.429-15.248.346-5.04.421-10.1.54-15.154.143-6.089.206-12.179.306-18.418l9.892-.819c.249,5.945.6,11.6.683,17.257.061,4.207-.563,8.442-.278,12.624a147.5,147.5,0,0,0,2.079,15.566c1.078,6.107-.386,12.05-.812,18.052a87.59,87.59,0,0,0,.432,19q2.346,16.018,4.459,32.068a17.792,17.792,0,0,1-2,10.948c-1.392,2.619-2.412,5.373-1.96,8.57.9,6.4,1.534,12.841,2.248,19.267.1.864.145,1.531,1.321,1.518.364,0,.983.674,1.056,1.11.208,1.257.145,2.556.28,3.829.327,3.079.608,6.168,1.107,9.22a2.752,2.752,0,0,0,2.875,2.351c3.908.035,7.818.064,11.724-.016a3.083,3.083,0,0,0,3.081-2.4c.83-2.928,1.216-5.86.093-8.812-1.725-4.536-3.55-9.038-5.127-13.625-1.381-4.015-2.751-8.016-2.82-12.4a167.1,167.1,0,0,1,2.111-27.907c1.252-8.2,2.327-16.429,3.626-24.622,1.35-8.518,2.468-17.043,2.021-25.693-.334-6.464-.957-12.921-1.058-19.388-.176-11.392,1.543-22.644,3-33.908.142-1.1.25-2.2.359-3.318h0c.44-.082,1.308-3.05,1.308-3.05l15.113-5.45-4.773-16.579q-.522-1.95-1.048-3.919c2.667-.681,4.939-1.461,5.7-4.223a20.728,20.728,0,0,1,.882-2.595,14.748,14.748,0,0,0,.581-11.467,34.235,34.235,0,0,1-1.918-10.2c-.369-8.722-.344-17.46-.466-26.193-.016-1.115-.344-2.4,1.418-2.63m-79.411-16.594a.978.978,0,0,0-.151.517c-.024,5.736-2.39,10.783-4.54,15.924a20.48,20.48,0,0,0-1.93,8.179c.015,2.206-1.241,4.408-1.837,6.636a24.688,24.688,0,0,0-.56,3.419c-1.059,8.778-2.211,17.548-3.1,26.345-.339,3.376.1,10.264.1,13.673-.176.011-.5-3.428-.68-3.417,0-2.861-.041-5.722.01-8.582a27.617,27.617,0,0,0-2.5-12.248c-1.137-2.462-.836-5-.346-7.539,1.342-6.937,2.659-13.879,4.087-20.8.236-1.142,1.124-2.137,1.461-3.274.693-2.335,1.223-4.72,1.806-7.087.086-.35.272-.879.113-1.055-1.9-2.1.417-4.107.091-6.112-.38-2.344.692-4.243,1.386-6.308a9.582,9.582,0,0,0,.434-3.894,32.352,32.352,0,0,1,1.931-14.006,37.194,37.194,0,0,0,1.626-5.988c.261-1.553.052-3.184.207-4.81.164,1.488.311,2.977.495,4.463q1.254,10.151,2.529,20.3c.246,1.947.573,3.885-.635,5.665m56.722-80.931-4.037-11.224c2.161,3.388,4.505,6.794,4.037,11.224M840.318,413.4c-.629-2.67-1.143-4.907-1.685-7.137-1.393-5.729-2.845-11.445-4.163-17.191-.3-1.321-.019-2.771-.265-4.114a51.238,51.238,0,0,0-1.561-6.465c-1.412-4.39-3.41-8.64-4.345-13.119a46.48,46.48,0,0,1-1.054-12.424c.363-5.936,1.268-11.759,2.06-17.617.039-.289.1-.574.11-.615a60.6,60.6,0,0,1,1.379,6.073,7.7,7.7,0,0,1-.616,3.346c-.669,1.918-1.4,3.69-.073,5.72a3.793,3.793,0,0,1,.123,2.989c-.88,2.3-.1,4.087,1.1,5.961a4.161,4.161,0,0,1,.707,2.731c-.494,2.489.381,4.572,1.576,6.564.58.967.607,1.609-.263,2.334a2.07,2.07,0,0,0-.544,3,28.621,28.621,0,0,1,2.245,5.576c.373,1.249.891,1.937,2.368,1.7,1.613,7.16,3.247,14.21,4.777,21.283a16.642,16.642,0,0,1-1.876,11.414" transform="translate(-615.067 -176.075)" fill="#132954"/>
      <path id="Path_1164" data-name="Path 1164" d="M112.333,461.933c-5.208-1.939-10.127-4.436-13.95-8.6-2.458-2.681-4.81-5.467-7.086-8.3-1.352-1.686-2.49-3.546-3.672-5.362-.8-1.229-.783-2.152.663-3.159,3.2-2.224,3.53-4.17,2.052-7.766a9.014,9.014,0,0,1-.3-3.119c-.031-1.325.475-2.861-.031-3.94-1.484-3.162-1.6-6.473-1.833-9.821a5.326,5.326,0,0,0-.922-2.658c-.658-.9-.839-1.53-.047-2.385a1.9,1.9,0,0,0,.413-1.166,45.68,45.68,0,0,0-.012-6.38c-.512-4.233-1.325-8.428-1.932-12.651-.824-5.734-1.914-11.46-2.258-17.226-.367-6.148-.074-12.342.1-18.512a35.719,35.719,0,0,1,.993-5.725c.591-3.032,1.536-6.041,1.695-9.093.089-1.717-.12-3.34.865-4.86.852-1.314.544-2.6.048-4a8.02,8.02,0,0,1-.521-3.828c.608-3.536,1.529-7.017,2.276-10.531,1.239-5.833,2.649-11.64,3.6-17.52,1.311-8.064,2.063-16.219,3.426-24.272,1.452-8.582,3.323-17.093,5.039-25.629q1.585-7.886,3.256-15.754c.741-3.521.934-7.212,3.279-10.24a4.031,4.031,0,0,0,.549-1.9c.431-3.39.486-6.866,1.288-10.162,1.575-6.466.826-12.707-.938-18.952a17.264,17.264,0,0,1-.83-7.726c.337-1.978.308-4.016.5-6.022a7.377,7.377,0,0,0-1.884-5.354,11.763,11.763,0,0,1-2.332-10.324,36.053,36.053,0,0,0,.918-9.048,60.323,60.323,0,0,1,.266-6.032c.639-6.071,1.385-12.13,2.035-18.2a3.82,3.82,0,0,0-.264-2.486c-2.29-2.831-1.964-6.162-2.1-9.423-.179-4.268-.109-8.565-.6-12.8-.573-4.938-1.862-9.738-6.2-12.923-3.17-2.331-6.348-4.676-9.691-6.74-3.158-1.949-6.108-4.023-7.472-7.608a10.637,10.637,0,0,1-.6-4.161c.071-1.563.67-3.094.853-4.66a3.714,3.714,0,0,1,2.616-3.352,8.752,8.752,0,0,0,5.846-6.5c.311-1.36.925-2.649,1.254-4.006,1.214-5,3.094-9.868,2.528-15.221-.136-1.288.954-2.735,1.572-4.066.677-1.458,1.815-2.8,2.123-4.313a62.881,62.881,0,0,0,1.1-9.231,12.3,12.3,0,0,0-.755-4.791c-1.8-4.837-5.871-7.6-10.012-10.133C82.891.626,77.812.544,72.927.059,67.948-.436,63.638,2.152,59.12,3.694a6.6,6.6,0,0,0-4.569,4.557c-.2.683-1.342,1.254-2.169,1.551-1.871.671-3.984,1.924-4.054,4.335-.129,4.445-.491,8.9-.35,13.333.138,4.326.853,8.63,1.175,12.954A6.694,6.694,0,0,0,51.4,45.035c.557.523,1.347,1.184,1.38,1.815a78.884,78.884,0,0,1,.061,9.875c-.1,1.313-1.107,2.62-1.9,3.794-.409.6-1.551.764-1.858,1.377a22.766,22.766,0,0,1-6.1,7.163,29.011,29.011,0,0,1-11.05,5.753c-4.87,1.325-9.708,2.769-14.589,4.047a7.65,7.65,0,0,0-4.771,3.958,19.53,19.53,0,0,0-2.426,6.446c-1.239,8.57-2.533,17.157-3.172,25.784C5.783,131.131,4.9,147.231,5.627,163.4a45.972,45.972,0,0,0,5.06,19.027,93.369,93.369,0,0,0,10.974,16.67,2.7,2.7,0,0,1,.6,2.791Q19.2,212.009,16.347,222.2c-1.6,5.743-3.03,11.533-4.575,17.291a1.667,1.667,0,0,0,1.2,2.274c2.285.819,4.564,1.66,6.877,2.393q9.738,3.085,19.509,6.068c1.231.374,1.491,1.025,1.5,2.246.02,4.947-.088,9.917.344,14.836.826,9.413,2.114,18.785,2.943,28.2a65.945,65.945,0,0,1-.28,10.58,15.507,15.507,0,0,0,1,7.327,3.644,3.644,0,0,1-.109,2.826c-1.381,2.413-3.188,4.587-4.513,7.025-1.064,1.957-3.69,3.506-1.768,6.724l-1.9-.5c-1.529,2.4-3.086,4.779-4.558,7.211a3.154,3.154,0,0,0-.142,1.545c.006.517.1,1.033.17,1.735l-2.06-.757a42.322,42.322,0,0,1-1.572,4.155c-.8,1.6-1.97,3.036-2.677,4.673-.632,1.464-2.165,2.831-1.025,4.749.084.141-.419.675-.7.98-.356.387-1.126.774-1.086,1.079.224,1.713-.83,2.85-1.62,4.109a14.105,14.105,0,0,0-1.262,1.78c-3.748,8.9-7.632,17.737-9.261,27.4-.469,2.778-2.284,5.318-3.4,8-.81,1.955-1.737,3.908-.709,6.143a2.111,2.111,0,0,1-.528,1.706A25.27,25.27,0,0,0,.02,418.527a2.474,2.474,0,0,0,1.6,2.842,53.209,53.209,0,0,0,13.836,4.965c2.511.463,4.976,1.1,6.119,3.938,2.108,5.233,6.465,7.987,11.453,9.959,1.786.706,3.784,1.084,5.326,2.138,1.506,1.029,2.7,1.18,4.1.269a1.943,1.943,0,0,1,.388.2c1.425,1.33,4.665,2.054,5.863,1.305.6-.375,2.328-5.691,1.981-6.4-.173-.351-.663-.545-.888-.717.267-.837.935-1.976.666-2.276a9.316,9.316,0,0,0-2.721-1.5c.728-1.315-.619-2.013-1.57-2.882-.353-.323-.766-.581-1.144-.878-2.6-2.045-4.151-4.863-5.739-7.668-1.908-3.371-3.986-6.653-5.762-10.092-2.088-4.044-.278-7.957,3.758-8.572,3.362-.512,3.844-1.217,4.084-4.607a30.4,30.4,0,0,1,1.18-6.244c1.584-5.482,3.311-10.922,5-16.374a4.2,4.2,0,0,1,.626-.9,2.935,2.935,0,0,1,.292.654c.4,5.176.665,10.366,1.222,15.525q1,9.259,2.422,18.471c.848,5.53,2.713,10.927,1.912,16.622l1.065.477c-.18,1.22-.612,2.242-.4,3.1.383,1.524-.058,1.946-1.677,1.633a7.037,7.037,0,0,0,2.591,5.486c1.414,1.126,3.064,1.954,4.51,3.046a2.412,2.412,0,0,1,.9,1.718c-.083,1.822-.5,3.628-.6,5.45-.265,4.816-.575,9.636-.583,14.455-.005,3.052.709,3.529,3.705,3.745.73.053,1.456.234,2.184.24,3.775.032,7.614.46,11.306-.09,3.5-.521,5.838.351,7.886,3.079a9.182,9.182,0,0,0,3.534,3.046,39.114,39.114,0,0,0,22.057,2.036c5.97-1.078,5.058-2.314,5.3-6.84.145-2.759-1.085-4.07-3.473-4.959" transform="translate(0 0.003)" fill="#132954"/>
    </g>
  </g>
</svg>
