<svg xmlns="http://www.w3.org/2000/svg" xmlns:xlink="http://www.w3.org/1999/xlink" width="407" height="225" viewBox="0 0 407 225">
  <defs>
    <clipPath id="clip-path">
      <rect id="Rectangle_134" data-name="Rectangle 134" width="102" height="95.197" fill="#1c3a6c"/>
    </clipPath>
  </defs>
  <g id="Group_4423" data-name="Group 4423" transform="translate(-605 -3442)">
    <path id="Path_6115" data-name="Path 6115" d="M15,0H392a15,15,0,0,1,15,15V210a15,15,0,0,1-15,15H15A15,15,0,0,1,0,210V15A15,15,0,0,1,15,0Z" transform="translate(605 3442)" fill="#fff"/>
    <path id="Path_6119" data-name="Path 6119" d="M21.05,22.32a6.275,6.275,0,0,1-4.84-2.02,7.594,7.594,0,0,1-1.88-5.42,7.688,7.688,0,0,1,1.86-5.42,6.3,6.3,0,0,1,4.86-2.02A6.628,6.628,0,0,1,25.11,8.7a5.908,5.908,0,0,1,2.18,3.78H25.13a4.046,4.046,0,0,0-1.47-2.35,4.272,4.272,0,0,0-2.61-.79,4.02,4.02,0,0,0-3.28,1.49,6.206,6.206,0,0,0-1.22,4.05,6.206,6.206,0,0,0,1.22,4.05,4.02,4.02,0,0,0,3.28,1.49,4.4,4.4,0,0,0,2.76-.94,4.014,4.014,0,0,0,1.42-2.74h2.14a5.773,5.773,0,0,1-2.06,4.12A6.5,6.5,0,0,1,21.05,22.32Zm16.74-1.56a4.9,4.9,0,0,1-3.7,1.48,4.9,4.9,0,0,1-3.7-1.48,5.425,5.425,0,0,1-1.42-3.92,5.452,5.452,0,0,1,1.42-3.94,4.89,4.89,0,0,1,3.7-1.46,4.89,4.89,0,0,1,3.7,1.46,5.455,5.455,0,0,1,1.4,3.94A5.427,5.427,0,0,1,37.79,20.76Zm-5.92-1.22a2.743,2.743,0,0,0,2.22.98,2.714,2.714,0,0,0,2.21-.98,4.116,4.116,0,0,0,.81-2.7,4.116,4.116,0,0,0-.81-2.7,2.714,2.714,0,0,0-2.21-.98,2.743,2.743,0,0,0-2.22.98,4.082,4.082,0,0,0-.82,2.7A4.082,4.082,0,0,0,31.87,19.54Zm20.76-8.1a3.44,3.44,0,0,1,2.62.99,3.69,3.69,0,0,1,.94,2.65V22H54.17V15.34q0-2.14-1.98-2.14a2.17,2.17,0,0,0-1.74.81,3.532,3.532,0,0,0-.68,2.33V22h-2V15.34q0-2.14-2-2.14a2.16,2.16,0,0,0-1.74.82,3.539,3.539,0,0,0-.68,2.32V22h-2V11.68h1.92v1.54a3.3,3.3,0,0,1,2.98-1.78,3.148,3.148,0,0,1,3.18,1.94A3.487,3.487,0,0,1,52.63,11.44Zm11.56,0a4.344,4.344,0,0,1,3.44,1.46,5.766,5.766,0,0,1,1.28,3.94,5.735,5.735,0,0,1-1.28,3.92,4.355,4.355,0,0,1-3.44,1.48,3.83,3.83,0,0,1-3.36-1.68v5.36h-2V11.68h1.92v1.56A3.828,3.828,0,0,1,64.19,11.44Zm-2.58,8.1a2.686,2.686,0,0,0,2.2.98,2.72,2.72,0,0,0,2.22-1,4.254,4.254,0,0,0,.8-2.76,3.986,3.986,0,0,0-.8-2.66,3.046,3.046,0,0,0-4.42.02,4.164,4.164,0,0,0-.82,2.72A4.082,4.082,0,0,0,61.61,19.54Zm18.78-2.62v.58H72.61a3.631,3.631,0,0,0,.9,2.29,2.763,2.763,0,0,0,2.06.77,2.448,2.448,0,0,0,2.56-1.72h2.02a4.435,4.435,0,0,1-1.63,2.49,4.833,4.833,0,0,1-2.99.91,4.632,4.632,0,0,1-3.58-1.48,5.566,5.566,0,0,1-1.36-3.92,5.566,5.566,0,0,1,1.36-3.92,4.585,4.585,0,0,1,3.54-1.48,4.494,4.494,0,0,1,3.6,1.54A5.9,5.9,0,0,1,80.39,16.92Zm-4.9-3.8a2.672,2.672,0,0,0-1.93.72,3.4,3.4,0,0,0-.93,2.08h5.7a3.34,3.34,0,0,0-.89-2.03A2.6,2.6,0,0,0,75.49,13.12Zm11.42-1.44v1.64H84.83v6.2a.8.8,0,0,0,.27.67,1.511,1.511,0,0,0,.91.21h.9V22q-.66.06-1.22.06a3.432,3.432,0,0,1-2.16-.56,2.169,2.169,0,0,1-.7-1.8V13.32H81.17V11.68h1.66V8.72h2v2.96Zm4.02-1.46H88.89V8.08h2.04ZM90.91,22h-2V11.68h2Zm7.54-10.32v1.64H96.37v6.2a.8.8,0,0,0,.27.67,1.511,1.511,0,0,0,.91.21h.9V22q-.66.06-1.22.06a3.432,3.432,0,0,1-2.16-.56,2.169,2.169,0,0,1-.7-1.8V13.32H92.71V11.68h1.66V8.72h2v2.96Zm10.14,9.08a5.365,5.365,0,0,1-7.4,0,5.425,5.425,0,0,1-1.42-3.92,5.452,5.452,0,0,1,1.42-3.94,5.418,5.418,0,0,1,7.4,0,5.455,5.455,0,0,1,1.4,3.94A5.427,5.427,0,0,1,108.59,20.76Zm-5.92-1.22a2.743,2.743,0,0,0,2.22.98,2.714,2.714,0,0,0,2.21-.98,4.116,4.116,0,0,0,.81-2.7,4.116,4.116,0,0,0-.81-2.7,2.714,2.714,0,0,0-2.21-.98,2.743,2.743,0,0,0-2.22.98,4.082,4.082,0,0,0-.82,2.7A4.082,4.082,0,0,0,102.67,19.54Zm14.62-8.02a5.188,5.188,0,0,1,.58.02v1.9h-.5a3.425,3.425,0,0,0-2.38.76,2.815,2.815,0,0,0-.84,2.2V22h-2V11.68h1.92v1.84A3.335,3.335,0,0,1,117.29,11.52Zm5.92,10.74q-4.3,0-4.52-3.54h2a2.1,2.1,0,0,0,.7,1.52,3.063,3.063,0,0,0,1.84.44q2.28,0,2.28-1.44a1.108,1.108,0,0,0-.48-.96,4.561,4.561,0,0,0-1.72-.56l-1.06-.2q-3.28-.6-3.28-3.08a2.612,2.612,0,0,1,1.06-2.19,4.7,4.7,0,0,1,2.92-.81q4.26,0,4.36,3.46h-1.94a1.855,1.855,0,0,0-.64-1.47,2.992,2.992,0,0,0-1.78-.43,2.582,2.582,0,0,0-1.48.36,1.168,1.168,0,0,0-.52,1.02,1.078,1.078,0,0,0,.46.93,3.889,3.889,0,0,0,1.46.53l1.08.18a5.962,5.962,0,0,1,2.74,1.08,2.493,2.493,0,0,1,.84,2,2.716,2.716,0,0,1-1.14,2.33A5.32,5.32,0,0,1,123.21,22.26Zm19.52-1.8h.56V22a7.294,7.294,0,0,1-.98.06,2.391,2.391,0,0,1-1.43-.35,1.563,1.563,0,0,1-.57-1.11,3.679,3.679,0,0,1-3.36,1.64,4.124,4.124,0,0,1-2.69-.81,2.747,2.747,0,0,1-.99-2.25q0-2.8,3.88-3.2l1.52-.16a2.26,2.26,0,0,0,1.17-.41,1.1,1.1,0,0,0,.37-.89,1.293,1.293,0,0,0-.49-1.13,2.884,2.884,0,0,0-1.63-.35,2.992,2.992,0,0,0-1.78.41,1.911,1.911,0,0,0-.62,1.45h-1.98q.22-3.46,4.38-3.46,4.08,0,4.08,3.04v5.46Q142.17,20.46,142.73,20.46Zm-5.48.22a3.143,3.143,0,0,0,2.12-.72,2.541,2.541,0,0,0,.84-2.04V16.84a2.433,2.433,0,0,1-1.28.42l-1.44.16a3.278,3.278,0,0,0-1.66.55,1.583,1.583,0,0,0-.01,2.3A2.177,2.177,0,0,0,137.25,20.68Zm12.92-9.24a3.617,3.617,0,0,1,2.66.95,3.616,3.616,0,0,1,.96,2.69V22h-2V15.36a1.918,1.918,0,0,0-2.18-2.16,2.549,2.549,0,0,0-1.8.76,2.959,2.959,0,0,0-.8,2.22V22h-2V11.68h1.92v1.54A3.692,3.692,0,0,1,150.17,11.44Zm15.16,9.02h.56V22a7.294,7.294,0,0,1-.98.06,2.391,2.391,0,0,1-1.43-.35,1.564,1.564,0,0,1-.57-1.11,3.679,3.679,0,0,1-3.36,1.64,4.124,4.124,0,0,1-2.69-.81,2.747,2.747,0,0,1-.99-2.25q0-2.8,3.88-3.2l1.52-.16a2.26,2.26,0,0,0,1.17-.41,1.1,1.1,0,0,0,.37-.89,1.293,1.293,0,0,0-.49-1.13,2.884,2.884,0,0,0-1.63-.35,2.992,2.992,0,0,0-1.78.41,1.911,1.911,0,0,0-.62,1.45h-1.98q.22-3.46,4.38-3.46,4.08,0,4.08,3.04v5.46Q164.77,20.46,165.33,20.46Zm-5.48.22a3.143,3.143,0,0,0,2.12-.72,2.541,2.541,0,0,0,.84-2.04V16.84a2.433,2.433,0,0,1-1.28.42l-1.44.16a3.278,3.278,0,0,0-1.66.55,1.583,1.583,0,0,0-.01,2.3A2.177,2.177,0,0,0,159.85,20.68ZM169.53,22h-2V7.76h2Zm7.9-6.78,1.2-3.54h2.12l-4.2,11.62a4.1,4.1,0,0,1-1.38,2.08,4.229,4.229,0,0,1-2.44.6,8.728,8.728,0,0,1-1.04-.06V24.3h1a1.761,1.761,0,0,0,1.8-1.24q.04-.12.13-.38t.15-.4l-3.82-10.6h2.18l1.2,3.54q.96,2.96,1.54,4.94Q176.65,17.62,177.43,15.22Zm8.54,7.04q-4.3,0-4.52-3.54h2a2.1,2.1,0,0,0,.7,1.52,3.063,3.063,0,0,0,1.84.44q2.28,0,2.28-1.44a1.108,1.108,0,0,0-.48-.96,4.561,4.561,0,0,0-1.72-.56l-1.06-.2q-3.28-.6-3.28-3.08a2.612,2.612,0,0,1,1.06-2.19,4.7,4.7,0,0,1,2.92-.81q4.26,0,4.36,3.46h-1.94a1.855,1.855,0,0,0-.64-1.47,2.992,2.992,0,0,0-1.78-.43,2.582,2.582,0,0,0-1.48.36,1.168,1.168,0,0,0-.52,1.02,1.078,1.078,0,0,0,.46.93,3.889,3.889,0,0,0,1.46.53l1.08.18a5.962,5.962,0,0,1,2.74,1.08,2.493,2.493,0,0,1,.84,2,2.716,2.716,0,0,1-1.14,2.33A5.32,5.32,0,0,1,185.97,22.26Zm8.22-12.04h-2.04V8.08h2.04ZM194.17,22h-2V11.68h2Zm6.46.26q-4.3,0-4.52-3.54h2a2.1,2.1,0,0,0,.7,1.52,3.063,3.063,0,0,0,1.84.44q2.28,0,2.28-1.44a1.108,1.108,0,0,0-.48-.96,4.561,4.561,0,0,0-1.72-.56l-1.06-.2q-3.28-.6-3.28-3.08a2.612,2.612,0,0,1,1.06-2.19,4.7,4.7,0,0,1,2.92-.81q4.26,0,4.36,3.46h-1.94a1.855,1.855,0,0,0-.64-1.47,2.992,2.992,0,0,0-1.78-.43,2.582,2.582,0,0,0-1.48.36,1.168,1.168,0,0,0-.52,1.02,1.078,1.078,0,0,0,.46.93,3.889,3.889,0,0,0,1.46.53l1.08.18a5.962,5.962,0,0,1,2.74,1.08,2.493,2.493,0,0,1,.84,2,2.716,2.716,0,0,1-1.14,2.33A5.32,5.32,0,0,1,200.63,22.26Z" transform="translate(699 3599)" fill="#1c3a6c"/>
    <g id="Group_3338" data-name="Group 3338" transform="translate(758 3489.882)">
      <g id="Group_3337" data-name="Group 3337" clip-path="url(#clip-path)">
        <path id="Path_1124" data-name="Path 1124" d="M98.647,17H3.353V18.14q0,32.263,0,64.526c0,1.872.522,2.391,2.4,2.392,4.145,0,8.29-.027,12.434.031a2.675,2.675,0,0,1,1.759.69,1.7,1.7,0,0,1,.173,1.613,2.273,2.273,0,0,1-1.574.972c-2.369.106-4.745.048-7.119.048-2.055,0-4.11.014-6.164-.005A5.072,5.072,0,0,1,.007,83.185q-.014-39.119,0-78.239A4.978,4.978,0,0,1,4.943,0Q50.962,0,96.981,0a4.989,4.989,0,0,1,5.014,4.973q.015,14.3,0,28.6c0,1.322-.686,2.13-1.727,2.092-1.006-.036-1.617-.806-1.618-2.092q-.01-7.654,0-15.307V17M3.362,13.537H98.639c0-2.867.029-5.661-.016-8.454a1.73,1.73,0,0,0-1.7-1.715,9.254,9.254,0,0,0-.956-.014H7.952c-.921,0-1.844-.031-2.763.012A1.719,1.719,0,0,0,3.378,5.078c-.048,2.793-.016,5.588-.016,8.458" transform="translate(0 0)" fill="#1c3a6c"/>
        <path id="Path_1125" data-name="Path 1125" d="M178.476,247.836c0,4.96.015,9.92-.016,14.88a1.1,1.1,0,0,0,.893,1.278q14.59,4.693,29.16,9.446c.236.076.473.147.706.23,1.375.488,1.756,1.251,1.262,2.632a33.032,33.032,0,0,1-8.374,13.008,33.443,33.443,0,0,1-24.982,9.552,34,34,0,0,1-5.991-67.16,45.4,45.4,0,0,1,5.034-.752c1.607-.178,2.3.5,2.306,2.112q.01,7.387,0,14.774m-3.352-13.322c-11.518.745-25.672,10.682-27.155,27.833a30.635,30.635,0,0,0,26.038,32.871c15.7,2.34,28.776-7.722,32.737-18.805-.262-.095-.521-.2-.786-.283q-14.422-4.685-28.845-9.366c-1.768-.574-1.988-.867-1.988-2.728V234.515" transform="translate(-127.501 -203.685)" fill="#1c3a6c"/>
        <path id="Path_1126" data-name="Path 1126" d="M571.045,273.909a38.042,38.042,0,0,1-1.805,10.656c-.463,1.4-1.178,1.781-2.6,1.321q-15.787-5.114-31.568-10.25c-1.561-.508-1.911-1.586-.956-2.953q9.307-13.32,18.635-26.625a1.725,1.725,0,0,1,2.8-.521,33.4,33.4,0,0,1,14.992,23.413c.256,1.639.341,3.305.5,4.959m-16.368-24.792-16.755,23.94,28.4,9.221c4.473-9.6-2-28.033-11.64-33.161" transform="translate(-470.65 -216.136)" fill="#1c3a6c"/>
        <path id="Path_1127" data-name="Path 1127" d="M464.967,215.451l13.207-20.714c-1.943-.807-3.746-1.661-5.62-2.31a28.343,28.343,0,0,0-9.069-1.522c-1.338-.012-2.128-.687-2.093-1.727.034-1.01.813-1.641,2.086-1.618a33.808,33.808,0,0,1,17.507,5.114c1.261.781,1.444,1.586.64,2.848q-8.467,13.305-16.95,26.6c-.5.777-1.124,1.318-2.107,1-.962-.31-1.195-1.083-1.194-2.019q.017-12.223.009-24.446c0-1.392.584-2.117,1.671-2.117s1.674.72,1.675,2.114q.007,8.768,0,17.537v1.163l.235.1" transform="translate(-406.954 -165.436)" fill="#1c3a6c"/>
        <path id="Path_1128" data-name="Path 1128" d="M69.738,201.888c3.26,0,6.519-.008,9.779,0,1.234,0,2.02.712,1.984,1.725a1.674,1.674,0,0,1-1.774,1.611q-10.1.026-20.2,0a1.675,1.675,0,0,1-1.771-1.719,1.711,1.711,0,0,1,1.88-1.615c3.366-.017,6.732-.006,10.1-.006" transform="translate(-50.947 -178.071)" fill="#1c3a6c"/>
        <path id="Path_1129" data-name="Path 1129" d="M64.539,262.923c-1.594,0-3.189.012-4.783,0-1.237-.012-2.02-.71-1.983-1.726.035-.977.787-1.612,1.985-1.617q4.783-.019,9.566,0c1.232,0,2.019.712,1.984,1.726-.034.975-.789,1.607-1.985,1.618-1.594.015-3.188,0-4.783,0" transform="translate(-50.957 -228.95)" fill="#1c3a6c"/>
        <path id="Path_1130" data-name="Path 1130" d="M61.1,59.484A1.666,1.666,0,1,0,59.356,61.1,1.708,1.708,0,0,0,61.1,59.484m5.11-1.717A1.666,1.666,0,1,0,67.9,59.35a1.7,1.7,0,0,0-1.693-1.583M73,61.1a1.667,1.667,0,1,0-1.622-1.737A1.714,1.714,0,0,0,73,61.1" transform="translate(-50.955 -50.951)" fill="#1c3a6c"/>
        <path id="Path_1131" data-name="Path 1131" d="M61.1,59.487a1.666,1.666,0,1,1-1.64-1.719,1.709,1.709,0,0,1,1.64,1.719" transform="translate(-50.955 -50.954)" fill="#1c3a6c"/>
        <path id="Path_1132" data-name="Path 1132" d="M117.079,57.78a1.666,1.666,0,1,1-1.636,1.746,1.7,1.7,0,0,1,1.636-1.746" transform="translate(-101.824 -50.964)" fill="#1c3a6c"/>
        <path id="Path_1133" data-name="Path 1133" d="M174.741,61.1a1.667,1.667,0,1,1,1.709-1.651,1.711,1.711,0,0,1-1.709,1.651" transform="translate(-152.698 -50.951)" fill="#1c3a6c"/>
      </g>
    </g>
  </g>
</svg>
