<svg xmlns="http://www.w3.org/2000/svg" width="1319.845" height="711.3" viewBox="0 0 1319.845 711.3">
  <g id="Group_3447" data-name="Group 3447" transform="translate(-158 -7815)">
    <rect id="Rectangle_185" data-name="Rectangle 185" width="936" height="446" transform="translate(511 7945)" fill="#fbf5c0"/>
    <rect id="Rectangle_184" data-name="Rectangle 184" width="232" height="446" transform="translate(279 7945)" fill="#dceef4"/>
    <rect id="Rectangle_186" data-name="Rectangle 186" width="1168" height="131" transform="translate(279 8391)" fill="#edf7f9"/>
    <text id="CORPORATE_USER" data-name="CORPORATE USER" transform="translate(281 7847)" fill="#53b7e4" font-size="29" font-family="HelveticaNowDisplay-Bold, Helvetica Now Display" font-weight="700" letter-spacing="0.02em"><tspan x="0" y="0">CORPORATE USER</tspan></text>
    <text id="GOALS:" transform="translate(866 7848)" fill="#53b7e4" font-size="18" font-family="HelveticaNowDisplay-Bold, Helvetica Now Display" font-weight="700" letter-spacing="0.02em"><tspan x="0" y="0">GOALS:</tspan></text>
    <text id="Task:_medication_consultation_for_an_employee" data-name="Task: medication consultation for an employee" transform="translate(279 7867)" font-size="16" font-family="HelveticaNowDisplay-Bold, Helvetica Now Display" letter-spacing="0.02em" font-weight="700"><tspan x="0" y="0">Task:</tspan><tspan y="0" xml:space="preserve" font-family="HelveticaNowDisplay-Regular, Helvetica Now Display" font-weight="400"> medication consultation for an employee</tspan></text>
    <text id="Stages" transform="translate(209 7915)" font-size="16" font-family="HelveticaNowDisplay-Medium, Helvetica Now Display" font-weight="500" letter-spacing="0.02em"><tspan x="0" y="0">Stages</tspan></text>
    <text id="Activities" transform="translate(193 7971)" font-size="16" font-family="HelveticaNowDisplay-Medium, Helvetica Now Display" font-weight="500" letter-spacing="0.02em"><tspan x="0" y="0">Activities</tspan></text>
    <text id="Feelings_and_Needs" data-name="Feelings and
Needs" transform="translate(260 8311)" font-size="16" font-family="HelveticaNowDisplay-Medium, Helvetica Now Display" font-weight="500" letter-spacing="0.02em"><tspan x="-92.944" y="0">Feelings and</tspan><tspan x="-47.488" y="19">Needs</tspan></text>
    <text id="Opportunities" transform="translate(260 8456)" font-size="16" font-family="HelveticaNowDisplay-Medium, Helvetica Now Display" font-weight="500" letter-spacing="0.02em"><tspan x="-101.312" y="0">Opportunities</tspan></text>
    <text id="Knowing_why_the_pharmacy_did_not_accept_the_insurance_to_an_employee." data-name="Knowing why the pharmacy did not accept the insurance to an employee." transform="translate(866 7868)" font-size="17" font-family="HelveticaNowDisplay-Regular, Helvetica Now Display" letter-spacing="0.02em"><tspan x="0" y="0">Knowing why the pharmacy did not accept the insurance to an employee.</tspan></text>
    <text id="The_employee_approaches_the_corporate_user_with_a_complaint_that_the_pharmacy_will_not_allow_him_to_fill_a_prescription." data-name="The employee approaches the corporate user with a complaint that the pharmacy will not allow him to fill a prescription." transform="translate(297 7957)" font-size="13" font-family="HelveticaNowDisplay-Regular, Helvetica Now Display" letter-spacing="0.02em"><tspan x="0" y="14">The employee approaches the </tspan><tspan x="0" y="28">corporate user with a complaint </tspan><tspan x="0" y="42">that the pharmacy will not allow </tspan><tspan x="0" y="56">him to fill a prescription.</tspan></text>
    <text id="Motivated_user:_The_corporate_user_receives_the_request_from_their_employee_and_initiates_the_process." data-name="Motivated user:
The corporate user receives the request from their employee and initiates the process." transform="translate(297 8295)" font-size="13" font-family="HelveticaNowDisplay-Regular, Helvetica Now Display" letter-spacing="0.02em"><tspan x="0" y="14">Motivated user:</tspan><tspan x="0" y="28">The corporate user receives the </tspan><tspan x="0" y="42">request from their employee and </tspan><tspan x="0" y="56">initiates the process.</tspan></text>
    <text id="Motivated_user:_The_corporate_client_confirms_his_theory_that_the_employee_consumed_his_entire_balance." data-name="Motivated user:
The corporate client confirms his theory that the employee consumed his entire balance." transform="translate(521 8290)" font-size="13" font-family="HelveticaNowDisplay-Regular, Helvetica Now Display" letter-spacing="0.02em"><tspan x="0" y="14">Motivated user:</tspan><tspan x="0" y="28">The corporate client </tspan><tspan x="0" y="42">confirms his theory that </tspan><tspan x="0" y="56">the employee consumed </tspan><tspan x="0" y="70">his entire balance.</tspan></text>
    <text id="The_employee_can_verify_his_credit_balance_by_himself_but_cannot_see_the_detailed_consumption." data-name="The employee can verify his credit balance by himself but cannot see the detailed consumption." transform="translate(521 8413)" font-size="13" font-family="HelveticaNowDisplay-Regular, Helvetica Now Display" letter-spacing="0.02em"><tspan x="0" y="14">The employee can verify </tspan><tspan x="0" y="28">his credit balance by </tspan><tspan x="0" y="42">himself but cannot see the </tspan><tspan x="0" y="56">detailed consumption.</tspan></text>
    <text id="The_employee_can_verify_his_credit_balance_by_himself_but_cannot_see_the_detailed_consumption.-2" data-name="The employee can verify his credit balance by himself but cannot see the detailed consumption." transform="translate(883 8413)" font-size="13" font-family="HelveticaNowDisplay-Regular, Helvetica Now Display" letter-spacing="0.02em"><tspan x="0" y="14">The employee can verify </tspan><tspan x="0" y="28">his credit balance by </tspan><tspan x="0" y="42">himself but cannot see the </tspan><tspan x="0" y="56">detailed consumption.</tspan></text>
    <text id="Frustration:_The_corporate_client_has_no_way_to_explain_the_situation." data-name="Frustration:
The corporate client has no way to explain the situation." transform="translate(697 8290)" font-size="13" font-family="HelveticaNowDisplay-Regular, Helvetica Now Display" letter-spacing="0.02em"><tspan x="0" y="14">Frustration:</tspan><tspan x="0" y="28">The corporate client has </tspan><tspan x="0" y="42">no way to explain the </tspan><tspan x="0" y="56">situation.</tspan></text>
    <text id="Frustration:_The_corporate_client_has_no_way_of_validating_the_words_of_his_employee." data-name="Frustration:
The corporate client has no way of validating the words of his employee." transform="translate(883 8290)" font-size="13" font-family="HelveticaNowDisplay-Regular, Helvetica Now Display" letter-spacing="0.02em"><tspan x="0" y="14">Frustration:</tspan><tspan x="0" y="28">The corporate client has </tspan><tspan x="0" y="42">no way of validating the </tspan><tspan x="0" y="56">words of his employee.</tspan></text>
    <text id="The_corporate_user_takes_the_employee_s_policy_number_to_check_if_the_medicine_is_covered_by_the_plan._In_the_process_he_discovers_that_the_employee_exhausted_his_available_amount." data-name="The corporate user takes the employee&apos;s policy number to check if the medicine is covered by the plan.

In the process he discovers that the employee exhausted his available amount." transform="translate(521 7957)" font-size="13" font-family="HelveticaNowDisplay-Regular, Helvetica Now Display" letter-spacing="0.02em"><tspan x="0" y="14">The corporate user takes </tspan><tspan x="0" y="28">the employee&apos;s policy </tspan><tspan x="0" y="42">number to check if the </tspan><tspan x="0" y="56">medicine is covered by </tspan><tspan x="0" y="70">the plan.</tspan><tspan x="0" y="84"></tspan><tspan x="0" y="98">In the process he </tspan><tspan x="0" y="112">discovers that the </tspan><tspan x="0" y="126">employee exhausted his </tspan><tspan x="0" y="140">available amount.</tspan></text>
    <text id="The_corporate_user_explains_to_the_employee_that_he_does_not_have_enough_balance_to_buy_the_selected_medication._The_employee_claims_that_he_has_not_consumed_all_of_his_balance." data-name="The corporate user explains to the employee that he does not have enough balance to buy the selected medication.

The employee claims that he has not consumed all of his balance." transform="translate(697 7957)" font-size="13" font-family="HelveticaNowDisplay-Regular, Helvetica Now Display" letter-spacing="0.02em"><tspan x="0" y="14">The corporate user explains </tspan><tspan x="0" y="28">to the employee that he </tspan><tspan x="0" y="42">does not have enough </tspan><tspan x="0" y="56">balance to buy the selected </tspan><tspan x="0" y="70">medication.</tspan><tspan x="0" y="84"></tspan><tspan x="0" y="98">The employee claims that </tspan><tspan x="0" y="112">he has not consumed all of </tspan><tspan x="0" y="126">his balance.</tspan></text>
    <text id="The_corporate_user_contacts_their_business_executive_for_help._The_business_executive_explains_to_the_client_that_the_employee_actually_consumed_his_entire_balance_for_medications." data-name="The corporate user contacts their business executive for help.

The business executive explains to the client that the employee actually consumed his entire balance for medications." transform="translate(883 7958)" font-size="13" font-family="HelveticaNowDisplay-Regular, Helvetica Now Display" letter-spacing="0.02em"><tspan x="0" y="14">The corporate user contacts </tspan><tspan x="0" y="28">their business executive for </tspan><tspan x="0" y="42">help.</tspan><tspan x="0" y="56"></tspan><tspan x="0" y="70">The business executive </tspan><tspan x="0" y="84">explains to the client that </tspan><tspan x="0" y="98">the employee actually </tspan><tspan x="0" y="112">consumed his entire </tspan><tspan x="0" y="126">balance for medications.</tspan></text>
    <text id="Including_a_module_for_the_history_of_movements_and_consumption_is_a_good_solution_to_this_inconvenience." data-name="Including a module for the history of movements and consumption is a good solution to this inconvenience." transform="translate(1089 8413)" font-size="13" font-family="HelveticaNowDisplay-Regular, Helvetica Now Display" letter-spacing="0.02em"><tspan x="0" y="14">Including a module for the </tspan><tspan x="0" y="28">history of movements and </tspan><tspan x="0" y="42">consumption is a good </tspan><tspan x="0" y="56">solution to this </tspan><tspan x="0" y="70">inconvenience.</tspan></text>
    <path id="Path_1209" data-name="Path 1209" d="M0,0H1168l30.845,26.48L1168,52H0Z" transform="translate(279 7889)" fill="#79c0d4"/>
    <line id="Line_11" data-name="Line 11" y2="576.5" transform="translate(685.5 7945.5)" fill="none" stroke="#fff" stroke-width="4"/>
    <line id="Line_12" data-name="Line 12" y2="576.5" transform="translate(865.5 7945.5)" fill="none" stroke="#fff" stroke-width="4"/>
    <line id="Line_15" data-name="Line 15" y2="576.5" transform="translate(509.5 7945.5)" fill="none" stroke="#fff" stroke-width="4"/>
    <line id="Line_16" data-name="Line 16" x2="1170.5" transform="translate(279 7943.5)" fill="none" stroke="#fff" stroke-width="4"/>
    <line id="Line_17" data-name="Line 17" x2="1170.5" transform="translate(279 8393)" fill="none" stroke="#fff" stroke-width="4"/>
    <g id="Group_3422" data-name="Group 3422" transform="translate(-182)">
      <circle id="Ellipse_55" data-name="Ellipse 55" cx="13.5" cy="13.5" r="13.5" transform="translate(418 8152)" fill="#53b7e3"/>
      <g id="Intersection_3" data-name="Intersection 3" transform="translate(425 8166)" fill="none">
        <path d="M0,4.092V0H13V2.987C11.391,6.045,8.931,8,6.174,8,3.767,8,1.586,6.508,0,4.092Z" stroke="none"/>
        <path d="M 6.174320220947266 6.599999904632568 C 8.219850540161133 6.599999904632568 10.18377113342285 5.158741474151611 11.60000038146973 2.631880760192871 L 11.60000038146973 1.399999976158142 L 1.399999976158142 1.399999976158142 L 1.399999976158142 3.660061359405518 C 2.750915765762329 5.559617042541504 4.434619903564453 6.599999904632568 6.174320220947266 6.599999904632568 M 6.174320220947266 8 C 3.766599893569946 8 1.585940003395081 6.507659912109375 -8.881784197001252e-16 4.092239856719971 L -8.881784197001252e-16 0 L 13 0 L 13 2.98727011680603 C 11.39111042022705 6.044650077819824 8.931150436401367 8 6.174320220947266 8 Z" stroke="none" fill="#fff"/>
      </g>
      <rect id="Rectangle_188" data-name="Rectangle 188" width="15" height="4" transform="translate(424 8166)" fill="#53b7e3"/>
      <g id="Group_3421" data-name="Group 3421">
        <circle id="Ellipse_56" data-name="Ellipse 56" cx="2" cy="2" r="2" transform="translate(424 8161)" fill="#fff"/>
        <circle id="Ellipse_57" data-name="Ellipse 57" cx="2" cy="2" r="2" transform="translate(435 8161)" fill="#fff"/>
      </g>
    </g>
    <g id="Group_3430" data-name="Group 3430" transform="translate(-115)">
      <circle id="Ellipse_55-2" data-name="Ellipse 55" cx="13.5" cy="13.5" r="13.5" transform="translate(418 8152)" fill="#53b7e3"/>
      <g id="Intersection_3-2" data-name="Intersection 3" transform="translate(425 8166)" fill="none">
        <path d="M0,4.092V0H13V2.987C11.391,6.045,8.931,8,6.174,8,3.767,8,1.586,6.508,0,4.092Z" stroke="none"/>
        <path d="M 6.174320220947266 6.599999904632568 C 8.219850540161133 6.599999904632568 10.18377113342285 5.158741474151611 11.60000038146973 2.631880760192871 L 11.60000038146973 1.399999976158142 L 1.399999976158142 1.399999976158142 L 1.399999976158142 3.660061359405518 C 2.750915765762329 5.559617042541504 4.434619903564453 6.599999904632568 6.174320220947266 6.599999904632568 M 6.174320220947266 8 C 3.766599893569946 8 1.585940003395081 6.507659912109375 -8.881784197001252e-16 4.092239856719971 L -8.881784197001252e-16 0 L 13 0 L 13 2.98727011680603 C 11.39111042022705 6.044650077819824 8.931150436401367 8 6.174320220947266 8 Z" stroke="none" fill="#fff"/>
      </g>
      <rect id="Rectangle_188-2" data-name="Rectangle 188" width="15" height="4" transform="translate(424 8166)" fill="#53b7e3"/>
      <g id="Group_3421-2" data-name="Group 3421">
        <circle id="Ellipse_56-2" data-name="Ellipse 56" cx="2" cy="2" r="2" transform="translate(424 8161)" fill="#fff"/>
        <circle id="Ellipse_57-2" data-name="Ellipse 57" cx="2" cy="2" r="2" transform="translate(435 8161)" fill="#fff"/>
      </g>
    </g>
    <g id="Group_3423" data-name="Group 3423">
      <circle id="Ellipse_55-3" data-name="Ellipse 55" cx="13.5" cy="13.5" r="13.5" transform="translate(236 8234)" fill="#df8871"/>
      <g id="Intersection_3-3" data-name="Intersection 3" transform="translate(256 8260) rotate(180)" fill="none">
        <path d="M0,4.092V0H13V2.987C11.391,6.045,8.931,8,6.174,8,3.767,8,1.586,6.508,0,4.092Z" stroke="none"/>
        <path d="M 6.174320220947266 6.599999904632568 C 8.219850540161133 6.599999904632568 10.18377113342285 5.158741474151611 11.60000038146973 2.631880760192871 L 11.60000038146973 1.399999976158142 L 1.399999976158142 1.399999976158142 L 1.399999976158142 3.660061359405518 C 2.750915765762329 5.559617042541504 4.434619903564453 6.599999904632568 6.174320220947266 6.599999904632568 M 6.174320220947266 8 C 3.766599893569946 8 1.585940003395081 6.507659912109375 -8.881784197001252e-16 4.092239856719971 L -8.881784197001252e-16 0 L 13 0 L 13 2.98727011680603 C 11.39111042022705 6.044650077819824 8.931150436401367 8 6.174320220947266 8 Z" stroke="none" fill="#fff"/>
      </g>
      <path id="Intersection_4" data-name="Intersection 4" d="M-8901.607-138a13.469,13.469,0,0,1-2.394-1.274V-142h15v2.727a13.5,13.5,0,0,1-2.392,1.273Z" transform="translate(9146 8398)" fill="#de8871"/>
      <g id="Group_3421-3" data-name="Group 3421" transform="translate(-182 82)">
        <circle id="Ellipse_56-3" data-name="Ellipse 56" cx="2" cy="2" r="2" transform="translate(424 8161)" fill="#fff"/>
        <circle id="Ellipse_57-3" data-name="Ellipse 57" cx="2" cy="2" r="2" transform="translate(435 8161)" fill="#fff"/>
      </g>
    </g>
    <g id="Group_3427" data-name="Group 3427">
      <circle id="Ellipse_55-4" data-name="Ellipse 55" cx="13.5" cy="13.5" r="13.5" transform="translate(236 8193)" fill="#e0c348"/>
      <g id="Group_3421-4" data-name="Group 3421" transform="translate(-182 41)">
        <circle id="Ellipse_56-4" data-name="Ellipse 56" cx="2" cy="2" r="2" transform="translate(424 8161)" fill="#fff"/>
        <circle id="Ellipse_57-4" data-name="Ellipse 57" cx="2" cy="2" r="2" transform="translate(435 8161)" fill="#fff"/>
      </g>
      <rect id="Rectangle_189" data-name="Rectangle 189" width="11" height="2" transform="translate(244 8211)" fill="#fff"/>
    </g>
    <rect id="Rectangle_190" data-name="Rectangle 190" width="190" height="446" transform="translate(1075 7945)" fill="#b6deee"/>
    <rect id="Rectangle_191" data-name="Rectangle 191" width="185" height="446" transform="translate(1263 7945)" fill="#ddeff5"/>
    <text id="Hope:_The_corporate_client_expects_the_employee_to_understand_what_has_been_explained_to_him." data-name="Hope:
The corporate client expects the employee to understand what has been explained to him." transform="translate(1089 8290)" font-size="13" font-family="HelveticaNowDisplay-Regular, Helvetica Now Display" letter-spacing="0.02em"><tspan x="0" y="14">Hope:</tspan><tspan x="0" y="28">The corporate client </tspan><tspan x="0" y="42">expects the employee to </tspan><tspan x="0" y="56">understand what has </tspan><tspan x="0" y="70">been explained to him.</tspan></text>
    <text id="Dissatisfaction:_Both_the_corporate_client_and_their_employee_understand_that_the_query_needs_to_be_more_detailed." data-name="Dissatisfaction:
Both the corporate client and their employee understand that the query needs to be more detailed." transform="translate(1280 8290)" font-size="13" font-family="HelveticaNowDisplay-Regular, Helvetica Now Display" letter-spacing="0.02em"><tspan x="0" y="14">Dissatisfaction:</tspan><tspan x="0" y="28">Both the corporate client </tspan><tspan x="0" y="42">and their employee </tspan><tspan x="0" y="56">understand that the query </tspan><tspan x="0" y="70">needs to be more </tspan><tspan x="0" y="84">detailed.</tspan></text>
    <text id="The_corporate_client_explains_to_his_employee_that_the_balance_for_products_was_consumed." data-name="The corporate client explains to his employee that the balance for products was consumed." transform="translate(1089 7958)" font-size="13" font-family="HelveticaNowDisplay-Regular, Helvetica Now Display" letter-spacing="0.02em"><tspan x="0" y="14">The corporate client </tspan><tspan x="0" y="28">explains to his employee </tspan><tspan x="0" y="42">that the balance for </tspan><tspan x="0" y="56">products was consumed.</tspan></text>
    <text id="The_employee_is_dissatisfied_with_the_answer_because_he_says_he_can_t_remember_when_he_used_up_all_of_his_balance." data-name="The employee is dissatisfied with the answer because he says he can’t remember when he used up all of his balance." transform="translate(1280 7958)" font-size="13" font-family="HelveticaNowDisplay-Regular, Helvetica Now Display" letter-spacing="0.02em"><tspan x="0" y="14">The employee is </tspan><tspan x="0" y="28">dissatisfied with the </tspan><tspan x="0" y="42">answer because he says </tspan><tspan x="0" y="56">he can’t remember when </tspan><tspan x="0" y="70">he used up all of his </tspan><tspan x="0" y="84">balance.</tspan></text>
    <line id="Line_14" data-name="Line 14" y2="581" transform="translate(1264.5 7941.5)" fill="none" stroke="#fff" stroke-width="4"/>
    <line id="Line_18" data-name="Line 18" x2="1170.5" transform="translate(279 8278)" fill="none" stroke="#fff" stroke-width="4"/>
    <line id="Line_19" data-name="Line 19" x2="1170.5" transform="translate(279 8130)" fill="none" stroke="#fff" stroke-width="4"/>
    <path id="Path_1214" data-name="Path 1214" d="M0,0H539.066l21.812,26.567L539.066,52H-24.449L-7.473,35.689S0,29.447,0,27.064c0-1.738-6.4-7.1-6.4-7.1L-24.449,0Z" transform="translate(535.698 7889)" fill="#bec74e"/>
    <path id="Path_1210" data-name="Path 1210" d="M0,0,27.151,29.085,0,57" transform="translate(507.424 7886.5)" fill="none" stroke="#fff" stroke-width="4"/>
    <path id="Path_1211" data-name="Path 1211" d="M0,0,27.151,29.085,0,57" transform="translate(863.547 7886.5)" fill="none" stroke="#fff" stroke-width="4"/>
    <path id="Path_1212" data-name="Path 1212" d="M0,0,27.151,29.085,0,57" transform="translate(1070.547 7886.5)" fill="none" stroke="#fff" stroke-width="4"/>
    <path id="Path_1213" data-name="Path 1213" d="M0,0,27.151,29.085,0,57" transform="translate(1260.547 7886.5)" fill="none" stroke="#fff" stroke-width="4"/>
    <text id="Employee_contact" data-name="Employee contact" transform="translate(297 7919)" font-size="14" font-family="HelveticaNowDisplay-Bold, Helvetica Now Display" font-weight="700" letter-spacing="0.02em"><tspan x="0" y="0">Employee contact</tspan></text>
    <text id="Validation_and_authorization_process" data-name="Validation and authorization process" transform="translate(558 7919)" font-size="14" font-family="HelveticaNowDisplay-Bold, Helvetica Now Display" font-weight="700" letter-spacing="0.02em"><tspan x="0" y="0">Validation and authorization process</tspan></text>
    <text id="Help_request" data-name="Help request" transform="translate(913 7919)" font-size="14" font-family="HelveticaNowDisplay-Bold, Helvetica Now Display" font-weight="700" letter-spacing="0.02em"><tspan x="0" y="0">Help request</tspan></text>
    <text id="Response" transform="translate(1117 7919)" font-size="14" font-family="HelveticaNowDisplay-Bold, Helvetica Now Display" font-weight="700" letter-spacing="0.02em"><tspan x="0" y="0">Response</tspan></text>
    <text id="Outcome" transform="translate(1313 7919)" font-size="14" font-family="HelveticaNowDisplay-Bold, Helvetica Now Display" font-weight="700" letter-spacing="0.02em"><tspan x="0" y="0">Outcome</tspan></text>
    <line id="Line_20" data-name="Line 20" x2="228" y2="41" transform="translate(316.5 8165.5)" fill="none" stroke="#52b7e3" stroke-width="4"/>
    <line id="Line_21" data-name="Line 21" x2="164" y2="41" transform="translate(551.5 8206.5)" fill="none" stroke="#e0c348" stroke-width="4"/>
    <line id="Line_22" data-name="Line 22" x1="184" transform="translate(715.5 8247.5)" fill="none" stroke="#de8871" stroke-width="4"/>
    <line id="Line_24" data-name="Line 24" x1="191" y1="41" transform="translate(1102.5 8206.5)" fill="none" stroke="#e0c348" stroke-width="4"/>
    <g id="Group_3428" data-name="Group 3428" transform="translate(295)">
      <circle id="Ellipse_55-5" data-name="Ellipse 55" cx="13.5" cy="13.5" r="13.5" transform="translate(236 8193)" fill="#e0c348"/>
      <g id="Group_3421-5" data-name="Group 3421" transform="translate(-182 41)">
        <circle id="Ellipse_56-5" data-name="Ellipse 56" cx="2" cy="2" r="2" transform="translate(424 8161)" fill="#fff"/>
        <circle id="Ellipse_57-5" data-name="Ellipse 57" cx="2" cy="2" r="2" transform="translate(435 8161)" fill="#fff"/>
      </g>
      <rect id="Rectangle_189-2" data-name="Rectangle 189" width="11" height="2" transform="translate(244 8211)" fill="#fff"/>
    </g>
    <g id="Group_3424" data-name="Group 3424" transform="translate(466)">
      <circle id="Ellipse_55-6" data-name="Ellipse 55" cx="13.5" cy="13.5" r="13.5" transform="translate(236 8234)" fill="#df8871"/>
      <g id="Intersection_3-4" data-name="Intersection 3" transform="translate(256 8260) rotate(180)" fill="none">
        <path d="M0,4.092V0H13V2.987C11.391,6.045,8.931,8,6.174,8,3.767,8,1.586,6.508,0,4.092Z" stroke="none"/>
        <path d="M 6.174320220947266 6.599999904632568 C 8.219850540161133 6.599999904632568 10.18377113342285 5.158741474151611 11.60000038146973 2.631880760192871 L 11.60000038146973 1.399999976158142 L 1.399999976158142 1.399999976158142 L 1.399999976158142 3.660061359405518 C 2.750915765762329 5.559617042541504 4.434619903564453 6.599999904632568 6.174320220947266 6.599999904632568 M 6.174320220947266 8 C 3.766599893569946 8 1.585940003395081 6.507659912109375 -8.881784197001252e-16 4.092239856719971 L -8.881784197001252e-16 0 L 13 0 L 13 2.98727011680603 C 11.39111042022705 6.044650077819824 8.931150436401367 8 6.174320220947266 8 Z" stroke="none" fill="#fff"/>
      </g>
      <path id="Intersection_4-2" data-name="Intersection 4" d="M-8901.607-138a13.469,13.469,0,0,1-2.394-1.274V-142h15v2.727a13.5,13.5,0,0,1-2.392,1.273Z" transform="translate(9146 8398)" fill="#de8871"/>
      <g id="Group_3421-6" data-name="Group 3421" transform="translate(-182 82)">
        <circle id="Ellipse_56-6" data-name="Ellipse 56" cx="2" cy="2" r="2" transform="translate(424 8161)" fill="#fff"/>
        <circle id="Ellipse_57-6" data-name="Ellipse 57" cx="2" cy="2" r="2" transform="translate(435 8161)" fill="#fff"/>
      </g>
    </g>
    <g id="Group_3426" data-name="Group 3426" transform="translate(1044)">
      <circle id="Ellipse_55-7" data-name="Ellipse 55" cx="13.5" cy="13.5" r="13.5" transform="translate(236 8234)" fill="#df8871"/>
      <g id="Intersection_3-5" data-name="Intersection 3" transform="translate(256 8260) rotate(180)" fill="none">
        <path d="M0,4.092V0H13V2.987C11.391,6.045,8.931,8,6.174,8,3.767,8,1.586,6.508,0,4.092Z" stroke="none"/>
        <path d="M 6.174320220947266 6.599999904632568 C 8.219850540161133 6.599999904632568 10.18377113342285 5.158741474151611 11.60000038146973 2.631880760192871 L 11.60000038146973 1.399999976158142 L 1.399999976158142 1.399999976158142 L 1.399999976158142 3.660061359405518 C 2.750915765762329 5.559617042541504 4.434619903564453 6.599999904632568 6.174320220947266 6.599999904632568 M 6.174320220947266 8 C 3.766599893569946 8 1.585940003395081 6.507659912109375 -8.881784197001252e-16 4.092239856719971 L -8.881784197001252e-16 0 L 13 0 L 13 2.98727011680603 C 11.39111042022705 6.044650077819824 8.931150436401367 8 6.174320220947266 8 Z" stroke="none" fill="#fff"/>
      </g>
      <path id="Intersection_4-3" data-name="Intersection 4" d="M-8901.607-138a13.469,13.469,0,0,1-2.394-1.274V-142h15v2.727a13.5,13.5,0,0,1-2.392,1.273Z" transform="translate(9146 8398)" fill="#de8871"/>
      <g id="Group_3421-7" data-name="Group 3421" transform="translate(-182 82)">
        <circle id="Ellipse_56-7" data-name="Ellipse 56" cx="2" cy="2" r="2" transform="translate(424 8161)" fill="#fff"/>
        <circle id="Ellipse_57-7" data-name="Ellipse 57" cx="2" cy="2" r="2" transform="translate(435 8161)" fill="#fff"/>
      </g>
    </g>
    <path id="Path_1215" data-name="Path 1215" d="M0,0-1.345,580.795" transform="translate(1073.5 7945.5)" fill="none" stroke="#fff" stroke-width="4"/>
    <line id="Line_23" data-name="Line 23" y1="41" x2="203" transform="translate(899.5 8206.5)" fill="none" stroke="#df8871" stroke-width="4"/>
    <g id="Group_3425" data-name="Group 3425" transform="translate(650)">
      <circle id="Ellipse_55-8" data-name="Ellipse 55" cx="13.5" cy="13.5" r="13.5" transform="translate(236 8234)" fill="#df8871"/>
      <g id="Intersection_3-6" data-name="Intersection 3" transform="translate(256 8260) rotate(180)" fill="none">
        <path d="M0,4.092V0H13V2.987C11.391,6.045,8.931,8,6.174,8,3.767,8,1.586,6.508,0,4.092Z" stroke="none"/>
        <path d="M 6.174320220947266 6.599999904632568 C 8.219850540161133 6.599999904632568 10.18377113342285 5.158741474151611 11.60000038146973 2.631880760192871 L 11.60000038146973 1.399999976158142 L 1.399999976158142 1.399999976158142 L 1.399999976158142 3.660061359405518 C 2.750915765762329 5.559617042541504 4.434619903564453 6.599999904632568 6.174320220947266 6.599999904632568 M 6.174320220947266 8 C 3.766599893569946 8 1.585940003395081 6.507659912109375 -8.881784197001252e-16 4.092239856719971 L -8.881784197001252e-16 0 L 13 0 L 13 2.98727011680603 C 11.39111042022705 6.044650077819824 8.931150436401367 8 6.174320220947266 8 Z" stroke="none" fill="#fff"/>
      </g>
      <path id="Intersection_4-4" data-name="Intersection 4" d="M-8901.607-138a13.469,13.469,0,0,1-2.394-1.274V-142h15v2.727a13.5,13.5,0,0,1-2.392,1.273Z" transform="translate(9146 8398)" fill="#de8871"/>
      <g id="Group_3421-8" data-name="Group 3421" transform="translate(-182 82)">
        <circle id="Ellipse_56-8" data-name="Ellipse 56" cx="2" cy="2" r="2" transform="translate(424 8161)" fill="#fff"/>
        <circle id="Ellipse_57-8" data-name="Ellipse 57" cx="2" cy="2" r="2" transform="translate(435 8161)" fill="#fff"/>
      </g>
    </g>
    <g id="Group_3429" data-name="Group 3429" transform="translate(853)">
      <circle id="Ellipse_55-9" data-name="Ellipse 55" cx="13.5" cy="13.5" r="13.5" transform="translate(236 8193)" fill="#e0c348"/>
      <g id="Group_3421-9" data-name="Group 3421" transform="translate(-182 41)">
        <circle id="Ellipse_56-9" data-name="Ellipse 56" cx="2" cy="2" r="2" transform="translate(424 8161)" fill="#fff"/>
        <circle id="Ellipse_57-9" data-name="Ellipse 57" cx="2" cy="2" r="2" transform="translate(435 8161)" fill="#fff"/>
      </g>
      <rect id="Rectangle_189-3" data-name="Rectangle 189" width="11" height="2" transform="translate(244 8211)" fill="#fff"/>
    </g>
  </g>
</svg>
