<svg xmlns="http://www.w3.org/2000/svg" xmlns:xlink="http://www.w3.org/1999/xlink" width="405" height="225" viewBox="0 0 405 225">
  <defs>
    <clipPath id="clip-path">
      <rect id="Rectangle_136" data-name="Rectangle 136" width="88.856" height="102.059" fill="#1c3a6c"/>
    </clipPath>
  </defs>
  <g id="Group_4426" data-name="Group 4426" transform="translate(-1063 -3161)">
    <g id="Group_4421" data-name="Group 4421">
      <path id="Path_6114" data-name="Path 6114" d="M15,0H390a15,15,0,0,1,15,15V210a15,15,0,0,1-15,15H15A15,15,0,0,1,0,210V15A15,15,0,0,1,15,0Z" transform="translate(1063 3161)" fill="#fff"/>
      <path id="Path_6117" data-name="Path 6117" d="M44.7,20.84a5.87,5.87,0,0,1-4.24,1.46,5.846,5.846,0,0,1-4.24-1.47,5.505,5.505,0,0,1-1.52-4.15V7.76h2.14V16.7a3.8,3.8,0,0,0,.93,2.78,3.619,3.619,0,0,0,2.69.94,3.619,3.619,0,0,0,2.69-.94,3.8,3.8,0,0,0,.93-2.78V7.76h2.14v8.92A5.539,5.539,0,0,1,44.7,20.84Zm7.9,1.42q-4.3,0-4.52-3.54h2a2.1,2.1,0,0,0,.7,1.52,3.063,3.063,0,0,0,1.84.44q2.28,0,2.28-1.44a1.108,1.108,0,0,0-.48-.96,4.561,4.561,0,0,0-1.72-.56l-1.06-.2q-3.28-.6-3.28-3.08a2.612,2.612,0,0,1,1.06-2.19,4.7,4.7,0,0,1,2.92-.81q4.26,0,4.36,3.46H54.76a1.855,1.855,0,0,0-.64-1.47A2.992,2.992,0,0,0,52.34,13a2.582,2.582,0,0,0-1.48.36,1.168,1.168,0,0,0-.52,1.02,1.078,1.078,0,0,0,.46.93,3.889,3.889,0,0,0,1.46.53l1.08.18a5.962,5.962,0,0,1,2.74,1.08,2.493,2.493,0,0,1,.84,2,2.716,2.716,0,0,1-1.14,2.33A5.32,5.32,0,0,1,52.6,22.26Zm15.36-1.8h.56V22a7.294,7.294,0,0,1-.98.06,2.391,2.391,0,0,1-1.43-.35,1.564,1.564,0,0,1-.57-1.11,3.679,3.679,0,0,1-3.36,1.64,4.124,4.124,0,0,1-2.69-.81,2.747,2.747,0,0,1-.99-2.25q0-2.8,3.88-3.2l1.52-.16a2.26,2.26,0,0,0,1.17-.41,1.1,1.1,0,0,0,.37-.89,1.293,1.293,0,0,0-.49-1.13,2.884,2.884,0,0,0-1.63-.35,2.992,2.992,0,0,0-1.78.41,1.911,1.911,0,0,0-.62,1.45H58.94q.22-3.46,4.38-3.46,4.08,0,4.08,3.04v5.46Q67.4,20.46,67.96,20.46Zm-5.48.22a3.143,3.143,0,0,0,2.12-.72,2.541,2.541,0,0,0,.84-2.04V16.84a2.433,2.433,0,0,1-1.28.42l-1.44.16a3.278,3.278,0,0,0-1.66.55,1.583,1.583,0,0,0-.01,2.3A2.177,2.177,0,0,0,62.48,20.68Zm13.04-9.24a4.344,4.344,0,0,1,3.44,1.46,5.766,5.766,0,0,1,1.28,3.94,5.735,5.735,0,0,1-1.28,3.92,4.355,4.355,0,0,1-3.44,1.48,3.828,3.828,0,0,1-3.44-1.8V22H70.16V7.76h2v5.36A3.83,3.83,0,0,1,75.52,11.44Zm-2.58,8.1a2.686,2.686,0,0,0,2.2.98,2.72,2.72,0,0,0,2.22-1,4.254,4.254,0,0,0,.8-2.76,3.986,3.986,0,0,0-.8-2.66,3.046,3.046,0,0,0-4.42.02,4.164,4.164,0,0,0-.82,2.72A4.082,4.082,0,0,0,72.94,19.54Zm11.48-9.32H82.38V8.08h2.04ZM84.4,22h-2V11.68h2Zm4.64,0h-2V7.76h2ZM93.7,10.22H91.66V8.08H93.7ZM93.68,22h-2V11.68h2Zm7.54-10.32v1.64H99.14v6.2a.8.8,0,0,0,.27.67,1.511,1.511,0,0,0,.91.21h.9V22q-.66.06-1.22.06a3.432,3.432,0,0,1-2.16-.56,2.169,2.169,0,0,1-.7-1.8V13.32H95.48V11.68h1.66V8.72h2v2.96Zm7.44,3.54,1.2-3.54h2.12l-4.2,11.62a4.1,4.1,0,0,1-1.38,2.08,4.229,4.229,0,0,1-2.44.6,8.728,8.728,0,0,1-1.04-.06V24.3h1a1.761,1.761,0,0,0,1.8-1.24q.04-.12.13-.38t.15-.4l-3.82-10.6h2.18l1.2,3.54q.96,2.96,1.54,4.94Q107.88,17.62,108.66,15.22Zm14.26-3.54v1.64h-2.08v6.2a.8.8,0,0,0,.27.67,1.511,1.511,0,0,0,.91.21h.9V22q-.66.06-1.22.06a3.432,3.432,0,0,1-2.16-.56,2.169,2.169,0,0,1-.7-1.8V13.32h-1.66V11.68h1.66V8.72h2v2.96Zm11.12,5.24v.58h-7.78a3.631,3.631,0,0,0,.9,2.29,2.763,2.763,0,0,0,2.06.77,2.448,2.448,0,0,0,2.56-1.72h2.02a4.435,4.435,0,0,1-1.63,2.49,4.833,4.833,0,0,1-2.99.91,4.632,4.632,0,0,1-3.58-1.48,5.566,5.566,0,0,1-1.36-3.92,5.566,5.566,0,0,1,1.36-3.92,4.585,4.585,0,0,1,3.54-1.48,4.494,4.494,0,0,1,3.6,1.54A5.9,5.9,0,0,1,134.04,16.92Zm-4.9-3.8a2.672,2.672,0,0,0-1.93.72,3.4,3.4,0,0,0-.93,2.08h5.7a3.34,3.34,0,0,0-.89-2.03A2.6,2.6,0,0,0,129.14,13.12Zm10.84,9.14q-4.3,0-4.52-3.54h2a2.1,2.1,0,0,0,.7,1.52,3.063,3.063,0,0,0,1.84.44q2.28,0,2.28-1.44a1.108,1.108,0,0,0-.48-.96,4.561,4.561,0,0,0-1.72-.56l-1.06-.2q-3.28-.6-3.28-3.08a2.612,2.612,0,0,1,1.06-2.19,4.7,4.7,0,0,1,2.92-.81q4.26,0,4.36,3.46h-1.94a1.855,1.855,0,0,0-.64-1.47,2.992,2.992,0,0,0-1.78-.43,2.582,2.582,0,0,0-1.48.36,1.168,1.168,0,0,0-.52,1.02,1.078,1.078,0,0,0,.46.93,3.889,3.889,0,0,0,1.46.53l1.08.18a5.962,5.962,0,0,1,2.74,1.08,2.493,2.493,0,0,1,.84,2,2.716,2.716,0,0,1-1.14,2.33A5.32,5.32,0,0,1,139.98,22.26ZM150.9,11.68v1.64h-2.08v6.2a.8.8,0,0,0,.27.67,1.511,1.511,0,0,0,.91.21h.9V22q-.66.06-1.22.06a3.432,3.432,0,0,1-2.16-.56,2.169,2.169,0,0,1-.7-1.8V13.32h-1.66V11.68h1.66V8.72h2v2.96Zm5.76,10.58q-4.3,0-4.52-3.54h2a2.1,2.1,0,0,0,.7,1.52,3.063,3.063,0,0,0,1.84.44q2.28,0,2.28-1.44a1.108,1.108,0,0,0-.48-.96,4.561,4.561,0,0,0-1.72-.56l-1.06-.2q-3.28-.6-3.28-3.08a2.612,2.612,0,0,1,1.06-2.19,4.7,4.7,0,0,1,2.92-.81q4.26,0,4.36,3.46h-1.94a1.855,1.855,0,0,0-.64-1.47A2.992,2.992,0,0,0,156.4,13a2.582,2.582,0,0,0-1.48.36,1.168,1.168,0,0,0-.52,1.02,1.078,1.078,0,0,0,.46.93,3.889,3.889,0,0,0,1.46.53l1.08.18a5.962,5.962,0,0,1,2.74,1.08,2.493,2.493,0,0,1,.84,2,2.716,2.716,0,0,1-1.14,2.33A5.32,5.32,0,0,1,156.66,22.26Z" transform="translate(1168 3317)" fill="#1c3a6c"/>
      <g id="Group_3342" data-name="Group 3342" transform="translate(1231.072 3204.002)">
        <g id="Group_3341" data-name="Group 3341" transform="translate(0 -0.002)" clip-path="url(#clip-path)">
          <path id="Path_1144" data-name="Path 1144" d="M3.223,87.232c0,1.25-.034,2.345.011,3.437a1.608,1.608,0,0,0,1.592,1.571c.41.031.823.012,1.235.012H45.08c.172,0,.343,0,.515,0,1.305.01,2.09.614,2.092,1.609s-.779,1.606-2.09,1.606q-20.178,0-40.357,0A4.942,4.942,0,0,1,0,90.238Q0,47.719,0,5.2A4.911,4.911,0,0,1,5.16,0q22.8-.015,45.607,0a4.934,4.934,0,0,1,5.162,5.2q.013,20.178,0,40.357c0,.137,0,.275,0,.412a1.668,1.668,0,0,1-1.568,1.718,1.639,1.639,0,0,1-1.635-1.746c-.029-1.921-.011-3.843-.011-5.765q0-12.92,0-25.841v-1.17H3.289V84.015H37.1a7.164,7.164,0,0,1,.823.013,1.618,1.618,0,0,1,1.52,1.643,1.585,1.585,0,0,1-1.512,1.544,6.868,6.868,0,0,1-.926.015H3.223ZM52.717,9.849c0-1.468,0-2.834,0-4.2,0-1.964-.463-2.433-2.408-2.433l-42.83,0c-.858,0-1.716-.011-2.574,0A1.47,1.47,0,0,0,3.288,4.513c-.114,1.761-.035,3.535-.035,5.336Z" transform="translate(0 0.002)" fill="#1c3a6c"/>
          <path id="Path_1145" data-name="Path 1145" d="M292.188,359.122a7.607,7.607,0,0,1,6.166-2.014,1.085,1.085,0,0,0,.748-.375,8.012,8.012,0,0,1,6.282-2.537,1.677,1.677,0,0,0,1.075-.537c1.718-1.823,3.709-2.812,6.259-2.158a5.7,5.7,0,0,1,3.616,2.7q6.007,10.306,11.954,20.648c1.123,1.956,1.222,4.186,1.48,6.361.23,1.94.348,3.9.718,5.813a19.493,19.493,0,0,0,1.313,3.747c.329.784.867,1.478,1.249,2.244a1.51,1.51,0,0,1-.646,2.108,1.494,1.494,0,0,1-2.075-.528,17.434,17.434,0,0,1-3.192-8.35c-.168-2.459-.471-4.917-.883-7.347a10.434,10.434,0,0,0-1.223-3.349c-3.635-6.372-7.34-12.7-11.025-19.048-1.525-2.626-3.836-2.7-5.563-.174-1.084,1.583-1.084,1.583-2.908,1.144a4.165,4.165,0,0,0-4.514,2.251,1.583,1.583,0,0,1-2.463.916,3.267,3.267,0,0,0-4.6,1.807c-.235.809-.512,1.5-1.469,1.615-1,.116-1.46-.533-1.894-1.284q-5.793-10.015-11.6-20.021a2.807,2.807,0,0,0-2.117-1.612,2.461,2.461,0,0,0-2.484,1.126,2.489,2.489,0,0,0-.027,2.813q3.172,5.472,6.346,10.943l14.6,25.176c.1.178.211.354.3.539a1.6,1.6,0,0,1-.539,2.162,1.445,1.445,0,0,1-2.135-.526,6.308,6.308,0,0,0-2.686-2.447c-2.746-1.617-5.478-3.259-8.256-4.817a8.562,8.562,0,0,0-2.865-1.08,4.956,4.956,0,0,0-2.639.394,1.48,1.48,0,0,0-.241,2.613,12.644,12.644,0,0,0,1.931,1.361,75.2,75.2,0,0,1,14.168,10.7,40.123,40.123,0,0,0,11.782,7.98c.818.351,1.66.643,2.489.969a11.66,11.66,0,0,1,6.022,5.362,1.64,1.64,0,0,1-.451,2.349,1.537,1.537,0,0,1-2.263-.693,9.67,9.67,0,0,0-5.629-4.511,38.134,38.134,0,0,1-13.3-8.409,88.9,88.9,0,0,0-15.471-11.7,7.107,7.107,0,0,1-2.46-2.4c-1.683-2.887-.02-6.193,3.442-7.153a6.462,6.462,0,0,1,4.428.329c2.154.958,4.239,2.074,6.35,3.129a3.31,3.31,0,0,0,1.174.435c-.174-.314-.342-.632-.522-.942q-8.124-14.014-16.246-28.028a5.771,5.771,0,1,1,9.951-5.83q4.927,8.437,9.814,16.9c.223.383.455.762.74,1.238" transform="translate(-244.382 -304.961)" fill="#1c3a6c"/>
          <path id="Path_1146" data-name="Path 1146" d="M385.456,284.8c.2.163.812.425,1,.866a2.048,2.048,0,0,1-.113,1.608,4.257,4.257,0,0,1-1.5,1.5,1.932,1.932,0,0,1-1.6.1,1.976,1.976,0,0,1-.833-1.363c-.119-.98,1.684-2.7,3.048-2.711" transform="translate(-345.113 -257.031)" fill="#1c3a6c"/>
          <path id="Path_1147" data-name="Path 1147" d="M224.527,298.645c-.138.189-.36.784-.768.971a1.989,1.989,0,0,1-1.6,0,4.881,4.881,0,0,1-1.645-1.641,1.9,1.9,0,0,1-.015-1.6,1.87,1.87,0,0,1,1.312-.75c.994-.11,2.706,1.66,2.721,3.019" transform="translate(-198.842 -266.794)" fill="#1c3a6c"/>
          <path id="Path_1148" data-name="Path 1148" d="M233.215,458.107c.189.149.776.392.949.807a2.046,2.046,0,0,1-.059,1.606,4.568,4.568,0,0,1-1.573,1.575,1.952,1.952,0,0,1-1.6.059,1.851,1.851,0,0,1-.783-1.292c-.131-1.043,1.671-2.783,3.068-2.756" transform="translate(-207.698 -413.435)" fill="#1c3a6c"/>
          <path id="Path_1149" data-name="Path 1149" d="M307.309,255.941c0,1.591-.538,2.4-1.6,2.406s-1.614-.8-1.617-2.388c0-1.657.557-2.492,1.649-2.458,1.055.033,1.57.833,1.568,2.439" transform="translate(-274.438 -228.781)" fill="#1c3a6c"/>
          <path id="Path_1150" data-name="Path 1150" d="M420.681,369.551c.137,0,.274,0,.411,0,1.212.02,1.981.65,1.974,1.618s-.77,1.58-1.994,1.6c-.377.005-.755.016-1.131,0a1.608,1.608,0,1,1,.02-3.207c.239-.013.48,0,.72,0" transform="translate(-377.439 -333.512)" fill="#1c3a6c"/>
          <path id="Path_1151" data-name="Path 1151" d="M190.416,387.434c-.24,0-.481.016-.719,0a1.658,1.658,0,0,1-1.649-1.628,1.634,1.634,0,0,1,1.6-1.571,12.373,12.373,0,0,1,1.541,0,1.6,1.6,0,1,1,.051,3.2c-.273.02-.548,0-.822,0" transform="translate(-169.71 -346.741)" fill="#1c3a6c"/>
          <path id="Path_1152" data-name="Path 1152" d="M190.8,53.8c1.029,0,2.058.016,3.086,0a1.617,1.617,0,1,0,.019-3.206q-3.086-.029-6.173,0a1.61,1.61,0,1,0-.019,3.2c1.028.026,2.058.006,3.086.006m10.69,0c.274,0,.55.017.822,0a1.6,1.6,0,1,0-.048-3.2,13.492,13.492,0,0,0-1.439,0,1.6,1.6,0,1,0-.055,3.2c.239.018.48,0,.72,0" transform="translate(-167.808 -45.639)" fill="#1c3a6c"/>
          <path id="Path_1153" data-name="Path 1153" d="M190.8,53.832c-1.029,0-2.058.02-3.086-.006a1.61,1.61,0,1,1,.018-3.2q3.086-.035,6.173,0a1.617,1.617,0,1,1-.019,3.206c-1.028.02-2.058,0-3.086,0" transform="translate(-167.809 -45.672)" fill="#1c3a6c"/>
          <path id="Path_1154" data-name="Path 1154" d="M323.455,53.8c-.24,0-.481.015-.72,0a1.6,1.6,0,1,1,.055-3.2,13.467,13.467,0,0,1,1.439,0,1.6,1.6,0,1,1,.048,3.2c-.273.02-.548,0-.822,0" transform="translate(-289.776 -45.639)" fill="#1c3a6c"/>
        </g>
      </g>
    </g>
  </g>
</svg>
