<svg xmlns="http://www.w3.org/2000/svg" xmlns:xlink="http://www.w3.org/1999/xlink" width="407" height="225" viewBox="0 0 407 225">
  <defs>
    <clipPath id="clip-path">
      <rect id="Rectangle_133" data-name="Rectangle 133" width="92.025" height="92.002" fill="#1c3a6c"/>
    </clipPath>
  </defs>
  <g id="Group_4425" data-name="Group 4425" transform="translate(-605 -3161)">
    <g id="Group_4420" data-name="Group 4420">
      <path id="Path_6112" data-name="Path 6112" d="M15,0H392a15,15,0,0,1,15,15V210a15,15,0,0,1-15,15H15A15,15,0,0,1,0,210V15A15,15,0,0,1,15,0Z" transform="translate(605 3161)" fill="#fff"/>
      <path id="Path_6113" data-name="Path 6113" d="M67.5,22.32a6.767,6.767,0,0,1-4.39-1.28,4.6,4.6,0,0,1-1.59-3.74h2.14q.06,3.2,3.88,3.2a4.127,4.127,0,0,0,2.43-.61,2.043,2.043,0,0,0,.85-1.77,1.687,1.687,0,0,0-.7-1.45,7.216,7.216,0,0,0-2.52-.91l-1.22-.26a6.983,6.983,0,0,1-3.32-1.44,3.51,3.51,0,0,1-1.12-2.76A3.369,3.369,0,0,1,63.3,8.49a5.873,5.873,0,0,1,3.68-1.05,6.356,6.356,0,0,1,4.21,1.2,4.216,4.216,0,0,1,1.45,3.3H70.52a2.716,2.716,0,0,0-.91-2.03A4.179,4.179,0,0,0,67,9.26a3.7,3.7,0,0,0-2.14.52,1.7,1.7,0,0,0-.74,1.48,1.741,1.741,0,0,0,.66,1.48,6.088,6.088,0,0,0,2.44.92l1.24.26a7.551,7.551,0,0,1,3.51,1.5,3.4,3.4,0,0,1,1.07,2.64,3.734,3.734,0,0,1-1.47,3.12A6.493,6.493,0,0,1,67.5,22.32ZM81.8,17.5V11.68h2V22H81.88V20.46a3.692,3.692,0,0,1-3.24,1.78,3.329,3.329,0,0,1-3.62-3.64V11.68h2v6.64a1.918,1.918,0,0,0,2.18,2.16,2.45,2.45,0,0,0,1.85-.79A3.053,3.053,0,0,0,81.8,17.5Zm9.8-5.98a5.188,5.188,0,0,1,.58.02v1.9h-.5a3.425,3.425,0,0,0-2.38.76,2.815,2.815,0,0,0-.84,2.2V22h-2V11.68h1.92v1.84A3.335,3.335,0,0,1,91.6,11.52Zm8.24,3.94,1.38-3.78h2.12L99.38,22H97.16L93.22,11.68h2.16l1.4,3.78q1.42,4.22,1.52,4.6.06-.2.26-.8t.56-1.65Q99.48,16.56,99.84,15.46Zm13.86,1.46v.58h-7.78a3.631,3.631,0,0,0,.9,2.29,2.763,2.763,0,0,0,2.06.77,2.448,2.448,0,0,0,2.56-1.72h2.02a4.435,4.435,0,0,1-1.63,2.49,4.833,4.833,0,0,1-2.99.91,4.632,4.632,0,0,1-3.58-1.48,5.566,5.566,0,0,1-1.36-3.92,5.566,5.566,0,0,1,1.36-3.92,4.585,4.585,0,0,1,3.54-1.48,4.494,4.494,0,0,1,3.6,1.54A5.9,5.9,0,0,1,113.7,16.92Zm-4.9-3.8a2.672,2.672,0,0,0-1.93.72,3.4,3.4,0,0,0-.93,2.08h5.7a3.34,3.34,0,0,0-.89-2.03A2.6,2.6,0,0,0,108.8,13.12Zm12.02,2.1,1.2-3.54h2.12l-4.2,11.62a4.1,4.1,0,0,1-1.38,2.08,4.229,4.229,0,0,1-2.44.6,8.728,8.728,0,0,1-1.04-.06V24.3h1a1.761,1.761,0,0,0,1.8-1.24q.04-.12.13-.38t.15-.4l-3.82-10.6h2.18l1.2,3.54q.96,2.96,1.54,4.94Q120.04,17.62,120.82,15.22Zm8.54,7.04q-4.3,0-4.52-3.54h2a2.1,2.1,0,0,0,.7,1.52,3.063,3.063,0,0,0,1.84.44q2.28,0,2.28-1.44a1.108,1.108,0,0,0-.48-.96,4.561,4.561,0,0,0-1.72-.56l-1.06-.2q-3.28-.6-3.28-3.08a2.612,2.612,0,0,1,1.06-2.19,4.7,4.7,0,0,1,2.92-.81q4.26,0,4.36,3.46h-1.94a1.855,1.855,0,0,0-.64-1.47A2.992,2.992,0,0,0,129.1,13a2.582,2.582,0,0,0-1.48.36,1.168,1.168,0,0,0-.52,1.02,1.078,1.078,0,0,0,.46.93,3.889,3.889,0,0,0,1.46.53l1.08.18a5.962,5.962,0,0,1,2.74,1.08,2.493,2.493,0,0,1,.84,2,2.716,2.716,0,0,1-1.14,2.33A5.32,5.32,0,0,1,129.36,22.26Z" transform="translate(711 3317)" fill="#1c3a6c"/>
      <g id="Group_3336" data-name="Group 3336" transform="translate(762 3204)">
        <g id="Group_3335" data-name="Group 3335" clip-path="url(#clip-path)">
          <path id="Path_1108" data-name="Path 1108" d="M335.654,21.445h-1.969q-7.14,0-14.281,0c-1.58,0-2.086-.491-2.088-2.037q-.006-4.889,0-9.777c0-1.218.569-1.934,1.507-1.935s1.508.716,1.51,1.932c.006,2.556,0,5.112,0,7.669v1.076h13.021c-.213-.258-.348-.453-.513-.619q-7.073-7.092-14.17-14.16a2.192,2.192,0,0,0-1.411-.532q-20.223-.042-40.446-.023h-.1c-1.584,0-2.32-.468-2.34-1.488s.729-1.534,2.292-1.534h17.348c8.115,0,16.23.01,24.344-.014a2.517,2.517,0,0,1,1.939.811q8.787,8.835,17.612,17.632a2.656,2.656,0,0,1,.839,2.034q-.024,34.652-.014,69.3c0,1.768-.446,2.22-2.2,2.22q-28.514,0-57.027,0a4.611,4.611,0,0,1-.765-.027,1.5,1.5,0,0,1-1.3-1.54,1.464,1.464,0,0,1,1.313-1.426,6.1,6.1,0,0,1,1.052-.028h55.832Z" transform="translate(-246.731 -0.001)" fill="#1c3a6c"/>
          <path id="Path_1109" data-name="Path 1109" d="M27.6,249.752v1.222q0,15.194,0,30.387a8.328,8.328,0,0,1-.013.862,1.5,1.5,0,0,1-3-.017c-.025-.253-.011-.511-.011-.766q0-26.888,0-53.777a7.526,7.526,0,0,1,.011-.766,1.5,1.5,0,0,1,3,.011,7.585,7.585,0,0,1,.01.766q0,8.484,0,16.967a4.7,4.7,0,0,0,.031.956,1.464,1.464,0,0,0,1.537,1.3,1.479,1.479,0,0,0,1.519-1.323,3.322,3.322,0,0,0,.024-.669q0-10.4,0-20.8a8.758,8.758,0,0,0-1.883-5.415,5.875,5.875,0,0,0-5.086-2.522c-4.695.084-9.393.047-14.089.014a5.219,5.219,0,0,0-3.874,1.578A8.492,8.492,0,0,0,3.069,223.9c-.025,7.03-.01,14.059-.01,21.089,0,.064,0,.128,0,.192a1.564,1.564,0,1,0,3.106-.047q.013-8.675.006-17.35c0-.288-.016-.577.011-.862a1.5,1.5,0,0,1,3-.034,7.084,7.084,0,0,1,.013.766q0,26.888,0,53.777c0,.064,0,.128,0,.192-.007,1.312-.534,2.036-1.492,2.049s-1.527-.717-1.528-2.011q0-9.107,0-18.213,0-6.327,0-12.653v-.978a13.666,13.666,0,0,1-2.49-.024,4.4,4.4,0,0,1-3.63-4.339C.024,238.136-.069,230.816.1,223.5a10.929,10.929,0,0,1,5.264-9.187,6.994,6.994,0,0,1,3.9-1.145c5.08,0,10.16-.02,15.24.006a8.323,8.323,0,0,1,6.657,3.617,11.784,11.784,0,0,1,2.582,7.457c0,6.71-.123,13.423.05,20.129.084,3.242-2.067,6.232-6.187,5.372" transform="translate(0 -191.681)" fill="#1c3a6c"/>
          <path id="Path_1110" data-name="Path 1110" d="M85.692,18.509a9.234,9.234,0,0,1-9.226-9.18,9.178,9.178,0,1,1,18.355,0,9.231,9.231,0,0,1-9.129,9.18m6.1-9.186a6.154,6.154,0,1,0-6.123,6.162A6.147,6.147,0,0,0,91.8,9.323" transform="translate(-68.76 -0.136)" fill="#1c3a6c"/>
          <path id="Path_1111" data-name="Path 1111" d="M152.483,595.362q0-7.286,0-14.571a4.659,4.659,0,0,1,.027-.861,1.472,1.472,0,0,1,1.434-1.307,1.5,1.5,0,0,1,1.533,1.305,5.417,5.417,0,0,1,.026.861q0,14.667,0,29.334a5.466,5.466,0,0,1-.027.861,1.5,1.5,0,0,1-1.531,1.308,1.475,1.475,0,0,1-1.434-1.308,5.261,5.261,0,0,1-.03-.956q0-7.334,0-14.667" transform="translate(-137.11 -520.308)" fill="#1c3a6c"/>
          <path id="Path_1112" data-name="Path 1112" d="M370.025,526.68c-.958,0-1.918.022-2.875-.007a1.5,1.5,0,0,1-1.629-1.615q-.041-2.971,0-5.943a1.473,1.473,0,0,1,1.561-1.579q3.018-.047,6.038,0a1.475,1.475,0,0,1,1.535,1.607q.042,2.923,0,5.847A1.528,1.528,0,0,1,373,526.675c-.99.027-1.98.006-2.971.005" transform="translate(-328.666 -465.359)" fill="#1c3a6c"/>
          <path id="Path_1113" data-name="Path 1113" d="M370.153,709.346c-.99,0-1.981.02-2.971-.007a1.527,1.527,0,0,1-1.66-1.684q-.034-2.875,0-5.751a1.545,1.545,0,0,1,1.732-1.711q2.827-.027,5.655,0a1.561,1.561,0,0,1,1.76,1.78c.016,1.885.02,3.77,0,5.655a1.554,1.554,0,0,1-1.734,1.713c-.926.019-1.853,0-2.779,0" transform="translate(-328.67 -629.618)" fill="#1c3a6c"/>
          <path id="Path_1114" data-name="Path 1114" d="M370.781,155.748l3.977-4.23c.306-.325.6-.665.925-.967a1.509,1.509,0,0,1,2.074-.107,1.429,1.429,0,0,1,.115,2.129c-1.076,1.218-2.209,2.387-3.321,3.573-.85.907-1.693,1.823-2.563,2.711a1.513,1.513,0,0,1-2.537-.046q-1.643-1.866-3.237-3.776a1.5,1.5,0,0,1,0-2.284,1.542,1.542,0,0,1,2.267.323c.757.854,1.488,1.73,2.3,2.675" transform="translate(-328.837 -134.955)" fill="#1c3a6c"/>
          <path id="Path_1115" data-name="Path 1115" d="M370.79,338.4l3.7-3.939c.349-.372.69-.752,1.05-1.113a1.54,1.54,0,0,1,2.278-.2,1.474,1.474,0,0,1-.054,2.211c-.872.973-1.784,1.911-2.679,2.864-1,1.069-2,2.148-3.015,3.2-.967,1-1.774,1-2.67-.027q-1.607-1.835-3.172-3.706a1.5,1.5,0,0,1-.017-2.284,1.563,1.563,0,0,1,2.33.374c.733.836,1.45,1.686,2.247,2.614" transform="translate(-328.843 -299.198)" fill="#1c3a6c"/>
          <path id="Path_1116" data-name="Path 1116" d="M546.352,518.673H519.616a1.76,1.76,0,1,1,0-3.519h26.737a1.76,1.76,0,0,1,0,3.519" transform="translate(-465.667 -463.238)" fill="#1c3a6c"/>
          <path id="Path_1117" data-name="Path 1117" d="M534.438,579.514H519.616a1.76,1.76,0,0,1,0-3.519h14.823a1.76,1.76,0,0,1,0,3.519" transform="translate(-465.667 -517.947)" fill="#1c3a6c"/>
          <path id="Path_1118" data-name="Path 1118" d="M546.352,334.863H519.616a1.76,1.76,0,1,1,0-3.519h26.737a1.76,1.76,0,0,1,0,3.519" transform="translate(-465.667 -297.952)" fill="#1c3a6c"/>
          <path id="Path_1119" data-name="Path 1119" d="M534.438,395.7H519.616a1.76,1.76,0,0,1,0-3.519h14.823a1.76,1.76,0,0,1,0,3.519" transform="translate(-465.667 -352.661)" fill="#1c3a6c"/>
          <path id="Path_1120" data-name="Path 1120" d="M531.689,151.053H519.616a1.76,1.76,0,0,1,0-3.519h12.073a1.76,1.76,0,0,1,0,3.519" transform="translate(-465.667 -132.666)" fill="#1c3a6c"/>
          <path id="Path_1121" data-name="Path 1121" d="M531.689,211.894H519.616a1.76,1.76,0,0,1,0-3.519h12.073a1.76,1.76,0,0,1,0,3.519" transform="translate(-465.667 -187.375)" fill="#1c3a6c"/>
          <path id="Path_1122" data-name="Path 1122" d="M546.352,702.34H519.616a1.76,1.76,0,1,1,0-3.519h26.737a1.76,1.76,0,0,1,0,3.519" transform="translate(-465.667 -628.395)" fill="#1c3a6c"/>
          <path id="Path_1123" data-name="Path 1123" d="M534.438,763.182H519.616a1.76,1.76,0,0,1,0-3.52h14.823a1.76,1.76,0,0,1,0,3.52" transform="translate(-465.667 -683.105)" fill="#1c3a6c"/>
        </g>
      </g>
    </g>
  </g>
</svg>
