<svg xmlns="http://www.w3.org/2000/svg" xmlns:xlink="http://www.w3.org/1999/xlink" width="405" height="225" viewBox="0 0 405 225">
  <defs>
    <clipPath id="clip-path">
      <rect id="Rectangle_137" data-name="Rectangle 137" width="102.323" height="102.273" fill="#1c3a6c"/>
    </clipPath>
  </defs>
  <g id="Group_4422" data-name="Group 4422" transform="translate(-146 -3442)">
    <path id="Path_6116" data-name="Path 6116" d="M15,0H390a15,15,0,0,1,15,15V210a15,15,0,0,1-15,15H15A15,15,0,0,1,0,210V15A15,15,0,0,1,15,0Z" transform="translate(146 3442)" fill="#fff"/>
    <path id="Path_6118" data-name="Path 6118" d="M26.64,22.32A6.275,6.275,0,0,1,21.8,20.3a7.594,7.594,0,0,1-1.88-5.42,7.688,7.688,0,0,1,1.86-5.42,6.3,6.3,0,0,1,4.86-2.02A6.628,6.628,0,0,1,30.7,8.7a5.908,5.908,0,0,1,2.18,3.78H30.72a4.046,4.046,0,0,0-1.47-2.35,4.272,4.272,0,0,0-2.61-.79,4.02,4.02,0,0,0-3.28,1.49,6.206,6.206,0,0,0-1.22,4.05,6.206,6.206,0,0,0,1.22,4.05,4.02,4.02,0,0,0,3.28,1.49,4.4,4.4,0,0,0,2.76-.94,4.014,4.014,0,0,0,1.42-2.74h2.14a5.773,5.773,0,0,1-2.06,4.12A6.5,6.5,0,0,1,26.64,22.32Zm16.74-1.56a5.365,5.365,0,0,1-7.4,0,5.425,5.425,0,0,1-1.42-3.92,5.452,5.452,0,0,1,1.42-3.94,4.89,4.89,0,0,1,3.7-1.46,4.89,4.89,0,0,1,3.7,1.46,5.455,5.455,0,0,1,1.4,3.94A5.427,5.427,0,0,1,43.38,20.76Zm-5.92-1.22a2.743,2.743,0,0,0,2.22.98,2.714,2.714,0,0,0,2.21-.98,4.116,4.116,0,0,0,.81-2.7,4.116,4.116,0,0,0-.81-2.7,2.714,2.714,0,0,0-2.21-.98,2.743,2.743,0,0,0-2.22.98,4.082,4.082,0,0,0-.82,2.7A4.082,4.082,0,0,0,37.46,19.54Zm17.14-6.4V11.68h1.92v9.94a4.362,4.362,0,0,1-1.28,3.33,5.1,5.1,0,0,1-3.64,1.21,5.117,5.117,0,0,1-3.21-.92,3.477,3.477,0,0,1-1.35-2.52h2q.24,1.82,2.58,1.82a2.554,2.554,0,0,0,2.9-2.88V20.52a3.885,3.885,0,0,1-3.32,1.6,4.344,4.344,0,0,1-3.44-1.46,5.665,5.665,0,0,1-1.3-3.88,5.665,5.665,0,0,1,1.3-3.88,4.321,4.321,0,0,1,3.42-1.46A3.874,3.874,0,0,1,54.6,13.14ZM51.56,20.4a2.727,2.727,0,0,0,2.21-.97,4.008,4.008,0,0,0,.81-2.65,4.008,4.008,0,0,0-.81-2.65,2.981,2.981,0,0,0-4.41.01,3.983,3.983,0,0,0-.82,2.64,3.975,3.975,0,0,0,.82,2.65A2.734,2.734,0,0,0,51.56,20.4Zm12.78-8.96a3.617,3.617,0,0,1,2.66.95,3.616,3.616,0,0,1,.96,2.69V22h-2V15.36a1.918,1.918,0,0,0-2.18-2.16,2.549,2.549,0,0,0-1.8.76,2.959,2.959,0,0,0-.8,2.22V22h-2V11.68H61.1v1.54A3.692,3.692,0,0,1,64.34,11.44Zm8.3-1.22H70.6V8.08h2.04ZM72.62,22h-2V11.68h2Zm7.54-10.32v1.64H78.08v6.2a.8.8,0,0,0,.27.67,1.511,1.511,0,0,0,.91.21h.9V22q-.66.06-1.22.06a3.432,3.432,0,0,1-2.16-.56,2.169,2.169,0,0,1-.7-1.8V13.32H74.42V11.68h1.66V8.72h2v2.96Zm4.02-1.46H82.14V8.08h2.04ZM84.16,22h-2V11.68h2Zm8.12-6.54,1.38-3.78h2.12L91.82,22H89.6L85.66,11.68h2.16l1.4,3.78q1.42,4.22,1.52,4.6.06-.2.26-.8t.56-1.65Q91.92,16.56,92.28,15.46Zm13.86,1.46v.58H98.36a3.631,3.631,0,0,0,.9,2.29,2.763,2.763,0,0,0,2.06.77,2.448,2.448,0,0,0,2.56-1.72h2.02a4.435,4.435,0,0,1-1.63,2.49,4.833,4.833,0,0,1-2.99.91,4.632,4.632,0,0,1-3.58-1.48,5.566,5.566,0,0,1-1.36-3.92,5.566,5.566,0,0,1,1.36-3.92,4.585,4.585,0,0,1,3.54-1.48,4.494,4.494,0,0,1,3.6,1.54A5.9,5.9,0,0,1,106.14,16.92Zm-4.9-3.8a2.672,2.672,0,0,0-1.93.72,3.4,3.4,0,0,0-.93,2.08h5.7a3.34,3.34,0,0,0-.89-2.03A2.6,2.6,0,0,0,101.24,13.12Zm22.82,2.86,1.34-4.3h2.14L124.12,22h-2.1l-1.42-4.54q-.54-1.72-.98-3.32-.66,2.34-.96,3.32L117.26,22h-2.12l-3.42-10.32h2.16l1.32,4.3q.54,1.74,1.08,3.68.36-1.44,1.04-3.68l1.32-4.3h2l1.3,4.3q.82,2.78,1.06,3.66Q123.24,18.76,124.06,15.98Zm13.46,4.48h.56V22a7.294,7.294,0,0,1-.98.06,2.391,2.391,0,0,1-1.43-.35,1.563,1.563,0,0,1-.57-1.11,3.679,3.679,0,0,1-3.36,1.64,4.124,4.124,0,0,1-2.69-.81,2.747,2.747,0,0,1-.99-2.25q0-2.8,3.88-3.2l1.52-.16a2.26,2.26,0,0,0,1.17-.41,1.1,1.1,0,0,0,.37-.89,1.293,1.293,0,0,0-.49-1.13,2.884,2.884,0,0,0-1.63-.35,2.992,2.992,0,0,0-1.78.41,1.911,1.911,0,0,0-.62,1.45H128.5q.22-3.46,4.38-3.46,4.08,0,4.08,3.04v5.46Q136.96,20.46,137.52,20.46Zm-5.48.22a3.143,3.143,0,0,0,2.12-.72,2.541,2.541,0,0,0,.84-2.04V16.84a2.433,2.433,0,0,1-1.28.42l-1.44.16a3.278,3.278,0,0,0-1.66.55,1.583,1.583,0,0,0-.01,2.3A2.177,2.177,0,0,0,132.04,20.68ZM141.72,22h-2V7.76h2Zm11.92,0h-2.3l-3.28-5.22-1.72,1.68V22h-1.98V7.76h1.98v8.4l4.54-4.48h2.5l-3.9,3.8Z" transform="translate(262 3599)" fill="#1c3a6c"/>
    <g id="Group_3344" data-name="Group 3344" transform="translate(297 3486.344)">
      <g id="Group_3343" data-name="Group 3343" clip-path="url(#clip-path)">
        <path id="Path_1155" data-name="Path 1155" d="M6,272.747c-.723-.084-1.328-.1-1.908-.231a4.961,4.961,0,0,1-4.018-4.854c-.031-8.1-.164-16.2.053-24.3a11.807,11.807,0,0,1,6.821-10.775,7.843,7.843,0,0,1,3.379-.772q24.62-.073,49.24-.028a5.088,5.088,0,1,1-.021,10.17q-13.7.024-27.391.006H30.7v1.486q0,32.08,0,64.161c0,1.739-.556,2.575-1.7,2.562s-1.663-.834-1.663-2.593q0-33.2,0-66.4c0-2.119.451-2.577,2.543-2.577h28.99a7.828,7.828,0,0,0,1.064-.024,1.7,1.7,0,0,0,1.5-1.775,1.657,1.657,0,0,0-1.527-1.64,6.041,6.041,0,0,0-.958-.021q-24.087,0-48.174-.015a5.89,5.89,0,0,0-4.393,1.805,9.52,9.52,0,0,0-2.964,6.853q-.027,11.67-.006,23.341a3.039,3.039,0,0,0,.054.847,1.652,1.652,0,0,0,1.716,1.313,1.56,1.56,0,0,0,1.6-1.3,5.687,5.687,0,0,0,.084-1.27q.008-9.432.006-18.865a4.438,4.438,0,0,1,.05-1.061,1.6,1.6,0,0,1,1.681-1.343,1.6,1.6,0,0,1,1.577,1.342,4.05,4.05,0,0,1,.049.954c0,6.5.106,13-.05,19.5a53.466,53.466,0,0,1-1.1,7.352q-2.5,15.067-5.021,30.132c-.216,1.295-.415,2.593-.651,3.884a1.711,1.711,0,0,1-1.944,1.537A1.719,1.719,0,0,1,.1,308.078q2.042-12.284,4.1-24.566c.6-3.568,1.189-7.136,1.793-10.765" transform="translate(0 -207.909)" fill="#1c3a6c"/>
        <path id="Path_1156" data-name="Path 1156" d="M363.416,36.444H301.221c-1.714,0-2.565-.584-2.528-1.732.035-1.1.851-1.63,2.52-1.63h66.511c1.677,0,2.484.519,2.528,1.623.046,1.142-.789,1.717-2.519,1.739-.245,0-.49.022-.807.037v75.061c.545,0,1.1-.031,1.651.007a1.668,1.668,0,1,1,0,3.337c-.353.03-.71.012-1.065.012H304.63c-1.713,0-2.563-.583-2.525-1.733.036-1.105.843-1.627,2.521-1.627h58.79Z" transform="translate(-267.931 -29.676)" fill="#1c3a6c"/>
        <path id="Path_1157" data-name="Path 1157" d="M375.939,287.91c-1.171,1.461-2.324,2.936-3.52,4.376a1.63,1.63,0,0,1-2.588.222,1.577,1.577,0,0,1-.067-2.225c2.244-2.844,4.487-5.689,6.765-8.5a1.657,1.657,0,0,1,2.676.05q3.345,4.145,6.635,8.336a1.678,1.678,0,1,1-2.614,2.072c-1.173-1.424-2.313-2.876-3.7-4.293,0,.96,0,1.919,0,2.879a34.531,34.531,0,0,1-4.107,17.1c-6.218,11.284-15.738,17.8-28.617,19.009-4.334.406-8.729.181-13.1.216a1.684,1.684,0,1,1,.021-3.343c3.233-.02,6.466-.006,9.7-.009a32.378,32.378,0,0,0,32.423-28.047c.367-2.55.3-5.162.429-7.746l-.337-.1" transform="translate(-297.657 -252.172)" fill="#1c3a6c"/>
        <path id="Path_1158" data-name="Path 1158" d="M78.208,591.791,75.152,603.5q-2.242,8.591-4.482,17.182a1.7,1.7,0,0,1-1.684,1.493,1.5,1.5,0,0,1-1.571-1.189,2.894,2.894,0,0,1,.09-1.344q4.405-16.984,8.838-33.961c.393-1.509.78-3.02,1.19-4.525.29-1.066,1.011-1.637,1.87-1.527.89.114,1.412.78,1.51,1.9q1.465,16.758,2.935,33.515c.146,1.662.3,3.323.431,4.985.1,1.229-.51,2.076-1.528,2.163-1,.085-1.711-.68-1.818-1.915q-1.184-13.736-2.379-27.472c-.029-.339-.113-.674-.171-1.011h-.175" transform="translate(-60.431 -519.922)" fill="#1c3a6c"/>
        <path id="Path_1159" data-name="Path 1159" d="M76.979,0A10.252,10.252,0,0,1,87.2,10.24a10.2,10.2,0,1,1-20.408-.075A10.259,10.259,0,0,1,76.979,0m.051,3.358a6.846,6.846,0,1,0,6.809,6.854A6.841,6.841,0,0,0,77.03,3.358" transform="translate(-59.912 0)" fill="#1c3a6c"/>
        <path id="Path_1160" data-name="Path 1160" d="M719.441,115.91a6.794,6.794,0,1,1-6.789,6.771,6.836,6.836,0,0,1,6.789-6.771m-.043,10.228a3.434,3.434,0,1,0-3.384-3.507,3.453,3.453,0,0,0,3.384,3.507" transform="translate(-639.259 -103.973)" fill="#1c3a6c"/>
        <path id="Path_1161" data-name="Path 1161" d="M437.944,472.788c-1.327,1.36-2.477,2.561-3.654,3.736-.969.967-1.945,1.043-2.69.255-.715-.757-.618-1.672.319-2.61,1.176-1.177,2.374-2.332,3.694-3.625-1.309-1.3-2.585-2.462-3.732-3.744a2.523,2.523,0,0,1-.651-1.767c.19-1.353,1.815-1.7,2.888-.661,1.244,1.209,2.429,2.478,3.751,3.836l3.375-3.371c1.254-1.253,2.17-1.427,2.989-.57.788.824.612,1.716-.6,2.917-1.08,1.072-2.175,2.13-3.583,3.507.875.728,1.674,1.36,2.433,2.037.555.495,1.071,1.036,1.58,1.58a1.679,1.679,0,1,1-2.35,2.37c-.644-.609-1.267-1.242-1.884-1.878-.59-.608-1.161-1.235-1.888-2.012" transform="translate(-386.73 -415.977)" fill="#1c3a6c"/>
      </g>
    </g>
  </g>
</svg>
