<svg xmlns="http://www.w3.org/2000/svg" xmlns:xlink="http://www.w3.org/1999/xlink" width="405" height="225" viewBox="0 0 405 225">
  <defs>
    <clipPath id="clip-path">
      <rect id="Rectangle_132" data-name="Rectangle 132" width="92.083" height="92.002" fill="#1c3a6c"/>
    </clipPath>
  </defs>
  <g id="Group_4424" data-name="Group 4424" transform="translate(-146 -3161)">
    <g id="Group_4419" data-name="Group 4419">
      <path id="Path_6110" data-name="Path 6110" d="M15,0H390a15,15,0,0,1,15,15V210a15,15,0,0,1-15,15H15A15,15,0,0,1,0,210V15A15,15,0,0,1,15,0Z" transform="translate(146 3161)" fill="#fff"/>
      <path id="Path_6111" data-name="Path 6111" d="M31.32,7.76h1.72V22H30.9V11.84H27.64V10.26l.32-.02a4.5,4.5,0,0,0,2.31-.65A2.9,2.9,0,0,0,31.32,7.76Zm13.82,3.92v1.64H43.06v6.2a.8.8,0,0,0,.27.67,1.511,1.511,0,0,0,.91.21h.9V22q-.66.06-1.22.06a3.432,3.432,0,0,1-2.16-.56,2.169,2.169,0,0,1-.7-1.8V13.32H39.4V11.68h1.66V8.72h2v2.96Zm10.14,9.08a5.365,5.365,0,0,1-7.4,0,5.425,5.425,0,0,1-1.42-3.92,5.452,5.452,0,0,1,1.42-3.94,5.418,5.418,0,0,1,7.4,0,5.455,5.455,0,0,1,1.4,3.94A5.427,5.427,0,0,1,55.28,20.76Zm-5.92-1.22a2.743,2.743,0,0,0,2.22.98,2.714,2.714,0,0,0,2.21-.98,4.116,4.116,0,0,0,.81-2.7,4.116,4.116,0,0,0-.81-2.7,2.714,2.714,0,0,0-2.21-.98,2.743,2.743,0,0,0-2.22.98,4.082,4.082,0,0,0-.82,2.7A4.082,4.082,0,0,0,49.36,19.54ZM66.66,7.76h1.72V22H66.24V11.84H62.98V10.26l.32-.02a4.5,4.5,0,0,0,2.31-.65A2.9,2.9,0,0,0,66.66,7.76ZM77.6,10.22H75.56V8.08H77.6ZM77.58,22h-2V11.68h2Zm7.8-10.56a3.617,3.617,0,0,1,2.66.95A3.616,3.616,0,0,1,89,15.08V22H87V15.36a1.918,1.918,0,0,0-2.18-2.16,2.549,2.549,0,0,0-1.8.76,2.959,2.959,0,0,0-.8,2.22V22h-2V11.68h1.92v1.54A3.692,3.692,0,0,1,85.38,11.44Zm10.8.24v1.64H94.1v6.2a.8.8,0,0,0,.27.67,1.511,1.511,0,0,0,.91.21h.9V22q-.66.06-1.22.06a3.432,3.432,0,0,1-2.16-.56,2.169,2.169,0,0,1-.7-1.8V13.32H90.44V11.68H92.1V8.72h2v2.96Zm11.12,5.24v.58H99.52a3.631,3.631,0,0,0,.9,2.29,2.763,2.763,0,0,0,2.06.77,2.448,2.448,0,0,0,2.56-1.72h2.02a4.435,4.435,0,0,1-1.63,2.49,4.833,4.833,0,0,1-2.99.91,4.632,4.632,0,0,1-3.58-1.48,5.566,5.566,0,0,1-1.36-3.92,5.566,5.566,0,0,1,1.36-3.92,4.585,4.585,0,0,1,3.54-1.48,4.494,4.494,0,0,1,3.6,1.54A5.9,5.9,0,0,1,107.3,16.92Zm-4.9-3.8a2.672,2.672,0,0,0-1.93.72,3.4,3.4,0,0,0-.93,2.08h5.7a3.34,3.34,0,0,0-.89-2.03A2.6,2.6,0,0,0,102.4,13.12Zm12.22-1.6a5.188,5.188,0,0,1,.58.02v1.9h-.5a3.425,3.425,0,0,0-2.38.76,2.815,2.815,0,0,0-.84,2.2V22h-2V11.68h1.92v1.84A3.335,3.335,0,0,1,114.62,11.52Zm8.24,3.94,1.38-3.78h2.12L122.4,22h-2.22l-3.94-10.32h2.16l1.4,3.78q1.42,4.22,1.52,4.6.06-.2.26-.8t.56-1.65Q122.5,16.56,122.86,15.46Zm7.02-5.24h-2.04V8.08h2.04ZM129.86,22h-2V11.68h2Zm11.96-5.08v.58h-7.78a3.631,3.631,0,0,0,.9,2.29,2.763,2.763,0,0,0,2.06.77,2.448,2.448,0,0,0,2.56-1.72h2.02a4.435,4.435,0,0,1-1.63,2.49,4.833,4.833,0,0,1-2.99.91,4.632,4.632,0,0,1-3.58-1.48,5.566,5.566,0,0,1-1.36-3.92,5.566,5.566,0,0,1,1.36-3.92,4.585,4.585,0,0,1,3.54-1.48,4.494,4.494,0,0,1,3.6,1.54A5.9,5.9,0,0,1,141.82,16.92Zm-4.9-3.8a2.672,2.672,0,0,0-1.93.72,3.4,3.4,0,0,0-.93,2.08h5.7a3.34,3.34,0,0,0-.89-2.03A2.6,2.6,0,0,0,136.92,13.12Zm17.88,2.86,1.34-4.3h2.14L154.86,22h-2.1l-1.42-4.54q-.54-1.72-.98-3.32-.66,2.34-.96,3.32L148,22h-2.12l-3.42-10.32h2.16l1.32,4.3q.54,1.74,1.08,3.68.36-1.44,1.04-3.68l1.32-4.3h2l1.3,4.3q.82,2.78,1.06,3.66Q153.98,18.76,154.8,15.98Zm8.7,6.28q-4.3,0-4.52-3.54h2a2.1,2.1,0,0,0,.7,1.52,3.063,3.063,0,0,0,1.84.44q2.28,0,2.28-1.44a1.108,1.108,0,0,0-.48-.96,4.561,4.561,0,0,0-1.72-.56l-1.06-.2q-3.28-.6-3.28-3.08a2.612,2.612,0,0,1,1.06-2.19,4.7,4.7,0,0,1,2.92-.81q4.26,0,4.36,3.46h-1.94a1.855,1.855,0,0,0-.64-1.47,2.992,2.992,0,0,0-1.78-.43,2.582,2.582,0,0,0-1.48.36,1.168,1.168,0,0,0-.52,1.02,1.078,1.078,0,0,0,.46.93,3.889,3.889,0,0,0,1.46.53l1.08.18a5.962,5.962,0,0,1,2.74,1.08,2.493,2.493,0,0,1,.84,2,2.716,2.716,0,0,1-1.14,2.33A5.32,5.32,0,0,1,163.5,22.26Z" transform="translate(251 3317)" fill="#2e2e2e"/>
      <g id="Group_3334" data-name="Group 3334" transform="translate(299 3204)">
        <g id="Group_3333" data-name="Group 3333" clip-path="url(#clip-path)">
          <path id="Path_1099" data-name="Path 1099" d="M39.719,378.237H52.207a15.734,15.734,0,0,1,.208-2.817,4.384,4.384,0,0,1,4.32-3.268c2.748-.007,5.5.024,8.244-.026a2.451,2.451,0,0,0,1.435-.53c2.435-2.068,4.828-4.186,7.225-6.3.357-.315.666-.685.993-1.035,3.03-3.245,6.723-4.845,11.169-4.2a7.33,7.33,0,0,1,6.21,7.137c.076,7.413.121,14.83-.013,22.242a10.6,10.6,0,0,1-10.769,10.273c-4.729.035-9.459.024-14.188-.011a1.325,1.325,0,0,0-1.479.953c-2.2,5.34-4.452,10.657-6.691,15.98a3.822,3.822,0,0,1-.425.853,1.468,1.468,0,0,1-2.661-.953,3.3,3.3,0,0,1,.288-1q3.625-8.652,7.264-17.3c.574-1.365.836-1.538,2.294-1.538q7.669,0,15.338,0a7.684,7.684,0,0,0,8.05-8.086q.006-10.307,0-20.613c0-3.426-2.279-5.452-5.7-5.05a10.291,10.291,0,0,0-5.888,2.741c-2.845,2.614-5.779,5.135-8.549,7.824a5.484,5.484,0,0,1-4.5,1.7c-2.419-.15-4.855-.036-7.283-.037a1.524,1.524,0,0,0-1.636.912,1.757,1.757,0,0,0,.083,1.408,2.1,2.1,0,0,0,1.425.757c3.45.064,6.9.055,10.352.012a2.676,2.676,0,0,0,1.391-.528c3.734-2.629,7.446-5.291,11.165-7.941a6.991,6.991,0,0,1,.8-.527,1.351,1.351,0,0,1,1.8.392,1.368,1.368,0,0,1-.036,1.917,4.546,4.546,0,0,1-.815.661c-3.782,2.729-7.538,5.493-11.372,8.147a5.153,5.153,0,0,1-2.741.888q-21.473.082-42.947,0a4.984,4.984,0,0,1-2.662-.849c-3.882-2.7-7.69-5.5-11.524-8.263-.13-.093-.263-.182-.388-.282a1.488,1.488,0,0,1-.412-2.176,1.446,1.446,0,0,1,2.121-.281c.981.658,1.927,1.368,2.889,2.055,2.912,2.077,5.809,4.177,8.753,6.207a3.547,3.547,0,0,0,1.851.576c3.194.057,6.39.027,9.586.024a3.686,3.686,0,0,0,.763-.044,1.605,1.605,0,0,0,1.306-1.651,1.64,1.64,0,0,0-1.774-1.41c-2.62-.018-5.243-.079-7.86.022a4.522,4.522,0,0,1-3.581-1.334c-2.223-2.11-4.6-4.054-6.9-6.09-.667-.592-1.249-1.278-1.893-1.9a9.94,9.94,0,0,0-7.148-2.974,4.559,4.559,0,0,0-4.6,4.546c-.025,7.254-.041,14.509.007,21.764a7.606,7.606,0,0,0,7.586,7.471c5.272.034,10.545.009,15.817.01,1.4,0,1.7.2,2.24,1.478q3.636,8.647,7.264,17.3a3.822,3.822,0,0,1,.29.907,1.47,1.47,0,0,1-2.714,1,4.106,4.106,0,0,1-.33-.689c-2.25-5.354-4.513-10.7-6.727-16.07a1.262,1.262,0,0,0-1.4-.919c-4.633.038-9.267.026-13.9.017A10.745,10.745,0,0,1,.055,388.539c0-6.711.152-13.427-.05-20.132-.151-4.988,3.672-9.63,10.135-8.3a13.693,13.693,0,0,1,6.705,3.489c2.592,2.414,5.265,4.743,7.826,7.189a4.625,4.625,0,0,0,3.744,1.4c2.261-.133,4.535-.036,6.8-.032a4.581,4.581,0,0,1,4.59,5.578c-.029.15-.054.3-.092.508" transform="translate(0 -326.122)" fill="#1c3a6c"/>
          <path id="Path_1100" data-name="Path 1100" d="M304.139,27.572c-1.529,0-2.93.006-4.33,0a4.605,4.605,0,0,1-4.871-4.867q-.014-8.915,0-17.829A4.6,4.6,0,0,1,299.8,0q13.466-.01,26.932,0A4.6,4.6,0,0,1,331.7,4.969q.01,8.819,0,17.637a4.614,4.614,0,0,1-4.967,4.964c-3.962.006-7.923.014-11.885-.012a1.57,1.57,0,0,0-1.373.647c-2.1,2.571-4.249,5.108-6.373,7.663-.519.624-1.078,1.128-1.962.791-.86-.328-1.018-1.04-1.011-1.869.019-2.36.007-4.721.007-7.219m3.024,3.166.213.094c1.408-1.685,2.856-3.338,4.207-5.067a2.945,2.945,0,0,1,2.61-1.239c4.186.059,8.372.027,12.559.021,1.374,0,1.927-.547,1.928-1.909q.008-8.869,0-17.738c0-1.31-.556-1.868-1.869-1.869q-13.518-.009-27.035,0c-1.244,0-1.81.574-1.812,1.826q-.012,8.917,0,17.834c0,1.3.57,1.848,1.884,1.856,1.758.01,3.515,0,5.273,0,1.548,0,2.04.5,2.044,2.083,0,1.368,0,2.737,0,4.105" transform="translate(-267.27 0)" fill="#1c3a6c"/>
          <path id="Path_1101" data-name="Path 1101" d="M167.13,595.13h1.123c3.643,0,7.286-.008,10.928,0a6.025,6.025,0,0,1,6.211,4.911q2.741,11.792,5.417,23.6a1.558,1.558,0,0,1-1.116,2.085c-.853.182-1.569-.366-1.811-1.422q-2.679-11.66-5.348-23.322c-.463-2.019-1.489-2.831-3.585-2.832q-6.327,0-12.654,0c-1.74,0-2.186-.457-2.187-2.228,0-1.694-.008-3.388,0-5.081.007-1.138.592-1.839,1.5-1.842s1.5.7,1.512,1.834c.011,1.4,0,2.8,0,4.293" transform="translate(-148.715 -533.762)" fill="#1c3a6c"/>
          <path id="Path_1102" data-name="Path 1102" d="M556.268,595.121c0-1.5-.007-2.869,0-4.238.007-1.2.61-1.92,1.553-1.889.907.03,1.459.725,1.465,1.882q.013,2.684,0,5.369c-.007,1.359-.555,1.9-1.939,1.9q-6.422.007-12.845,0c-2.165,0-3.169.787-3.648,2.875q-2.669,11.612-5.323,23.227c-.181.792-.549,1.387-1.4,1.484a1.341,1.341,0,0,1-1.508-.927,2.115,2.115,0,0,1-.05-1.114q2.706-11.9,5.455-23.787a6,6,0,0,1,6.031-4.775c3.674-.02,7.349,0,11.023-.005h1.178" transform="translate(-482.585 -533.753)" fill="#1c3a6c"/>
          <path id="Path_1103" data-name="Path 1103" d="M51.659,140.078a9.179,9.179,0,1,1-9.234-9.172,9.233,9.233,0,0,1,9.234,9.172m-9.166-6.148a6.156,6.156,0,1,0,6.141,6.145,6.154,6.154,0,0,0-6.141-6.145" transform="translate(-30.178 -118.628)" fill="#1c3a6c"/>
          <path id="Path_1104" data-name="Path 1104" d="M762.142,149.282a9.18,9.18,0,1,1,9.165-9.146,9.233,9.233,0,0,1-9.165,9.146m6.142-9.162a6.156,6.156,0,1,0-6.175,6.139,6.154,6.154,0,0,0,6.175-6.139" transform="translate(-682.333 -118.644)" fill="#1c3a6c"/>
          <path id="Path_1105" data-name="Path 1105" d="M368.224,163.585c1.885,0,3.771-.006,5.656,0,1.191,0,1.918.615,1.885,1.558-.032.908-.726,1.459-1.886,1.461q-5.752.009-11.5,0c-1.159,0-1.854-.555-1.885-1.461-.032-.944.688-1.551,1.886-1.557,1.949-.009,3.9,0,5.848,0" transform="translate(-326.68 -148.241)" fill="#1c3a6c"/>
          <path id="Path_1106" data-name="Path 1106" d="M497.348,101.167c-1.406,0-2.812.011-4.217,0-1.116-.011-1.823-.637-1.794-1.551.028-.881.707-1.459,1.785-1.463q4.313-.017,8.627,0c1.116,0,1.824.636,1.795,1.55-.028.879-.71,1.455-1.785,1.465-1.47.014-2.939,0-4.409,0" transform="translate(-445.255 -88.936)" fill="#1c3a6c"/>
          <path id="Path_1107" data-name="Path 1107" d="M365.016,101.121c-.959,0-1.918.021-2.876-.005a1.51,1.51,0,1,1,.005-3.008q2.923-.034,5.847,0a1.51,1.51,0,1,1-.005,3.007c-.99.026-1.981.006-2.971.006" transform="translate(-326.688 -88.891)" fill="#1c3a6c"/>
        </g>
      </g>
    </g>
  </g>
</svg>
