<svg xmlns="http://www.w3.org/2000/svg" xmlns:xlink="http://www.w3.org/1999/xlink" width="691" height="387.5" viewBox="0 0 691 387.5">
  <defs>
    <filter id="Rectangle_74" x="0" y="52.5" width="339" height="140" filterUnits="userSpaceOnUse">
      <feOffset dy="3" input="SourceAlpha"/>
      <feGaussianBlur stdDeviation="7.5" result="blur"/>
      <feFlood flood-opacity="0.161"/>
      <feComposite operator="in" in2="blur"/>
    </filter>
    <clipPath id="clip-path">
      <rect id="Rectangle_100" data-name="Rectangle 100" width="86.421" height="65.963" fill="none"/>
    </clipPath>
    <filter id="Rectangle_74-2" x="0" y="247.5" width="339" height="140" filterUnits="userSpaceOnUse">
      <feOffset dy="3" input="SourceAlpha"/>
      <feGaussianBlur stdDeviation="7.5" result="blur-2"/>
      <feFlood flood-opacity="0.161"/>
      <feComposite operator="in" in2="blur-2"/>
    </filter>
    <filter id="Rectangle_74-3" x="352" y="52.5" width="339" height="140" filterUnits="userSpaceOnUse">
      <feOffset dy="3" input="SourceAlpha"/>
      <feGaussianBlur stdDeviation="7.5" result="blur-3"/>
      <feFlood flood-opacity="0.161"/>
      <feComposite operator="in" in2="blur-3"/>
    </filter>
    <filter id="Rectangle_74-4" x="352" y="247" width="339" height="140" filterUnits="userSpaceOnUse">
      <feOffset dy="3" input="SourceAlpha"/>
      <feGaussianBlur stdDeviation="7.5" result="blur-4"/>
      <feFlood flood-opacity="0.161"/>
      <feComposite operator="in" in2="blur-4"/>
    </filter>
    <clipPath id="clip-path-2">
      <rect id="Rectangle_154" data-name="Rectangle 154" width="60.577" height="79.083" transform="translate(0 0)" fill="none"/>
    </clipPath>
    <clipPath id="clip-path-3">
      <rect id="Rectangle_97" data-name="Rectangle 97" width="71.793" height="72.674"/>
    </clipPath>
    <clipPath id="clip-path-4">
      <rect id="Rectangle_98" data-name="Rectangle 98" width="66.834" height="67.015" fill="none"/>
    </clipPath>
  </defs>
  <g id="Group_4426" data-name="Group 4426" transform="translate(-787.5 -1909)">
    <g id="Group_3313" data-name="Group 3313" transform="translate(2 -177)">
      <g transform="matrix(1, 0, 0, 1, 785.5, 2086)" filter="url(#Rectangle_74)">
        <rect id="Rectangle_74-5" data-name="Rectangle 74" width="294" height="95" transform="translate(22.5 72)" fill="#fff"/>
      </g>
      <path id="Path_1036" data-name="Path 1036" d="M-118,0H176.8l24.363,22.84.113,141.287H-118Z" transform="translate(913 2086)" fill="#fbf5c0"/>
      <path id="Path_1037" data-name="Path 1037" d="M0,0,11.766,10.777,24.867,23.2,0,23.746Z" transform="translate(1089.124 2086)" fill="#beab82"/>
    </g>
    <path id="Path_6241" data-name="Path 6241" d="M2.895,17H.87V6.32H2.895Zm7.935.21q-3.39,0-3.54-2.67H9.135a1.391,1.391,0,0,0,.472,1.02,2.09,2.09,0,0,0,1.253.3q1.53,0,1.53-.93a.734.734,0,0,0-.33-.645,3.267,3.267,0,0,0-1.185-.375l-.885-.15q-2.535-.42-2.535-2.34A2.019,2.019,0,0,1,8.3,9.7a3.92,3.92,0,0,1,2.37-.622q3.315,0,3.42,2.625H12.3a1.2,1.2,0,0,0-.435-.983,2.042,2.042,0,0,0-1.2-.292q-1.35,0-1.35.9a.708.708,0,0,0,.3.608,2.471,2.471,0,0,0,.99.337l.975.15a4.3,4.3,0,0,1,2.048.81,1.94,1.94,0,0,1,.637,1.545,2.065,2.065,0,0,1-.9,1.8A4.377,4.377,0,0,1,10.83,17.21Zm11.745-3.945v.45h-5.79a2.354,2.354,0,0,0,.622,1.493,1.907,1.907,0,0,0,1.388.5,1.763,1.763,0,0,0,1.77-1.11H22.38a3.233,3.233,0,0,1-1.26,1.882,3.873,3.873,0,0,1-2.34.7,3.691,3.691,0,0,1-2.79-1.11,4.069,4.069,0,0,1-1.065-2.94,4.1,4.1,0,0,1,1.05-2.94A3.672,3.672,0,0,1,18.75,9.08a3.559,3.559,0,0,1,2.79,1.155A4.369,4.369,0,0,1,22.575,13.265Zm-3.84-2.715q-1.665,0-1.935,1.845h3.885a2.252,2.252,0,0,0-.63-1.35A1.816,1.816,0,0,0,18.735,10.55ZM25.68,17H23.79V6.32h1.89Zm8.835-3.735v.45h-5.79a2.354,2.354,0,0,0,.622,1.493,1.907,1.907,0,0,0,1.388.5,1.763,1.763,0,0,0,1.77-1.11H34.32a3.233,3.233,0,0,1-1.26,1.882,3.873,3.873,0,0,1-2.34.7,3.691,3.691,0,0,1-2.79-1.11,4.069,4.069,0,0,1-1.065-2.94,4.1,4.1,0,0,1,1.05-2.94A3.672,3.672,0,0,1,30.69,9.08a3.559,3.559,0,0,1,2.79,1.155A4.369,4.369,0,0,1,34.515,13.265Zm-3.84-2.715q-1.665,0-1.935,1.845h3.885a2.252,2.252,0,0,0-.63-1.35A1.816,1.816,0,0,0,30.675,10.55Zm8.535,6.63a3.672,3.672,0,0,1-2.775-1.11,4.07,4.07,0,0,1-1.05-2.94,4.091,4.091,0,0,1,1.05-2.955A3.638,3.638,0,0,1,39.21,9.08a3.729,3.729,0,0,1,2.475.8A3.209,3.209,0,0,1,42.81,12.05H40.92a1.7,1.7,0,0,0-.585-1.035,1.744,1.744,0,0,0-1.125-.36,1.669,1.669,0,0,0-1.387.637,2.914,2.914,0,0,0-.5,1.838,2.883,2.883,0,0,0,.51,1.837,1.674,1.674,0,0,0,1.38.637,1.788,1.788,0,0,0,1.163-.382,1.663,1.663,0,0,0,.577-1.1h1.89a3.242,3.242,0,0,1-1.14,2.227A3.736,3.736,0,0,1,39.21,17.18Zm8.505-7.92V10.7h-1.53v4.185a.613.613,0,0,0,.2.525,1.177,1.177,0,0,0,.682.15h.645V17q-.615.06-.99.06a2.891,2.891,0,0,1-1.838-.472,1.837,1.837,0,0,1-.577-1.507V10.7h-1.2V9.26h1.2V7.01h1.875V9.26Zm8.265,4.005v.45H50.19a2.354,2.354,0,0,0,.623,1.493,1.907,1.907,0,0,0,1.388.5,1.763,1.763,0,0,0,1.77-1.11h1.815a3.233,3.233,0,0,1-1.26,1.882,3.873,3.873,0,0,1-2.34.7,3.691,3.691,0,0,1-2.79-1.11,4.069,4.069,0,0,1-1.065-2.94,4.1,4.1,0,0,1,1.05-2.94,3.672,3.672,0,0,1,2.775-1.11,3.559,3.559,0,0,1,2.79,1.155A4.369,4.369,0,0,1,55.98,13.265ZM52.14,10.55q-1.665,0-1.935,1.845H54.09a2.252,2.252,0,0,0-.63-1.35A1.816,1.816,0,0,0,52.14,10.55Zm10.575-.285V6.32h1.89V17h-1.83V15.92a2.778,2.778,0,0,1-2.445,1.26A3.132,3.132,0,0,1,57.8,16.07a4.381,4.381,0,0,1-.945-2.94,4.369,4.369,0,0,1,.945-2.955A3.124,3.124,0,0,1,60.33,9.08,2.727,2.727,0,0,1,62.715,10.265Zm-3.93,2.925a2.729,2.729,0,0,0,.525,1.815,2.013,2.013,0,0,0,2.925-.03,2.856,2.856,0,0,0,.525-1.845,2.856,2.856,0,0,0-.525-1.845,1.789,1.789,0,0,0-1.47-.645,1.745,1.745,0,0,0-1.447.675A2.956,2.956,0,0,0,58.785,13.19ZM73.41,9.26V10.7H71.88v4.185a.613.613,0,0,0,.2.525,1.177,1.177,0,0,0,.682.15h.645V17q-.615.06-.99.06a2.891,2.891,0,0,1-1.837-.472A1.837,1.837,0,0,1,70,15.08V10.7h-1.2V9.26H70V7.01H71.88V9.26Zm5.355-.18a2.686,2.686,0,0,1,1.987.727,2.79,2.79,0,0,1,.728,2.062V17H79.59V12.185a1.293,1.293,0,0,0-1.455-1.47,1.64,1.64,0,0,0-1.222.517,1.97,1.97,0,0,0-.5,1.432V17H74.52V6.32h1.89V10.3A2.773,2.773,0,0,1,78.765,9.08Zm11.55,4.185v.45h-5.79a2.354,2.354,0,0,0,.622,1.493,1.907,1.907,0,0,0,1.388.5,1.763,1.763,0,0,0,1.77-1.11H90.12a3.233,3.233,0,0,1-1.26,1.882,3.873,3.873,0,0,1-2.34.7,3.691,3.691,0,0,1-2.79-1.11,4.069,4.069,0,0,1-1.065-2.94,4.1,4.1,0,0,1,1.05-2.94A3.672,3.672,0,0,1,86.49,9.08a3.559,3.559,0,0,1,2.79,1.155A4.369,4.369,0,0,1,90.315,13.265Zm-3.84-2.715q-1.665,0-1.935,1.845h3.885a2.252,2.252,0,0,0-.63-1.35A1.816,1.816,0,0,0,86.475,10.55ZM99.84,13.6V9.26h1.89V17H99.9V15.875a2.785,2.785,0,0,1-2.43,1.305,2.665,2.665,0,0,1-1.973-.728,2.79,2.79,0,0,1-.728-2.062V9.26h1.89v4.815a1.293,1.293,0,0,0,1.455,1.47,1.64,1.64,0,0,0,1.222-.517A1.97,1.97,0,0,0,99.84,13.6Zm6.465,3.615q-3.39,0-3.54-2.67h1.845a1.391,1.391,0,0,0,.473,1.02,2.09,2.09,0,0,0,1.253.3q1.53,0,1.53-.93a.734.734,0,0,0-.33-.645,3.267,3.267,0,0,0-1.185-.375l-.885-.15q-2.535-.42-2.535-2.34a2.019,2.019,0,0,1,.84-1.718,3.92,3.92,0,0,1,2.37-.622q3.315,0,3.42,2.625h-1.785a1.2,1.2,0,0,0-.435-.983,2.042,2.042,0,0,0-1.2-.292q-1.35,0-1.35.9a.708.708,0,0,0,.3.608,2.471,2.471,0,0,0,.99.337l.975.15a4.3,4.3,0,0,1,2.048.81,1.94,1.94,0,0,1,.638,1.545,2.065,2.065,0,0,1-.9,1.8A4.377,4.377,0,0,1,106.305,17.21Zm11.745-3.945v.45h-5.79a2.354,2.354,0,0,0,.622,1.493,1.907,1.907,0,0,0,1.388.5,1.763,1.763,0,0,0,1.77-1.11h1.815a3.233,3.233,0,0,1-1.26,1.882,3.873,3.873,0,0,1-2.34.7,3.691,3.691,0,0,1-2.79-1.11,4.069,4.069,0,0,1-1.065-2.94,4.1,4.1,0,0,1,1.05-2.94,3.672,3.672,0,0,1,2.775-1.11,3.559,3.559,0,0,1,2.79,1.155A4.369,4.369,0,0,1,118.05,13.265Zm-3.84-2.715q-1.665,0-1.935,1.845h3.885a2.252,2.252,0,0,0-.63-1.35A1.816,1.816,0,0,0,114.21,10.55ZM123.4,9.14a3.3,3.3,0,0,1,.465.03v1.74h-.48a2.318,2.318,0,0,0-1.658.548,2.119,2.119,0,0,0-.577,1.612V17h-1.89V9.26h1.83v1.38A2.318,2.318,0,0,1,123.4,9.14Zm4.365,8.07q-3.39,0-3.54-2.67h1.845a1.391,1.391,0,0,0,.473,1.02,2.09,2.09,0,0,0,1.253.3q1.53,0,1.53-.93a.734.734,0,0,0-.33-.645,3.267,3.267,0,0,0-1.185-.375l-.885-.15q-2.535-.42-2.535-2.34a2.019,2.019,0,0,1,.84-1.718,3.92,3.92,0,0,1,2.37-.622q3.315,0,3.42,2.625H129.24a1.2,1.2,0,0,0-.435-.983,2.042,2.042,0,0,0-1.2-.292q-1.35,0-1.35.9a.708.708,0,0,0,.3.608,2.471,2.471,0,0,0,.99.337l.975.15a4.3,4.3,0,0,1,2.048.81,1.94,1.94,0,0,1,.637,1.545,2.065,2.065,0,0,1-.9,1.8A4.377,4.377,0,0,1,127.77,17.21ZM4.8,28.26V29.7H3.27v4.185a.613.613,0,0,0,.2.525,1.177,1.177,0,0,0,.683.15H4.8V36q-.615.06-.99.06a2.891,2.891,0,0,1-1.838-.472,1.837,1.837,0,0,1-.578-1.507V29.7H.2V28.26h1.2V26.01H3.27v2.25Zm8.49,3.87a4.036,4.036,0,0,1-1.08,2.94,3.8,3.8,0,0,1-2.85,1.11,3.8,3.8,0,0,1-2.85-1.11,3.973,3.973,0,0,1-1.1-2.94,3.973,3.973,0,0,1,1.1-2.94,3.8,3.8,0,0,1,2.85-1.11,3.824,3.824,0,0,1,2.85,1.095A4.024,4.024,0,0,1,13.29,32.13ZM7.875,33.975a1.833,1.833,0,0,0,1.485.645,1.8,1.8,0,0,0,1.477-.653,2.833,2.833,0,0,0,.533-1.837,2.833,2.833,0,0,0-.533-1.838A1.8,1.8,0,0,0,9.36,29.64a1.811,1.811,0,0,0-1.478.645A2.827,2.827,0,0,0,7.35,32.13,2.856,2.856,0,0,0,7.875,33.975Zm11.715-6.72H17.73v-1.77h1.86ZM19.605,36h-1.89V28.26h1.89Zm5.775-7.92a2.686,2.686,0,0,1,1.987.727A2.79,2.79,0,0,1,28.1,30.87V36h-1.89V31.185a1.293,1.293,0,0,0-1.455-1.47,1.64,1.64,0,0,0-1.222.517,1.97,1.97,0,0,0-.5,1.433V36h-1.89V28.26h1.83v1.11A2.78,2.78,0,0,1,25.38,28.08Zm8.01.18V29.7H31.86v4.185a.613.613,0,0,0,.2.525,1.177,1.177,0,0,0,.682.15h.645V36q-.615.06-.99.06a2.891,2.891,0,0,1-1.838-.472,1.837,1.837,0,0,1-.577-1.507V29.7h-1.2V28.26h1.2V26.01H31.86v2.25Zm8.265,4v.45h-5.79a2.354,2.354,0,0,0,.623,1.493,1.907,1.907,0,0,0,1.388.5,1.763,1.763,0,0,0,1.77-1.11H41.46a3.233,3.233,0,0,1-1.26,1.882,3.873,3.873,0,0,1-2.34.7,3.691,3.691,0,0,1-2.79-1.11A4.069,4.069,0,0,1,34,32.13a4.1,4.1,0,0,1,1.05-2.94,3.672,3.672,0,0,1,2.775-1.11,3.559,3.559,0,0,1,2.79,1.155A4.369,4.369,0,0,1,41.655,32.265Zm-3.84-2.715q-1.665,0-1.935,1.845h3.885a2.252,2.252,0,0,0-.63-1.35A1.816,1.816,0,0,0,37.815,29.55Zm9.195-1.41a3.3,3.3,0,0,1,.465.03v1.74h-.48a2.318,2.318,0,0,0-1.657.548,2.119,2.119,0,0,0-.578,1.612V36H42.87V28.26H44.7v1.38A2.318,2.318,0,0,1,47.01,28.14Zm6.105,2.19.75-2.07H55.83L52.95,36H50.775L47.91,28.26h2.025l.75,2.085Q51.21,31.98,51.9,34.29,52.455,32.43,53.115,30.33Zm5.325-3.075H56.58v-1.77h1.86ZM58.455,36h-1.89V28.26h1.89Zm8.835-3.735v.45H61.5a2.354,2.354,0,0,0,.623,1.493,1.907,1.907,0,0,0,1.388.5,1.763,1.763,0,0,0,1.77-1.11H67.1a3.233,3.233,0,0,1-1.26,1.882,3.873,3.873,0,0,1-2.34.7,3.691,3.691,0,0,1-2.79-1.11,4.069,4.069,0,0,1-1.065-2.94,4.1,4.1,0,0,1,1.05-2.94,3.672,3.672,0,0,1,2.775-1.11,3.559,3.559,0,0,1,2.79,1.155A4.369,4.369,0,0,1,67.29,32.265ZM63.45,29.55q-1.665,0-1.935,1.845H65.4a2.252,2.252,0,0,0-.63-1.35A1.816,1.816,0,0,0,63.45,29.55Zm13.365,1.6.87-2.895H79.71L77.16,36H75.18l-.975-3.18q-.555-1.95-.66-2.31-.045.165-.645,2.31L71.94,36H69.96l-2.55-7.74h2.025l.87,2.895q.33,1.035.765,2.685.42-1.665.735-2.7l.855-2.88h1.8l.855,2.88q.315,1.035.735,2.7Q76.44,32.355,76.815,31.155ZM3.975,57.94H2.85A12.216,12.216,0,0,1,.75,50.6a12.174,12.174,0,0,1,2.1-7.335H3.975a12.479,12.479,0,0,0-1.5,3.42,15.658,15.658,0,0,0-.45,3.915,15.368,15.368,0,0,0,.45,3.9A12.433,12.433,0,0,0,3.975,57.94Zm.75-12.48V44.32H11.58v.99A14.732,14.732,0,0,0,7.74,55h-1.3A15.082,15.082,0,0,1,7.4,49.923a15.713,15.713,0,0,1,2.722-4.463ZM21.45,48.37V44.32h1.2V55H21.51V53.8a3.012,3.012,0,0,1-2.655,1.38,3.3,3.3,0,0,1-2.61-1.11,4.883,4.883,0,0,1,0-5.9,3.293,3.293,0,0,1,2.61-1.095A3.018,3.018,0,0,1,21.45,48.37Zm-4.935,2.82a3.135,3.135,0,0,0,.675,2.145A2.3,2.3,0,0,0,19,54.1a2.259,2.259,0,0,0,1.815-.795,3.218,3.218,0,0,0,.675-2.175,3.254,3.254,0,0,0-.675-2.175,2.438,2.438,0,0,0-3.622.022A3.345,3.345,0,0,0,16.515,51.19Zm9.165-5.1H24.4V44.62H25.68ZM25.65,55h-1.2V47.26h1.2Zm5.325-9.66h-.69q-1.035,0-1.035,1.1v.825H30.9v1.05H29.25V55h-1.2V48.31H26.775V47.26H28.05v-.8a1.916,1.916,0,0,1,2.16-2.175q.285,0,.765.03Zm4.8,0h-.69q-1.035,0-1.035,1.1v.825H35.7v1.05H34.05V55h-1.2V48.31H31.575V47.26H32.85v-.8a1.916,1.916,0,0,1,2.16-2.175q.285,0,.765.03ZM43.2,51.13v.42H37.32a2.952,2.952,0,0,0,.7,1.9,2.225,2.225,0,0,0,1.68.638,1.939,1.939,0,0,0,2.055-1.44H43a3.435,3.435,0,0,1-1.17,1.853,3.681,3.681,0,0,1-4.755-.413,4.2,4.2,0,0,1-1-2.955,4.252,4.252,0,0,1,.99-2.94,3.266,3.266,0,0,1,2.58-1.11,3.188,3.188,0,0,1,2.61,1.155A4.421,4.421,0,0,1,43.2,51.13Zm-3.555-2.955a2.106,2.106,0,0,0-1.545.593,2.85,2.85,0,0,0-.75,1.7h4.56a2.681,2.681,0,0,0-.69-1.658A2.063,2.063,0,0,0,39.645,48.175Zm8.61-1.035a3.489,3.489,0,0,1,.405.015V48.31h-.3a2.718,2.718,0,0,0-1.867.592,2.138,2.138,0,0,0-.668,1.688V55h-1.2V47.26h1.14v1.365A2.618,2.618,0,0,1,48.255,47.14Zm7.83,3.99v.42h-5.88a2.952,2.952,0,0,0,.7,1.9,2.225,2.225,0,0,0,1.68.638,1.939,1.939,0,0,0,2.055-1.44H55.89A3.435,3.435,0,0,1,54.72,54.5a3.681,3.681,0,0,1-4.755-.413,4.2,4.2,0,0,1-1-2.955,4.252,4.252,0,0,1,.99-2.94,3.266,3.266,0,0,1,2.58-1.11,3.188,3.188,0,0,1,2.61,1.155A4.421,4.421,0,0,1,56.085,51.13ZM52.53,48.175a2.106,2.106,0,0,0-1.545.593,2.85,2.85,0,0,0-.75,1.7H54.8a2.681,2.681,0,0,0-.69-1.658A2.063,2.063,0,0,0,52.53,48.175Zm8.55-1.095a2.751,2.751,0,0,1,2.01.7,2.645,2.645,0,0,1,.72,1.98V55h-1.2V49.885a1.545,1.545,0,0,0-1.77-1.725,2.064,2.064,0,0,0-1.485.63,2.444,2.444,0,0,0-.645,1.83V55h-1.2V47.26h1.14v1.155A2.769,2.769,0,0,1,61.08,47.08Zm7.62.18v1.05H67.11v5.025q0,.66.885.66H68.7V55q-.5.045-.855.045-1.935,0-1.935-1.6V48.31H64.635V47.26H65.91V45.07h1.2v2.19Zm7.92-.18a3.368,3.368,0,0,1,2.625,1.095,4.943,4.943,0,0,1,0,5.9,3.346,3.346,0,0,1-2.625,1.11,3.018,3.018,0,0,1-2.6-1.29v4.05h-1.2V47.26h1.14v1.2A3.012,3.012,0,0,1,76.62,47.08Zm-.15,7.02a2.238,2.238,0,0,0,1.808-.817,3.345,3.345,0,0,0,.683-2.213,3.163,3.163,0,0,0-.668-2.138,2.519,2.519,0,0,0-3.637.007,3.866,3.866,0,0,0,0,4.365A2.259,2.259,0,0,0,76.47,54.1Zm8.805-6.96a3.489,3.489,0,0,1,.4.015V48.31h-.3a2.718,2.718,0,0,0-1.868.592,2.138,2.138,0,0,0-.668,1.688V55h-1.2V47.26h1.14v1.365A2.618,2.618,0,0,1,85.275,47.14Zm7.155,6.93a3.839,3.839,0,0,1-5.4,0,4.641,4.641,0,0,1,0-5.88,3.839,3.839,0,0,1,5.4,0,4.641,4.641,0,0,1,0,5.88Zm-4.515-.765a2.469,2.469,0,0,0,3.63,0,3.866,3.866,0,0,0,0-4.365,2.5,2.5,0,0,0-3.63,0,3.866,3.866,0,0,0,0,4.365Zm7.29-6.045v-.8a1.916,1.916,0,0,1,2.16-2.175q.285,0,.765.03v1.02h-.69q-1.035,0-1.035,1.1v.825h1.65v1.05H96.4V55h-1.2V48.31H93.93V47.26Zm4-1.17V44.62h1.275v1.47ZM100.455,55h-1.2V47.26h1.2Zm3,0h-1.2V44.32h1.2Zm8.55-3.87v.42h-5.88a2.952,2.952,0,0,0,.705,1.9,2.225,2.225,0,0,0,1.68.638,1.939,1.939,0,0,0,2.055-1.44h1.245a3.435,3.435,0,0,1-1.17,1.853,3.681,3.681,0,0,1-4.755-.413,4.2,4.2,0,0,1-1-2.955,4.252,4.252,0,0,1,.99-2.94,3.266,3.266,0,0,1,2.58-1.11,3.188,3.188,0,0,1,2.61,1.155A4.422,4.422,0,0,1,112.005,51.13Zm-3.555-2.955a2.106,2.106,0,0,0-1.545.593,2.85,2.85,0,0,0-.75,1.7h4.56a2.681,2.681,0,0,0-.69-1.658A2.063,2.063,0,0,0,108.45,48.175Zm7.635,7.005q-3.1,0-3.285-2.64h1.215a1.758,1.758,0,0,0,.577,1.237,2.435,2.435,0,0,0,1.493.368q1.86,0,1.86-1.2a.911.911,0,0,0-.382-.795,3.869,3.869,0,0,0-1.387-.465l-.72-.135q-2.415-.45-2.415-2.28a1.922,1.922,0,0,1,.757-1.6,3.264,3.264,0,0,1,2.063-.592q3.075,0,3.15,2.565h-1.2a1.488,1.488,0,0,0-.51-1.185,2.425,2.425,0,0,0-1.44-.345,2.045,2.045,0,0,0-1.2.3.973.973,0,0,0-.42.84.876.876,0,0,0,.36.765,3.414,3.414,0,0,0,1.2.435l.69.135a4.64,4.64,0,0,1,2.047.81,1.818,1.818,0,0,1,.623,1.47,2,2,0,0,1-.818,1.7A3.714,3.714,0,0,1,116.085,55.18Zm4.05-.18V53.5h1.515v1.635q0,1.8-1.365,1.935l-.15.015v-.81l.1-.015q.555-.06.555-1.02V55ZM6.3,68.315A2.913,2.913,0,0,1,8.085,71a2.946,2.946,0,0,1-1.02,2.34,3.83,3.83,0,0,1-2.655.9,3.868,3.868,0,0,1-2.767-.93,3.278,3.278,0,0,1-.967-2.535H1.92a2.324,2.324,0,0,0,.675,1.732A2.585,2.585,0,0,0,4.41,73.1a2.482,2.482,0,0,0,1.717-.57,2.164,2.164,0,0,0-.015-3.082,2.587,2.587,0,0,0-1.778-.577h-.8V67.82h.72A2.5,2.5,0,0,0,5.9,67.34,1.641,1.641,0,0,0,6.48,66,1.6,1.6,0,0,0,5.9,64.692a2.4,2.4,0,0,0-1.568-.472,2.343,2.343,0,0,0-1.6.518A2.042,2.042,0,0,0,2.1,66.26H.84a3.041,3.041,0,0,1,.952-2.318,3.61,3.61,0,0,1,2.543-.862,3.78,3.78,0,0,1,2.482.772,2.6,2.6,0,0,1,.938,2.122A2.55,2.55,0,0,1,6.3,68.315Zm8.595-.045a3.225,3.225,0,0,1,1.455,1.058,2.654,2.654,0,0,1,.525,1.643,2.94,2.94,0,0,1-1.065,2.385A4.246,4.246,0,0,1,13,74.24a4.246,4.246,0,0,1-2.8-.885A2.94,2.94,0,0,1,9.135,70.97a2.654,2.654,0,0,1,.525-1.643,3.225,3.225,0,0,1,1.455-1.058A2.321,2.321,0,0,1,9.57,66a2.639,2.639,0,0,1,.975-2.16A3.864,3.864,0,0,1,13,63.08a3.864,3.864,0,0,1,2.46.765A2.639,2.639,0,0,1,16.44,66,2.321,2.321,0,0,1,14.895,68.27Zm-.315-3.585A2.5,2.5,0,0,0,13,64.22a2.5,2.5,0,0,0-1.575.465,1.724,1.724,0,0,0,0,2.64A2.5,2.5,0,0,0,13,67.79a2.5,2.5,0,0,0,1.575-.465,1.724,1.724,0,0,0,0-2.64ZM11.145,72.53A2.868,2.868,0,0,0,13,73.1a2.868,2.868,0,0,0,1.86-.57,2.125,2.125,0,0,0,0-3.135A2.883,2.883,0,0,0,13,68.84a2.883,2.883,0,0,0-1.86.555,2.125,2.125,0,0,0,0,3.135ZM26.25,70.64V66.26h1.2V74H26.31V72.845a3.012,3.012,0,0,1-4.44.63,2.645,2.645,0,0,1-.72-1.98V66.26h1.2v5.115A1.545,1.545,0,0,0,24.12,73.1a2.064,2.064,0,0,0,1.485-.63A2.444,2.444,0,0,0,26.25,70.64Zm5.73,3.54q-3.1,0-3.285-2.64H29.91a1.758,1.758,0,0,0,.578,1.237,2.435,2.435,0,0,0,1.492.368q1.86,0,1.86-1.2a.911.911,0,0,0-.382-.795,3.868,3.868,0,0,0-1.388-.465l-.72-.135q-2.415-.45-2.415-2.28a1.922,1.922,0,0,1,.757-1.6,3.264,3.264,0,0,1,2.063-.592q3.075,0,3.15,2.565h-1.2a1.488,1.488,0,0,0-.51-1.185,2.425,2.425,0,0,0-1.44-.345,2.045,2.045,0,0,0-1.2.3.973.973,0,0,0-.42.84.876.876,0,0,0,.36.765,3.414,3.414,0,0,0,1.2.435l.69.135a4.64,4.64,0,0,1,2.047.81,1.818,1.818,0,0,1,.623,1.47,2,2,0,0,1-.818,1.7A3.714,3.714,0,0,1,31.98,74.18ZM43,70.13v.42h-5.88a2.952,2.952,0,0,0,.7,1.9,2.225,2.225,0,0,0,1.68.637,1.939,1.939,0,0,0,2.055-1.44H42.81A3.435,3.435,0,0,1,41.64,73.5a3.681,3.681,0,0,1-4.755-.412,4.2,4.2,0,0,1-1-2.955,4.252,4.252,0,0,1,.99-2.94,3.266,3.266,0,0,1,2.58-1.11,3.188,3.188,0,0,1,2.61,1.155A4.421,4.421,0,0,1,43,70.13ZM39.45,67.175a2.106,2.106,0,0,0-1.545.592,2.85,2.85,0,0,0-.75,1.7h4.56a2.681,2.681,0,0,0-.69-1.658A2.063,2.063,0,0,0,39.45,67.175Zm8.61-1.035a3.488,3.488,0,0,1,.405.015V67.31h-.3A2.718,2.718,0,0,0,46.3,67.9a2.138,2.138,0,0,0-.668,1.688V74h-1.2V66.26h1.14v1.365A2.618,2.618,0,0,1,48.06,66.14Zm3.96,8.04q-3.1,0-3.285-2.64H49.95a1.758,1.758,0,0,0,.577,1.237,2.435,2.435,0,0,0,1.493.368q1.86,0,1.86-1.2a.911.911,0,0,0-.382-.795,3.868,3.868,0,0,0-1.387-.465l-.72-.135q-2.415-.45-2.415-2.28a1.922,1.922,0,0,1,.757-1.6,3.264,3.264,0,0,1,2.063-.592q3.075,0,3.15,2.565h-1.2a1.488,1.488,0,0,0-.51-1.185,2.425,2.425,0,0,0-1.44-.345,2.045,2.045,0,0,0-1.2.3.973.973,0,0,0-.42.84.876.876,0,0,0,.36.765,3.414,3.414,0,0,0,1.2.435l.69.135a4.64,4.64,0,0,1,2.048.81,1.818,1.818,0,0,1,.623,1.47,2,2,0,0,1-.818,1.7A3.714,3.714,0,0,1,52.02,74.18Zm4.65,2.76H55.545a12.432,12.432,0,0,0,1.5-3.435,15.368,15.368,0,0,0,.45-3.9,15.658,15.658,0,0,0-.45-3.915,12.478,12.478,0,0,0-1.5-3.42H56.67a12.174,12.174,0,0,1,2.1,7.335A12.216,12.216,0,0,1,56.67,76.94ZM61.71,74H60.195V72.5H61.71Z" transform="translate(934 1962.491)" fill="#151515"/>
    <g id="Group_3301" data-name="Group 3301" transform="translate(834 1962.546)">
      <g id="Group_3303" data-name="Group 3303" clip-path="url(#clip-path)">
        <path id="Path_1069" data-name="Path 1069" d="M47.771,55.369a5.245,5.245,0,0,0-1.239-.1l-8.011-.005c-10.848-.008-23.144-.017-32.4.031H6.1a3.6,3.6,0,0,1-2.616-.979,3.643,3.643,0,0,1-1-2.666c.06-15.374.06-30.678,0-45.487a3.681,3.681,0,0,1,.986-2.691,3.689,3.689,0,0,1,2.685-1h.015c11.205.031,22.6.027,33.615.023l10.968,0h4.96q5.3,0,10.61,0h0A3.011,3.011,0,0,1,69.3,4.054a4.494,4.494,0,0,1,.431,1.962c.023,4.854.022,9.789.022,14.562q0,2.894,0,5.788a1.715,1.715,0,0,0,.434,1.251,1.144,1.144,0,0,0,.839.325c.76-.008,1.232-.59,1.232-1.517q0-2.349,0-4.7c0-5.28.008-10.739-.011-16.109A5.126,5.126,0,0,0,69.185.664,7.932,7.932,0,0,0,65.973.032C58.26,0,50.417,0,42.834,0L36.2.006H17.288L13.908,0C11.307,0,8.616,0,5.97.013A6.018,6.018,0,0,0,1.612,1.662,6.029,6.029,0,0,0,0,6.023v13.13C0,29.882,0,40.977,0,51.888a5.864,5.864,0,0,0,1.623,4.251,5.823,5.823,0,0,0,4.237,1.629c9.4,0,21.831,0,32.8,0h8.362l.131,0,.138,0a1.835,1.835,0,0,0,.285-.019,1.156,1.156,0,0,0,1.057-1.074,1.106,1.106,0,0,0-.868-1.311" transform="translate(0 0)"/>
        <path id="Path_1070" data-name="Path 1070" d="M231.111,245.793a3.6,3.6,0,0,1,.3-1c.081-.2.164-.4.226-.613.086-.286.187-.578.285-.86a8.494,8.494,0,0,0,.551-2.208,41.215,41.215,0,0,0-.063-5.63A7.2,7.2,0,0,0,227,228.93a15.68,15.68,0,0,0-4.474-.341,7.269,7.269,0,0,0-6.906,5.86,24.019,24.019,0,0,0-.23,6.814q.024.391.047.781a4.358,4.358,0,0,0,.3,1.18c.06.171.123.348.173.52q.12.417.239.835c.165.581.336,1.182.514,1.77.06.2.108.411.155.619a3.454,3.454,0,0,0,.579,1.482c1.128,1.339.94,2.853.759,4.318-.006.045-.016.092-.026.141a1,1,0,0,0-.031.347c.073.534-.188.734-.763.956-2.373.917-4.875,1.9-8.112,3.189a6.632,6.632,0,0,0-4.227,5.908c-.017.917.384,1.454,1.128,1.512.044,0,.087.005.13.005a1.183,1.183,0,0,0,.791-.271,1.545,1.545,0,0,0,.463-1.1,4.144,4.144,0,0,1,2.907-3.843c1.583-.615,3.188-1.252,4.74-1.868,1.381-.547,2.808-1.114,4.215-1.663a1.512,1.512,0,0,0,1.117-1.468c.015-.435.069-.871.127-1.333.018-.141.035-.285.053-.433a5.838,5.838,0,0,0,6.2-.01q.019.209.038.41c.044.469.086.911.12,1.354a1.416,1.416,0,0,0,.914,1.375c.292.1.584.21.875.316.648.236,1.318.48,1.986.7a1.242,1.242,0,1,0,.836-2.335c-.231-.095-.471-.174-.7-.252a7.242,7.242,0,0,1-.986-.382,1.032,1.032,0,0,1-.5-.62,18.833,18.833,0,0,1-.2-2.624,1.912,1.912,0,0,1,.3-1.018,8.506,8.506,0,0,0,1.57-3.969m-13.244-8.12a10.571,10.571,0,0,1,.044-2.015c.452-3.028,2.31-4.553,5.681-4.662q.138,0,.277,0a9.556,9.556,0,0,1,2.377.307,5.14,5.14,0,0,1,3.781,5.206c.037,1.335.063,2.909-.019,4.462a5.49,5.49,0,0,1-.354,1.437c-.054.157-.109.319-.159.48-.1.31-.213.625-.325.928a10.019,10.019,0,0,0-.542,1.812,6.314,6.314,0,0,1-1.239,2.807c-.162.216-.346.427-.523.631a7.891,7.891,0,0,0-.763.977,2.735,2.735,0,0,1-2.491,1.193,2.631,2.631,0,0,1-2.278-1.356,5.205,5.205,0,0,0-.688-.979c-.136-.164-.276-.335-.4-.507a5.447,5.447,0,0,1-1.21-2.959,3.309,3.309,0,0,0-.339-1.46c-.646-1.172-1.03-2.566-.808-5.556V238.4c0-.223-.011-.47-.022-.73" transform="translate(-189.643 -211.449)"/>
        <path id="Path_1071" data-name="Path 1071" d="M122.63,168.1h2.318c2.614,0,5.273,0,7.9,0,.944,0,1.5-.448,1.518-1.225a1.156,1.156,0,0,0-.3-.867,1.672,1.672,0,0,0-1.227-.421c-.1,0-.21,0-.315,0h-38.1q-9.718,0-19.436,0c-1,0-1.589.444-1.615,1.216a1.129,1.129,0,0,0,.3.84,1.814,1.814,0,0,0,1.324.458H122.63Z" transform="translate(-67.872 -153.182)"/>
        <path id="Path_1072" data-name="Path 1072" d="M249.4,80.076h.048a1.8,1.8,0,0,0,1.757-1.7,1.753,1.753,0,0,0-.481-1.269,1.784,1.784,0,0,0-1.254-.578,1.814,1.814,0,0,0-1.8,1.693,1.746,1.746,0,0,0,.475,1.259,1.806,1.806,0,0,0,1.26.592" transform="translate(-229.121 -70.803)"/>
        <path id="Path_1073" data-name="Path 1073" d="M166.186,80.068a1.772,1.772,0,0,0,.06-3.542,1.746,1.746,0,0,0-1.266.484,1.771,1.771,0,0,0,1.2,3.059Z" transform="translate(-152.102 -70.795)"/>
        <path id="Path_1074" data-name="Path 1074" d="M82.957,80.075a1.773,1.773,0,0,0,.007-3.542,1.72,1.72,0,0,0-1.254.5,1.756,1.756,0,0,0-.006,2.541,1.725,1.725,0,0,0,1.211.5h.042" transform="translate(-75.087 -70.802)"/>
        <path id="Path_1075" data-name="Path 1075" d="M806.645,531.65a3.342,3.342,0,0,0-.6.533l-.045.047q-1.492,1.559-2.982,3.119c-2.114,2.213-4.3,4.5-6.461,6.739-.494.511-1.022.972-1.534,1.417-.184.161-.36.314-.528.464l-.632-.569c-.62-.557-1.26-1.132-1.9-1.729-.684-.64-1.408-.721-1.937-.214-.576.551-.531,1.239.127,1.935s1.315,1.382,1.959,2.052q.515.536,1.029,1.074c.5.524.9.849,1.33.849h0c.428,0,.815-.315,1.3-.824,4.625-4.834,8.455-8.841,12.054-12.609.041-.043.087-.087.133-.131a1.071,1.071,0,0,0,.405-.6,2.239,2.239,0,0,0-.232-1.328,1.038,1.038,0,0,0-1.494-.222" transform="translate(-730.516 -491.649)"/>
        <path id="Path_1076" data-name="Path 1076" d="M98.116,259.41c-2.128.822-4.377,1.706-7.292,2.866a5.977,5.977,0,0,0-3.809,5.324c-.015.821.36,1.322,1.028,1.375q.06,0,.118,0a1.078,1.078,0,0,0,.721-.248,1.4,1.4,0,0,0,.422-1,3.711,3.711,0,0,1,2.6-3.442c1.423-.553,2.865-1.125,4.26-1.678,1.241-.492,2.525-1,3.79-1.5a1.373,1.373,0,0,0,1.014-1.333c.014-.39.062-.782.114-1.2.015-.12.03-.242.045-.367a5.26,5.26,0,0,0,5.613-.047l.08-.048-.007-.093a1.445,1.445,0,0,0-.34-.881,4.145,4.145,0,0,1-.617-.995l-.084-.189-.153.139a2.645,2.645,0,0,1-2.24.571,2.247,2.247,0,0,1-1.644-1.164,4.69,4.69,0,0,0-.62-.883c-.122-.148-.248-.3-.358-.455a4.881,4.881,0,0,1-1.085-2.651,2.988,2.988,0,0,0-.307-1.319c-.579-1.051-.924-2.3-.725-4.986v-.011c0-.2-.01-.423-.02-.657a9.494,9.494,0,0,1,.039-1.808c.405-2.714,2.071-4.08,5.092-4.178a8.194,8.194,0,0,1,1.262.06l.1.012.048-.091a9.644,9.644,0,0,1,1.177-1.742l.168-.2-.255-.047a14.838,14.838,0,0,0-3.465-.189,6.548,6.548,0,0,0-6.221,5.279,21.594,21.594,0,0,0-.207,6.129q.022.351.042.7a3.932,3.932,0,0,0,.268,1.065c.054.153.11.312.155.467q.108.375.214.75c.149.522.3,1.063.462,1.592.053.176.1.369.139.555a3.115,3.115,0,0,0,.523,1.339c1.01,1.2.841,2.556.678,3.87,0,.04-.014.082-.023.126a.922.922,0,0,0-.028.317c.064.47-.167.646-.676.843" transform="translate(-80.5 -218.655)"/>
        <path id="Path_1077" data-name="Path 1077" d="M708.95,410.5a17.811,17.811,0,1,0,5.217,12.594A17.694,17.694,0,0,0,708.95,410.5m2.522,12.594a15.116,15.116,0,1,1-15.116-15.116,15.133,15.133,0,0,1,15.116,15.116" transform="translate(-627.746 -374.939)"/>
      </g>
    </g>
    <g id="Group_3313-2" data-name="Group 3313" transform="translate(2 18)">
      <g transform="matrix(1, 0, 0, 1, 785.5, 1891)" filter="url(#Rectangle_74-2)">
        <rect id="Rectangle_74-6" data-name="Rectangle 74" width="294" height="95" transform="translate(22.5 267)" fill="#fff"/>
      </g>
      <path id="Path_1036-2" data-name="Path 1036" d="M-118,0H176.8l24.363,22.84.113,141.287H-118Z" transform="translate(913 2086)" fill="#fbf5c0"/>
      <path id="Path_1037-2" data-name="Path 1037" d="M0,0,11.766,10.777,24.867,23.2,0,23.746Z" transform="translate(1089.124 2086)" fill="#beab82"/>
    </g>
    <g transform="matrix(1, 0, 0, 1, 787.5, 1909)" filter="url(#Rectangle_74-3)">
      <rect id="Rectangle_74-7" data-name="Rectangle 74" width="294" height="95" transform="translate(374.5 72)" fill="#fff"/>
    </g>
    <path id="Path_1036-3" data-name="Path 1036" d="M-118,0H176.8l24.363,22.84.113,141.287H-118Z" transform="translate(1267 1909)" fill="#fbf5c0"/>
    <path id="Path_1037-3" data-name="Path 1037" d="M0,0,11.766,10.777,24.867,23.2,0,23.746Z" transform="translate(1443.124 1909)" fill="#beab82"/>
    <g transform="matrix(1, 0, 0, 1, 787.5, 1909)" filter="url(#Rectangle_74-4)">
      <rect id="Rectangle_74-8" data-name="Rectangle 74" width="294" height="95" transform="translate(374.5 266.5)" fill="#fff"/>
    </g>
    <path id="Path_1036-4" data-name="Path 1036" d="M-118,0H176.8l24.363,22.84.113,141.287H-118Z" transform="translate(1267 2103.5)" fill="#fbf5c0"/>
    <path id="Path_1037-4" data-name="Path 1037" d="M0,0,11.766,10.777,24.867,23.2,0,23.746Z" transform="translate(1443.124 2103.5)" fill="#beab82"/>
    <path id="Path_6243" data-name="Path 6243" d="M2.895,17H.87V6.32H2.895Zm8.37.18A3.672,3.672,0,0,1,8.49,16.07a4.07,4.07,0,0,1-1.05-2.94,4.091,4.091,0,0,1,1.05-2.955A3.638,3.638,0,0,1,11.265,9.08a3.729,3.729,0,0,1,2.475.8,3.209,3.209,0,0,1,1.125,2.167h-1.89a1.7,1.7,0,0,0-.585-1.035,1.744,1.744,0,0,0-1.125-.36,1.669,1.669,0,0,0-1.387.637,2.914,2.914,0,0,0-.5,1.838,2.883,2.883,0,0,0,.51,1.837,1.674,1.674,0,0,0,1.38.637,1.788,1.788,0,0,0,1.163-.382A1.663,1.663,0,0,0,13,14.12h1.89a3.242,3.242,0,0,1-1.14,2.227A3.736,3.736,0,0,1,11.265,17.18ZM20.07,9.14a3.3,3.3,0,0,1,.465.03v1.74h-.48a2.318,2.318,0,0,0-1.658.548,2.119,2.119,0,0,0-.577,1.612V17H15.93V9.26h1.83v1.38A2.318,2.318,0,0,1,20.07,9.14Zm8.445,4.125v.45h-5.79a2.354,2.354,0,0,0,.622,1.493,1.907,1.907,0,0,0,1.388.5,1.763,1.763,0,0,0,1.77-1.11H28.32a3.233,3.233,0,0,1-1.26,1.882,3.873,3.873,0,0,1-2.34.7,3.691,3.691,0,0,1-2.79-1.11,4.069,4.069,0,0,1-1.065-2.94,4.1,4.1,0,0,1,1.05-2.94A3.672,3.672,0,0,1,24.69,9.08a3.559,3.559,0,0,1,2.79,1.155A4.369,4.369,0,0,1,28.515,13.265Zm-3.84-2.715q-1.665,0-1.935,1.845h3.885a2.252,2.252,0,0,0-.63-1.35A1.816,1.816,0,0,0,24.675,10.55ZM36.615,17h-1.89a2.808,2.808,0,0,1-.21-.945,2.815,2.815,0,0,1-2.49,1.125,3.129,3.129,0,0,1-2.032-.615,2.08,2.08,0,0,1-.758-1.71q0-2.115,2.97-2.415l1.17-.105a1.73,1.73,0,0,0,.84-.277.729.729,0,0,0,.255-.608.836.836,0,0,0-.323-.727,1.918,1.918,0,0,0-1.088-.233,1.968,1.968,0,0,0-1.185.278,1.285,1.285,0,0,0-.42.953h-1.86q.165-2.64,3.48-2.64,3.225,0,3.225,2.325V15.53A2.63,2.63,0,0,0,36.615,17Zm-4.14-1.17a2.1,2.1,0,0,0,1.44-.488,1.767,1.767,0,0,0,.555-1.4v-.7a1.629,1.629,0,0,1-.885.315l-1.02.12a2.13,2.13,0,0,0-1.072.352.92.92,0,0,0-.323.757.945.945,0,0,0,.337.773A1.487,1.487,0,0,0,32.475,15.83Zm9.06-6.57V10.7h-1.53v4.185a.613.613,0,0,0,.2.525,1.177,1.177,0,0,0,.682.15h.645V17q-.615.06-.99.06a2.891,2.891,0,0,1-1.838-.472,1.837,1.837,0,0,1-.577-1.507V10.7h-1.2V9.26h1.2V7.01h1.875V9.26ZM49.8,13.265v.45H44.01a2.354,2.354,0,0,0,.623,1.493,1.907,1.907,0,0,0,1.388.5,1.763,1.763,0,0,0,1.77-1.11H49.6a3.233,3.233,0,0,1-1.26,1.882,3.873,3.873,0,0,1-2.34.7,3.691,3.691,0,0,1-2.79-1.11,4.069,4.069,0,0,1-1.065-2.94,4.1,4.1,0,0,1,1.05-2.94,3.672,3.672,0,0,1,2.775-1.11,3.559,3.559,0,0,1,2.79,1.155A4.369,4.369,0,0,1,49.8,13.265ZM45.96,10.55q-1.665,0-1.935,1.845H47.91a2.252,2.252,0,0,0-.63-1.35A1.816,1.816,0,0,0,45.96,10.55Zm10.575-.285V6.32h1.89V17H56.6V15.92a2.778,2.778,0,0,1-2.445,1.26,3.132,3.132,0,0,1-2.535-1.11,4.381,4.381,0,0,1-.945-2.94,4.369,4.369,0,0,1,.945-2.955A3.124,3.124,0,0,1,54.15,9.08,2.727,2.727,0,0,1,56.535,10.265ZM52.6,13.19a2.729,2.729,0,0,0,.525,1.815,2.013,2.013,0,0,0,2.925-.03,2.856,2.856,0,0,0,.525-1.845,2.856,2.856,0,0,0-.525-1.845,1.789,1.789,0,0,0-1.47-.645,1.745,1.745,0,0,0-1.447.675A2.956,2.956,0,0,0,52.6,13.19Zm14.73-5.415h-.66q-.975,0-.975.93V9.26h1.59V10.7H65.7V17H63.825V10.7h-1.2V9.26h1.2V8.675a2.4,2.4,0,0,1,.63-1.763,2.571,2.571,0,0,1,1.9-.637,9.006,9.006,0,0,1,.975.045Zm8.16,5.355a4.036,4.036,0,0,1-1.08,2.94,4.214,4.214,0,0,1-5.7,0,3.973,3.973,0,0,1-1.1-2.94,3.973,3.973,0,0,1,1.1-2.94,4.235,4.235,0,0,1,5.7-.015A4.024,4.024,0,0,1,75.495,13.13ZM70.08,14.975a1.833,1.833,0,0,0,1.485.645,1.8,1.8,0,0,0,1.478-.653,2.833,2.833,0,0,0,.533-1.837,2.833,2.833,0,0,0-.533-1.838,2.007,2.007,0,0,0-2.955-.007,2.827,2.827,0,0,0-.532,1.845A2.856,2.856,0,0,0,70.08,14.975ZM80.82,9.14a3.3,3.3,0,0,1,.465.03v1.74h-.48a2.318,2.318,0,0,0-1.658.548,2.119,2.119,0,0,0-.577,1.612V17H76.68V9.26h1.83v1.38A2.318,2.318,0,0,1,80.82,9.14Zm10.32-.06a2.61,2.61,0,0,1,1.988.75,2.862,2.862,0,0,1,.713,2.055V17H91.95V12.185q0-1.47-1.335-1.47a1.455,1.455,0,0,0-1.163.517,2.26,2.26,0,0,0-.442,1.507V17H87.135V12.185q0-1.47-1.35-1.47a1.439,1.439,0,0,0-1.148.517,2.26,2.26,0,0,0-.442,1.507V17h-1.89V9.26h1.83v1.11A2.468,2.468,0,0,1,86.34,9.08a2.375,2.375,0,0,1,2.4,1.44A2.683,2.683,0,0,1,91.14,9.08Zm7.275,8.13q-3.39,0-3.54-2.67H96.72a1.391,1.391,0,0,0,.473,1.02,2.09,2.09,0,0,0,1.253.3q1.53,0,1.53-.93a.734.734,0,0,0-.33-.645,3.267,3.267,0,0,0-1.185-.375l-.885-.15q-2.535-.42-2.535-2.34A2.019,2.019,0,0,1,95.88,9.7a3.92,3.92,0,0,1,2.37-.622q3.315,0,3.42,2.625H99.885a1.2,1.2,0,0,0-.435-.983,2.042,2.042,0,0,0-1.2-.292q-1.35,0-1.35.9a.708.708,0,0,0,.3.608,2.471,2.471,0,0,0,.99.337l.975.15a4.3,4.3,0,0,1,2.048.81,1.94,1.94,0,0,1,.638,1.545,2.065,2.065,0,0,1-.9,1.8A4.377,4.377,0,0,1,98.415,17.21ZM110.13,9.26V10.7H108.6v4.185a.613.613,0,0,0,.2.525,1.177,1.177,0,0,0,.682.15h.645V17q-.615.06-.99.06a2.891,2.891,0,0,1-1.837-.472,1.837,1.837,0,0,1-.578-1.507V10.7h-1.2V9.26h1.2V7.01H108.6V9.26Zm8.49,3.87a4.036,4.036,0,0,1-1.08,2.94,4.214,4.214,0,0,1-5.7,0,3.973,3.973,0,0,1-1.1-2.94,3.973,3.973,0,0,1,1.1-2.94,4.235,4.235,0,0,1,5.7-.015A4.024,4.024,0,0,1,118.62,13.13ZM113.2,14.975a1.833,1.833,0,0,0,1.485.645,1.8,1.8,0,0,0,1.478-.653,2.833,2.833,0,0,0,.533-1.837,2.833,2.833,0,0,0-.533-1.838,2.007,2.007,0,0,0-2.955-.007,2.827,2.827,0,0,0-.532,1.845A2.856,2.856,0,0,0,113.2,14.975ZM2.64,27.255H.78v-1.77H2.64ZM2.655,36H.765V28.26h1.89ZM8.43,28.08a2.686,2.686,0,0,1,1.988.727,2.79,2.79,0,0,1,.727,2.063V36H9.255V31.185A1.293,1.293,0,0,0,7.8,29.715a1.64,1.64,0,0,0-1.222.517,1.97,1.97,0,0,0-.5,1.433V36H4.185V28.26h1.83v1.11A2.78,2.78,0,0,1,8.43,28.08Zm8.01.18V29.7H14.91v4.185a.613.613,0,0,0,.2.525,1.177,1.177,0,0,0,.682.15h.645V36q-.615.06-.99.06a2.891,2.891,0,0,1-1.838-.472,1.837,1.837,0,0,1-.578-1.507V29.7h-1.2V28.26h1.2V26.01H14.91v2.25Zm8.265,4v.45h-5.79a2.354,2.354,0,0,0,.622,1.493,1.907,1.907,0,0,0,1.387.5,1.763,1.763,0,0,0,1.77-1.11H24.51a3.233,3.233,0,0,1-1.26,1.882,3.873,3.873,0,0,1-2.34.7,3.691,3.691,0,0,1-2.79-1.11,4.069,4.069,0,0,1-1.065-2.94,4.1,4.1,0,0,1,1.05-2.94,3.672,3.672,0,0,1,2.775-1.11,3.559,3.559,0,0,1,2.79,1.155A4.369,4.369,0,0,1,24.7,32.265Zm-3.84-2.715q-1.665,0-1.935,1.845h3.885a2.252,2.252,0,0,0-.63-1.35A1.816,1.816,0,0,0,20.865,29.55Zm9.2-1.41a3.3,3.3,0,0,1,.465.03v1.74h-.48a2.318,2.318,0,0,0-1.657.548,2.119,2.119,0,0,0-.577,1.612V36H25.92V28.26h1.83v1.38A2.318,2.318,0,0,1,30.06,28.14Zm6.1,2.19.75-2.07H38.88L36,36H33.825L30.96,28.26h2.025l.75,2.085q.525,1.635,1.215,3.945Q35.5,32.43,36.165,30.33Zm5.325-3.075H39.63v-1.77h1.86ZM41.5,36h-1.89V28.26H41.5Zm8.835-3.735v.45H44.55a2.354,2.354,0,0,0,.623,1.493,1.907,1.907,0,0,0,1.388.5,1.763,1.763,0,0,0,1.77-1.11h1.815a3.233,3.233,0,0,1-1.26,1.882,3.873,3.873,0,0,1-2.34.7,3.691,3.691,0,0,1-2.79-1.11,4.069,4.069,0,0,1-1.065-2.94,4.1,4.1,0,0,1,1.05-2.94,3.672,3.672,0,0,1,2.775-1.11,3.559,3.559,0,0,1,2.79,1.155A4.369,4.369,0,0,1,50.34,32.265ZM46.5,29.55q-1.665,0-1.935,1.845H48.45a2.252,2.252,0,0,0-.63-1.35A1.816,1.816,0,0,0,46.5,29.55Zm13.365,1.6.87-2.895H62.76L60.21,36H58.23l-.975-3.18q-.555-1.95-.66-2.31-.045.165-.645,2.31L54.99,36H53.01l-2.55-7.74h2.025l.87,2.895q.33,1.035.765,2.685.42-1.665.735-2.7l.855-2.88h1.8l.855,2.88q.315,1.035.735,2.7Q59.49,32.355,59.865,31.155Zm9.99,5.055q-3.39,0-3.54-2.67H68.16a1.391,1.391,0,0,0,.473,1.02,2.09,2.09,0,0,0,1.252.3q1.53,0,1.53-.93a.734.734,0,0,0-.33-.645A3.267,3.267,0,0,0,69.9,32.91l-.885-.15q-2.535-.42-2.535-2.34a2.019,2.019,0,0,1,.84-1.718,3.92,3.92,0,0,1,2.37-.622q3.315,0,3.42,2.625H71.325a1.2,1.2,0,0,0-.435-.983,2.042,2.042,0,0,0-1.2-.292q-1.35,0-1.35.9a.708.708,0,0,0,.3.608,2.471,2.471,0,0,0,.99.337l.975.15a4.3,4.3,0,0,1,2.048.81,1.94,1.94,0,0,1,.638,1.545,2.065,2.065,0,0,1-.9,1.8A4.377,4.377,0,0,1,69.855,36.21Zm8.355-7.95V29.7H76.68v4.185a.613.613,0,0,0,.2.525,1.177,1.177,0,0,0,.682.15h.645V36q-.615.06-.99.06a2.891,2.891,0,0,1-1.837-.472,1.837,1.837,0,0,1-.578-1.507V29.7h-1.2V28.26h1.2V26.01H76.68v2.25ZM86.235,36h-1.89a2.808,2.808,0,0,1-.21-.945,2.815,2.815,0,0,1-2.49,1.125,3.129,3.129,0,0,1-2.033-.615,2.08,2.08,0,0,1-.757-1.71q0-2.115,2.97-2.415L83,31.335a1.73,1.73,0,0,0,.84-.277.729.729,0,0,0,.255-.608.836.836,0,0,0-.323-.728,1.918,1.918,0,0,0-1.088-.233,1.968,1.968,0,0,0-1.185.278,1.285,1.285,0,0,0-.42.953h-1.86q.165-2.64,3.48-2.64,3.225,0,3.225,2.325V34.53A2.63,2.63,0,0,0,86.235,36ZM82.1,34.83a2.1,2.1,0,0,0,1.44-.488,1.767,1.767,0,0,0,.555-1.4v-.7a1.629,1.629,0,0,1-.885.315l-1.02.12a2.13,2.13,0,0,0-1.073.353.92.92,0,0,0-.323.757.945.945,0,0,0,.338.773A1.487,1.487,0,0,0,82.1,34.83ZM94.755,36H92.6l-2.25-3.6-1.17,1.17V36h-1.86V25.32h1.86v6.15l3.15-3.21h2.25L91.65,31.185Zm7.53-3.735v.45h-5.79a2.354,2.354,0,0,0,.622,1.493,1.907,1.907,0,0,0,1.388.5,1.763,1.763,0,0,0,1.77-1.11h1.815a3.233,3.233,0,0,1-1.26,1.882,3.873,3.873,0,0,1-2.34.7,3.691,3.691,0,0,1-2.79-1.11,4.069,4.069,0,0,1-1.065-2.94,4.1,4.1,0,0,1,1.05-2.94,3.672,3.672,0,0,1,2.775-1.11,3.559,3.559,0,0,1,2.79,1.155A4.369,4.369,0,0,1,102.285,32.265Zm-3.84-2.715q-1.665,0-1.935,1.845h3.885a2.252,2.252,0,0,0-.63-1.35A1.816,1.816,0,0,0,98.445,29.55Zm9.3-1.47a2.686,2.686,0,0,1,1.987.727,2.79,2.79,0,0,1,.728,2.063V36h-1.89V31.185a1.293,1.293,0,0,0-1.455-1.47,1.64,1.64,0,0,0-1.222.517,1.97,1.97,0,0,0-.5,1.433V36H103.5V25.32h1.89V29.3A2.773,2.773,0,0,1,107.745,28.08Zm11.775,4.05a4.036,4.036,0,0,1-1.08,2.94,4.214,4.214,0,0,1-5.7,0,3.973,3.973,0,0,1-1.1-2.94,3.973,3.973,0,0,1,1.1-2.94,4.235,4.235,0,0,1,5.7-.015A4.024,4.024,0,0,1,119.52,32.13ZM114.1,33.975a1.833,1.833,0,0,0,1.485.645,1.8,1.8,0,0,0,1.478-.653,2.833,2.833,0,0,0,.533-1.837,2.833,2.833,0,0,0-.533-1.838,2.007,2.007,0,0,0-2.955-.007,2.827,2.827,0,0,0-.532,1.845A2.856,2.856,0,0,0,114.1,33.975ZM122.6,36h-1.89V25.32h1.89Zm7.05-6.735V25.32h1.89V36h-1.83V34.92a2.778,2.778,0,0,1-2.445,1.26,3.132,3.132,0,0,1-2.535-1.11,4.381,4.381,0,0,1-.945-2.94,4.369,4.369,0,0,1,.945-2.955,3.124,3.124,0,0,1,2.535-1.095A2.727,2.727,0,0,1,129.645,29.265Zm-3.93,2.925a2.729,2.729,0,0,0,.525,1.815,2.013,2.013,0,0,0,2.925-.03,2.856,2.856,0,0,0,.525-1.845,2.856,2.856,0,0,0-.525-1.845,1.789,1.789,0,0,0-1.47-.645,1.745,1.745,0,0,0-1.448.675A2.956,2.956,0,0,0,125.715,32.19Zm14.655.075v.45h-5.79a2.354,2.354,0,0,0,.622,1.493,1.907,1.907,0,0,0,1.387.5,1.763,1.763,0,0,0,1.77-1.11h1.815a3.233,3.233,0,0,1-1.26,1.882,3.873,3.873,0,0,1-2.34.7,3.691,3.691,0,0,1-2.79-1.11,4.069,4.069,0,0,1-1.065-2.94,4.1,4.1,0,0,1,1.05-2.94,3.672,3.672,0,0,1,2.775-1.11,3.559,3.559,0,0,1,2.79,1.155A4.369,4.369,0,0,1,140.37,32.265Zm-3.84-2.715q-1.665,0-1.935,1.845h3.885a2.252,2.252,0,0,0-.63-1.35A1.816,1.816,0,0,0,136.53,29.55Zm9.2-1.41a3.3,3.3,0,0,1,.465.03v1.74h-.48a2.318,2.318,0,0,0-1.658.548,2.119,2.119,0,0,0-.577,1.612V36h-1.89V28.26h1.83v1.38A2.318,2.318,0,0,1,145.725,28.14Zm4.365,8.07q-3.39,0-3.54-2.67H148.4a1.391,1.391,0,0,0,.472,1.02,2.09,2.09,0,0,0,1.253.3q1.53,0,1.53-.93a.734.734,0,0,0-.33-.645,3.266,3.266,0,0,0-1.185-.375l-.885-.15q-2.535-.42-2.535-2.34a2.019,2.019,0,0,1,.84-1.718,3.92,3.92,0,0,1,2.37-.622q3.315,0,3.42,2.625H151.56a1.2,1.2,0,0,0-.435-.983,2.042,2.042,0,0,0-1.2-.292q-1.35,0-1.35.9a.708.708,0,0,0,.3.608,2.471,2.471,0,0,0,.99.337l.975.15a4.3,4.3,0,0,1,2.048.81,1.94,1.94,0,0,1,.637,1.545,2.065,2.065,0,0,1-.9,1.8A4.377,4.377,0,0,1,150.09,36.21ZM3.975,57.94H2.85A12.216,12.216,0,0,1,.75,50.6a12.174,12.174,0,0,1,2.1-7.335H3.975a12.479,12.479,0,0,0-1.5,3.42,15.658,15.658,0,0,0-.45,3.915,15.368,15.368,0,0,0,.45,3.9A12.433,12.433,0,0,0,3.975,57.94Zm9.375-6.9a4.179,4.179,0,0,1-1.1,3.09A4.2,4.2,0,0,1,9.15,55.225a4.2,4.2,0,0,1-3.1-1.095,4.179,4.179,0,0,1-1.1-3.09V44.32H6.21v6.72q0,3.045,2.94,3.045t2.94-3.045V44.32h1.26Zm4.455,4.14q-3.105,0-3.285-2.64h1.215a1.758,1.758,0,0,0,.577,1.237,2.435,2.435,0,0,0,1.493.368q1.86,0,1.86-1.2a.911.911,0,0,0-.382-.795,3.869,3.869,0,0,0-1.388-.465l-.72-.135q-2.415-.45-2.415-2.28a1.922,1.922,0,0,1,.757-1.6,3.264,3.264,0,0,1,2.063-.592q3.075,0,3.15,2.565h-1.2a1.488,1.488,0,0,0-.51-1.185,2.425,2.425,0,0,0-1.44-.345,2.045,2.045,0,0,0-1.2.3.973.973,0,0,0-.42.84.876.876,0,0,0,.36.765,3.414,3.414,0,0,0,1.2.435l.69.135a4.64,4.64,0,0,1,2.048.81,1.818,1.818,0,0,1,.623,1.47,2,2,0,0,1-.818,1.7A3.714,3.714,0,0,1,17.805,55.18Zm5.505-9.09H22.035V44.62H23.31ZM23.28,55h-1.2V47.26h1.2Zm5.37-7.92a2.751,2.751,0,0,1,2.01.7,2.645,2.645,0,0,1,.72,1.98V55h-1.2V49.885a1.545,1.545,0,0,0-1.77-1.725,2.064,2.064,0,0,0-1.485.63,2.444,2.444,0,0,0-.645,1.83V55h-1.2V47.26h1.14v1.155A2.769,2.769,0,0,1,28.65,47.08Zm10.41,1.3V47.26H40.2V54.7a3.354,3.354,0,0,1-.93,2.505,3.649,3.649,0,0,1-2.67.915,3.726,3.726,0,0,1-2.31-.66,2.511,2.511,0,0,1-.99-1.83h1.2q.225,1.47,2.1,1.47A2.121,2.121,0,0,0,39,54.7v-.75a3.043,3.043,0,0,1-2.6,1.23,3.3,3.3,0,0,1-2.61-1.11,4.883,4.883,0,0,1,0-5.9A3.293,3.293,0,0,1,36.4,47.08,3.064,3.064,0,0,1,39.06,48.385Zm-2.5,5.715a2.259,2.259,0,0,0,1.815-.795,3.842,3.842,0,0,0,0-4.35,2.445,2.445,0,0,0-3.623.015,3.759,3.759,0,0,0,0,4.32A2.246,2.246,0,0,0,36.555,54.1Zm13.23-3.45V49.51H54.33V55H53.3l-.27-1.44a4,4,0,0,1-3.5,1.68,4.64,4.64,0,0,1-3.66-1.545,5.756,5.756,0,0,1-1.4-4.035,5.886,5.886,0,0,1,1.38-4.05,4.7,4.7,0,0,1,3.69-1.53,4.807,4.807,0,0,1,3.15,1.02,4.241,4.241,0,0,1,1.515,2.715H52.9a2.848,2.848,0,0,0-1.14-1.89,3.581,3.581,0,0,0-2.22-.69,3.4,3.4,0,0,0-2.73,1.2A4.815,4.815,0,0,0,45.8,49.66a4.815,4.815,0,0,0,1.02,3.225,3.4,3.4,0,0,0,2.73,1.2,3.684,3.684,0,0,0,2.58-.975,3.192,3.192,0,0,0,1.065-2.46ZM62.13,54.07a3.839,3.839,0,0,1-5.4,0,4.641,4.641,0,0,1,0-5.88,3.839,3.839,0,0,1,5.4,0,4.641,4.641,0,0,1,0,5.88Zm-4.515-.765a2.469,2.469,0,0,0,3.63,0,3.866,3.866,0,0,0,0-4.365,2.5,2.5,0,0,0-3.63,0,3.866,3.866,0,0,0,0,4.365Zm13.065.765a3.839,3.839,0,0,1-5.4,0,4.641,4.641,0,0,1,0-5.88,3.839,3.839,0,0,1,5.4,0,4.641,4.641,0,0,1,0,5.88Zm-4.515-.765a2.469,2.469,0,0,0,3.63,0,3.866,3.866,0,0,0,0-4.365,2.5,2.5,0,0,0-3.63,0,3.866,3.866,0,0,0,0,4.365Zm12.87-4.92V47.26h1.14V54.7a3.354,3.354,0,0,1-.93,2.505,3.649,3.649,0,0,1-2.67.915,3.726,3.726,0,0,1-2.31-.66,2.511,2.511,0,0,1-.99-1.83h1.2q.225,1.47,2.1,1.47a2.121,2.121,0,0,0,2.4-2.4v-.75a3.043,3.043,0,0,1-2.6,1.23,3.3,3.3,0,0,1-2.61-1.11,4.883,4.883,0,0,1,0-5.9,3.293,3.293,0,0,1,2.61-1.095A3.064,3.064,0,0,1,79.035,48.385ZM76.53,54.1a2.259,2.259,0,0,0,1.815-.795,3.842,3.842,0,0,0,0-4.35,2.445,2.445,0,0,0-3.622.015,3.759,3.759,0,0,0,0,4.32A2.246,2.246,0,0,0,76.53,54.1Zm6.645.9h-1.2V44.32h1.2Zm8.55-3.87v.42h-5.88a2.952,2.952,0,0,0,.705,1.9,2.225,2.225,0,0,0,1.68.638,1.939,1.939,0,0,0,2.055-1.44H91.53A3.435,3.435,0,0,1,90.36,54.5a3.681,3.681,0,0,1-4.755-.413,4.2,4.2,0,0,1-1-2.955,4.252,4.252,0,0,1,.99-2.94,3.266,3.266,0,0,1,2.58-1.11,3.188,3.188,0,0,1,2.61,1.155A4.422,4.422,0,0,1,91.725,51.13ZM88.17,48.175a2.106,2.106,0,0,0-1.545.593,2.85,2.85,0,0,0-.75,1.7h4.56a2.681,2.681,0,0,0-.69-1.658A2.063,2.063,0,0,0,88.17,48.175Zm14.97-3.855v1.14H97.335v3.4h5.205v1.14H97.335V55h-1.26V44.32Zm6.9,9.75a3.839,3.839,0,0,1-5.4,0,4.641,4.641,0,0,1,0-5.88,3.839,3.839,0,0,1,5.4,0,4.641,4.641,0,0,1,0,5.88Zm-4.515-.765a2.469,2.469,0,0,0,3.63,0,3.866,3.866,0,0,0,0-4.365,2.5,2.5,0,0,0-3.63,0,3.866,3.866,0,0,0,0,4.365Zm10.62-6.165a3.489,3.489,0,0,1,.4.015V48.31h-.3a2.718,2.718,0,0,0-1.868.592,2.138,2.138,0,0,0-.668,1.688V55h-1.2V47.26h1.14v1.365A2.618,2.618,0,0,1,116.145,47.14Zm9.675-.06a2.584,2.584,0,0,1,1.958.727,2.689,2.689,0,0,1,.7,1.943V55h-1.2V49.87q0-1.71-1.62-1.71a1.761,1.761,0,0,0-1.417.682,2.952,2.952,0,0,0-.562,1.928V55h-1.2V49.87q0-1.71-1.62-1.71a1.767,1.767,0,0,0-1.41.682,2.925,2.925,0,0,0-.57,1.928V55h-1.2V47.26h1.14V48.4a2.44,2.44,0,0,1,2.235-1.32,2.378,2.378,0,0,1,2.385,1.455A2.583,2.583,0,0,1,125.82,47.08Zm7.185,8.1q-3.105,0-3.285-2.64h1.215a1.758,1.758,0,0,0,.577,1.237,2.435,2.435,0,0,0,1.493.368q1.86,0,1.86-1.2a.911.911,0,0,0-.383-.795,3.868,3.868,0,0,0-1.387-.465l-.72-.135q-2.415-.45-2.415-2.28a1.922,1.922,0,0,1,.757-1.6,3.264,3.264,0,0,1,2.063-.592q3.075,0,3.15,2.565h-1.2a1.488,1.488,0,0,0-.51-1.185,2.425,2.425,0,0,0-1.44-.345,2.045,2.045,0,0,0-1.2.3.973.973,0,0,0-.42.84.876.876,0,0,0,.36.765,3.414,3.414,0,0,0,1.2.435l.69.135a4.64,4.64,0,0,1,2.048.81,1.818,1.818,0,0,1,.622,1.47,2,2,0,0,1-.818,1.7A3.714,3.714,0,0,1,133.005,55.18Zm4.65,2.76H136.53a12.433,12.433,0,0,0,1.5-3.435,15.367,15.367,0,0,0,.45-3.9,15.658,15.658,0,0,0-.45-3.915,12.479,12.479,0,0,0-1.5-3.42h1.125a12.174,12.174,0,0,1,2.1,7.335A12.216,12.216,0,0,1,137.655,57.94Z" transform="translate(1264 2155.426)" fill="#151515"/>
    <g id="Group_3360" data-name="Group 3360" transform="translate(1186.423 2151.918)" clip-path="url(#clip-path-2)">
      <path id="Path_1168" data-name="Path 1168" d="M50.75,47.906a4.807,4.807,0,0,1-.09-1.135c0-2.264,0-4.742,0-7.342-.007-9.943-.016-25.33.028-33.81,0-.008,0-.016,0-.024a3.3,3.3,0,0,0-.9-2.4,3.339,3.339,0,0,0-2.444-.914c-14.091.055-28.118.055-41.692,0a3.374,3.374,0,0,0-2.467.9,3.381,3.381,0,0,0-.921,2.461v.013c.029,10.27.025,20.713.021,30.811q0,5.027,0,10.053,0,2.273,0,4.547,0,4.862,0,9.725v0a2.76,2.76,0,0,0,1.435,2.725,4.119,4.119,0,0,0,1.8.395c4.449.021,8.972.02,13.347.02h9.011a1.572,1.572,0,0,1,1.147.4,1.049,1.049,0,0,1,.3.769c-.008.7-.541,1.129-1.391,1.129l-8.012,0c-4.839,0-9.843.007-14.765-.01a4.7,4.7,0,0,1-4.54-2.812,7.27,7.27,0,0,1-.579-2.945C0,53.4,0,46.215,0,39.263q0-3.04,0-6.081V15.849q0-1.547,0-3.1C0,10.366,0,7.9.012,5.475A5.516,5.516,0,0,1,1.523,1.481,5.526,5.526,0,0,1,5.52,0H17.555c9.834,0,20,0,30,0a5.375,5.375,0,0,1,3.9,1.488,5.337,5.337,0,0,1,1.493,3.883c0,8.612,0,24.127,0,34.184v7.665c0,.04,0,.08,0,.12s0,.084,0,.126a1.682,1.682,0,0,1-.017.261,1.06,1.06,0,0,1-.984.969,1.013,1.013,0,0,1-1.2-.8" transform="translate(0 -0.003)"/>
      <path id="Path_1169" data-name="Path 1169" d="M102.758,166.069a.493.493,0,0,1,.491.491V173a.493.493,0,0,1-.491.491H96.316a.492.492,0,0,1-.491-.491V166.56a.492.492,0,0,1,.491-.491Zm0-1.51H96.316a2,2,0,0,0-2,2V173a2,2,0,0,0,2,2h6.442a2,2,0,0,0,2-2V166.56a2,2,0,0,0-2-2" transform="translate(-87.843 -153.267)"/>
      <path id="Path_1170" data-name="Path 1170" d="M313.555,191.142H293.563a1.193,1.193,0,0,1,0-2.387h19.991a1.193,1.193,0,0,1,0,2.387" transform="translate(-272.308 -175.803)"/>
      <path id="Path_1171" data-name="Path 1171" d="M307.379,249.747H293.563a1.193,1.193,0,0,1,0-2.387h13.815a1.193,1.193,0,0,1,0,2.387" transform="translate(-272.308 -230.386)"/>
      <path id="Path_1172" data-name="Path 1172" d="M102.758,401.241a.493.493,0,0,1,.491.491v6.442a.493.493,0,0,1-.491.491H96.316a.492.492,0,0,1-.491-.491v-6.442a.493.493,0,0,1,.491-.491Zm0-1.51H96.316a2,2,0,0,0-2,2v6.442a2,2,0,0,0,2,2h6.442a2,2,0,0,0,2-2v-6.442a2,2,0,0,0-2-2" transform="translate(-87.843 -372.302)"/>
      <path id="Path_1173" data-name="Path 1173" d="M313.555,426.315H293.563a1.193,1.193,0,0,1,0-2.387h19.991a1.193,1.193,0,0,1,0,2.387" transform="translate(-272.308 -394.838)"/>
      <path id="Path_1174" data-name="Path 1174" d="M307.379,484.919H293.563a1.193,1.193,0,0,1,0-2.387h13.815a1.193,1.193,0,0,1,0,2.387" transform="translate(-272.308 -449.421)"/>
      <path id="Path_1175" data-name="Path 1175" d="M102.758,642.288a.493.493,0,0,1,.491.491v6.442a.493.493,0,0,1-.491.491H96.316a.492.492,0,0,1-.491-.491v-6.442a.492.492,0,0,1,.491-.491Zm0-1.51H96.316a2,2,0,0,0-2,2v6.442a2,2,0,0,0,2,2h6.442a2,2,0,0,0,2-2v-6.442a2,2,0,0,0-2-2" transform="translate(-87.843 -596.808)"/>
      <path id="Path_1176" data-name="Path 1176" d="M310.124,667.361h-16.56a1.193,1.193,0,0,1,0-2.387h16.56a1.193,1.193,0,0,1,0,2.387" transform="translate(-272.308 -619.344)"/>
      <path id="Path_1177" data-name="Path 1177" d="M303.948,725.965H293.563a1.193,1.193,0,0,1,0-2.387h10.384a1.193,1.193,0,1,1,0,2.387" transform="translate(-272.308 -673.927)"/>
      <path id="Path_1178" data-name="Path 1178" d="M479.524,737.017a12.2,12.2,0,1,1-12.2,12.2,12.2,12.2,0,0,1,12.2-12.2m0-2.127a14.289,14.289,0,1,0,5.578,1.127,14.241,14.241,0,0,0-5.578-1.127" transform="translate(-433.274 -684.462)"/>
      <path id="Path_1179" data-name="Path 1179" d="M623.924,861.241l-1.184,1.183a7.411,7.411,0,0,0-1.076,1.273,1.173,1.173,0,0,1-.791.584,1.158,1.158,0,0,1-.876-.2,1.071,1.071,0,0,1-.487-.719q-.114-.654.8-1.647.853-.855,1.705-1.72.915-.984.8-1.63a1.923,1.923,0,0,0-1.02-1.292,2.476,2.476,0,0,0-1.722-.387,2.525,2.525,0,0,0-1.122.713,2.578,2.578,0,0,1-1,.692,1.084,1.084,0,0,1-.875-.214,1.149,1.149,0,0,1-.468-.731q-.142-.818,1.17-1.745a4.974,4.974,0,0,1,1.91-.93,4.717,4.717,0,0,1,3.436.75,4.023,4.023,0,0,1,1.956,2.75,3.79,3.79,0,0,1-1.158,3.267m-2.9,6.559a1.385,1.385,0,0,1-.9-.146,1.007,1.007,0,0,1-.558-.737,1.8,1.8,0,0,1,.148-1.087,1.232,1.232,0,0,1,.954-.764,1.035,1.035,0,0,1,.939.266,1.376,1.376,0,0,1,.386.767,1.759,1.759,0,0,1-.108.979,1.086,1.086,0,0,1-.86.722" transform="translate(-574.286 -795.776)"/>
    </g>
    <g id="Group_3298" data-name="Group 3298" transform="translate(1175.207 1959.19)">
      <g id="Group_3297" data-name="Group 3297" clip-path="url(#clip-path-3)">
        <path id="Path_1038" data-name="Path 1038" d="M326.809,415.032a3.621,3.621,0,0,1-.338.473q-2.426,2.68-4.867,5.348c-.768.84-1.141.889-2.128.286q-3.9-2.385-7.8-4.777c-.153-.094-.3-.2-.461-.277a1.393,1.393,0,0,0-1.885.47,1.362,1.362,0,0,0,.446,1.885c1.054.68,2.14,1.313,3.215,1.96q3.194,1.922,6.391,3.838a2.048,2.048,0,0,0,2.907-.312c1.228-1.164,2.449-2.336,3.674-3.5a6.016,6.016,0,0,1,.512-.465,1.027,1.027,0,0,1,1.513.115,1.01,1.01,0,0,1-.038,1.516c-1.548,1.5-3.075,3.021-4.7,4.426a4.128,4.128,0,0,1-4.954.172q-4.287-2.565-8.559-5.153c-.373-.225-.754-.438-1.119-.675a3.613,3.613,0,0,1,3.73-6.188c2.338,1.382,4.636,2.829,6.953,4.246.3.185.611.361.973.574.24-.257.466-.494.687-.737,1.691-1.858,3.393-3.708,5.059-5.588a1.994,1.994,0,0,0,.46-1.065,7.843,7.843,0,0,1,2.029-4.71q2.233-2.44,4.459-4.887c.169-.186.327-.381.633-.738-1.422-.03-2.616-.624-3.937-.053-2.866,1.238-5.771,2.388-8.651,3.594a3.088,3.088,0,0,1-3.331-.322,2.986,2.986,0,0,1,.764-5.1c2.386-1.06,4.8-2.062,7.2-3.089a17.569,17.569,0,0,0,2.111-.916,8.317,8.317,0,0,1,5.494-.76c2.569.3,5.151.492,7.727.732a4.818,4.818,0,0,1,.686.074,1.045,1.045,0,0,1,.915,1.217,1.02,1.02,0,0,1-1.165.968c-.793-.036-1.584-.113-2.375-.187-2.5-.233-5-.505-7.5-.687a4.376,4.376,0,0,0-1.922.31c-3.335,1.38-6.644,2.821-9.962,4.241-.094.04-.188.081-.281.123-.45.2-.727.515-.508,1.028a.748.748,0,0,0,1.093.378c1.613-.653,3.221-1.32,4.831-1.982,1.373-.565,2.762-1.094,4.112-1.708a4.506,4.506,0,0,1,2.593-.39c3.195.447,6.4.835,9.6,1.259a1.132,1.132,0,1,1-.308,2.22c-1.322-.159-2.638-.365-3.962-.5a1.061,1.061,0,0,0-.784.266c-2.007,2.16-4.009,4.325-5.967,6.53a4.975,4.975,0,0,0,0,6.85c.989,1.1,2.126,2.075,3.219,3.083q8.142,7.51,16.3,15.007c.189.174.38.345.569.518a.971.971,0,0,0,1.443.027,1.017,1.017,0,0,0-.028-1.5c-1.314-1.369-2.644-2.721-3.97-4.079l-13.869-14.2a3.262,3.262,0,0,1-.412-.455,1.1,1.1,0,0,1,1.531-1.529,3.817,3.817,0,0,1,.563.521q8.818,9.022,17.638,18.042a3.272,3.272,0,0,1,1,3.215,3.23,3.23,0,0,1-5.4,1.6q-9.125-8.373-18.222-16.776c-1.228-1.139-2.316-2.429-3.614-3.8" transform="translate(-283.049 -363.845)"/>
        <path id="Path_1039" data-name="Path 1039" d="M26.813,292.362c-1.213-.148-2.3-.3-3.383-.4a1.835,1.835,0,0,0-.8.24q-4.127,1.775-8.247,3.567a3.294,3.294,0,0,1-2.747.184,2.845,2.845,0,0,1-1.84-2.693,2.768,2.768,0,0,1,1.657-2.727c1.855-.868,3.735-1.681,5.6-2.516,1.683-.752,3.351-1.539,5.059-2.231a4.244,4.244,0,0,1,1.849-.277c3.321.25,6.637.563,9.955.857a9.441,9.441,0,0,1,.991.119,1.009,1.009,0,0,1,.9,1.146,1,1,0,0,1-1.129,1c-1.585-.1-3.168-.239-4.751-.375-2.017-.174-4.031-.37-6.049-.532a2.081,2.081,0,0,0-.967.134c-3.423,1.5-6.835,3.028-10.25,4.547-.465.207-.827.506-.59,1.06.251.586.732.549,1.231.322.093-.042.19-.075.284-.116,2.374-1.024,4.8-1.954,7.106-3.105a7.969,7.969,0,0,1,4.972-.634c2.735.408,5.485.706,8.229,1.052a5.947,5.947,0,0,1,.681.116,1,1,0,0,1,.827,1.2.956.956,0,0,1-1.091.945,29.655,29.655,0,0,1-3.355-.393,2.111,2.111,0,0,0-2.355.854c-1.457,1.852-3.022,3.623-4.592,5.383a3.212,3.212,0,0,0,1.7,5.34c2.9.607,5.746,1.484,8.612,2.257,1.876.506,2.324,2.194.944,3.548q-1.181,1.158-2.4,2.273a1.1,1.1,0,0,1-1.692.059,1.169,1.169,0,0,1,.2-1.7c.676-.658,1.365-1.3,2.132-2.034-.391-.13-.669-.238-.955-.315-2.348-.627-4.684-1.308-7.052-1.853a5.78,5.78,0,0,1-4.395-3.753c-.287.39-.467.689-.7.941q-8.824,9.653-17.658,19.3c-.225.246-.449.493-.681.732a1.178,1.178,0,0,1-1.752.2,1.177,1.177,0,0,1,.119-1.71q4.1-4.487,8.21-8.964,5.976-6.524,11.944-13.055a7.814,7.814,0,0,0,.707-1.078,16.609,16.609,0,0,1,1.083-1.667c1.26-1.52,2.565-3,3.85-4.5.177-.207.339-.428.585-.742" transform="translate(0 -263.323)"/>
        <path id="Path_1040" data-name="Path 1040" d="M391.325,60.832c-2.155-.56-4.179-1.1-6.214-1.6a2.035,2.035,0,0,0-.971.094c-3.006.838-6,1.7-9.012,2.537a2.966,2.966,0,0,1-3.891-2.421,2.93,2.93,0,0,1,2.162-3.281c2.369-.736,4.753-1.424,7.132-2.129,1.275-.378,2.542-.79,3.833-1.106a4.177,4.177,0,0,1,1.784-.091c3.481.727,6.95,1.512,10.42,2.294.314.071.749.18.869.408a1.828,1.828,0,0,1,.195,1.257c-.188.6-.79.672-1.356.553-1.227-.257-2.449-.539-3.673-.81-2.2-.488-4.393-.992-6.6-1.452a2.727,2.727,0,0,0-1.266.03c-3.44,1-6.871,2.025-10.3,3.045-.147.044-.35.047-.428.147-.215.274-.534.595-.523.886.019.472.446.669.913.551.868-.218,1.729-.465,2.59-.709,2.339-.662,4.67-1.349,7.018-1.977a3.124,3.124,0,0,1,1.5-.021c3.326.826,6.641,1.7,9.959,2.558a3.952,3.952,0,0,1,.659.2,1.1,1.1,0,0,1-.587,2.1,4.367,4.367,0,0,1-1.117-.271c-.6-.256-.939-.032-1.26.469-.456.711-.96,1.392-1.465,2.071a1.114,1.114,0,0,1-1.658.362,1.134,1.134,0,0,1-.156-1.64c.443-.654.908-1.293,1.448-2.059" transform="translate(-342.359 -48.676)"/>
        <path id="Path_1041" data-name="Path 1041" d="M650.729,11.255a5.905,5.905,0,0,1-3.555-3.841,5.784,5.784,0,1,1,6.88,3.989,2,2,0,0,0-1.272.854q-5.2,7.142-10.434,14.266a3.982,3.982,0,0,1-.58.713,1.042,1.042,0,0,1-1.407.03,1.008,1.008,0,0,1-.309-1.307,4.194,4.194,0,0,1,.465-.7q4.853-6.638,9.708-13.273c.164-.224.316-.457.5-.729m5.537-5.4a3.55,3.55,0,0,0-3.5-3.624,3.558,3.558,0,0,0-.13,7.115,3.546,3.546,0,0,0,3.634-3.491" transform="translate(-590.223 0)"/>
        <path id="Path_1042" data-name="Path 1042" d="M705.7,325.552c-.481-.27-.917-.483-1.321-.746a5.759,5.759,0,1,1,4.662.8,1.929,1.929,0,0,0-.868.546q-5.239,5.831-10.451,11.686c-.569.636-1.24.749-1.742.328-.539-.452-.515-1.137.088-1.815q2.784-3.13,5.578-6.25c1.345-1.507,2.687-3.016,4.053-4.551m5.438-5.561a3.559,3.559,0,1,0-3.569,3.554,3.563,3.563,0,0,0,3.569-3.554" transform="translate(-641.559 -289.819)"/>
        <path id="Path_1043" data-name="Path 1043" d="M470.795,216.7a18.839,18.839,0,0,1-1.72-1.1,5.778,5.778,0,1,1,9.439-4.57,5.844,5.844,0,0,1-4.23,5.682,2.427,2.427,0,0,0-1.05.666c-1.493,1.623-2.947,3.281-4.419,4.923-.567.632-1.244.758-1.744.345-.552-.456-.531-1.126.079-1.817,1.052-1.192,2.114-2.375,3.17-3.563.166-.187.32-.384.474-.57m-1.619-5.591a3.573,3.573,0,0,0,3.543,3.6,3.63,3.63,0,0,0,3.575-3.588,3.557,3.557,0,0,0-3.527-3.526,3.507,3.507,0,0,0-3.59,3.518" transform="translate(-430.422 -189.391)"/>
        <path id="Path_1044" data-name="Path 1044" d="M69.173,585.026c-1.115-.02-1.622-.915-1.169-1.648a2.616,2.616,0,0,1,.463-.507q7.675-7.147,15.362-14.28a1.627,1.627,0,0,1,.974-.5,1.317,1.317,0,0,1,.981.534,1.8,1.8,0,0,1-.037,1.136c-.045.193-.29.345-.458.5q-7.595,7.064-15.2,14.118a6.745,6.745,0,0,1-.918.643" transform="translate(-62.568 -523.963)"/>
        <path id="Path_1045" data-name="Path 1045" d="M457.693,530.334a4.278,4.278,0,0,1-1.3,3.175c-1.505,1.43-3.037,2.832-4.571,4.231a1.115,1.115,0,1,1-1.468-1.655c1.348-1.261,2.71-2.506,4.066-3.759,1.241-1.146,1.35-2.015.434-3.43a1.14,1.14,0,0,1,.164-1.583,1.1,1.1,0,0,1,1.573.209,4.373,4.373,0,0,1,1.1,2.812" transform="translate(-414.923 -486.125)"/>
      </g>
    </g>
    <path id="Path_6242" data-name="Path 6242" d="M2.895,17H.87V6.32H2.895Zm6.78,0H7.785V6.32h1.89Zm3.4-8.745H11.22V6.485h1.86ZM13.095,17H11.2V9.26h1.89Zm4.575.21q-3.39,0-3.54-2.67h1.845a1.391,1.391,0,0,0,.473,1.02,2.09,2.09,0,0,0,1.253.3q1.53,0,1.53-.93a.734.734,0,0,0-.33-.645,3.267,3.267,0,0,0-1.185-.375l-.885-.15Q14.3,13.34,14.3,11.42a2.019,2.019,0,0,1,.84-1.718A3.92,3.92,0,0,1,17.5,9.08q3.315,0,3.42,2.625H19.14a1.2,1.2,0,0,0-.435-.983,2.042,2.042,0,0,0-1.2-.292q-1.35,0-1.35.9a.708.708,0,0,0,.3.608,2.471,2.471,0,0,0,.99.337l.975.15a4.3,4.3,0,0,1,2.047.81A1.94,1.94,0,0,1,21.1,14.78a2.065,2.065,0,0,1-.9,1.8A4.377,4.377,0,0,1,17.67,17.21Zm8.355-7.95V10.7H24.5v4.185a.613.613,0,0,0,.2.525,1.177,1.177,0,0,0,.683.15h.645V17q-.615.06-.99.06a2.891,2.891,0,0,1-1.837-.472,1.837,1.837,0,0,1-.577-1.507V10.7h-1.2V9.26h1.2V7.01H24.5V9.26Zm8.265,4.005v.45H28.5a2.354,2.354,0,0,0,.622,1.493,1.907,1.907,0,0,0,1.387.5,1.763,1.763,0,0,0,1.77-1.11h1.815a3.233,3.233,0,0,1-1.26,1.882,3.873,3.873,0,0,1-2.34.7,3.691,3.691,0,0,1-2.79-1.11,4.069,4.069,0,0,1-1.065-2.94,4.1,4.1,0,0,1,1.05-2.94,3.672,3.672,0,0,1,2.775-1.11,3.559,3.559,0,0,1,2.79,1.155A4.369,4.369,0,0,1,34.29,13.265ZM30.45,10.55q-1.665,0-1.935,1.845H32.4a2.252,2.252,0,0,0-.63-1.35A1.816,1.816,0,0,0,30.45,10.55Zm10.575-.285V6.32h1.89V17h-1.83V15.92a2.778,2.778,0,0,1-2.445,1.26,3.132,3.132,0,0,1-2.535-1.11,4.381,4.381,0,0,1-.945-2.94,4.369,4.369,0,0,1,.945-2.955A3.124,3.124,0,0,1,38.64,9.08,2.727,2.727,0,0,1,41.025,10.265ZM37.1,13.19a2.729,2.729,0,0,0,.525,1.815,2.013,2.013,0,0,0,2.925-.03,2.856,2.856,0,0,0,.525-1.845,2.856,2.856,0,0,0-.525-1.845,1.789,1.789,0,0,0-1.47-.645,1.745,1.745,0,0,0-1.447.675A2.956,2.956,0,0,0,37.1,13.19ZM51.72,9.26V10.7H50.19v4.185a.613.613,0,0,0,.2.525,1.177,1.177,0,0,0,.682.15h.645V17q-.615.06-.99.06a2.891,2.891,0,0,1-1.838-.472,1.837,1.837,0,0,1-.577-1.507V10.7h-1.2V9.26h1.2V7.01H50.19V9.26Zm5.355-.18a2.686,2.686,0,0,1,1.988.727,2.79,2.79,0,0,1,.727,2.062V17H57.9V12.185a1.293,1.293,0,0,0-1.455-1.47,1.64,1.64,0,0,0-1.222.517,1.97,1.97,0,0,0-.5,1.432V17H52.83V6.32h1.89V10.3A2.773,2.773,0,0,1,57.075,9.08Zm11.55,4.185v.45h-5.79a2.354,2.354,0,0,0,.623,1.493,1.907,1.907,0,0,0,1.388.5,1.763,1.763,0,0,0,1.77-1.11H68.43a3.233,3.233,0,0,1-1.26,1.882,3.873,3.873,0,0,1-2.34.7,3.691,3.691,0,0,1-2.79-1.11,4.069,4.069,0,0,1-1.065-2.94,4.1,4.1,0,0,1,1.05-2.94A3.672,3.672,0,0,1,64.8,9.08a3.559,3.559,0,0,1,2.79,1.155A4.369,4.369,0,0,1,68.625,13.265Zm-3.84-2.715q-1.665,0-1.935,1.845h3.885a2.252,2.252,0,0,0-.63-1.35A1.816,1.816,0,0,0,64.785,10.55Zm17.13-1.47a2.61,2.61,0,0,1,1.988.75,2.862,2.862,0,0,1,.713,2.055V17h-1.89V12.185q0-1.47-1.335-1.47a1.455,1.455,0,0,0-1.162.517,2.26,2.26,0,0,0-.442,1.507V17H77.91V12.185q0-1.47-1.35-1.47a1.439,1.439,0,0,0-1.147.517,2.26,2.26,0,0,0-.443,1.507V17H73.08V9.26h1.83v1.11a2.468,2.468,0,0,1,2.205-1.29,2.375,2.375,0,0,1,2.4,1.44A2.683,2.683,0,0,1,81.915,9.08ZM93.1,17h-1.89a2.808,2.808,0,0,1-.21-.945,2.815,2.815,0,0,1-2.49,1.125,3.129,3.129,0,0,1-2.033-.615,2.08,2.08,0,0,1-.757-1.71q0-2.115,2.97-2.415l1.17-.105a1.73,1.73,0,0,0,.84-.277.729.729,0,0,0,.255-.608.836.836,0,0,0-.323-.727,1.918,1.918,0,0,0-1.088-.233,1.968,1.968,0,0,0-1.185.278,1.285,1.285,0,0,0-.42.953h-1.86q.165-2.64,3.48-2.64,3.225,0,3.225,2.325V15.53A2.63,2.63,0,0,0,93.1,17Zm-4.14-1.17a2.1,2.1,0,0,0,1.44-.488,1.767,1.767,0,0,0,.555-1.4v-.7a1.629,1.629,0,0,1-.885.315l-1.02.12a2.13,2.13,0,0,0-1.073.352.92.92,0,0,0-.323.757.945.945,0,0,0,.338.773A1.487,1.487,0,0,0,88.965,15.83Zm7.1-7.575H94.2V6.485h1.86ZM96.075,17h-1.89V9.26h1.89Zm5.775-7.92a2.686,2.686,0,0,1,1.987.727,2.79,2.79,0,0,1,.728,2.062V17h-1.89V12.185a1.293,1.293,0,0,0-1.455-1.47,1.64,1.64,0,0,0-1.222.517,1.97,1.97,0,0,0-.5,1.432V17H97.6V9.26h1.83v1.11A2.78,2.78,0,0,1,101.85,9.08Zm-97.6,27.1A3.672,3.672,0,0,1,1.47,35.07,4.07,4.07,0,0,1,.42,32.13a4.091,4.091,0,0,1,1.05-2.955A3.638,3.638,0,0,1,4.245,28.08a3.729,3.729,0,0,1,2.475.8A3.209,3.209,0,0,1,7.845,31.05H5.955a1.7,1.7,0,0,0-.585-1.035,1.744,1.744,0,0,0-1.125-.36,1.669,1.669,0,0,0-1.387.638,2.914,2.914,0,0,0-.5,1.838,2.883,2.883,0,0,0,.51,1.837,1.674,1.674,0,0,0,1.38.638,1.788,1.788,0,0,0,1.163-.382,1.663,1.663,0,0,0,.577-1.1h1.89a3.242,3.242,0,0,1-1.14,2.228A3.736,3.736,0,0,1,4.245,36.18ZM16.47,32.13a4.036,4.036,0,0,1-1.08,2.94,3.8,3.8,0,0,1-2.85,1.11,3.8,3.8,0,0,1-2.85-1.11,3.973,3.973,0,0,1-1.1-2.94,3.973,3.973,0,0,1,1.1-2.94,3.8,3.8,0,0,1,2.85-1.11,3.824,3.824,0,0,1,2.85,1.095A4.024,4.024,0,0,1,16.47,32.13Zm-5.415,1.845a1.833,1.833,0,0,0,1.485.645,1.8,1.8,0,0,0,1.477-.653,2.833,2.833,0,0,0,.533-1.837,2.833,2.833,0,0,0-.533-1.838,1.8,1.8,0,0,0-1.477-.653,1.811,1.811,0,0,0-1.478.645,2.827,2.827,0,0,0-.532,1.845A2.856,2.856,0,0,0,11.055,33.975ZM26.49,28.08a2.61,2.61,0,0,1,1.988.75,2.862,2.862,0,0,1,.712,2.055V36H27.3V31.185q0-1.47-1.335-1.47a1.455,1.455,0,0,0-1.163.517,2.26,2.26,0,0,0-.442,1.507V36H22.485V31.185q0-1.47-1.35-1.47a1.439,1.439,0,0,0-1.147.517,2.26,2.26,0,0,0-.442,1.507V36h-1.89V28.26h1.83v1.11a2.468,2.468,0,0,1,2.2-1.29,2.375,2.375,0,0,1,2.4,1.44A2.683,2.683,0,0,1,26.49,28.08Zm8.52,0a3.179,3.179,0,0,1,2.535,1.095,4.451,4.451,0,0,1,.93,2.955,4.427,4.427,0,0,1-.93,2.94,3.16,3.16,0,0,1-2.535,1.11,2.741,2.741,0,0,1-2.4-1.185V38.94H30.72V28.26h1.815v1.11A2.765,2.765,0,0,1,35.01,28.08ZM33.1,33.975a1.747,1.747,0,0,0,1.455.645,1.782,1.782,0,0,0,1.47-.675,2.947,2.947,0,0,0,.525-1.875,2.762,2.762,0,0,0-.518-1.807,1.813,1.813,0,0,0-1.477-.623,1.789,1.789,0,0,0-1.47.645,2.856,2.856,0,0,0-.525,1.845A2.764,2.764,0,0,0,33.1,33.975Zm13.86-1.71v.45h-5.79a2.354,2.354,0,0,0,.623,1.493,1.907,1.907,0,0,0,1.388.5,1.763,1.763,0,0,0,1.77-1.11H46.77a3.233,3.233,0,0,1-1.26,1.882,3.873,3.873,0,0,1-2.34.7,3.691,3.691,0,0,1-2.79-1.11,4.069,4.069,0,0,1-1.065-2.94,4.1,4.1,0,0,1,1.05-2.94,3.672,3.672,0,0,1,2.775-1.11,3.559,3.559,0,0,1,2.79,1.155A4.369,4.369,0,0,1,46.965,32.265Zm-3.84-2.715q-1.665,0-1.935,1.845h3.885a2.252,2.252,0,0,0-.63-1.35A1.816,1.816,0,0,0,43.125,29.55Zm8.7-1.29V29.7H50.3v4.185a.613.613,0,0,0,.2.525,1.177,1.177,0,0,0,.682.15h.645V36q-.615.06-.99.06A2.891,2.891,0,0,1,49,35.588a1.837,1.837,0,0,1-.577-1.507V29.7h-1.2V28.26h1.2V26.01H50.3v2.25Zm2.985-1H52.95v-1.77h1.86ZM54.825,36h-1.89V28.26h1.89Zm5.565-7.74V29.7H58.86v4.185a.613.613,0,0,0,.2.525,1.177,1.177,0,0,0,.682.15h.645V36q-.615.06-.99.06a2.891,2.891,0,0,1-1.838-.472,1.837,1.837,0,0,1-.577-1.507V29.7h-1.2V28.26h1.2V26.01H58.86v2.25Zm8.49,3.87a4.036,4.036,0,0,1-1.08,2.94,4.214,4.214,0,0,1-5.7,0A3.973,3.973,0,0,1,61,32.13a3.973,3.973,0,0,1,1.1-2.94,4.235,4.235,0,0,1,5.7-.015A4.024,4.024,0,0,1,68.88,32.13Zm-5.415,1.845a1.833,1.833,0,0,0,1.485.645,1.8,1.8,0,0,0,1.478-.653,2.833,2.833,0,0,0,.533-1.837,2.833,2.833,0,0,0-.533-1.838,2.007,2.007,0,0,0-2.955-.007,2.827,2.827,0,0,0-.533,1.845A2.856,2.856,0,0,0,63.465,33.975Zm10.74-5.835a3.3,3.3,0,0,1,.465.03v1.74h-.48a2.318,2.318,0,0,0-1.658.548,2.119,2.119,0,0,0-.577,1.612V36h-1.89V28.26H71.9v1.38A2.318,2.318,0,0,1,74.205,28.14Zm4.365,8.07q-3.39,0-3.54-2.67h1.845a1.391,1.391,0,0,0,.473,1.02,2.09,2.09,0,0,0,1.253.3q1.53,0,1.53-.93a.734.734,0,0,0-.33-.645,3.267,3.267,0,0,0-1.185-.375l-.885-.15q-2.535-.42-2.535-2.34a2.019,2.019,0,0,1,.84-1.718,3.92,3.92,0,0,1,2.37-.622q3.315,0,3.42,2.625H80.04a1.2,1.2,0,0,0-.435-.983,2.042,2.042,0,0,0-1.2-.292q-1.35,0-1.35.9a.708.708,0,0,0,.3.608,2.471,2.471,0,0,0,.99.337l.975.15a4.3,4.3,0,0,1,2.048.81,1.94,1.94,0,0,1,.638,1.545,2.065,2.065,0,0,1-.9,1.8A4.377,4.377,0,0,1,78.57,36.21Zm9.555-8.955h-1.86v-1.77h1.86ZM88.14,36H86.25V28.26h1.89Zm5.775-7.92a2.686,2.686,0,0,1,1.987.727,2.79,2.79,0,0,1,.728,2.063V36H94.74V31.185a1.293,1.293,0,0,0-1.455-1.47,1.64,1.64,0,0,0-1.222.517,1.97,1.97,0,0,0-.5,1.433V36H89.67V28.26H91.5v1.11A2.78,2.78,0,0,1,93.915,28.08Zm11.52.18V29.7H103.9v4.185a.613.613,0,0,0,.2.525,1.177,1.177,0,0,0,.682.15h.645V36q-.615.06-.99.06a2.891,2.891,0,0,1-1.837-.472,1.837,1.837,0,0,1-.578-1.507V29.7h-1.2V28.26h1.2V26.01H103.9v2.25Zm5.355-.18a2.686,2.686,0,0,1,1.987.727,2.79,2.79,0,0,1,.728,2.063V36h-1.89V31.185a1.293,1.293,0,0,0-1.455-1.47,1.64,1.64,0,0,0-1.222.517,1.97,1.97,0,0,0-.5,1.433V36h-1.89V25.32h1.89V29.3A2.773,2.773,0,0,1,110.79,28.08Zm11.55,4.185v.45h-5.79a2.354,2.354,0,0,0,.622,1.493,1.907,1.907,0,0,0,1.388.5,1.763,1.763,0,0,0,1.77-1.11h1.815a3.233,3.233,0,0,1-1.26,1.882,3.873,3.873,0,0,1-2.34.7,3.691,3.691,0,0,1-2.79-1.11,4.069,4.069,0,0,1-1.065-2.94,4.1,4.1,0,0,1,1.05-2.94,3.672,3.672,0,0,1,2.775-1.11,3.559,3.559,0,0,1,2.79,1.155A4.369,4.369,0,0,1,122.34,32.265ZM118.5,29.55q-1.665,0-1.935,1.845h3.885a2.252,2.252,0,0,0-.63-1.35A1.816,1.816,0,0,0,118.5,29.55Zm17.13-1.47a2.61,2.61,0,0,1,1.987.75,2.862,2.862,0,0,1,.713,2.055V36h-1.89V31.185q0-1.47-1.335-1.47a1.455,1.455,0,0,0-1.162.517,2.26,2.26,0,0,0-.443,1.507V36h-1.875V31.185q0-1.47-1.35-1.47a1.439,1.439,0,0,0-1.147.517,2.26,2.26,0,0,0-.443,1.507V36h-1.89V28.26h1.83v1.11a2.468,2.468,0,0,1,2.205-1.29,2.375,2.375,0,0,1,2.4,1.44A2.683,2.683,0,0,1,135.63,28.08ZM146.82,36h-1.89a2.808,2.808,0,0,1-.21-.945,2.815,2.815,0,0,1-2.49,1.125,3.129,3.129,0,0,1-2.033-.615,2.08,2.08,0,0,1-.757-1.71q0-2.115,2.97-2.415l1.17-.105a1.73,1.73,0,0,0,.84-.277.729.729,0,0,0,.255-.608.836.836,0,0,0-.322-.728,1.918,1.918,0,0,0-1.088-.233,1.968,1.968,0,0,0-1.185.278,1.285,1.285,0,0,0-.42.953H139.8q.165-2.64,3.48-2.64,3.225,0,3.225,2.325V34.53A2.629,2.629,0,0,0,146.82,36Zm-4.14-1.17a2.1,2.1,0,0,0,1.44-.488,1.767,1.767,0,0,0,.555-1.4v-.7a1.629,1.629,0,0,1-.885.315l-1.02.12a2.13,2.13,0,0,0-1.073.353.92.92,0,0,0-.322.757.945.945,0,0,0,.337.773A1.487,1.487,0,0,0,142.68,34.83Zm9.4-6.69a3.3,3.3,0,0,1,.465.03v1.74h-.48a2.318,2.318,0,0,0-1.658.548,2.119,2.119,0,0,0-.577,1.612V36h-1.89V28.26h1.83v1.38A2.318,2.318,0,0,1,152.085,28.14ZM161.01,36h-2.16l-2.25-3.6-1.17,1.17V36h-1.86V25.32h1.86v6.15l3.15-3.21h2.25L157.9,31.185Zm7.53-3.735v.45h-5.79a2.354,2.354,0,0,0,.622,1.493,1.907,1.907,0,0,0,1.387.5,1.763,1.763,0,0,0,1.77-1.11h1.815a3.233,3.233,0,0,1-1.26,1.882,3.873,3.873,0,0,1-2.34.7,3.691,3.691,0,0,1-2.79-1.11,4.069,4.069,0,0,1-1.065-2.94,4.1,4.1,0,0,1,1.05-2.94,3.672,3.672,0,0,1,2.775-1.11,3.559,3.559,0,0,1,2.79,1.155A4.369,4.369,0,0,1,168.54,32.265ZM164.7,29.55q-1.665,0-1.935,1.845h3.885a2.252,2.252,0,0,0-.63-1.35A1.816,1.816,0,0,0,164.7,29.55Zm8.7-1.29V29.7h-1.53v4.185a.613.613,0,0,0,.2.525,1.177,1.177,0,0,0,.682.15h.645V36q-.615.06-.99.06a2.891,2.891,0,0,1-1.837-.472A1.837,1.837,0,0,1,170,34.08V29.7h-1.2V28.26H170V26.01h1.875v2.25ZM3.975,57.94H2.85A12.216,12.216,0,0,1,.75,50.6a12.174,12.174,0,0,1,2.1-7.335H3.975a12.479,12.479,0,0,0-1.5,3.42,15.658,15.658,0,0,0-.45,3.915,15.368,15.368,0,0,0,.45,3.9A12.433,12.433,0,0,0,3.975,57.94Zm4.44-10.68v1.05H6.825v5.025q0,.66.885.66h.7V55q-.495.045-.855.045-1.935,0-1.935-1.6V48.31H4.35V47.26H5.625V45.07h1.2v2.19Zm7.2,6.81a3.581,3.581,0,0,1-2.7,1.11,3.581,3.581,0,0,1-2.7-1.11,4.641,4.641,0,0,1,0-5.88,3.581,3.581,0,0,1,2.7-1.11,3.581,3.581,0,0,1,2.7,1.11,4.641,4.641,0,0,1,0,5.88ZM11.1,53.305a2.259,2.259,0,0,0,1.815.795,2.259,2.259,0,0,0,1.815-.795,3.866,3.866,0,0,0,0-4.365,2.278,2.278,0,0,0-1.815-.78,2.278,2.278,0,0,0-1.815.78,3.866,3.866,0,0,0,0,4.365Zm16.17.72H27.7V55a4.466,4.466,0,0,1-.66.045q-1.215,0-1.305-1.11a2.792,2.792,0,0,1-2.52,1.245,3.084,3.084,0,0,1-2-.592,2.035,2.035,0,0,1-.727-1.673q0-2.1,2.865-2.4l1.11-.12q1.215-.135,1.215-1.065a1.066,1.066,0,0,0-.4-.93,2.379,2.379,0,0,0-1.343-.285,2.419,2.419,0,0,0-1.448.337,1.56,1.56,0,0,0-.5,1.193h-1.2q.15-2.565,3.15-2.565,2.91,0,2.91,2.25v4.32Q26.85,54.025,27.27,54.025Zm-3.99.135a2.585,2.585,0,0,0,1.68-.585,1.963,1.963,0,0,0,.72-1.635v-.915a2.037,2.037,0,0,1-1.02.33l-1.125.135a2.825,2.825,0,0,0-1.387.45,1.14,1.14,0,0,0-.413.945,1.174,1.174,0,0,0,.39.938A1.721,1.721,0,0,0,23.28,54.16Zm9.045-7.08a2.751,2.751,0,0,1,2.01.7,2.645,2.645,0,0,1,.72,1.98V55h-1.2V49.885a1.545,1.545,0,0,0-1.77-1.725,2.064,2.064,0,0,0-1.485.63,2.444,2.444,0,0,0-.645,1.83V55h-1.2V47.26H29.9v1.155A2.769,2.769,0,0,1,32.325,47.08Zm10.86,6.945h.435V55a4.466,4.466,0,0,1-.66.045q-1.215,0-1.305-1.11a2.792,2.792,0,0,1-2.52,1.245,3.084,3.084,0,0,1-2-.592,2.035,2.035,0,0,1-.728-1.673q0-2.1,2.865-2.4l1.11-.12Q41.6,50.26,41.6,49.33a1.066,1.066,0,0,0-.4-.93,2.379,2.379,0,0,0-1.342-.285,2.419,2.419,0,0,0-1.448.337,1.56,1.56,0,0,0-.5,1.193h-1.2q.15-2.565,3.15-2.565,2.91,0,2.91,2.25v4.32Q42.765,54.025,43.185,54.025Zm-3.99.135a2.585,2.585,0,0,0,1.68-.585,1.963,1.963,0,0,0,.72-1.635v-.915a2.037,2.037,0,0,1-1.02.33l-1.125.135a2.825,2.825,0,0,0-1.388.45,1.14,1.14,0,0,0-.412.945,1.174,1.174,0,0,0,.39.938A1.721,1.721,0,0,0,39.2,54.16Zm6.6.84H44.6V44.32h1.2Zm5.46-4.53,1.1-3.21h1.305l-3.27,8.955a2.626,2.626,0,0,1-.945,1.373,2.807,2.807,0,0,1-1.575.4,6.313,6.313,0,0,1-.72-.045v-1h.705a1.394,1.394,0,0,0,1.41-.96l.27-.72L46.62,47.26h1.32l1.1,3.225q.585,1.71,1.11,3.345Q50.58,52.435,51.255,50.47Zm6,3.48h3.1V55H54.105v-.9l3.54-4.56q.255-.315.6-.75l.4-.51q-.75.03-1.65.03H54.255V47.26h5.9v.9l-3.54,4.56q-.255.315-.6.75l-.4.51Q56.355,53.95,57.255,53.95Zm10.68-2.82v.42h-5.88a2.952,2.952,0,0,0,.7,1.9,2.225,2.225,0,0,0,1.68.638,1.939,1.939,0,0,0,2.055-1.44H67.74A3.435,3.435,0,0,1,66.57,54.5a3.681,3.681,0,0,1-4.755-.413,4.2,4.2,0,0,1-1-2.955,4.252,4.252,0,0,1,.99-2.94,3.266,3.266,0,0,1,2.58-1.11,3.188,3.188,0,0,1,2.61,1.155A4.422,4.422,0,0,1,67.935,51.13ZM64.38,48.175a2.106,2.106,0,0,0-1.545.593,2.85,2.85,0,0,0-.75,1.7h4.56a2.681,2.681,0,0,0-.69-1.658A2.063,2.063,0,0,0,64.38,48.175ZM75.6,47.26v1.05H74.01v5.025q0,.66.885.66H75.6V55q-.5.045-.855.045-1.935,0-1.935-1.6V48.31H71.535V47.26H72.81V45.07h1.2v2.19Zm4.845-.18a2.751,2.751,0,0,1,2.01.7,2.645,2.645,0,0,1,.72,1.98V55h-1.2V49.885a1.545,1.545,0,0,0-1.77-1.725,2.064,2.064,0,0,0-1.485.63,2.444,2.444,0,0,0-.645,1.83V55h-1.2V44.32h1.2v4.005A2.767,2.767,0,0,1,80.445,47.08Zm11.28,4.05v.42h-5.88a2.952,2.952,0,0,0,.705,1.9,2.225,2.225,0,0,0,1.68.638,1.939,1.939,0,0,0,2.055-1.44H91.53A3.435,3.435,0,0,1,90.36,54.5a3.681,3.681,0,0,1-4.755-.413,4.2,4.2,0,0,1-1-2.955,4.252,4.252,0,0,1,.99-2.94,3.266,3.266,0,0,1,2.58-1.11,3.188,3.188,0,0,1,2.61,1.155A4.422,4.422,0,0,1,91.725,51.13ZM88.17,48.175a2.106,2.106,0,0,0-1.545.593,2.85,2.85,0,0,0-.75,1.7h4.56a2.681,2.681,0,0,0-.69-1.658A2.063,2.063,0,0,0,88.17,48.175Zm13.125-1.095a2.584,2.584,0,0,1,1.958.727,2.689,2.689,0,0,1,.7,1.943V55h-1.2V49.87q0-1.71-1.62-1.71a1.761,1.761,0,0,0-1.417.682,2.952,2.952,0,0,0-.562,1.928V55h-1.2V49.87q0-1.71-1.62-1.71a1.767,1.767,0,0,0-1.41.682,2.925,2.925,0,0,0-.57,1.928V55h-1.2V47.26h1.14V48.4a2.44,2.44,0,0,1,2.235-1.32,2.378,2.378,0,0,1,2.385,1.455A2.583,2.583,0,0,1,101.295,47.08Zm4.83,10.86H105a12.433,12.433,0,0,0,1.5-3.435,15.368,15.368,0,0,0,.45-3.9,15.658,15.658,0,0,0-.45-3.915,12.479,12.479,0,0,0-1.5-3.42h1.125a12.174,12.174,0,0,1,2.1,7.335A12.216,12.216,0,0,1,106.125,57.94Z" transform="translate(1264 1962.5)" fill="#151515"/>
    <g id="Group_3358" data-name="Group 3358" transform="translate(839 2153.918)">
      <g id="Group_3299" data-name="Group 3299" clip-path="url(#clip-path-4)">
        <path id="Path_1046" data-name="Path 1046" d="M63.884,19.424c0-2.519.063-4.984-.022-7.444a2.952,2.952,0,0,0-3.141-2.75c-2.856-.017-5.713-.005-8.569-.006h-.939V6.338c.209-.014.421-.041.633-.042,2.978,0,5.957-.013,8.935,0a5.893,5.893,0,0,1,6.04,6.012q.024,24.389,0,48.778a5.907,5.907,0,0,1-6.232,6.05c-3.564.024-7.129.006-10.693.006q-21.716,0-43.432.006c-2.695,0-4.77-1.034-5.9-3.518a7.334,7.334,0,0,1-.543-2.907C-.017,54.108,0,47.492.005,40.876q0-14.209,0-28.417A5.908,5.908,0,0,1,5.033,6.371,7.187,7.187,0,0,1,6.272,6.3q5.823-.008,11.645,0h.988c0-.924,0-1.793,0-2.662,0-.635-.009-1.27,0-1.9a1.465,1.465,0,1,1,2.922-.013c.015,1.66.006,3.32.006,4.98,0,2.27,0,4.541,0,6.811,0,1.08-.556,1.713-1.471,1.711S18.916,14.6,18.908,13.5c-.009-1.221-.022-2.442.005-3.662.011-.488-.169-.624-.638-.622-4.077.014-8.154-.009-12.231.017a3.011,3.011,0,0,0-3.1,3.109c-.017,2.341,0,4.682,0,7.082ZM2.938,22.472v.888q0,18.673,0,37.347c0,2.3,1.164,3.473,3.459,3.473q27.021,0,54.043,0C62.731,64.18,63.9,63,63.9,60.7q0-18.71,0-37.42c0-.259-.022-.517-.035-.811Z" transform="translate(0 -0.134)"/>
        <path id="Path_1047" data-name="Path 1047" d="M313.475,9.117H292.7V6.166h20.771c0-1.566-.007-3.047,0-4.529A1.515,1.515,0,0,1,314.607.042,1.447,1.447,0,0,1,316.4,1.464c.032,1.366.013,2.734.014,4.1,0,2.587,0,5.175,0,7.762,0,1.149-.543,1.773-1.489,1.757-.9-.015-1.437-.658-1.441-1.744-.005-1.385,0-2.77,0-4.223" transform="translate(-268.031 0)"/>
        <path id="Path_1048" data-name="Path 1048" d="M469.847,461.656a5.645,5.645,0,1,1,5.637-5.619,5.608,5.608,0,0,1-5.637,5.619m.037-2.947a2.692,2.692,0,1,0-2.743-2.65,2.717,2.717,0,0,0,2.743,2.65" transform="translate(-425.08 -412.402)"/>
        <path id="Path_1049" data-name="Path 1049" d="M378.205,637a2.009,2.009,0,0,1,2.02,1.984,2,2,0,1,1-2.02-1.984" transform="translate(-344.514 -583.305)"/>
        <path id="Path_1050" data-name="Path 1050" d="M121.316,639.049a2,2,0,1,1-3.995-.1,2,2,0,0,1,3.995.1" transform="translate(-107.43 -583.331)"/>
        <path id="Path_1051" data-name="Path 1051" d="M378.217,494.789a1.99,1.99,0,0,1,2,1.99,2,2,0,0,1-4,.008,1.993,1.993,0,0,1,1.995-2" transform="translate(-344.508 -453.079)"/>
        <path id="Path_1052" data-name="Path 1052" d="M637.193,494.813a1.984,1.984,0,0,1,1.962,2.027,2,2,0,0,1-3.993-.068,1.986,1.986,0,0,1,2.031-1.958" transform="translate(-581.619 -453.102)"/>
        <path id="Path_1053" data-name="Path 1053" d="M119.338,498.778a2.025,2.025,0,0,1-2.005-2,2,2,0,0,1,3.994-.018,2.029,2.029,0,0,1-1.988,2.021" transform="translate(-107.442 -453.098)"/>
        <path id="Path_1054" data-name="Path 1054" d="M378.248,356.439a2.023,2.023,0,0,1-2.026-1.979,2,2,0,0,1,3.995-.054,2.015,2.015,0,0,1-1.969,2.033" transform="translate(-344.508 -322.766)"/>
        <path id="Path_1055" data-name="Path 1055" d="M637.127,352.5a1.977,1.977,0,0,1,2.019,1.969,2,2,0,0,1-4,.039,1.979,1.979,0,0,1,1.978-2.008" transform="translate(-581.607 -322.783)"/>
        <path id="Path_1056" data-name="Path 1056" d="M248.986,494.783a1.943,1.943,0,0,1,1.985,1.985,1.976,1.976,0,1,1-3.952.018,1.944,1.944,0,0,1,1.966-2" transform="translate(-226.196 -453.074)"/>
        <path id="Path_1057" data-name="Path 1057" d="M249.095,352.5a1.931,1.931,0,0,1,1.875,2.083,1.976,1.976,0,0,1-3.948-.195,1.937,1.937,0,0,1,2.073-1.888" transform="translate(-226.198 -322.785)"/>
        <path id="Path_1058" data-name="Path 1058" d="M509.905,354.442a1.976,1.976,0,1,1-3.952,0,1.976,1.976,0,0,1,3.952,0" transform="translate(-463.303 -322.774)"/>
        <path id="Path_1059" data-name="Path 1059" d="M250.977,639.032a1.976,1.976,0,1,1-3.95-.1,1.976,1.976,0,0,1,3.95.1" transform="translate(-226.203 -583.314)"/>
      </g>
    </g>
    <path id="Path_6244" data-name="Path 6244" d="M2.895,17H.87V6.32H2.895Zm7.935.21q-3.39,0-3.54-2.67H9.135a1.391,1.391,0,0,0,.472,1.02,2.09,2.09,0,0,0,1.253.3q1.53,0,1.53-.93a.734.734,0,0,0-.33-.645,3.267,3.267,0,0,0-1.185-.375l-.885-.15q-2.535-.42-2.535-2.34A2.019,2.019,0,0,1,8.3,9.7a3.92,3.92,0,0,1,2.37-.622q3.315,0,3.42,2.625H12.3a1.2,1.2,0,0,0-.435-.983,2.042,2.042,0,0,0-1.2-.292q-1.35,0-1.35.9a.708.708,0,0,0,.3.608,2.471,2.471,0,0,0,.99.337l.975.15a4.3,4.3,0,0,1,2.048.81,1.94,1.94,0,0,1,.637,1.545,2.065,2.065,0,0,1-.9,1.8A4.377,4.377,0,0,1,10.83,17.21Zm7.92-.03a3.672,3.672,0,0,1-2.775-1.11,4.07,4.07,0,0,1-1.05-2.94,4.091,4.091,0,0,1,1.05-2.955A3.638,3.638,0,0,1,18.75,9.08a3.729,3.729,0,0,1,2.475.8A3.209,3.209,0,0,1,22.35,12.05H20.46a1.7,1.7,0,0,0-.585-1.035,1.744,1.744,0,0,0-1.125-.36,1.669,1.669,0,0,0-1.388.637,2.914,2.914,0,0,0-.5,1.838,2.883,2.883,0,0,0,.51,1.837,1.674,1.674,0,0,0,1.38.637,1.788,1.788,0,0,0,1.163-.382,1.663,1.663,0,0,0,.577-1.1h1.89a3.242,3.242,0,0,1-1.14,2.227A3.736,3.736,0,0,1,18.75,17.18Zm8.91-8.1a2.686,2.686,0,0,1,1.987.727,2.79,2.79,0,0,1,.728,2.062V17h-1.89V12.185a1.293,1.293,0,0,0-1.455-1.47,1.64,1.64,0,0,0-1.222.517,1.97,1.97,0,0,0-.5,1.432V17h-1.89V6.32h1.89V10.3A2.773,2.773,0,0,1,27.66,9.08Zm11.55,4.185v.45H33.42a2.354,2.354,0,0,0,.623,1.493,1.907,1.907,0,0,0,1.388.5A1.763,1.763,0,0,0,37.2,14.6h1.815a3.233,3.233,0,0,1-1.26,1.882,3.873,3.873,0,0,1-2.34.7,3.691,3.691,0,0,1-2.79-1.11,4.069,4.069,0,0,1-1.065-2.94,4.1,4.1,0,0,1,1.05-2.94,3.672,3.672,0,0,1,2.775-1.11,3.559,3.559,0,0,1,2.79,1.155A4.369,4.369,0,0,1,39.21,13.265ZM35.37,10.55q-1.665,0-1.935,1.845H37.32a2.252,2.252,0,0,0-.63-1.35A1.816,1.816,0,0,0,35.37,10.55Zm10.575-.285V6.32h1.89V17h-1.83V15.92a2.778,2.778,0,0,1-2.445,1.26,3.132,3.132,0,0,1-2.535-1.11,4.381,4.381,0,0,1-.945-2.94,4.369,4.369,0,0,1,.945-2.955A3.124,3.124,0,0,1,43.56,9.08,2.727,2.727,0,0,1,45.945,10.265Zm-3.93,2.925a2.729,2.729,0,0,0,.525,1.815,2.013,2.013,0,0,0,2.925-.03,2.856,2.856,0,0,0,.525-1.845,2.856,2.856,0,0,0-.525-1.845,1.789,1.789,0,0,0-1.47-.645,1.745,1.745,0,0,0-1.447.675A2.956,2.956,0,0,0,42.015,13.19Zm12.42.405V9.26h1.89V17h-1.83V15.875a2.785,2.785,0,0,1-2.43,1.305,2.665,2.665,0,0,1-1.972-.728,2.79,2.79,0,0,1-.728-2.062V9.26h1.89v4.815a1.293,1.293,0,0,0,1.455,1.47,1.64,1.64,0,0,0,1.222-.517A1.97,1.97,0,0,0,54.435,13.6Zm5.31,3.4h-1.89V6.32h1.89Zm8.835-3.735v.45H62.79a2.354,2.354,0,0,0,.623,1.493,1.907,1.907,0,0,0,1.387.5,1.763,1.763,0,0,0,1.77-1.11h1.815a3.233,3.233,0,0,1-1.26,1.882,3.873,3.873,0,0,1-2.34.7,3.691,3.691,0,0,1-2.79-1.11,4.069,4.069,0,0,1-1.065-2.94,4.1,4.1,0,0,1,1.05-2.94,3.672,3.672,0,0,1,2.775-1.11,3.559,3.559,0,0,1,2.79,1.155A4.369,4.369,0,0,1,68.58,13.265ZM64.74,10.55q-1.665,0-1.935,1.845H66.69a2.252,2.252,0,0,0-.63-1.35A1.816,1.816,0,0,0,64.74,10.55Zm10.575-.285V6.32h1.89V17h-1.83V15.92a2.778,2.778,0,0,1-2.445,1.26,3.132,3.132,0,0,1-2.535-1.11,4.381,4.381,0,0,1-.945-2.94,4.369,4.369,0,0,1,.945-2.955A3.124,3.124,0,0,1,72.93,9.08,2.727,2.727,0,0,1,75.315,10.265Zm-3.93,2.925a2.729,2.729,0,0,0,.525,1.815,2.013,2.013,0,0,0,2.925-.03,2.856,2.856,0,0,0,.525-1.845,2.856,2.856,0,0,0-.525-1.845,1.789,1.789,0,0,0-1.47-.645,1.745,1.745,0,0,0-1.448.675A2.956,2.956,0,0,0,71.385,13.19Zm16.11-2.925V6.32h1.89V17h-1.83V15.92a2.778,2.778,0,0,1-2.445,1.26,3.132,3.132,0,0,1-2.535-1.11,4.381,4.381,0,0,1-.945-2.94,4.369,4.369,0,0,1,.945-2.955A3.124,3.124,0,0,1,85.11,9.08,2.727,2.727,0,0,1,87.495,10.265Zm-3.93,2.925a2.729,2.729,0,0,0,.525,1.815,2.013,2.013,0,0,0,2.925-.03,2.856,2.856,0,0,0,.525-1.845,2.856,2.856,0,0,0-.525-1.845,1.789,1.789,0,0,0-1.47-.645,1.745,1.745,0,0,0-1.448.675A2.956,2.956,0,0,0,83.565,13.19ZM97.875,17h-1.89a2.808,2.808,0,0,1-.21-.945,2.815,2.815,0,0,1-2.49,1.125,3.129,3.129,0,0,1-2.033-.615,2.08,2.08,0,0,1-.757-1.71q0-2.115,2.97-2.415l1.17-.105a1.73,1.73,0,0,0,.84-.277.729.729,0,0,0,.255-.608.836.836,0,0,0-.323-.727,1.918,1.918,0,0,0-1.088-.233,1.968,1.968,0,0,0-1.185.278,1.285,1.285,0,0,0-.42.953h-1.86q.165-2.64,3.48-2.64,3.225,0,3.225,2.325V15.53A2.63,2.63,0,0,0,97.875,17Zm-4.14-1.17a2.1,2.1,0,0,0,1.44-.488,1.767,1.767,0,0,0,.555-1.4v-.7a1.629,1.629,0,0,1-.885.315l-1.02.12a2.13,2.13,0,0,0-1.073.352.92.92,0,0,0-.323.757.945.945,0,0,0,.338.773A1.487,1.487,0,0,0,93.735,15.83Zm9.06-6.57V10.7h-1.53v4.185a.613.613,0,0,0,.2.525,1.177,1.177,0,0,0,.682.15h.645V17q-.615.06-.99.06a2.891,2.891,0,0,1-1.837-.472,1.837,1.837,0,0,1-.578-1.507V10.7h-1.2V9.26h1.2V7.01h1.875V9.26Zm8.265,4.005v.45h-5.79a2.354,2.354,0,0,0,.622,1.493,1.907,1.907,0,0,0,1.388.5,1.763,1.763,0,0,0,1.77-1.11h1.815a3.233,3.233,0,0,1-1.26,1.882,3.873,3.873,0,0,1-2.34.7,3.691,3.691,0,0,1-2.79-1.11,4.069,4.069,0,0,1-1.065-2.94,4.1,4.1,0,0,1,1.05-2.94,3.672,3.672,0,0,1,2.775-1.11,3.559,3.559,0,0,1,2.79,1.155A4.369,4.369,0,0,1,111.06,13.265Zm-3.84-2.715q-1.665,0-1.935,1.845h3.885a2.252,2.252,0,0,0-.63-1.35A1.816,1.816,0,0,0,107.22,10.55Zm8.085,6.66q-3.39,0-3.54-2.67h1.845a1.391,1.391,0,0,0,.473,1.02,2.09,2.09,0,0,0,1.253.3q1.53,0,1.53-.93a.734.734,0,0,0-.33-.645,3.267,3.267,0,0,0-1.185-.375l-.885-.15q-2.535-.42-2.535-2.34a2.019,2.019,0,0,1,.84-1.718,3.92,3.92,0,0,1,2.37-.622q3.315,0,3.42,2.625h-1.785a1.2,1.2,0,0,0-.435-.983,2.042,2.042,0,0,0-1.2-.292q-1.35,0-1.35.9a.708.708,0,0,0,.3.608,2.471,2.471,0,0,0,.99.337l.975.15a4.3,4.3,0,0,1,2.048.81,1.94,1.94,0,0,1,.638,1.545,2.065,2.065,0,0,1-.9,1.8A4.377,4.377,0,0,1,115.305,17.21Zm16.365-5.055.87-2.895h2.025L132.015,17h-1.98l-.975-3.18q-.555-1.95-.66-2.31-.045.165-.645,2.31l-.96,3.18h-1.98l-2.55-7.74h2.025l.87,2.895q.33,1.035.765,2.685.42-1.665.735-2.7l.855-2.88h1.8l.855,2.88q.315,1.035.735,2.7Q131.295,13.355,131.67,12.155Zm5.505-3.9h-1.86V6.485h1.86ZM137.19,17H135.3V9.26h1.89Zm5.565-7.74V10.7h-1.53v4.185a.613.613,0,0,0,.2.525,1.177,1.177,0,0,0,.682.15h.645V17q-.615.06-.99.06a2.891,2.891,0,0,1-1.837-.472,1.837,1.837,0,0,1-.577-1.507V10.7h-1.2V9.26h1.2V7.01h1.875V9.26Zm5.355-.18a2.686,2.686,0,0,1,1.988.727,2.79,2.79,0,0,1,.728,2.062V17h-1.89V12.185a1.293,1.293,0,0,0-1.455-1.47,1.64,1.64,0,0,0-1.223.517,1.97,1.97,0,0,0-.5,1.432V17h-1.89V6.32h1.89V10.3A2.773,2.773,0,0,1,148.11,9.08ZM4.8,28.26V29.7H3.27v4.185a.613.613,0,0,0,.2.525,1.177,1.177,0,0,0,.683.15H4.8V36q-.615.06-.99.06a2.891,2.891,0,0,1-1.838-.472,1.837,1.837,0,0,1-.578-1.507V29.7H.2V28.26h1.2V26.01H3.27v2.25Zm5.355-.18a2.686,2.686,0,0,1,1.988.727,2.79,2.79,0,0,1,.727,2.063V36H10.98V31.185a1.293,1.293,0,0,0-1.455-1.47,1.64,1.64,0,0,0-1.222.517,1.97,1.97,0,0,0-.5,1.433V36H5.91V25.32H7.8V29.3A2.773,2.773,0,0,1,10.155,28.08ZM21.7,32.265v.45h-5.79a2.354,2.354,0,0,0,.623,1.493,1.907,1.907,0,0,0,1.387.5,1.763,1.763,0,0,0,1.77-1.11H21.51a3.233,3.233,0,0,1-1.26,1.882,3.873,3.873,0,0,1-2.34.7,3.691,3.691,0,0,1-2.79-1.11,4.069,4.069,0,0,1-1.065-2.94,4.1,4.1,0,0,1,1.05-2.94,3.672,3.672,0,0,1,2.775-1.11,3.559,3.559,0,0,1,2.79,1.155A4.369,4.369,0,0,1,21.7,32.265Zm-3.84-2.715q-1.665,0-1.935,1.845h3.885a2.252,2.252,0,0,0-.63-1.35A1.816,1.816,0,0,0,17.865,29.55ZM31.23,32.6V28.26h1.89V36H31.29V34.875a2.785,2.785,0,0,1-2.43,1.305,2.665,2.665,0,0,1-1.972-.728,2.79,2.79,0,0,1-.728-2.062V28.26h1.89v4.815a1.293,1.293,0,0,0,1.455,1.47,1.64,1.64,0,0,0,1.222-.517A1.97,1.97,0,0,0,31.23,32.6Zm6.465,3.615q-3.39,0-3.54-2.67H36a1.391,1.391,0,0,0,.472,1.02,2.09,2.09,0,0,0,1.252.3q1.53,0,1.53-.93a.734.734,0,0,0-.33-.645,3.267,3.267,0,0,0-1.185-.375l-.885-.15q-2.535-.42-2.535-2.34a2.019,2.019,0,0,1,.84-1.718,3.92,3.92,0,0,1,2.37-.622q3.315,0,3.42,2.625H39.165a1.2,1.2,0,0,0-.435-.983,2.042,2.042,0,0,0-1.2-.292q-1.35,0-1.35.9a.708.708,0,0,0,.3.608,2.471,2.471,0,0,0,.99.337l.975.15a4.3,4.3,0,0,1,2.048.81,1.94,1.94,0,0,1,.637,1.545,2.065,2.065,0,0,1-.9,1.8A4.377,4.377,0,0,1,37.695,36.21ZM49.44,32.265v.45H43.65a2.354,2.354,0,0,0,.623,1.493,1.907,1.907,0,0,0,1.388.5,1.763,1.763,0,0,0,1.77-1.11h1.815a3.233,3.233,0,0,1-1.26,1.882,3.873,3.873,0,0,1-2.34.7,3.691,3.691,0,0,1-2.79-1.11,4.069,4.069,0,0,1-1.065-2.94,4.1,4.1,0,0,1,1.05-2.94,3.672,3.672,0,0,1,2.775-1.11,3.559,3.559,0,0,1,2.79,1.155A4.369,4.369,0,0,1,49.44,32.265ZM45.6,29.55q-1.665,0-1.935,1.845H47.55a2.252,2.252,0,0,0-.63-1.35A1.816,1.816,0,0,0,45.6,29.55Zm9.195-1.41a3.3,3.3,0,0,1,.465.03v1.74h-.48a2.318,2.318,0,0,0-1.658.548,2.119,2.119,0,0,0-.577,1.612V36h-1.89V28.26h1.83v1.38A2.318,2.318,0,0,1,54.795,28.14Zm4.365,8.07q-3.39,0-3.54-2.67h1.845a1.391,1.391,0,0,0,.472,1.02,2.09,2.09,0,0,0,1.252.3q1.53,0,1.53-.93a.734.734,0,0,0-.33-.645A3.267,3.267,0,0,0,59.2,32.91l-.885-.15q-2.535-.42-2.535-2.34a2.019,2.019,0,0,1,.84-1.718,3.92,3.92,0,0,1,2.37-.622q3.315,0,3.42,2.625H60.63a1.2,1.2,0,0,0-.435-.983,2.042,2.042,0,0,0-1.2-.292q-1.35,0-1.35.9a.708.708,0,0,0,.3.608,2.471,2.471,0,0,0,.99.337l.975.15a4.3,4.3,0,0,1,2.047.81,1.94,1.94,0,0,1,.638,1.545,2.065,2.065,0,0,1-.9,1.8A4.377,4.377,0,0,1,59.16,36.21Zm11.82-9.435h-.66q-.975,0-.975.93v.555h1.59V29.7h-1.59V36H67.47V29.7h-1.2V28.26h1.2v-.585a2.4,2.4,0,0,1,.63-1.763,2.571,2.571,0,0,1,1.9-.637,9.007,9.007,0,0,1,.975.045Zm8.16,5.355a4.036,4.036,0,0,1-1.08,2.94,4.214,4.214,0,0,1-5.7,0,3.973,3.973,0,0,1-1.1-2.94,3.973,3.973,0,0,1,1.1-2.94,4.235,4.235,0,0,1,5.7-.015A4.024,4.024,0,0,1,79.14,32.13Zm-5.415,1.845a1.833,1.833,0,0,0,1.485.645,1.8,1.8,0,0,0,1.478-.653,2.833,2.833,0,0,0,.533-1.837,2.833,2.833,0,0,0-.533-1.838,2.007,2.007,0,0,0-2.955-.007A2.827,2.827,0,0,0,73.2,32.13,2.856,2.856,0,0,0,73.725,33.975Zm10.74-5.835a3.3,3.3,0,0,1,.465.03v1.74h-.48a2.318,2.318,0,0,0-1.658.548,2.119,2.119,0,0,0-.577,1.612V36h-1.89V28.26h1.83v1.38A2.318,2.318,0,0,1,84.465,28.14Zm8.85.12V29.7h-1.53v4.185a.613.613,0,0,0,.2.525,1.177,1.177,0,0,0,.682.15h.645V36q-.615.06-.99.06a2.891,2.891,0,0,1-1.837-.472,1.837,1.837,0,0,1-.578-1.507V29.7h-1.2V28.26h1.2V26.01h1.875v2.25Zm5.355-.18a2.686,2.686,0,0,1,1.987.727,2.79,2.79,0,0,1,.728,2.063V36H99.5V31.185a1.293,1.293,0,0,0-1.455-1.47,1.64,1.64,0,0,0-1.222.517,1.97,1.97,0,0,0-.5,1.433V36h-1.89V25.32h1.89V29.3A2.773,2.773,0,0,1,98.67,28.08Zm11.55,4.185v.45h-5.79a2.354,2.354,0,0,0,.622,1.493,1.907,1.907,0,0,0,1.388.5,1.763,1.763,0,0,0,1.77-1.11h1.815a3.233,3.233,0,0,1-1.26,1.882,3.873,3.873,0,0,1-2.34.7,3.691,3.691,0,0,1-2.79-1.11,4.069,4.069,0,0,1-1.065-2.94,4.1,4.1,0,0,1,1.05-2.94,3.672,3.672,0,0,1,2.775-1.11,3.559,3.559,0,0,1,2.79,1.155A4.369,4.369,0,0,1,110.22,32.265Zm-3.84-2.715q-1.665,0-1.935,1.845h3.885a2.252,2.252,0,0,0-.63-1.35A1.816,1.816,0,0,0,106.38,29.55ZM2.64,46.255H.78v-1.77H2.64ZM2.655,55H.765V47.26h1.89ZM8.43,47.08a2.686,2.686,0,0,1,1.988.727,2.79,2.79,0,0,1,.727,2.063V55H9.255V50.185A1.293,1.293,0,0,0,7.8,48.715a1.64,1.64,0,0,0-1.222.517,1.97,1.97,0,0,0-.5,1.433V55H4.185V47.26h1.83v1.11A2.78,2.78,0,0,1,8.43,47.08Zm8.01.18V48.7H14.91v4.185a.613.613,0,0,0,.2.525,1.177,1.177,0,0,0,.682.15h.645V55q-.615.06-.99.06a2.891,2.891,0,0,1-1.838-.472,1.837,1.837,0,0,1-.578-1.507V48.7h-1.2V47.26h1.2V45.01H14.91v2.25Zm8.265,4v.45h-5.79a2.354,2.354,0,0,0,.622,1.493,1.907,1.907,0,0,0,1.387.5,1.763,1.763,0,0,0,1.77-1.11H24.51a3.233,3.233,0,0,1-1.26,1.882,3.873,3.873,0,0,1-2.34.7,3.691,3.691,0,0,1-2.79-1.11,4.616,4.616,0,0,1-.015-5.88,3.672,3.672,0,0,1,2.775-1.11,3.559,3.559,0,0,1,2.79,1.155A4.369,4.369,0,0,1,24.7,51.265Zm-3.84-2.715q-1.665,0-1.935,1.845h3.885a2.252,2.252,0,0,0-.63-1.35A1.816,1.816,0,0,0,20.865,48.55Zm9.2-1.41a3.3,3.3,0,0,1,.465.03v1.74h-.48a2.318,2.318,0,0,0-1.657.548,2.119,2.119,0,0,0-.577,1.612V55H25.92V47.26h1.83v1.38A2.318,2.318,0,0,1,30.06,47.14Zm6.1,2.19.75-2.07H38.88L36,55H33.825L30.96,47.26h2.025l.75,2.085q.525,1.635,1.215,3.945Q35.5,51.43,36.165,49.33Zm5.325-3.075H39.63v-1.77h1.86ZM41.5,55h-1.89V47.26H41.5Zm8.835-3.735v.45H44.55a2.354,2.354,0,0,0,.623,1.493,1.907,1.907,0,0,0,1.388.5,1.763,1.763,0,0,0,1.77-1.11h1.815a3.233,3.233,0,0,1-1.26,1.882,3.873,3.873,0,0,1-2.34.7,3.691,3.691,0,0,1-2.79-1.11,4.616,4.616,0,0,1-.015-5.88,3.672,3.672,0,0,1,2.775-1.11,3.559,3.559,0,0,1,2.79,1.155A4.369,4.369,0,0,1,50.34,51.265ZM46.5,48.55q-1.665,0-1.935,1.845H48.45a2.252,2.252,0,0,0-.63-1.35A1.816,1.816,0,0,0,46.5,48.55Zm13.365,1.6.87-2.895H62.76L60.21,55H58.23l-.975-3.18q-.555-1.95-.66-2.31-.045.165-.645,2.31L54.99,55H53.01l-2.55-7.74h2.025l.87,2.895q.33,1.035.765,2.685.42-1.665.735-2.7l.855-2.88h1.8l.855,2.88q.315,1.035.735,2.7Q59.49,51.355,59.865,50.155Zm6.6,5.055q-3.39,0-3.54-2.67H64.77a1.391,1.391,0,0,0,.473,1.02,2.09,2.09,0,0,0,1.252.3q1.53,0,1.53-.93a.734.734,0,0,0-.33-.645,3.267,3.267,0,0,0-1.185-.375l-.885-.15q-2.535-.42-2.535-2.34a2.019,2.019,0,0,1,.84-1.717,3.92,3.92,0,0,1,2.37-.622q3.315,0,3.42,2.625H67.935a1.2,1.2,0,0,0-.435-.983,2.042,2.042,0,0,0-1.2-.292q-1.35,0-1.35.9a.708.708,0,0,0,.3.607,2.471,2.471,0,0,0,.99.338l.975.15a4.3,4.3,0,0,1,2.048.81A1.94,1.94,0,0,1,69.9,52.78a2.065,2.065,0,0,1-.9,1.8A4.377,4.377,0,0,1,66.465,55.21Z" transform="translate(934 2157)" fill="#151515"/>
  </g>
</svg>
