<svg xmlns="http://www.w3.org/2000/svg" width="26.336" height="26.338" viewBox="0 0 26.336 26.338">
  <path id="_104497_dribbble_icon" data-name="104497_dribbble_icon" d="M29.562,14.926A13.171,13.171,0,1,0,7.349,26.89,13.3,13.3,0,0,0,9.3,28.5,13.163,13.163,0,0,0,25.972,26.89a13.367,13.367,0,0,0,1.608-1.948,13.212,13.212,0,0,0,1.982-10.016ZM27.9,17.466a26.035,26.035,0,0,0-7.832-.369q-.118-.288-.242-.581c-.234-.55-.486-1.1-.748-1.631a14.447,14.447,0,0,0,6.266-4.451A11.19,11.19,0,0,1,27.9,17.466ZM24.089,9.137c-.028.044-1.63,2.481-5.874,4.073a57.129,57.129,0,0,0-4.2-6.561A11.231,11.231,0,0,1,24.089,9.137ZM13.968,6.658s0,0,0,0l-.033.007C13.944,6.664,13.956,6.662,13.968,6.658Zm-2.1.748a67.609,67.609,0,0,1,4.176,6.48A41.6,41.6,0,0,1,5.656,15.259,11.263,11.263,0,0,1,11.863,7.406ZM5.416,17.577c0-.12.005-.237.01-.355a41.235,41.235,0,0,0,11.545-1.6c.322.631.631,1.272.913,1.912-.149.042-.3.086-.443.134a17.792,17.792,0,0,0-9.148,7.423s0,0,0,.005A11.209,11.209,0,0,1,5.416,17.577ZM16.662,28.824A11.2,11.2,0,0,1,9.5,26.247c.148.12.252.2.252.2s2.156-4.7,8.825-7.025c.025-.01.05-.017.075-.024a46.8,46.8,0,0,1,2.4,8.539A11.189,11.189,0,0,1,16.662,28.824Zm6.284-1.918a48.64,48.64,0,0,0-2.189-8.033,16.3,16.3,0,0,1,7.008.491A11.254,11.254,0,0,1,22.946,26.906Z" transform="translate(-3.493 -4.409)" fill-rule="evenodd"/>
</svg>
