<svg xmlns="http://www.w3.org/2000/svg" width="28.847" height="27.572" viewBox="0 0 28.847 27.572">
  <path id="_367593_linkedin_business_network_social_icon" data-name="367593_linkedin_business_network_social_icon" d="M46.366,64.246h6.182v18.6H46.366ZM49.5,55.278a3.223,3.223,0,1,0-.081,6.428h.039a3.224,3.224,0,1,0,.041-6.428Zm18.229,8.531a6.138,6.138,0,0,0-5.572,3.071V64.246H55.971c.082,1.745,0,18.6,0,18.6h6.184V72.46a4.258,4.258,0,0,1,.2-1.51A3.386,3.386,0,0,1,65.53,68.69c2.239,0,3.133,1.707,3.133,4.207V82.85h6.183V72.182C74.847,66.468,71.8,63.809,67.727,63.809Z" transform="translate(-46 -55.278)"/>
</svg>
