<svg id="_1161953_instagram_icon" data-name="1161953_instagram_icon" xmlns="http://www.w3.org/2000/svg" width="26.422" height="26.422" viewBox="0 0 26.422 26.422">
  <path id="Path_6248" data-name="Path 6248" d="M22.219,16.7a6.819,6.819,0,1,0,6.819,6.819A6.832,6.832,0,0,0,22.219,16.7Zm0,11.187a4.368,4.368,0,1,1,4.368-4.368A4.388,4.388,0,0,1,22.219,27.887Z" transform="translate(-9.007 -10.361)"/>
  <ellipse id="Ellipse_491" data-name="Ellipse 491" cx="1.545" cy="1.545" rx="1.545" ry="1.545" transform="translate(18.751 4.635)"/>
  <path id="Path_6249" data-name="Path 6249" d="M27.692,6.984A7.587,7.587,0,0,0,22.1,4.8H11.124A7.3,7.3,0,0,0,3.4,12.524V23.445a7.665,7.665,0,0,0,2.237,5.7,7.774,7.774,0,0,0,5.54,2.078H22.045a7.866,7.866,0,0,0,5.593-2.078A7.626,7.626,0,0,0,29.822,23.5V12.524A7.637,7.637,0,0,0,27.692,6.984ZM27.479,23.5a5.205,5.205,0,0,1-1.545,3.889,5.506,5.506,0,0,1-3.889,1.385H11.178a5.506,5.506,0,0,1-3.889-1.385A5.355,5.355,0,0,1,5.85,23.445V12.524A5.311,5.311,0,0,1,7.289,8.636,5.417,5.417,0,0,1,11.178,7.25H22.151A5.311,5.311,0,0,1,26.04,8.689a5.5,5.5,0,0,1,1.438,3.836V23.5Z" transform="translate(-3.4 -4.8)"/>
</svg>
