<svg xmlns="http://www.w3.org/2000/svg" width="26.243" height="21.326" viewBox="0 0 26.243 21.326">
  <path id="_104501_twitter_bird_icon" data-name="104501_twitter_bird_icon" d="M29.817,12.851a10.713,10.713,0,0,1-3.092.848,5.394,5.394,0,0,0,2.367-2.979,10.778,10.778,0,0,1-3.419,1.307A5.388,5.388,0,0,0,16.5,16.937,15.287,15.287,0,0,1,5.4,11.312,5.391,5.391,0,0,0,7.068,18.5a5.369,5.369,0,0,1-2.439-.674c0,.022,0,.045,0,.068a5.388,5.388,0,0,0,4.319,5.279,5.413,5.413,0,0,1-1.419.189,5.334,5.334,0,0,1-1.013-.1A5.39,5.39,0,0,0,11.545,27a10.864,10.864,0,0,1-7.971,2.229,15.236,15.236,0,0,0,8.253,2.419A15.214,15.214,0,0,0,27.146,16.334q0-.35-.015-.7A10.9,10.9,0,0,0,29.817,12.851Z" transform="translate(-3.574 -10.326)"/>
</svg>
