<svg id="Group_4390" data-name="Group 4390" xmlns="http://www.w3.org/2000/svg" xmlns:xlink="http://www.w3.org/1999/xlink" width="481.176" height="466.469" viewBox="0 0 481.176 466.469">
  <defs>
    <clipPath id="clip-path">
      <rect id="Rectangle_2758" data-name="Rectangle 2758" width="481.176" height="466.469" fill="none"/>
    </clipPath>
  </defs>
  <g id="Group_4390-2" data-name="Group 4390" clip-path="url(#clip-path)">
    <path id="Path_5957" data-name="Path 5957" d="M342.579,466.47a32.431,32.431,0,0,1-4.33-.379c-3.417-.479-8.06-1.392-14.2-2.792-11.11-2.534-24.634-6.108-35.5-8.979-8.423-2.225-15.076-3.984-17.518-4.442-1.537-.288-3.027-.642-4.539-1.073a1.792,1.792,0,0,1-.19.061,1.406,1.406,0,0,1-1.44-.458c-.034-.039-.067-.08-.1-.125-4.51-1.435-9.432-3.555-16.519-6.607-3.806-1.64-8.121-3.5-13.379-5.689-13.273-5.529-30.951-4.8-43.859-4.267-6.353.262-11.37.469-14.513-.086-1.168-.206-1.92-1.21-2.237-2.983-1.529-8.559,6.6-40.039,14.724-66.645,4.346-14.238,8.9-27.868,12.834-38.379,6.557-17.533,8.433-18.628,9.14-19.04,1.255-.732,4.131-1.225,15.33,1.476,6.678,1.611,15.556,4.2,25.674,7.48,8.347,2.708,17.388,5.847,24.807,8.613,11.373,4.24,12.155,5.021,12.412,5.278.506.507.676,1.185.043,5.2-.374,2.376-1.009,5.729-1.938,10.251-1.736,8.443-4.277,19.847-6.966,31.922-3.468,15.566-7.4,33.209-10.135,46.968-1.483,7.456-2.494,13.133-3.09,17.355-.353,2.5-.517,4.218-.579,5.393.4-1.116.919-2.765,1.585-5.2,1.127-4.122,2.473-9.74,4.118-17.174,3.031-13.706,6.564-31.344,9.681-46.906,2.314-11.549,4.5-22.459,6.229-30.539,2.895-13.516,3.442-14.064,3.882-14.5.7-.7,2.166-2.166,41.4,1.264,20.115,1.759,40.009,3.946,43.094,4.506a1.919,1.919,0,0,0,1.756-.334c1.791-1.544,1.606-7.352,1.442-12.475-.051-1.618-.105-3.292-.105-4.882a6.91,6.91,0,0,1,2.138-5.213c1.963-1.869,5.137-2.787,8.858-3.19a35.884,35.884,0,0,1-1.808-13.637,50.664,50.664,0,0,1,6.748-21.946c3.513-6.126,7.916-10.936,11.78-12.869,7.586-3.791,21.593-1.137,31.464,1.2,5.155.172,9.5,1.073,10.756,2.329a1.272,1.272,0,0,1,.288,1.567c-.511.9-1.645.664-2.846.412-1-.209-2.343-.545-4.047-.969-1.3-.323-2.808-.7-4.465-1.092-.98-.028-2.016-.03-3.1,0-4.67.143-13.514,1.072-20.273,5.681-4.9,3.343-7.787,10.007-7.715,17.825a30.149,30.149,0,0,0,10.52,22.95,31.371,31.371,0,0,1,1.763-2.6c1.107-1.383,3.488-2.264,5.589-3.041l.254-.094-.145-.021c-4.866-.695-7.582-7.252-7.308-12.929.244-5.058,2.9-10.572,9.627-10.878,6.2-.281,9.874,2.288,12.822,4.355,3.053,2.139,5.07,3.552,8.767,1.333,3.573-2.144,3.031-6.706,2.553-10.732-.352-2.963-.631-5.3.859-6.473,1.236-.97,2.989-.478,4.2-.025,2.7,1.013,4.961,3.5,6.535,7.183,3.461,8.1,3.3,21.152-.365,29.706-2.276,5.31-7.75,9.613-15.017,11.8a35.534,35.534,0,0,1-22.5-.731c0,.031,0,.062,0,.093,0,1.612-2.478,5.591-5.264,7.766-1.908,1.49-3.823,2.05-5.535,1.622a2.745,2.745,0,0,1-1.986-1.848c-.9-2.674,1.367-7.843,3.591-11.851a34.572,34.572,0,0,0-9.681-1.752l-1.515-.074c-3.618-.177-7.629-.375-11.288-.234a33.817,33.817,0,0,0,12.914,14.268,54.919,54.919,0,0,0,22.381,8.483,49.66,49.66,0,0,0,19.923-1.337c8.644-2.373,19.7-8.424,23.535-16.1a67.085,67.085,0,0,0,5.666-19.129c1.385-9.6.531-18.463-2.469-25.62-4.11-9.806-12.218-16.73-24.1-20.578A61.689,61.689,0,0,0,430.2,248.56a38.031,38.031,0,0,0-14.494,3.379,28.074,28.074,0,0,0-10.461,8.051,2.248,2.248,0,0,1-.353.856c-.352.529-1.008,1.513-1.987.982a1.181,1.181,0,0,1-.468-1.587,5.243,5.243,0,0,1,.365-.662,11.056,11.056,0,0,0-2.989-1.14c-2.016-.561-4.651-1.1-7.7-1.727-9.515-1.952-21.855-4.483-28.013-10.232-4.25,12.629-8.222,23.99-11.49,32.846-7.961,21.573-9.378,22.046-10.224,22.328-1.041.346-3.478,1.158-112.635-29.774-55.909-15.843-110.176-31.629-113.652-32.7-7.206-2.217-14.113.963-18.027,8.3-1.668,3.128.106,18.891,1.823,34.135q.1.872.2,1.747c2.307,10.365,4.146,19.508,5.4,26.845,3.136,18.381,1.885,21.353,1.474,22.329-1.183,2.811-5.7,5.222-14.206,7.587a220.175,220.175,0,0,1-25.58,5.049c-18.006,2.67-36,4.089-37,4.089-.841,0-1.16-.771-1.3-1.1-1.6-3.864-7.969-32.692-13.2-58.33-2.936-14.387-5.459-27.477-7.105-36.862C5.535,235.7,6.1,235.139,6.7,234.54c.316-.316.975-.975,10.5-3.351,5.823-1.453,13.438-3.152,20.89-4.661,9.1-1.843,31.062-6.042,38.3-5.216,1.525.174,2.4.564,2.837,1.264,2.027,3.243,10.669,43.939,12.381,52.064,2.678,12.713,5.1,24.736,6.822,33.856,1.2,6.356,1.867,10.251,2.22,12.67.052-1.663.052-3.606-.018-5.874-.278-9.019-1.52-20.4-2.775-31.559-.783-3.518-1.62-7.177-2.506-10.955-6.357-27.107-13.4-52.514-14.718-55.085-.266-.186-2.164-1.09-13.142-.049-6.9.654-16.218,1.971-26.24,3.709-9.334,1.618-18.837,3.527-26.072,5.238C4.8,229.049,2.712,230.216,2.33,230.5c-.171.673-.328,3.967,2.529,19.943,1.794,10.031,4.524,23.668,7.894,39.437,6.076,28.431,12.126,54.042,13.294,57.6a1.123,1.123,0,0,1,.329.8,1.184,1.184,0,0,1-.832,1.2,1.16,1.16,0,0,1-1.3-.5c-.182-.281-.664-1.025-4.922-19.28-2.791-11.966-6.022-26.467-8.866-39.787-3.451-16.166-6.216-30.031-8-40.1-3.364-19.023-2.483-20.051-1.9-20.731.394-.46,1.319-1.539,11.992-4.167,6.288-1.549,14.557-3.281,23.284-4.878,15.943-2.918,35.642-5.766,43.121-5.01,2.033.205,3.15.676,3.621,1.525,1.354,2.435,7.469,24.5,13.308,48.725-.932-10.017-1.1-16.43.193-18.85a19.143,19.143,0,0,1,9.19-8.87,16.492,16.492,0,0,1,11.49-.524c3.4,1.048,57.017,16.644,112.461,32.361,91.422,25.915,109.875,30.072,112.392,30.106.591-.652,2.706-4.116,9.353-22.241,3.271-8.92,7.211-20.229,11.4-32.7a10.939,10.939,0,0,1-1.548-2.911,1.131,1.131,0,0,1-.062-.341c-.245-9.722,11.807-47.182,19.782-71.971,1.163-3.615,2.265-7.04,3.186-9.945-4.242-1.956-13.1-5.55-31.588-12.09-19.728-6.98-45.954-15.742-73.848-24.672-27.956-8.95-54.4-17.046-74.45-22.8-17.056-4.892-26.3-7.167-31.3-8.195.077.229.154.441.23.632.168.421.406,1.013-.925,6.613a4.838,4.838,0,0,1,.788-.954c.738-.656,2.208-1.052,11.95,1.273,6.111,1.459,14.632,3.8,25.328,6.961,19.459,5.75,45.805,14.137,72.283,23.011,22.71,7.611,43.61,14.937,58.849,20.628,26.483,9.89,26.778,11.362,26.972,12.336.12.6.439,2.2-3.038,14.3-2.388,8.312-5.586,18.213-7.849,25.055-2.809,8.494-5.858,17.356-8.364,24.314-4.034,11.2-4.554,11.722-4.833,12-.5.5-1.126.508-3.347.043-1.36-.284-3.332-.764-5.862-1.425-4.6-1.2-11.06-3.007-19.734-5.51-8.494-2.452-18.375-5.364-28.536-8.382a247.878,247.878,0,0,1-6.38,25.445,179.152,179.152,0,0,1-6.159,17.656c-3.2,7.52-5.066,8.749-6.331,8.979a4.052,4.052,0,0,1-.7.051c-6.1,0-31.983-8.128-37.316-9.824-15.374-4.888-34.474-11.553-37.708-14.253a1.947,1.947,0,0,1-.8-1.415c0-1.745,1.537-12.67,3.961-23.378,3.318-14.658,6.958-23.68,10.82-26.814a4.984,4.984,0,0,1,4.274-1.228c4.208.886,25.589,7.275,50.346,14.674,7.548,2.256,15.727,4.7,23.9,7.13-.989-.695-4.924-2.7-20.5-7.894-11.346-3.787-26.713-8.544-43.27-13.394-30.157-8.835-64.24-17.92-71.029-18.191-7.928-.311-15.171,18.223-20.462,31.761-3.966,10.151-6.332,15.96-8.813,17.314a1.377,1.377,0,0,1-1.825-.355c-.567-.757-1.422-1.9,5.238-23.728,3.656-11.981,9.071-28.438,15.246-46.341,5.758-16.694,11.819-33.594,16.628-46.367,8.095-21.5,9.4-22.8,9.823-23.229.446-.446,1.11-.755,4.05-.337-.56-2.459-.974-4.879-1.04-5.272-.263-1.04-4.832-19.168-8.571-37.326-2.254-10.948-3.771-19.771-4.509-26.225a58.235,58.235,0,0,1-.489-9.13c.1-1.839.43-4.349,2.152-4.923.334-.111.819-.272,4.078.346a16.058,16.058,0,0,1,.193-5.191c.4-1.087,1.784-1.069,2.378-1.06,11.655.158,93.246,24.484,140.844,38.97,29.6,9.007,61.234,18.835,86.8,26.964,11.679,3.713,21.445,6.867,28.243,9.122,11.206,3.718,11.248,3.844,11.483,4.548a18.723,18.723,0,0,1,.611,4.782,1.128,1.128,0,0,1-1.451,1.08c-.659-.2-66.707-19.923-133.035-39.228-38.953-11.338-70.379-20.314-93.4-26.679-22.466-6.21-34.157-9.162-40.16-10.5.189,1.839.47,4.138.878,7.008,1.043,7.337,2.7,16.874,4.663,26.855,1.948,9.9,4.012,19.3,5.812,26.454,2.782,11.062,3.924,12.783,4.157,13.035,2.568,1.7,45.7,16.134,98.4,32.928,55.339,17.634,96.156,29.86,99.68,29.86h.048c.47-.142,2.537-1.483,10.223-12.28,5.044-7.085,11.028-16.122,16.309-24.095,7.709-11.64,11.173-16.743,12.992-18.952-5.077-1.438-20.7-5.64-39.679-10.745-34.907-9.39-87.659-23.579-130.821-35.606-23.687-6.6-42.143-11.9-54.855-15.746-7.206-2.182-12.74-3.949-16.448-5.255-1.976-.7-3.487-1.279-4.49-1.734-.972-.441-2.3-1.045-2.114-2.193.216-1.308,1.9-1.2,2.911-1.136,13.1.836,79.022,18.118,138.538,34.874,31.6,8.9,61.138,17.553,83.179,24.378C430.583,88.366,431.54,90.03,432,90.83a1.3,1.3,0,0,1,.052,1.25c-1.214,2.428-12.316,17.992-22.146,31.4-5.569,7.6-10.7,14.46-14.436,19.322-4.286,5.573-6.1,7.719-7.024,8.545-.174.944-.712,2.806-1.99,6.868,3,1.555,3.111,2.154,3.2,2.624.122.671.445,2.453-6.131,24.657-3.861,13.035-9.288,30.284-14.887,47.325-1.261,3.836-2.511,7.6-3.74,11.272,1.937,2.136,5.067,4.01,9.459,5.675,5.724,2.17,12.645,3.59,18.207,4.731,6.315,1.3,9.917,2.079,11.585,3.267a31.04,31.04,0,0,1,10.66-7.9,40.3,40.3,0,0,1,15.337-3.565,63.965,63.965,0,0,1,22.262,3.443c12.534,4.06,21.108,11.413,25.484,21.852,3.158,7.534,4.064,16.806,2.621,26.814a69.5,69.5,0,0,1-5.881,19.816c-1.642,3.283-4.855,6.755-9.049,9.773a50.222,50.222,0,0,1-15.906,7.495,51.9,51.9,0,0,1-20.823,1.4,57.148,57.148,0,0,1-23.3-8.821c-7.39-4.75-11.707-10.395-14.114-16.013-3.523.319-6.5,1.072-8.147,2.638a4.676,4.676,0,0,0-1.438,3.579c0,1.555.053,3.209.1,4.81.2,6.174.384,12.007-2.224,14.255a4.165,4.165,0,0,1-3.632.845c-2.945-.535-22.3-2.665-41.983-4.4-27.15-2.392-38.666-2.583-40.508-1.952-1.219,2.517-5.426,23.521-9.5,43.847-3.218,16.064-6.865,34.272-9.965,48.185-1.688,7.576-3.06,13.208-4.2,17.219A43.8,43.8,0,0,1,268,446.88c1.147.3,2.286.564,3.449.781,2.523.474,9.211,2.241,17.678,4.478,10.429,2.756,23.408,6.186,34.257,8.692,5.867,1.356,10.58,2.315,14.008,2.852,4.742.743,6.115.536,6.479.42,1.163-2.681,8.452-28.895,16.5-60.112,7.492-29.069,11.49-46.31,13.16-54.895-.69,2.108-1.558,4.907-2.649,8.618-2.5,8.5-5.566,19.69-8.814,31.54-4.345,15.846-8.837,32.232-12.788,45.253-6,19.761-8.16,23.226-9.606,24.026a1.637,1.637,0,0,1-1.294.163c-.414-.124-1.154-.351-2.165-.66-5.663-1.734-18.925-5.794-31.538-9.231-7.082-1.929-12.852-3.358-17.151-4.245a38.982,38.982,0,0,0-7.842-1.1l.049.043c6.726,5.936,28.011,9.97,43.552,12.916,5.664,1.073,10.555,2,14.032,2.869a1.128,1.128,0,1,1-.547,2.189c-3.414-.853-8.276-1.775-13.905-2.842-16.678-3.162-37.434-7.1-44.624-13.441-1.856-1.637-1.31-2.614-1.13-2.934.645-1.154,2.406-1.554,9.494-.182,4.241.821,10.107,2.241,17.436,4.22,12.993,3.509,27.408,7.923,32.835,9.584l1.839.562c.352-.369,1.3-1.727,3.156-6.65,1.446-3.839,3.183-9.114,5.309-16.127,3.929-12.965,8.4-29.254,12.714-45.006,7.935-28.944,12.521-45.417,14.507-47.4a1.294,1.294,0,0,1,1.75-.191c.695.531.9,1.331-.086,6.769-.589,3.261-1.577,7.92-2.934,13.849-3.024,13.2-7.2,29.738-10.166,41.283-7.141,27.773-15.961,60.23-17.2,62.4-.382.669-1.145,1.1-3.185,1.1M204.55,429.1c10.44,0,21.8.892,31.188,4.8,5.271,2.2,9.592,4.057,13.4,5.7,6.385,2.75,10.987,4.732,15.089,6.125-.036-2.983.76-9.313,3.585-23.6,2.751-13.91,6.763-31.922,10.3-47.813,4.4-19.76,9.374-42.08,9.27-45.409-2.481-1.436-18.894-7.646-36.56-13.362-9.971-3.227-18.7-5.763-25.246-7.333-10.759-2.582-13.044-1.938-13.488-1.678-.3.186-2.1,1.86-7.665,16.556-3.639,9.61-7.94,22.306-12.112,35.749-7.63,24.587-15.839,55.06-16,66.849-.041,3.054.515,3.666.581,3.727,2.906.51,8.054.3,14.013.051,4.154-.171,8.794-.363,13.632-.363M8.47,236.058c-.186,2.9,2.768,20.987,9.955,55.994,5.584,27.2,10.952,50.945,12.392,54.918,3.411-.238,19.379-1.554,36.121-4.04a217.35,217.35,0,0,0,25.247-4.987c9.906-2.758,12.2-5.118,12.694-6.279.526-1.248,1.014-5.646-1.619-21.075q-.432-2.533-.957-5.348c.281,3.529.488,6.89.583,9.983.366,11.89-1.032,17.439-4.533,17.991-3.767.6-13.168,1.393-23.756,2.175a6.807,6.807,0,0,1-2.211,3.084c-2.5,2.221-5.287,2.8-7.458,1.557a5.78,5.78,0,0,1-2.664-3.767c-15.1,1.03-29.225,1.873-30.371,1.94a1.128,1.128,0,0,1-.446-2.188c.64-.228,15.806-5.6,28.026-5.6q2.245,0,4.117.071c3.249-2.464,11.936-3.51,23.95-4.693,4.39-.433,9.778-.963,11.215-1.5-.14-3.439-4.221-24.893-9.568-50.216-5.821-27.568-10.663-48.12-11.836-50.252-.327-.2-2.177-.868-11.69.284-6.012.727-14,2.05-23.1,3.824-16.573,3.231-31.644,6.955-34.09,8.118m56.1,100.048a3.417,3.417,0,0,0,1.481,1.969c1.309.751,3.073.282,4.838-1.286a7.872,7.872,0,0,0,1.142-1.21c-2.461.178-4.967.355-7.461.527m-5.1-3.43a77.088,77.088,0,0,0-17.848,2.671c5.549-.348,12.863-.818,20.425-1.334a9.7,9.7,0,0,1,.136-1.3c-.835-.021-1.737-.033-2.713-.033m5,.123a.4.4,0,0,0-.024.077,7.562,7.562,0,0,0-.132.982c1.884-.13,3.775-.263,5.647-.4a33.347,33.347,0,0,0-5.491-.662m3.83-1.936c3.144.424,5,1.167,5.841,2.294,10.672-.786,20.156-1.586,23.858-2.17.592-.093,1.666-.864,2.26-4.939-1.225.8-4.345,1.192-12.5,1.995-5.171.509-11.033,1.087-15.683,1.957-1.553.291-2.79.582-3.775.862M418.447,314.8c-2.114,3.823-4.152,8.535-3.559,10.293a.488.488,0,0,0,.4.381,4.106,4.106,0,0,0,3.319-1,14.35,14.35,0,0,0,4.673-6.17c-.184-.547-1.728-2.1-4.829-3.5m1.243-2.133q.179.122.361.241a33.008,33.008,0,0,0,27.327,3.844c6.529-1.969,11.611-5.907,13.595-10.533a38.176,38.176,0,0,0,2.675-14.125,35.1,35.1,0,0,0-2.312-13.807c-1.326-3.106-3.143-5.166-5.253-5.957-1.289-.483-1.873-.424-2.015-.313-.492.386-.2,2.821-.012,4.432.5,4.237,1.193,10.038-3.632,12.932-4.953,2.973-8,.839-11.221-1.419-2.807-1.967-5.988-4.2-11.426-3.949-6.561.3-7.381,6.76-7.477,8.733-.227,4.71,1.878,10.088,5.373,10.587,2.051.293,3.631.617,3.765,1.875.136,1.276-1.2,1.77-3.41,2.588-1.644.608-3.895,1.441-4.61,2.336a26.672,26.672,0,0,0-1.729,2.534M396.473,309.6c2.9,0,5.9.148,8.784.29l1.511.073a39.178,39.178,0,0,1,7.44,1.041A32.876,32.876,0,0,1,405.12,288.4c-.079-8.573,3.173-15.942,8.7-19.71,2.577-1.757,7.781-4.538,16.026-5.634-7.911-1.409-16.533-2.108-21.521.385-3.43,1.715-7.581,6.3-10.832,11.974a48.373,48.373,0,0,0-6.453,20.945,33.36,33.36,0,0,0,1.9,13.33c1.149-.062,2.332-.088,3.535-.088m-54.965-10.009ZM193.315,248.867c.507.423,2.665,1.785,11.7,5.185,6.477,2.436,15.073,5.385,24.2,8.3,19.561,6.251,35.524,10.468,37.95,10.027.155-.029,1.609-.484,4.659-7.644a176.957,176.957,0,0,0,6.075-17.422,240.253,240.253,0,0,0,6.371-25.439c-8.223-2.445-16.575-4.94-24.475-7.3-24.709-7.384-46.049-13.761-50.165-14.627a2.817,2.817,0,0,0-2.389.772c-3.362,2.729-6.929,11.806-10.042,25.561a206.9,206.9,0,0,0-3.893,22.587m169.69-7.8q.13.35.293.692c1.159-3.469,2.335-7.021,3.517-10.625,5.5-16.773,10.826-33.713,14.6-46.477,5.393-18.221,6.012-22.326,6.022-23.245a8.638,8.638,0,0,0-1.669-1.031c-.8,2.5-1.808,5.655-3.089,9.638-7.4,23-19.757,61.407-19.677,71.047m-76.267-20.814c26.132,7.759,51.609,15.178,55.73,15.648,1.371-2.816,6.884-18.078,12.71-35.726,8.08-24.476,10.765-35.361,10.64-37.431-.729-.678-5.112-3.34-30.7-12.737-17.333-6.365-40.084-14.239-64.061-22.171-24.439-8.085-47.4-15.317-64.664-20.363-26.612-7.779-31.471-7.97-32.349-7.781-.9.949-2.886,5.168-6.142,13.935-1.122,3.948-2.4,8.334-3.807,13.037-5.217,17.462-10.758,34.648-12.889,39.976-.441,1.1-.733,1.833-1.587,1.833H149.6a1.141,1.141,0,0,1-1.061-.75c-.169-.453-.3-.81,2.863-11.352,2.017-6.716,4.616-14.949,7.13-22.587,2.664-8.09,5.142-15.248,7.232-20.888,3.461-12.2,4.97-18.708,4.879-19.876-.2-.525-.408-1.165-.6-1.864a12.841,12.841,0,0,0-3.155-.306c-.523.741-2.449,4.378-9.086,21.988-4.7,12.474-10.654,29.051-16.33,45.481-6.071,17.567-11.458,33.888-15.171,45.955-4.052,13.172-5.4,18.947-5.8,21.475,1.821-2.757,4.194-8.83,6.5-14.743,2.839-7.266,6.057-15.5,9.689-21.928,4.381-7.754,8.616-11.438,12.963-11.265,7.471.3,43.213,9.942,73.26,18.776,16.918,4.974,32.378,9.786,43.534,13.552,6.1,2.057,10.865,3.786,14.173,5.138,5.509,2.251,6.026,3.061,6.13,3.885a5.918,5.918,0,0,1,0,1.092M80.659,217.716h0Zm306.879-56.2ZM171.854,89.195c.787.151,1.676.333,2.682.552,4.629,1.007,11.189,2.68,19.5,4.972,15.443,4.26,36.374,10.5,60.532,18.037,31.936,9.968,64.794,20.737,90.146,29.546,23.085,8.021,34.257,12.4,39.692,14.917,1.031-3.286,1.724-5.61,1.842-6.311a1.127,1.127,0,0,1,.684-1.21c1.244-1.02,8.411-10.136,21.837-28.479,10.1-13.8,18.822-26.122,20.887-29.487-1.708-.988-8.912-4.081-38.853-13.322-22.2-6.852-51.668-15.474-82.978-24.279C253.736,38.92,194.347,23.273,175.172,20.218c3.493,1.242,9.442,3.184,19.561,6.217,13.034,3.908,31.487,9.184,54.847,15.682,42.6,11.85,94.029,25.683,128.06,34.837,12.236,3.291,22.8,6.133,30.09,8.111,3.836,1.041,6.608,1.8,8.473,2.322,1.007.281,1.743.491,2.249.64.869.257,1.69.5,1.56,1.481a1.139,1.139,0,0,1-.756.919c-1.368,1.127-7.879,10.957-13.635,19.647-5.318,8.031-11.347,17.133-16.428,24.266-7.864,11.037-10.205,12.809-11.563,13.081-.665.133-2.221.445-33.436-8.942-17.575-5.284-41.468-12.724-67.277-20.948-24.5-7.806-48.906-15.743-66.964-21.777C179.174,85.47,178.044,84.5,177.618,84.136c-.494-.424-1.652-1.416-4.808-13.911-1.81-7.165-3.892-16.615-5.862-26.607-.937-4.753-4.645-23.939-5.7-35.048a17.608,17.608,0,0,0-3.551-.512c-.236.231-1.327,1.908-.021,12.619.787,6.461,2.313,15.17,4.533,25.884C166,64.832,170.554,82.823,170.6,83c.007.031.014.061.019.092s.55,3.279,1.236,6.1M387.1,151.838h0m-.374-.163a1.112,1.112,0,0,0,.373.163,1.127,1.127,0,0,1-.373-.163m.622-2.062h0Zm.01,0h0M166.746,90.876Zm-3.39-84.154C174.4,9.1,205.623,17.263,296.719,43.77c61.105,17.781,122.25,36,132.575,39.084a14,14,0,0,0-.309-2.125c-5.3-2.256-65.164-21.4-131.378-41.488C261.369,28.246,230.233,19.1,207.565,12.8,194.442,9.152,184,6.409,176.528,4.65c-9.4-2.214-12.334-2.446-13.242-2.4a23.492,23.492,0,0,0,.07,4.468m-5.627,1.312Z" transform="translate(0 0)" fill="#a5a5a5"/>
  </g>
</svg>
