<svg xmlns="http://www.w3.org/2000/svg" width="676.281" height="426.529" viewBox="0 0 676.281 426.529">
  <path id="Path_5956" data-name="Path 5956" d="M313.246,426.529a29.624,29.624,0,0,1-3.959-.347c-3.124-.438-7.37-1.273-12.979-2.552-10.159-2.317-22.524-5.585-32.461-8.21-7.7-2.035-13.784-3.643-16.017-4.062-1.406-.263-2.768-.587-4.15-.98a1.709,1.709,0,0,1-.173.056,1.285,1.285,0,0,1-1.317-.419c-.032-.035-.062-.073-.092-.114-4.123-1.312-8.624-3.25-15.1-6.041-3.481-1.5-7.426-3.2-12.234-5.2-12.136-5.056-28.3-4.389-40.1-3.9-5.809.24-10.4.429-13.271-.079-1.067-.189-1.756-1.107-2.045-2.728-1.4-7.826,6.038-36.61,13.463-60.938,3.973-13.019,8.141-25.482,11.735-35.093,6-16.032,7.712-17.033,8.357-17.41,1.147-.669,3.777-1.121,14.017,1.35,6.106,1.473,14.224,3.838,23.476,6.84,7.632,2.476,15.9,5.346,22.683,7.875,10.4,3.876,11.114,4.591,11.349,4.826.463.463.618,1.083.039,4.756-.342,2.172-.922,5.238-1.772,9.373-1.588,7.72-3.91,18.148-6.37,29.188-3.171,14.233-6.765,30.366-9.267,42.946-1.356,6.818-2.28,12.009-2.825,15.869-.323,2.287-.472,3.857-.53,4.932.363-1.02.84-2.529,1.449-4.757,1.03-3.77,2.262-8.907,3.765-15.7,2.771-12.532,6-28.66,8.852-42.89,2.115-10.561,4.114-20.536,5.7-27.924,2.647-12.359,3.148-12.859,3.55-13.262.643-.643,1.981-1.98,37.854,1.156,18.392,1.608,36.583,3.608,39.4,4.121a1.752,1.752,0,0,0,1.606-.306c1.638-1.412,1.469-6.722,1.319-11.406-.047-1.48-.1-3.01-.1-4.464a6.318,6.318,0,0,1,1.955-4.766c1.8-1.709,4.7-2.549,8.1-2.917a32.818,32.818,0,0,1-1.653-12.47,46.328,46.328,0,0,1,6.171-20.067c3.212-5.6,7.239-10,10.772-11.767,6.935-3.467,19.745-1.04,28.77,1.1,4.713.157,8.685.98,9.835,2.129a1.163,1.163,0,0,1,.263,1.433c-.467.824-1.5.607-2.6.376-.911-.191-2.142-.5-3.7-.887-1.186-.3-2.568-.64-4.082-1-.9-.026-1.844-.027-2.837,0-4.271.131-12.357.98-18.538,5.194-4.483,3.057-7.12,9.149-7.054,16.3a27.567,27.567,0,0,0,9.619,20.985,28.533,28.533,0,0,1,1.612-2.377c1.012-1.265,3.19-2.071,5.11-2.782l.232-.086-.133-.02c-4.449-.635-6.932-6.631-6.682-11.822.223-4.625,2.653-9.666,8.8-9.946,5.674-.256,9.029,2.092,11.725,3.982,2.791,1.955,4.636,3.248,8.016,1.218,3.268-1.96,2.772-6.132,2.334-9.813-.322-2.709-.576-4.85.786-5.919,1.13-.886,2.733-.437,3.839-.022,2.47.926,4.537,3.2,5.976,6.568,3.165,7.41,3.018,19.341-.334,27.162-2.081,4.856-7.086,8.789-13.731,10.794a32.489,32.489,0,0,1-20.57-.669c0,.029,0,.057,0,.085,0,1.474-2.266,5.113-4.813,7.1a5.942,5.942,0,0,1-5.061,1.483,2.51,2.51,0,0,1-1.816-1.69c-.825-2.445,1.25-7.172,3.284-10.836a31.588,31.588,0,0,0-8.852-1.6l-1.386-.068c-3.308-.162-6.977-.343-10.322-.214a30.924,30.924,0,0,0,11.809,13.046,50.221,50.221,0,0,0,20.464,7.757,45.414,45.414,0,0,0,18.217-1.223c11.275-3.1,19.059-9.8,21.52-14.723a61.343,61.343,0,0,0,5.181-17.491c1.266-8.782.486-16.882-2.258-23.426-3.758-8.966-11.172-15.3-22.035-18.816a56.4,56.4,0,0,0-19.67-3.048,34.779,34.779,0,0,0-13.253,3.09,25.666,25.666,0,0,0-9.565,7.361,2.049,2.049,0,0,1-.323.783c-.323.484-.924,1.382-1.817.9a1.08,1.08,0,0,1-.428-1.451,4.838,4.838,0,0,1,.334-.606,10.137,10.137,0,0,0-2.733-1.042c-1.844-.512-4.254-1.007-7.043-1.579-8.7-1.784-19.984-4.1-25.615-9.355-3.886,11.548-7.518,21.936-10.506,30.033-7.279,19.726-8.575,20.158-9.349,20.416-.951.316-3.18,1.058-102.99-27.225-51.122-14.487-100.743-28.921-103.921-29.9-6.588-2.028-12.9.88-16.483,7.589-1.526,2.86.1,17.274,1.666,31.212q.09.8.18,1.6c2.109,9.478,3.791,17.838,4.936,24.547,2.868,16.808,1.724,19.525,1.348,20.418-1.082,2.57-5.21,4.775-12.99,6.938a201.385,201.385,0,0,1-23.39,4.616c-16.464,2.442-32.915,3.74-33.837,3.74-.769,0-1.061-.705-1.185-1.007-1.464-3.533-7.287-29.892-12.071-53.336-2.684-13.155-4.991-25.125-6.5-33.706-2.77-15.789-2.253-16.306-1.706-16.853.29-.29.892-.891,9.6-3.065,5.325-1.329,12.287-2.882,19.1-4.262,8.325-1.685,28.4-5.525,35.021-4.769,1.394.159,2.194.515,2.594,1.156C74.3,206.485,82.2,243.7,83.764,251.125c2.449,11.625,4.664,22.619,6.237,30.957,1.1,5.812,1.707,9.373,2.03,11.586.048-1.521.047-3.3-.016-5.371-.254-8.247-1.39-18.65-2.537-28.857-.716-3.217-1.481-6.563-2.292-10.017-5.813-24.786-12.251-48.017-13.458-50.368-.243-.17-1.979-1-12.016-.044-6.309.6-14.829,1.8-23.993,3.391-8.535,1.479-17.224,3.225-23.839,4.79-9.489,2.244-11.4,3.312-11.75,3.568-.156.615-.3,3.627,2.313,18.235,1.64,9.173,4.136,21.643,7.218,36.061,5.556,26,11.087,49.414,12.156,52.667a1.027,1.027,0,0,1,.3.727,1.083,1.083,0,0,1-.76,1.1,1.061,1.061,0,0,1-1.193-.458c-.166-.256-.607-.938-4.5-17.629-2.552-10.941-5.507-24.2-8.106-36.38C6.4,250.3,3.873,237.623,2.245,228.418-.831,211.024-.025,210.084.509,209.462c.361-.421,1.205-1.407,10.965-3.811,5.75-1.416,13.31-3,21.29-4.461,14.578-2.668,32.591-5.273,39.429-4.581,1.859.188,2.88.618,3.311,1.394,1.237,2.227,6.829,22.405,12.169,44.553-.852-9.16-1-15.023.177-17.236a17.5,17.5,0,0,1,8.4-8.11,15.079,15.079,0,0,1,10.506-.48c3.113.958,52.135,15.219,102.832,29.59,83.594,23.7,100.467,27.5,102.769,27.529.54-.6,2.475-3.764,8.552-20.337,2.991-8.156,6.594-18.5,10.423-29.9a10.009,10.009,0,0,1-1.415-2.662,1.028,1.028,0,0,1-.057-.311c-.224-8.89,10.8-43.143,18.089-65.809,1.064-3.306,2.071-6.437,2.913-9.093-3.878-1.789-11.982-5.076-28.883-11.055-18.039-6.382-42.02-14.394-67.525-22.559-25.562-8.184-49.738-15.587-68.075-20.846-15.6-4.473-24.045-6.553-28.622-7.493.07.209.141.4.211.578.154.385.371.927-.845,6.047a4.414,4.414,0,0,1,.72-.872c.675-.6,2.019-.963,10.927,1.165,5.588,1.334,13.379,3.475,23.159,6.365,17.794,5.257,41.884,12.926,66.094,21.04,20.766,6.96,39.876,13.658,53.81,18.862,24.216,9.043,24.485,10.389,24.663,11.28.11.549.4,2.007-2.778,13.072-2.183,7.6-5.108,16.653-7.177,22.909-2.569,7.767-5.356,15.87-7.648,22.232-3.689,10.243-4.164,10.718-4.419,10.973-.458.457-1.03.465-3.06.04-1.243-.26-3.046-.7-5.36-1.3-4.211-1.1-10.114-2.75-18.045-5.039-7.767-2.242-16.8-4.9-26.093-7.664a226.646,226.646,0,0,1-5.833,23.267,163.884,163.884,0,0,1-5.632,16.143c-2.929,6.877-4.632,8-5.788,8.211a3.729,3.729,0,0,1-.644.047c-5.574,0-29.244-7.432-34.121-8.982-14.058-4.469-31.523-10.564-34.48-13.033a1.78,1.78,0,0,1-.733-1.294,175.777,175.777,0,0,1,3.621-21.376c3.034-13.4,6.362-21.652,9.894-24.518a4.559,4.559,0,0,1,3.908-1.122c3.847.81,23.4,6.652,46.035,13.417,6.9,2.062,14.381,4.3,21.857,6.52-.9-.636-4.5-2.466-18.742-7.218-10.374-3.462-24.425-7.812-39.565-12.247-27.575-8.078-58.739-16.386-64.948-16.634-.061,0-.123,0-.184,0-7.176,0-13.729,16.771-18.525,29.045-3.627,9.282-5.79,14.594-8.059,15.832a1.26,1.26,0,0,1-1.669-.325c-.518-.693-1.3-1.739,4.79-21.7,3.343-10.955,8.294-26,13.941-42.373,5.265-15.265,10.807-30.718,15.2-42.4,7.4-19.66,8.591-20.849,8.982-21.24.408-.408,1.015-.69,3.7-.307-.512-2.248-.89-4.46-.951-4.821-.24-.947-4.418-17.525-7.837-34.131-2.061-10.01-3.448-18.078-4.123-23.979a53.279,53.279,0,0,1-.448-8.348c.091-1.681.394-3.977,1.968-4.5.3-.1.749-.249,3.729.317a14.689,14.689,0,0,1,.176-4.747c.362-.994,1.632-.977,2.175-.97,10.657.145,85.262,22.388,128.784,35.633,27.062,8.236,55.991,17.223,79.371,24.655,10.679,3.4,19.609,6.28,25.825,8.342,10.247,3.4,10.285,3.515,10.5,4.159a17.132,17.132,0,0,1,.558,4.373,1.031,1.031,0,0,1-1.326.988c-.6-.18-60.995-18.218-121.644-35.87-35.618-10.367-64.353-18.575-85.405-24.394-20.542-5.679-31.233-8.378-36.722-9.6.173,1.682.43,3.784.8,6.408.954,6.708,2.468,15.429,4.263,24.555C156.412,48.3,158.3,56.9,159.945,63.44c2.543,10.113,3.588,11.688,3.8,11.919,2.348,1.555,41.787,14.753,89.976,30.109,50.6,16.124,87.922,27.3,91.145,27.3h.043c.43-.13,2.319-1.355,9.348-11.228,4.612-6.479,10.084-14.741,14.913-22.032,7.049-10.643,10.216-15.309,11.879-17.329-4.642-1.315-18.926-5.157-36.281-9.825C312.85,63.77,264.615,50.8,225.149,39.8c-21.659-6.035-38.535-10.88-50.159-14.4-6.589-1.995-11.649-3.611-15.039-4.8-1.807-.636-3.188-1.169-4.106-1.586-.889-.4-2.106-.955-1.933-2,.2-1.2,1.74-1.1,2.661-1.039,11.982.764,72.256,16.566,126.676,31.888,28.892,8.134,55.9,16.051,76.057,22.291,34.409,10.653,35.283,12.175,35.7,12.907a1.192,1.192,0,0,1,.047,1.143c-1.109,2.22-11.261,16.451-20.25,28.714-5.092,6.947-9.779,13.222-13.2,17.668-3.919,5.1-5.576,7.058-6.423,7.814-.159.863-.65,2.565-1.82,6.28,2.745,1.422,2.845,1.97,2.923,2.4.111.613.407,2.242-5.606,22.545-3.531,11.919-8.492,27.691-13.613,43.273-1.153,3.508-2.3,6.952-3.42,10.307,1.771,1.953,4.634,3.667,8.649,5.19a113.016,113.016,0,0,0,16.648,4.326c5.775,1.184,9.068,1.9,10.593,2.988a28.385,28.385,0,0,1,9.747-7.224,36.857,36.857,0,0,1,14.024-3.26,58.506,58.506,0,0,1,20.356,3.148c11.461,3.713,19.3,10.436,23.3,19.981,2.888,6.889,3.716,15.367,2.4,24.518a63.551,63.551,0,0,1-5.378,18.119,26.507,26.507,0,0,1-8.274,8.936,45.919,45.919,0,0,1-14.544,6.853,47.471,47.471,0,0,1-19.04,1.278,52.25,52.25,0,0,1-21.3-8.066c-6.757-4.344-10.705-9.5-12.906-14.642-3.221.291-5.945.98-7.449,2.412a4.278,4.278,0,0,0-1.314,3.273c0,1.421.048,2.935.1,4.4.18,5.646.351,10.979-2.034,13.034a3.807,3.807,0,0,1-3.321.772c-2.693-.489-20.39-2.437-38.388-4.022-24.825-2.187-35.356-2.361-37.039-1.785-1.115,2.3-4.962,21.507-8.684,40.093-2.942,14.689-6.277,31.338-9.112,44.059-1.543,6.927-2.8,12.077-3.837,15.745a40.085,40.085,0,0,1-1.782,5.3c1.049.279,2.09.515,3.154.715,2.307.433,8.422,2.049,16.164,4.095,9.536,2.52,21.4,5.656,31.324,7.948,5.365,1.24,9.674,2.117,12.809,2.607,4.335.679,5.59.49,5.923.384.13-.3.345-.925.635-1.842a54.568,54.568,0,0,1-7.13-.559c-3.122-.781-7.568-1.623-12.715-2.6-15.25-2.89-34.229-6.488-40.8-12.29-1.7-1.5-1.2-2.39-1.034-2.683.59-1.055,2.2-1.421,8.682-.166,3.878.751,9.242,2.049,15.943,3.859,11.88,3.209,25.061,7.244,30.023,8.763l1.682.514c.322-.338,1.189-1.58,2.885-6.082,1.323-3.51,2.91-8.333,4.854-14.746,3.593-11.855,7.677-26.749,11.625-41.153,7.256-26.466,11.45-41.527,13.266-43.343a1.183,1.183,0,0,1,1.6-.175c.635.485.819,1.217-.079,6.19-.539,2.982-1.442,7.242-2.683,12.663-2.765,12.074-6.581,27.192-9.3,37.748-5.1,19.849-11.144,42.311-14.081,52.125,57.728,1.971,354.179-.015,357.437-.036h.007a1.031,1.031,0,0,1,.007,2.063c-8.759.06-136.606.916-239.106.916-53.234,0-99.624-.231-118.96-.924a22.862,22.862,0,0,1-1.031,2.914c-.349.612-1.048,1.01-2.913,1.01m-57.509-21.041.045.039c6.15,5.428,25.612,9.117,39.822,11.81,5.179.982,9.652,1.829,12.831,2.624a56.166,56.166,0,0,0,7.248.547c2.477-8.267,7.933-28.217,13.833-51.11,6.851-26.582,10.507-42.346,12.033-50.195-.631,1.928-1.425,4.487-2.422,7.881-2.283,7.769-5.089,18-8.06,28.84-3.972,14.489-8.08,29.472-11.693,41.379-5.483,18.069-7.462,21.237-8.783,21.969a1.5,1.5,0,0,1-1.184.149c-.379-.114-1.055-.321-1.979-.6-5.178-1.585-17.3-5.3-28.838-8.441-6.475-1.764-11.752-3.07-15.683-3.882a35.47,35.47,0,0,0-7.17-1.008m-68.7-13.126c9.546,0,19.935.815,28.517,4.391,4.82,2.008,8.771,3.71,12.257,5.211,5.838,2.514,10.046,4.326,13.8,5.6-.034-2.728.695-8.516,3.278-21.58,2.515-12.719,6.184-29.188,9.421-43.719,4.025-18.068,8.571-38.476,8.476-41.521-2.268-1.313-17.276-6.991-33.43-12.218-9.117-2.951-17.1-5.269-23.084-6.706-9.837-2.361-11.927-1.771-12.334-1.534-.277.17-1.921,1.7-7.009,15.139-3.327,8.787-7.26,20.4-11.074,32.688-6.977,22.482-14.483,50.345-14.626,61.124-.037,2.795.471,3.353.531,3.408,2.657.466,7.364.272,12.813.047,3.8-.156,8.041-.332,12.465-.332M7.744,215.846c-.17,2.649,2.531,19.19,9.1,51.2,5.106,24.871,10.014,46.583,11.331,50.216,3.119-.217,17.72-1.421,33.029-3.695a198.685,198.685,0,0,0,23.086-4.56c9.058-2.522,11.16-4.68,11.606-5.741.481-1.141.928-5.162-1.48-19.271q-.4-2.316-.875-4.89c.257,3.227.446,6.3.533,9.129.335,10.872-.944,15.945-4.146,16.45-3.444.544-12.04,1.274-21.722,1.989a6.223,6.223,0,0,1-2.022,2.82c-2.285,2.03-4.834,2.562-6.82,1.423a5.282,5.282,0,0,1-2.436-3.444c-13.807.942-26.722,1.712-27.771,1.774a1.031,1.031,0,0,1-.408-2c.585-.209,14.452-5.117,25.626-5.117q2.052,0,3.764.065c2.971-2.253,10.914-3.21,21.9-4.292,4.014-.4,8.94-.88,10.254-1.371-.128-3.145-3.86-22.762-8.749-45.916-5.323-25.207-9.75-44-10.822-45.949-.3-.186-1.991-.794-10.69.259-5.5.665-12.8,1.875-21.122,3.5-15.154,2.954-28.934,6.359-31.171,7.423m51.295,91.481a3.126,3.126,0,0,0,1.355,1.8c1.2.687,2.809.258,4.423-1.176a7.186,7.186,0,0,0,1.045-1.106c-2.25.163-4.542.324-6.822.482m-4.66-3.135a70.465,70.465,0,0,0-16.324,2.442c5.074-.318,11.764-.748,18.68-1.22a8.95,8.95,0,0,1,.125-1.192q-1.145-.029-2.481-.03m4.571.112a.436.436,0,0,0-.022.07,6.937,6.937,0,0,0-.12.9c1.722-.119,3.452-.24,5.163-.363a30.524,30.524,0,0,0-5.021-.605m3.5-1.77c2.875.387,4.568,1.067,5.341,2.1,9.758-.719,18.43-1.45,21.815-1.985.542-.085,1.523-.79,2.067-4.515-1.12.734-3.973,1.089-11.431,1.824-4.728.465-10.089.993-14.34,1.79-1.42.266-2.551.532-3.452.789m206.083.77h0m-5.776-2.785h0M382.618,287.85c-1.933,3.5-3.8,7.8-3.254,9.412a.446.446,0,0,0,.362.348,3.751,3.751,0,0,0,3.035-.915,13.114,13.114,0,0,0,4.273-5.642c-.168-.5-1.579-1.917-4.415-3.2M90.294,296.845h0m296.748-5.761h0m-3.288-5.185c.109.074.219.148.33.221a30.183,30.183,0,0,0,24.987,3.516c5.971-1.8,10.618-5.4,12.431-9.632a34.913,34.913,0,0,0,2.446-12.915,32.091,32.091,0,0,0-2.114-12.625c-1.212-2.84-2.874-4.724-4.8-5.447-1.179-.442-1.713-.388-1.843-.286-.45.354-.186,2.58-.01,4.053.46,3.874,1.091,9.179-3.321,11.825-4.529,2.718-7.313.767-10.261-1.3-2.567-1.8-5.475-3.837-10.447-3.61-6,.272-6.749,6.181-6.837,7.985-.207,4.307,1.717,9.225,4.914,9.681,1.876.268,3.32.564,3.443,1.715.124,1.166-1.1,1.618-3.118,2.366-1.5.556-3.562,1.318-4.216,2.136a24.368,24.368,0,0,0-1.581,2.317m-21.229-2.807c2.649,0,5.4.135,8.032.265l1.382.067a35.824,35.824,0,0,1,6.8.952,30.066,30.066,0,0,1-8.31-20.671c-.072-7.839,2.9-14.576,7.955-18.022a33.8,33.8,0,0,1,14.654-5.151c-7.234-1.288-15.118-1.928-19.678.351-3.137,1.569-6.932,5.764-9.9,10.948a44.227,44.227,0,0,0-5.9,19.152,30.493,30.493,0,0,0,1.736,12.188c1.05-.056,2.132-.08,3.232-.08M176.762,227.558c.464.387,2.436,1.632,10.7,4.741,5.922,2.228,13.782,4.924,22.131,7.592,17.885,5.716,32.48,9.574,34.7,9.168.142-.026,1.471-.442,4.26-6.99a161.7,161.7,0,0,0,5.555-15.93,219.6,219.6,0,0,0,5.826-23.261c-7.519-2.235-15.156-4.517-22.38-6.676-22.594-6.752-42.106-12.583-45.87-13.375a2.575,2.575,0,0,0-2.184.706c-3.075,2.5-6.336,10.8-9.183,23.373a189.127,189.127,0,0,0-3.559,20.652m191.481,10.168h0Zm-36.321-17.3q.118.32.268.633c1.06-3.172,2.135-6.419,3.216-9.716,5.032-15.337,9.9-30.827,13.353-42.5,4.931-16.662,5.5-20.415,5.506-21.255a7.876,7.876,0,0,0-1.526-.942c-.727,2.287-1.653,5.171-2.825,8.813-6.768,21.033-18.066,56.149-17.993,64.964m-69.737-19.032c23.895,7.1,47.19,13.878,50.958,14.308,1.254-2.575,6.295-16.531,11.622-32.668,7.387-22.38,9.844-32.333,9.729-34.227-.666-.62-4.675-3.054-28.076-11.646-15.848-5.82-36.651-13.02-58.575-20.273C225.5,109.5,204.5,102.884,188.716,98.27c-24.333-7.114-28.776-7.288-29.579-7.115-.819.867-2.639,4.725-5.617,12.742-1.026,3.61-2.2,7.621-3.481,11.921-4.77,15.966-9.837,31.681-11.785,36.553-.4,1.008-.671,1.676-1.451,1.676h-.016a1.042,1.042,0,0,1-.97-.685c-.155-.413-.277-.74,2.618-10.38,1.844-6.141,4.22-13.669,6.519-20.653,2.436-7.4,4.7-13.942,6.613-19.1,3.166-11.154,4.545-17.107,4.461-18.174-.187-.48-.373-1.066-.551-1.705a11.743,11.743,0,0,0-2.884-.28c-.479.678-2.24,4-8.309,20.105-4.3,11.406-9.741,26.564-14.932,41.587-5.551,16.064-10.477,30.986-13.871,42.021-3.705,12.044-4.936,17.324-5.308,19.637,1.665-2.521,3.835-8.074,5.948-13.481,2.6-6.643,5.539-14.173,8.86-20.051,4.007-7.09,7.889-10.458,11.853-10.3,6.832.273,39.513,9.091,66.987,17.168,15.469,4.548,29.606,8.948,39.807,12.391,5.575,1.882,9.935,3.462,12.959,4.7,5.037,2.059,5.51,2.8,5.6,3.552a5.434,5.434,0,0,1,0,1M2.154,210.682h0m71.6-11.608h0M157.139,81.558c.72.138,1.533.3,2.452.5,4.232.921,10.231,2.451,17.828,4.546,14.12,3.895,33.26,9.6,55.349,16.493,29.2,9.114,59.246,18.961,82.428,27.016,21.108,7.335,31.323,11.337,36.293,13.64.942-3,1.576-5.13,1.684-5.771a1.067,1.067,0,0,1,0-.267,1.032,1.032,0,0,1,.63-.84c1.138-.932,7.691-9.268,19.968-26.04,9.234-12.614,17.211-23.885,19.1-26.962-1.562-.9-8.149-3.732-35.527-12.181-20.3-6.265-47.244-14.149-75.873-22.2C232.01,35.587,177.706,21.28,160.173,18.487c3.193,1.135,8.634,2.911,17.886,5.685,11.918,3.573,28.791,8.4,50.15,14.339,38.953,10.835,85.978,23.484,117.1,31.854,11.188,3.009,20.85,5.608,27.514,7.417,3.507.952,6.042,1.646,7.748,2.123.921.257,1.593.449,2.055.586.795.235,1.545.457,1.427,1.354a1.043,1.043,0,0,1-.691.84c-1.251,1.03-7.2,10.019-12.468,17.965-4.863,7.343-10.375,15.665-15.022,22.187-7.191,10.092-9.331,11.713-10.573,11.961-.607.122-2.03.407-30.573-8.175-16.07-4.832-37.917-11.634-61.517-19.154-22.4-7.137-44.718-14.4-61.23-19.913-28.142-9.4-29.177-10.29-29.566-10.623-.452-.387-1.51-1.295-4.4-12.72-1.655-6.552-3.558-15.192-5.36-24.329-.857-4.347-4.248-21.89-5.209-32.047a16.13,16.13,0,0,0-3.247-.468c-.216.211-1.213,1.746-.02,11.54.72,5.909,2.115,13.873,4.146,23.671,3.463,16.708,7.627,33.152,7.668,33.317.007.028.013.056.018.084s.5,3,1.13,5.578m196.474,57.128a1.019,1.019,0,0,0,.35.153,1.023,1.023,0,0,1-.35-.153M159.066,91.174h0m-9.7-85.028c10.1,2.175,38.647,9.638,121.944,33.876C327.186,56.281,383.1,72.943,392.536,75.759a12.853,12.853,0,0,0-.283-1.943c-4.842-2.063-59.585-19.567-120.129-37.936C238.99,25.828,210.52,17.468,189.792,11.7c-12-3.336-21.548-5.844-28.38-7.453-8.6-2.024-11.277-2.237-12.108-2.191a21.437,21.437,0,0,0,.064,4.086" transform="translate(0 0)" fill="#a5a5a5"/>
</svg>
