<svg xmlns="http://www.w3.org/2000/svg" xmlns:xlink="http://www.w3.org/1999/xlink" width="252.484" height="41" viewBox="0 0 252.484 41">
  <defs>
    <clipPath id="clip-path">
      <rect id="Rectangle_42" data-name="Rectangle 42" width="21.253" height="21.039" fill="none"/>
    </clipPath>
  </defs>
  <g id="Group_4434" data-name="Group 4434" transform="translate(12555 -108)">
    <path id="Path_6251" data-name="Path 6251" d="M13.692-3.507l.084,2A3.336,3.336,0,0,0,14.154,0H9.828a3.764,3.764,0,0,1-.294-1.512l-.063-1.7a2.1,2.1,0,0,0-.514-1.544,2.3,2.3,0,0,0-1.523-.41H5.25V0H1.05V-14.952H8.4a6.131,6.131,0,0,1,4.221,1.239,4.187,4.187,0,0,1,1.344,3.192,3.741,3.741,0,0,1-.6,2.079,3.871,3.871,0,0,1-1.732,1.428A2.766,2.766,0,0,1,13.2-5.8,5.4,5.4,0,0,1,13.692-3.507ZM5.25-11.676v3.444H7.77q1.869,0,1.869-1.722T7.77-11.676ZM32.214,0H27.762l-.63-1.953H21.273L20.643,0H16.359l5.313-14.952h5.04ZM23.457-8.862,22.365-5.418H26L24.885-8.862q-.588-1.806-.714-2.373Q23.646-9.492,23.457-8.862Zm23.079-6.09v3.738H39.354v1.953h6.72v3.528s-5.04-1.433-6.72,0,0,5.733,0,5.733h-4.2V-14.952ZM63.756,0H59.3l-.63-1.953H52.815L52.185,0H47.9l5.313-14.952h5.04ZM55-8.862,53.907-5.418H57.54L56.427-8.862q-.588-1.806-.714-2.373Q55.188-9.492,55-8.862Zm23.5-6.09v3.738H70.9V-9.24h6.93v3.486H70.9v2.016h7.6V0H66.7V-14.952Zm7.875,0V-3.738h6.615V0H82.173V-14.952Zm16.464,0h13.02v3.738h-4.41V0h-4.2V-11.214h-4.41ZM123.417,0h-4.2V-14.952h4.2Zm16.842-3.507.084,2A3.336,3.336,0,0,0,140.721,0H136.4a3.764,3.764,0,0,1-.294-1.512l-.063-1.7a2.1,2.1,0,0,0-.514-1.544A2.3,2.3,0,0,0,134-5.166h-2.184V0h-4.2V-14.952h7.35a6.131,6.131,0,0,1,4.221,1.239,4.187,4.187,0,0,1,1.344,3.192,3.741,3.741,0,0,1-.6,2.079A3.871,3.871,0,0,1,138.2-7.014,2.766,2.766,0,0,1,139.766-5.8,5.4,5.4,0,0,1,140.259-3.507Zm-8.442-8.169v3.444h2.52q1.869,0,1.869-1.722t-1.869-1.722ZM158.781,0h-4.452l-.63-1.953H147.84L147.21,0h-4.284l5.313-14.952h5.04Zm-8.757-8.862-1.092,3.444h3.633l-1.113-3.444q-.588-1.806-.714-2.373Q150.213-9.492,150.024-8.862Zm11.7-6.09h6.531q3.885,0,5.817,2.016A7.608,7.608,0,0,1,176-7.476a7.608,7.608,0,0,1-1.932,5.46Q172.137,0,168.252,0h-6.531Zm4.2,11.424h2.247q3.465,0,3.465-3.948t-3.465-3.948h-2.247Zm26.565,1.722A7.736,7.736,0,0,1,186.795.336,7.736,7.736,0,0,1,181.1-1.806a7.537,7.537,0,0,1-2.163-5.67,7.651,7.651,0,0,1,2.163-5.691,7.824,7.824,0,0,1,5.691-2.121,7.824,7.824,0,0,1,5.691,2.121,7.651,7.651,0,0,1,2.163,5.691A7.537,7.537,0,0,1,192.486-1.806Zm-8.232-2.6A3.163,3.163,0,0,0,186.795-3.3a3.163,3.163,0,0,0,2.541-1.113,4.539,4.539,0,0,0,.945-3.066,4.6,4.6,0,0,0-.945-3.055,3.15,3.15,0,0,0-2.541-1.123,3.15,3.15,0,0,0-2.541,1.123,4.6,4.6,0,0,0-.945,3.055A4.539,4.539,0,0,0,184.254-4.41Z" transform="translate(-12497.165 136)" fill="#fff"/>
    <g id="Group_4433" data-name="Group 4433" transform="translate(-12646 98)">
      <g id="Group_27" data-name="Group 27" transform="translate(101.837 19.561)">
        <path id="Path_31" data-name="Path 31" d="M27.863,37.274l3.759,5.218h5.732l-4.488-6.613Z" transform="translate(-16.66 -21.453)" fill="#fff"/>
        <g id="Group_26" data-name="Group 26" transform="translate(0 0)">
          <g id="Group_25" data-name="Group 25" clip-path="url(#clip-path)">
            <path id="Path_32" data-name="Path 32" d="M16.518,2.174c-.453-.064-.959-.1-1.4-.126h-4.1L11.54,0H6.21L5.691,2.048H1.23L0,6.9H4.462L.88,21.039H6.21L9.792,6.9h6.247a.516.516,0,0,1,.133,1.007l-5.64,1.408-1.408,5.56,8.508-2.331c2.9-.819,3.621-2.852,3.621-5.1a5.544,5.544,0,0,0-4.736-5.273" transform="translate(0 0)" fill="#fff"/>
          </g>
        </g>
      </g>
      <g id="Ellipse_7" data-name="Ellipse 7" transform="translate(91 10)" fill="none" stroke="#fff" stroke-width="1.5">
        <circle cx="20.5" cy="20.5" r="20.5" stroke="none"/>
        <circle cx="20.5" cy="20.5" r="19.75" fill="none"/>
      </g>
    </g>
  </g>
</svg>
