<svg xmlns="http://www.w3.org/2000/svg" width="33" height="23" viewBox="0 0 33 23">
  <g id="Group_4430" data-name="Group 4430" transform="translate(-1507.5 -17.5)">
    <g id="menu_1_" data-name="menu (1)" transform="translate(1506.3 13)">
      <path id="Line_210" data-name="Line 210" d="M30,1.5H0A1.5,1.5,0,0,1-1.5,0,1.5,1.5,0,0,1,0-1.5H30A1.5,1.5,0,0,1,31.5,0,1.5,1.5,0,0,1,30,1.5Z" transform="translate(2.701 16)" fill="#fff"/>
      <path id="Line_211" data-name="Line 211" d="M30,1.5H0A1.5,1.5,0,0,1-1.5,0,1.5,1.5,0,0,1,0-1.5H30A1.5,1.5,0,0,1,31.5,0,1.5,1.5,0,0,1,30,1.5Z" transform="translate(2.701 6)" fill="#fff"/>
      <path id="Line_212" data-name="Line 212" d="M30,1.5H0A1.5,1.5,0,0,1-1.5,0,1.5,1.5,0,0,1,0-1.5H30A1.5,1.5,0,0,1,31.5,0,1.5,1.5,0,0,1,30,1.5Z" transform="translate(2.701 26)" fill="#fff"/>
    </g>
  </g>
</svg>
