<svg id="Group_4397" data-name="Group 4397" xmlns="http://www.w3.org/2000/svg" xmlns:xlink="http://www.w3.org/1999/xlink" width="142.418" height="222.177" viewBox="0 0 142.418 222.177">
  <defs>
    <clipPath id="clip-path">
      <rect id="Rectangle_2761" data-name="Rectangle 2761" width="142.418" height="222.177" fill="none"/>
    </clipPath>
  </defs>
  <g id="Group_4396" data-name="Group 4396" clip-path="url(#clip-path)">
    <path id="Path_5962" data-name="Path 5962" d="M142.349,150.94c.1-23.823.092-49.153-.028-77.426A97.088,97.088,0,0,0,141.164,58.8c-2.793-17.647-13.146-34.092-28.4-45.122A71.311,71.311,0,0,0,71.274,0,64.353,64.353,0,0,0,60.9.835C25.068,6.689.035,36.156.025,72.494Q.02,88.22.025,103.946V111.2q0,5.5-.014,11.006v.143C0,131.39-.02,140.734.077,149.924a87.623,87.623,0,0,0,1.076,12.954,70.508,70.508,0,0,0,31.922,48.069,71.156,71.156,0,0,0,38.27,11.229,68.889,68.889,0,0,0,18.832-2.614,71.143,71.143,0,0,0,52.172-68.623M78.9,210.716a61.551,61.551,0,0,1-7.493.458,60.164,60.164,0,0,1-60.41-60.329c-.063-29.725-.061-55.9.007-80.025A60.461,60.461,0,0,1,71.306,10.955c1.577,0,3.17.064,4.733.19a60.612,60.612,0,0,1,55.353,59.537c.069,9.205.051,18.568.034,27.622v.166q-.013,6.329-.016,12.659,0,6.592.012,13.185c.014,9,.028,18.314-.031,27.558A60.322,60.322,0,0,1,78.9,210.716" transform="translate(0)" fill="#a5a5a5"/>
    <path id="Path_5963" data-name="Path 5963" d="M122.766,70.412a6.835,6.835,0,0,0-1.875-4.966,5,5,0,0,0-3.541-1.4c-.073,0-.147,0-.221,0-3.209.106-5.286,2.6-5.3,6.353-.031,10.586-.031,21.024,0,31.023a6.8,6.8,0,0,0,1.858,4.96,5.13,5.13,0,0,0,3.777,1.406c3.192-.106,5.269-2.6,5.3-6.35.026-3.483.021-7.022.016-10.445v-.79q0-1.994,0-3.988,0-2.291.005-4.583c.006-3.667.013-7.458-.014-11.225" transform="translate(-46.098 -26.406)" fill="#a5a5a5"/>
  </g>
</svg>
